<svg width="70" height="70" viewBox="0 0 70 70" fill="none" xmlns="http://www.w3.org/2000/svg">
<g clip-path="url(#clip0_7833_5613)">
<path d="M35.0351 3.82422V3.83734C34.886 3.83528 34.7381 3.86371 34.6004 3.92088C34.4627 3.97806 34.3382 4.06278 34.2344 4.16984L28.1597 10.5136L24.6816 7.98922C24.5025 7.85937 24.2881 7.78691 24.0669 7.78141C23.9056 7.77551 23.745 7.80539 23.5966 7.86891C15.9491 11.1961 8.306 14.5145 0.658499 17.8352C0.428999 17.9326 0.239678 18.1055 0.121905 18.3253C0.00413125 18.545 -0.0350254 18.7984 0.0109227 19.0435C0.0568709 19.2885 0.185166 19.5105 0.37455 19.6727C0.563934 19.8349 0.80304 19.9275 1.05225 19.9352H0.732874L10.2922 26.8805L0.448499 34.038C0.262955 34.1732 0.124683 34.3634 0.053276 34.5817C-0.0181309 34.7999 -0.0190504 35.035 0.0506477 35.2538C0.120346 35.4726 0.257127 35.6639 0.441607 35.8006C0.626087 35.9373 0.84891 36.0125 1.0785 36.0155H0.866311L10.9376 40.3905V56.7311C10.9363 56.7756 10.9378 56.8202 10.9419 56.8645C10.9303 57.0905 10.9891 57.3146 11.1102 57.5058C11.2312 57.6969 11.4086 57.8459 11.6179 57.932L34.3176 67.6227C34.5363 67.7829 34.8069 67.8562 35.0766 67.8283C35.2721 67.8171 35.4609 67.7536 35.6235 67.6445L58.7126 57.7789C58.9121 57.698 59.0833 57.5599 59.2047 57.3821C59.3261 57.2042 59.3923 56.9945 59.3951 56.7792C59.3952 56.769 59.3952 56.7588 59.3951 56.7486C59.3951 56.7435 59.3951 56.7384 59.3951 56.7333V40.152L69.136 35.9214H68.9063C69.1384 35.9229 69.3649 35.8505 69.5531 35.7148C69.7413 35.579 69.8814 35.387 69.9533 35.1663C70.0251 34.9457 70.0249 34.7079 69.9527 34.4873C69.8805 34.2668 69.7401 34.075 69.5516 33.9395L59.3185 26.4911C59.3157 26.4838 59.3127 26.4765 59.3097 26.4692L68.2523 19.968H67.8979C68.148 19.9665 68.3901 19.8794 68.5838 19.7211C68.7775 19.5628 68.9111 19.3429 68.9623 19.098C69.0135 18.8531 68.9791 18.5981 68.8651 18.3755C68.751 18.1528 68.564 17.976 68.3354 17.8745L45.3907 7.90828C45.2558 7.85082 45.1107 7.82106 44.9641 7.82078C44.7292 7.81634 44.4991 7.88768 44.3079 8.02422L41.4904 10.0805L35.816 4.16109C35.7149 4.05564 35.5937 3.9715 35.4596 3.91364C35.3255 3.85578 35.1811 3.82538 35.0351 3.82422ZM35.0263 6.49297V6.51266L40.4141 12.1345C40.4903 12.252 40.5883 12.3537 40.7029 12.4342L42.2932 14.0967H39.9176C39.9088 14.0966 39.9001 14.0966 39.8913 14.0967L38.2376 14.1383C37.9528 14.1463 37.6824 14.265 37.4839 14.4693C37.2853 14.6735 37.1743 14.9472 37.1744 15.232V30.6167H32.8126V18.3798C32.8199 18.3071 32.8199 18.2338 32.8126 18.1611V15.2298C32.8126 14.9428 32.6998 14.6672 32.4984 14.4626C32.2971 14.2579 32.0233 14.1407 31.7363 14.1361L30.1001 14.1077C30.0913 14.1075 30.0826 14.1075 30.0738 14.1077H27.7288L35.0263 6.49516V6.49297ZM23.8963 10.122L26.6307 12.1083L24.3666 14.4752C24.218 14.6302 24.1183 14.8255 24.08 15.0368C24.0417 15.2481 24.0664 15.466 24.1511 15.6633C24.2357 15.8607 24.3766 16.0287 24.5562 16.1465C24.7357 16.2643 24.9459 16.3267 25.1607 16.3258L30.0694 16.3039H30.6251V17.5683L12.0991 25.487L3.28569 19.082L23.8963 10.122ZM45.0932 10.1614C51.9619 13.1452 58.8307 16.1333 65.7016 19.1148L57.2972 25.2289L39.3663 17.5639V16.2952L39.9394 16.2733L44.8482 16.258C45.0632 16.2584 45.2736 16.1954 45.4531 16.0769C45.6325 15.9584 45.7731 15.7896 45.8571 15.5916C45.9412 15.3937 45.965 15.1753 45.9256 14.9639C45.8862 14.7525 45.7854 14.5574 45.6357 14.403L43.0151 11.6686L45.0932 10.1614ZM39.3663 19.9439L55.5254 26.8564L35.0001 35.6283L28.3938 32.8064L19.9151 29.1817L14.4704 26.852L30.6251 19.9505V31.7127C30.6251 32.0027 30.7403 32.2809 30.9454 32.4861C31.1505 32.6912 31.4287 32.8064 31.7188 32.8064H38.2726C38.5626 32.8064 38.8408 32.6912 39.046 32.4861C39.2511 32.2809 39.3663 32.0027 39.3663 31.7127V19.9439ZM57.9294 28.2039L66.7144 34.5914L46.1038 43.5405L37.1963 37.0676L57.9294 28.2039ZM12.1385 28.2323L19.0554 31.1898L27.5363 34.8211L32.876 37.1027L23.9007 43.6258L12.8866 38.8417C12.7827 38.7102 12.65 38.6043 12.4986 38.5322C12.3473 38.4602 12.1814 38.4239 12.0138 38.4261C11.9897 38.4268 11.9656 38.4282 11.9416 38.4305L3.28569 34.6723L12.1385 28.2323ZM36.0938 38.9686L45.3185 45.6777H45.3229C45.3805 45.7193 45.442 45.7552 45.5066 45.7848C45.5081 45.7848 45.5095 45.7848 45.511 45.7848C45.5189 45.7923 45.5269 45.7995 45.5351 45.8067C45.593 45.8315 45.6531 45.8513 45.7144 45.8658C45.7506 45.8735 45.7871 45.8793 45.8238 45.8833C45.8231 45.8833 45.8245 45.8833 45.8238 45.8833C45.8581 45.8849 45.8946 45.8849 45.9288 45.8833C45.9419 45.8835 45.9551 45.8835 45.9682 45.8833C46.0417 45.8834 46.1149 45.876 46.1869 45.8614C46.221 45.8528 46.2545 45.8426 46.2876 45.8308C46.3224 45.8201 46.3567 45.8077 46.3904 45.7936C46.3947 45.7936 46.3991 45.7936 46.4035 45.7936L57.2097 41.1014V56.0377L36.0938 65.072V38.9686ZM33.9063 39.0561V65.0698L13.1251 56.1973V41.3442L23.5966 45.8942C23.6303 45.9068 23.6646 45.9178 23.6994 45.927C23.7246 45.9367 23.7502 45.9455 23.776 45.9533C23.7862 45.9534 23.7964 45.9534 23.8066 45.9533C23.8081 45.9533 23.8095 45.9533 23.811 45.9533C23.8808 45.9675 23.9519 45.9748 24.0232 45.9752C24.0246 45.9752 24.0261 45.9752 24.0276 45.9752C24.029 45.9752 24.0305 45.9752 24.0319 45.9752C24.1054 45.9752 24.1787 45.9679 24.2507 45.9533C24.3242 45.9388 24.396 45.9168 24.4651 45.8877C24.5309 45.8603 24.5939 45.8266 24.6532 45.787C24.6628 45.7799 24.6723 45.7726 24.6816 45.7652L33.9063 39.0561ZM44.7782 51.1792C44.643 51.1861 44.5102 51.218 44.3866 51.2733L38.5722 53.7561C38.4401 53.8124 38.3203 53.8942 38.2198 53.9968C38.1193 54.0993 38.0399 54.2207 37.9863 54.354C37.9327 54.4872 37.9058 54.6297 37.9073 54.7734C37.9087 54.917 37.9384 55.0589 37.9947 55.1911C38.0511 55.3232 38.1328 55.443 38.2354 55.5435C38.338 55.6441 38.4594 55.7234 38.5926 55.777C38.7259 55.8307 38.8684 55.8575 39.012 55.8561C39.1557 55.8546 39.2976 55.8249 39.4297 55.7686L45.2463 53.2814C45.4816 53.1816 45.6746 53.0026 45.7916 52.7753C45.9086 52.5481 45.9424 52.2871 45.8871 52.0375C45.8317 51.788 45.6907 51.5658 45.4885 51.4094C45.2864 51.253 45.0358 51.1723 44.7804 51.1814L44.7782 51.1792ZM50.5904 52.6711C50.4544 52.6777 50.3209 52.7096 50.1966 52.7652L44.3866 55.248L38.5722 57.7395C38.4401 57.7958 38.3203 57.8776 38.2198 57.9802C38.1193 58.0828 38.0399 58.2042 37.9863 58.3374C37.9327 58.4707 37.9058 58.6132 37.9073 58.7568C37.9087 58.9004 37.9384 59.0424 37.9947 59.1745C38.0511 59.3067 38.1328 59.4264 38.2354 59.527C38.338 59.6275 38.4594 59.7069 38.5926 59.7605C38.7259 59.8141 38.8684 59.841 39.012 59.8395C39.1557 59.8381 39.2976 59.8083 39.4297 59.752L45.2463 57.2583L51.0607 54.7733C51.2965 54.6734 51.4897 54.494 51.6068 54.2663C51.7239 54.0386 51.7574 53.777 51.7014 53.5271C51.6454 53.2773 51.5036 53.055 51.3006 52.8989C51.0975 52.7429 50.8462 52.663 50.5904 52.6733V52.6711Z" fill="#878A99"/>
</g>
<defs>
<clipPath id="clip0_7833_5613">
<rect width="70" height="70" fill="white"/>
</clipPath>
</defs>
</svg>
