<svg width="70" height="70" viewBox="0 0 70 70" fill="none" xmlns="http://www.w3.org/2000/svg">
<path d="M22.9688 34.9986C22.8248 34.9994 22.6821 34.9718 22.5489 34.9174C22.4156 34.863 22.2944 34.7828 22.1922 34.6814L18.2984 30.7876L15.6625 31.6626C15.4977 31.7183 15.3221 31.7338 15.1501 31.708C14.9781 31.6822 14.8148 31.6157 14.6736 31.5141C14.5324 31.4126 14.4175 31.2788 14.3384 31.1239C14.2593 30.969 14.2183 30.7975 14.2188 30.6236V22.9673C14.2194 22.747 14.2866 22.532 14.4115 22.3505C14.5364 22.169 14.7132 22.0295 14.9188 21.9501L37.8875 13.2001C38.1587 13.0972 38.4598 13.1061 38.7244 13.2251C38.989 13.3441 39.1955 13.5633 39.2984 13.8345C39.4014 14.1057 39.3924 14.4068 39.2735 14.6714C39.1545 14.936 38.9353 15.1425 38.6641 15.2454L16.4063 23.722V29.1033L18.2438 28.4908C18.4327 28.4314 18.6343 28.4244 18.827 28.4706C19.0196 28.5169 19.1961 28.6146 19.3375 28.7533L21.875 31.2689V26.2486C21.8739 26.0308 21.9379 25.8176 22.0587 25.6364C22.1795 25.4552 22.3517 25.3141 22.5531 25.2314L45.5219 15.8361C45.7902 15.7258 46.0913 15.7267 46.359 15.8385C46.6267 15.9503 46.839 16.1638 46.9492 16.4322C47.0595 16.7005 47.0586 17.0016 46.9468 17.2693C46.835 17.537 46.6215 17.7493 46.3531 17.8595L24.0625 26.9814V33.9048C24.0625 34.1949 23.9473 34.4731 23.7422 34.6782C23.537 34.8833 23.2588 34.9986 22.9688 34.9986Z" fill="#878A99"/>
<path d="M30.625 62.3438C30.4982 62.3436 30.3723 62.3214 30.2531 62.2781L6.19062 53.5281C5.97924 53.4517 5.79653 53.312 5.66736 53.128C5.53819 52.9441 5.46885 52.7248 5.46875 52.5V19.6875C5.46875 19.3974 5.58398 19.1192 5.7891 18.9141C5.99422 18.709 6.27242 18.5938 6.5625 18.5938C6.85258 18.5938 7.13078 18.709 7.3359 18.9141C7.54102 19.1192 7.65625 19.3974 7.65625 19.6875V51.7344L29.5312 59.6859V28.4375C29.5312 28.1474 29.6465 27.8692 29.8516 27.6641C30.0567 27.459 30.3349 27.3438 30.625 27.3438C30.9151 27.3438 31.1933 27.459 31.3984 27.6641C31.6035 27.8692 31.7188 28.1474 31.7188 28.4375V61.25C31.7188 61.5401 31.6035 61.8183 31.3984 62.0234C31.1933 62.2285 30.9151 62.3438 30.625 62.3438ZM54.6875 28.4375C54.3974 28.4375 54.1192 28.3223 53.9141 28.1171C53.709 27.912 53.5938 27.6338 53.5938 27.3438V19.6875C53.5938 19.3974 53.709 19.1192 53.9141 18.9141C54.1192 18.709 54.3974 18.5938 54.6875 18.5938C54.9776 18.5938 55.2558 18.709 55.4609 18.9141C55.666 19.1192 55.7812 19.3974 55.7812 19.6875V27.3438C55.7812 27.6338 55.666 27.912 55.4609 28.1171C55.2558 28.3223 54.9776 28.4375 54.6875 28.4375Z" fill="#878A99"/>
<path d="M30.6237 62.3433C30.3666 62.343 30.1178 62.2521 29.921 62.0866C29.7242 61.9211 29.5921 61.6916 29.5477 61.4383C29.5033 61.1851 29.5495 60.9243 29.6783 60.7017C29.8071 60.4792 30.0101 60.3091 30.2518 60.2214L53.5925 51.7339V49.2183C53.5925 48.9282 53.7077 48.65 53.9128 48.4449C54.1179 48.2398 54.3961 48.1245 54.6862 48.1245C54.9763 48.1245 55.2545 48.2398 55.4596 48.4449C55.6647 48.65 55.78 48.9282 55.78 49.2183V52.4995C55.7799 52.7243 55.7105 52.9436 55.5814 53.1276C55.4522 53.3115 55.2695 53.4512 55.0581 53.5277L30.9956 62.2777C30.8764 62.3209 30.7505 62.3431 30.6237 62.3433ZM30.6237 29.5308C30.4969 29.5306 30.3711 29.5084 30.2518 29.4652L6.18934 20.7152C5.97819 20.6385 5.79576 20.4987 5.66683 20.3148C5.53791 20.1308 5.46875 19.9117 5.46875 19.687C5.46875 19.4624 5.53791 19.2432 5.66683 19.0593C5.79576 18.8753 5.97819 18.7355 6.18934 18.6589L30.2518 9.90891C30.4921 9.82203 30.7553 9.82203 30.9956 9.90891L55.0581 18.6589C55.2692 18.7355 55.4517 18.8753 55.5806 19.0593C55.7095 19.2432 55.7787 19.4624 55.7787 19.687C55.7787 19.9117 55.7095 20.1308 55.5806 20.3148C55.4517 20.4987 55.2692 20.6385 55.0581 20.7152L30.9956 29.4652C30.8764 29.5084 30.7505 29.5306 30.6237 29.5308ZM9.7659 19.687L30.6237 27.2777L51.4815 19.687L30.6237 12.0964L9.7659 19.687ZM36.0925 54.1948C35.8353 54.1945 35.5866 54.1037 35.3898 53.9382C35.193 53.7727 35.0608 53.5432 35.0164 53.2899C34.972 53.0366 35.0183 52.7758 35.1471 52.5533C35.2758 52.3308 35.4789 52.1607 35.7206 52.073L40.0956 50.487C40.3455 50.4473 40.6015 50.4954 40.8199 50.6232C41.0383 50.751 41.2057 50.9507 41.2934 51.188C41.3811 51.4254 41.3838 51.6859 41.301 51.925C41.2182 52.1642 41.0551 52.3672 40.8393 52.4995L36.4643 54.0855C36.3479 54.1438 36.2219 54.1808 36.0925 54.1948ZM36.0925 49.8198C35.8353 49.8195 35.5866 49.7287 35.3898 49.5632C35.193 49.3977 35.0608 49.1682 35.0164 48.9149C34.972 48.6616 35.0183 48.4008 35.1471 48.1783C35.2758 47.9558 35.4789 47.7857 35.7206 47.698L37.9081 46.8995C38.1785 46.8103 38.473 46.83 38.7291 46.9545C38.9851 47.079 39.1826 47.2984 39.2794 47.5662C39.3763 47.8339 39.3649 48.1289 39.2477 48.3884C39.1305 48.6478 38.9167 48.8514 38.6518 48.9558L36.4643 49.7542C36.3451 49.7975 36.2193 49.8197 36.0925 49.8198Z" fill="#878A99"/>
<path d="M53.0457 49.2188C51.0971 49.2179 49.1807 48.7212 47.477 47.7755C45.7732 46.8297 44.3382 45.466 43.3068 43.8127C42.2755 42.1594 41.6818 40.2708 41.5816 38.3248C41.4814 36.3787 41.8781 34.4392 42.7342 32.6887C43.5903 30.9382 44.8778 29.4343 46.4754 28.3187C48.0731 27.203 49.9283 26.5122 51.8665 26.3112C53.8048 26.1103 55.7623 26.4058 57.5548 27.1701C59.3473 27.9343 60.9159 29.1421 62.1129 30.6797C62.2913 30.9089 62.3714 31.1995 62.3355 31.4877C62.2996 31.7759 62.1507 32.038 61.9215 32.2164C61.6923 32.3948 61.4017 32.4749 61.1135 32.439C60.8253 32.4031 60.5632 32.2542 60.3848 32.025C59.2947 30.6287 57.8284 29.5729 56.1585 28.9819C54.4886 28.3909 52.6846 28.2893 50.9589 28.689C49.2332 29.0887 47.6576 29.9731 46.4176 31.2381C45.1775 32.5031 44.3247 34.096 43.9595 35.8294C43.5943 37.5627 43.7319 39.3643 44.3561 41.0221C44.9803 42.6799 46.0652 44.1248 47.4829 45.1869C48.9007 46.2489 50.5923 46.8837 52.3587 47.0167C54.1251 47.1497 55.8928 46.7753 57.4535 45.9375C57.7088 45.7997 58.0084 45.769 58.2863 45.852C58.5642 45.9351 58.7978 46.1252 58.9356 46.3805C59.0734 46.6357 59.1041 46.9353 59.021 47.2132C58.938 47.4912 58.7479 47.7247 58.4926 47.8625C56.8166 48.7569 54.9454 49.2228 53.0457 49.2188Z" fill="#878A99"/>
<path d="M61.25 32.8125H56.875C56.5849 32.8125 56.3067 32.6973 56.1016 32.4921C55.8965 32.287 55.7812 32.0088 55.7812 31.7188C55.7812 31.4287 55.8965 31.1505 56.1016 30.9454C56.3067 30.7402 56.5849 30.625 56.875 30.625H60.1562V27.3438C60.1562 27.0537 60.2715 26.7755 60.4766 26.5704C60.6817 26.3652 60.9599 26.25 61.25 26.25C61.5401 26.25 61.8183 26.3652 62.0234 26.5704C62.2285 26.7755 62.3438 27.0537 62.3438 27.3438V31.7188C62.3438 32.0088 62.2285 32.287 62.0234 32.4921C61.8183 32.6973 61.5401 32.8125 61.25 32.8125Z" fill="#878A99"/>
</svg>
