<svg width="50" height="40" viewBox="0 0 50 40" fill="none" xmlns="http://www.w3.org/2000/svg">
<path d="M24.7947 36.4062C34.0702 36.4062 41.5894 29.0399 41.5894 19.9531C41.5894 10.8663 34.0702 3.5 24.7947 3.5C15.5192 3.5 8 10.8663 8 19.9531C8 29.0399 15.5192 36.4062 24.7947 36.4062Z" fill="white"/>
<path d="M24.9051 21.3281C25.9357 21.3281 26.7712 20.5096 26.7712 19.5C26.7712 18.4904 25.9357 17.6719 24.9051 17.6719C23.8745 17.6719 23.0391 18.4904 23.0391 19.5C23.0391 20.5096 23.8745 21.3281 24.9051 21.3281Z" fill="#E5303E"/>
<path d="M24.9078 0.609375C21.094 0.609375 17.3659 1.71729 14.1949 3.79302C11.0238 5.86875 8.5523 8.81906 7.09283 12.2709C5.63335 15.7227 5.25149 19.521 5.99552 23.1854C6.73955 26.8498 8.57606 30.2158 11.2728 32.8577C13.9696 35.4996 17.4054 37.2987 21.1459 38.0276C24.8864 38.7565 28.7636 38.3825 32.287 36.9527C35.8105 35.5229 38.8221 33.1016 40.9409 29.9951C43.0597 26.8885 44.1906 23.2362 44.1906 19.5C44.1906 14.4899 42.1591 9.68499 38.5428 6.14231C34.9266 2.59963 30.0219 0.609375 24.9078 0.609375ZM24.9078 34.7344C21.8322 34.7344 18.8256 33.8409 16.2683 32.1669C13.711 30.4929 11.7179 28.1137 10.5409 25.3299C9.3639 22.5462 9.05594 19.4831 9.65597 16.5279C10.256 13.5727 11.7371 10.8582 13.9118 8.72767C16.0866 6.5971 18.8575 5.14617 21.874 4.55835C24.8906 3.97053 28.0173 4.27222 30.8588 5.42527C33.7003 6.57833 36.129 8.53095 37.8377 11.0362C39.5465 13.5415 40.4585 16.4869 40.4585 19.5C40.4585 21.5006 40.0563 23.4816 39.2748 25.3299C38.4933 27.1783 37.3478 28.8577 35.9038 30.2723C34.4598 31.687 32.7455 32.8091 30.8588 33.5747C28.9721 34.3403 26.95 34.7344 24.9078 34.7344Z" fill="#E5303E"/>
<path d="M31.7471 18.8906H26.6564C26.5636 18.6357 26.4141 18.4042 26.2188 18.2128C26.0234 18.0215 25.7871 17.875 25.5269 17.7841V10.3594C25.5269 10.1978 25.4613 10.0428 25.3447 9.92848C25.228 9.8142 25.0698 9.75 24.9049 9.75C24.7399 9.75 24.5817 9.8142 24.465 9.92848C24.3484 10.0428 24.2828 10.1978 24.2828 10.3594V17.7841C23.9859 17.8864 23.7203 18.0607 23.5109 18.2909C23.3014 18.521 23.1549 18.7994 23.0851 19.1C23.0153 19.4007 23.0245 19.7138 23.1117 20.01C23.199 20.3062 23.3615 20.576 23.584 20.794C23.8065 21.012 24.0819 21.1712 24.3843 21.2567C24.6867 21.3421 25.0062 21.3511 25.3131 21.2827C25.62 21.2143 25.9042 21.0708 26.1391 20.8656C26.374 20.6604 26.552 20.4002 26.6564 20.1094H31.7471C31.9121 20.1094 32.0703 20.0452 32.187 19.9309C32.3036 19.8166 32.3692 19.6616 32.3692 19.5C32.3692 19.3384 32.3036 19.1834 32.187 19.0691C32.0703 18.9548 31.9121 18.8906 31.7471 18.8906ZM24.9049 20.1094C24.7818 20.1094 24.6616 20.0736 24.5593 20.0067C24.457 19.9397 24.3773 19.8445 24.3302 19.7332C24.2831 19.6218 24.2708 19.4993 24.2948 19.3811C24.3188 19.2629 24.378 19.1543 24.465 19.0691C24.552 18.9839 24.6628 18.9258 24.7835 18.9023C24.9042 18.8788 25.0292 18.8909 25.1429 18.937C25.2566 18.9831 25.3537 19.0612 25.4221 19.1614C25.4904 19.2617 25.5269 19.3795 25.5269 19.5C25.5268 19.6616 25.4612 19.8165 25.3446 19.9308C25.2279 20.045 25.0698 20.1093 24.9049 20.1094ZM36.3678 8.3368C36.3569 8.32431 36.3527 8.30861 36.3407 8.29677C36.3286 8.28494 36.3126 8.28086 36.2998 8.27022C33.2745 5.31546 29.1768 3.65624 24.9048 3.65624C20.6329 3.65624 16.5352 5.31546 13.5099 8.27022C13.4971 8.28086 13.4811 8.28494 13.469 8.29677C13.457 8.30861 13.4528 8.32429 13.4419 8.3368C10.4258 11.3006 8.73216 15.3149 8.73216 19.5C8.73216 23.685 10.4258 27.6994 13.4419 30.6632C13.4528 30.6757 13.457 30.6914 13.469 30.7032C13.4811 30.715 13.4971 30.7191 13.5099 30.7298C16.5352 33.6845 20.6329 35.3437 24.9048 35.3437C29.1768 35.3437 33.2745 33.6845 36.2998 30.7298C36.3126 30.7191 36.3286 30.715 36.3407 30.7032C36.3527 30.6914 36.3569 30.6757 36.3678 30.6632C39.3839 27.6994 41.0775 23.685 41.0775 19.5C41.0775 15.3149 39.3839 11.3006 36.3678 8.3368ZM35.8748 29.3852L34.5815 28.1181C34.4645 28.0058 34.3069 27.9432 34.143 27.944C33.9792 27.9448 33.8222 28.0089 33.7064 28.1225C33.5905 28.236 33.525 28.3897 33.5242 28.5502C33.5234 28.7108 33.5873 28.8651 33.7019 28.9798L34.9953 30.2468C32.4054 32.5896 29.0491 33.9534 25.5269 34.0941V32.2969C25.5269 32.1353 25.4613 31.9803 25.3447 31.866C25.228 31.7517 25.0698 31.6875 24.9049 31.6875C24.7399 31.6875 24.5817 31.7517 24.465 31.866C24.3484 31.9803 24.2828 32.1353 24.2828 32.2969V34.0941C20.7606 33.9534 17.4044 32.5896 14.8145 30.2469L16.1078 28.9798C16.2225 28.8652 16.2864 28.7108 16.2855 28.5503C16.2847 28.3897 16.2192 28.236 16.1034 28.1225C15.9875 28.009 15.8306 27.9449 15.6667 27.944C15.5029 27.9432 15.3453 28.0058 15.2283 28.1182L13.9349 29.3852C11.5434 26.8479 10.1514 23.56 10.0077 20.1094H11.8423C12.0073 20.1094 12.1655 20.0452 12.2821 19.9309C12.3988 19.8166 12.4643 19.6616 12.4643 19.5C12.4643 19.3384 12.3988 19.1834 12.2821 19.0691C12.1655 18.9548 12.0073 18.8906 11.8423 18.8906H10.0077C10.1514 15.44 11.5434 12.1521 13.9349 9.61484L15.2282 10.8819C15.3452 10.9942 15.5028 11.0568 15.6667 11.056C15.8305 11.0552 15.9875 10.9911 16.1033 10.8775C16.2192 10.764 16.2847 10.6103 16.2855 10.4498C16.2863 10.2892 16.2225 10.1349 16.1078 10.0202L14.8145 8.75315C17.4044 6.41035 20.7606 5.04662 24.2828 4.90587V6.70312C24.2828 6.86474 24.3484 7.01974 24.465 7.13402C24.5817 7.2483 24.7399 7.3125 24.9049 7.3125C25.0698 7.3125 25.228 7.2483 25.3447 7.13402C25.4613 7.01974 25.5269 6.86474 25.5269 6.70312V4.90587C29.0491 5.04662 32.4053 6.41035 34.9952 8.75315L33.7019 10.0202C33.6432 10.0765 33.5965 10.1438 33.5644 10.2179C33.5324 10.2921 33.5157 10.3717 33.5153 10.4523C33.5149 10.5328 33.5308 10.6126 33.562 10.6871C33.5933 10.7616 33.6393 10.8293 33.6974 10.8862C33.7556 10.9431 33.8247 10.9882 33.9007 11.0189C33.9767 11.0495 34.0582 11.0651 34.1404 11.0647C34.2226 11.0643 34.3039 11.0479 34.3796 11.0165C34.4553 10.9851 34.5239 10.9393 34.5815 10.8818L35.8748 9.61484C38.2663 12.1521 39.6583 15.44 39.802 18.8906H37.9674C37.8024 18.8906 37.6442 18.9548 37.5276 19.0691C37.4109 19.1834 37.3454 19.3384 37.3454 19.5C37.3454 19.6616 37.4109 19.8166 37.5276 19.9309C37.6442 20.0452 37.8024 20.1094 37.9674 20.1094H39.802C39.6583 23.56 38.2663 26.8479 35.8748 29.3852ZM24.9049 0C20.968 0 17.1196 1.14366 13.8463 3.28634C10.573 5.42903 8.02173 8.47451 6.51517 12.0377C5.00862 15.6008 4.61444 19.5216 5.38247 23.3043C6.15051 27.0869 8.04626 30.5615 10.83 33.2886C13.6137 36.0157 17.1604 37.8729 21.0216 38.6253C24.8828 39.3777 28.885 38.9916 32.5221 37.5157C36.1592 36.0397 39.268 33.5404 41.4551 30.3336C43.6423 27.1269 44.8097 23.3567 44.8097 19.5C44.8037 14.3301 42.7046 9.37363 38.973 5.71795C35.2415 2.06227 30.1821 0.00591262 24.9049 0ZM24.9049 37.7812C21.2141 37.7812 17.6062 36.7091 14.5375 34.7003C11.4687 32.6915 9.07692 29.8364 7.66453 26.4959C6.25214 23.1555 5.88259 19.4797 6.60262 15.9335C7.32265 12.3873 9.09992 9.12988 11.7097 6.5732C14.3194 4.01653 17.6445 2.27541 21.2643 1.57002C24.8842 0.864633 28.6362 1.22666 32.046 2.61033C35.4558 3.99399 38.3703 6.33715 40.4207 9.34348C42.4712 12.3498 43.5656 15.8843 43.5656 19.5C43.56 24.3468 41.5922 28.9935 38.0938 32.4207C34.5955 35.8479 29.8523 37.7758 24.9049 37.7812Z" fill="black"/>
</svg>
