<svg width="50" height="50" viewBox="0 0 50 50" fill="none" xmlns="http://www.w3.org/2000/svg">
<g clip-path="url(#clip0_7054_3492)">
<path d="M16.4062 17.5562H17.5562V16.4062V10.9375C17.5562 9.79319 18.0112 8.69487 18.821 7.88349C19.6324 7.07366 20.7307 6.61875 21.875 6.61875H28.125C29.2693 6.61875 30.3676 7.07366 31.179 7.88349C31.9888 8.69487 32.4438 9.79319 32.4438 10.9375V16.4062V17.5562H33.5938H39.0625C40.2066 17.5562 41.3047 18.011 42.116 18.8205C42.9262 19.6319 43.3812 20.7305 43.3812 21.875V28.125C43.3812 29.2691 42.9265 30.3672 42.117 31.1785C41.3056 31.9887 40.207 32.4438 39.0625 32.4438H33.5938H32.4438V33.5938V39.0625C32.4438 40.207 31.9887 41.3056 31.1785 42.117C30.3672 42.9265 29.2691 43.3812 28.125 43.3812H21.875C20.7305 43.3812 19.6319 42.9262 18.8205 42.116C18.011 41.3047 17.5562 40.2066 17.5562 39.0625V33.5938V32.4438H16.4062H10.9375C9.79319 32.4438 8.69487 31.9888 7.88349 31.179C7.07366 30.3676 6.61875 29.2693 6.61875 28.125V21.875C6.61875 20.7307 7.07366 19.6324 7.88349 18.821C8.69487 18.0112 9.79319 17.5562 10.9375 17.5562H16.4062Z" fill="#ED5565" stroke="#542C2C" stroke-width="2.3"/>
</g>
<defs>
<clipPath id="clip0_7054_3492">
<rect width="50" height="50" fill="white"/>
</clipPath>
</defs>
</svg>
