<svg width="50" height="50" viewBox="0 0 50 50" fill="none" xmlns="http://www.w3.org/2000/svg">
<path d="M20.8594 5.47656H29.1406V7.50781H20.8594V5.47656ZM16.8203 8.67969H11.7188V44.5312H38.2812V8.67969H33.1797H16.8203Z" fill="#FF6663"/>
<path d="M41.8047 24.998V45.1777C41.8047 46.7559 40.5156 48.0449 38.9375 48.0449H11.0781C9.5 48.0449 8.21094 46.7559 8.21094 45.1777V8.0293C8.21094 6.44336 9.5 5.16211 11.0781 5.16211H16.8281C17.0078 5.16211 17.1797 5.18555 17.3516 5.2168V4.64648C17.3516 3.16211 18.5234 1.95898 19.9687 1.95898H30.0469C31.4922 1.95898 32.6641 3.16211 32.6641 4.64648V5.2168C32.8359 5.18555 33.0078 5.16211 33.1875 5.16211H38.9375C40.5156 5.16211 41.8047 6.44336 41.8047 8.0293V24.998C41.8047 25.6465 40.6328 24.998 40.6328 24.998C40.6328 24.998 39.4609 25.6465 39.4609 24.998V8.0293C39.4609 7.74023 39.2266 7.50586 38.9375 7.50586H33.1875C32.8984 7.50586 32.6641 7.74023 32.6641 8.0293V9.72461C32.6641 10.3652 32.1406 10.8965 31.4922 10.8965H18.5234C17.875 10.8965 17.3516 10.3652 17.3516 9.72461V8.0293C17.3516 7.74023 17.1172 7.50586 16.8281 7.50586H11.0781C10.7891 7.50586 10.5547 7.74023 10.5547 8.0293V45.1777C10.5547 45.4668 10.7891 45.7012 11.0781 45.7012H38.9375C39.2266 45.7012 39.4609 45.4668 39.4609 45.1777V24.998C39.4609 24.3496 39.9844 23.8262 40.6328 23.8262C41.2812 23.8262 41.8047 24.3496 41.8047 24.998ZM30.3203 8.55273V4.64648C30.3203 4.45898 30.1953 4.30273 30.0469 4.30273H19.9687C19.8203 4.30273 19.6953 4.45898 19.6953 4.64648V8.55273H30.3203Z" fill="#542C2C"/>
<path d="M37.0391 25.4278C37.6875 25.4278 38.2109 25.9512 38.2109 26.5997C38.2109 27.2481 37.6875 27.7715 37.0391 27.7715H29.6797L26.0469 34.7715C25.8438 35.1622 25.4375 35.4043 25.0078 35.4043C24.9375 35.4043 24.875 35.3965 24.8047 35.3809C24.2969 35.295 23.9141 34.8887 23.8438 34.3809L22.6406 24.9903L22.0703 27.0997C22.0032 27.3487 21.8559 27.5687 21.6511 27.7255C21.4463 27.8823 21.1954 27.9671 20.9375 27.9668H14.5938C13.9453 27.9668 13.4219 27.4356 13.4219 26.795C13.4219 26.1465 13.9453 25.6231 14.5938 25.6231H20.0469L21.9219 18.67C22.0625 18.1309 22.5625 17.7559 23.1328 17.8028C23.6875 17.8418 24.1406 18.2715 24.2109 18.8262L25.6953 30.3653L27.9219 26.0606C28.125 25.6778 28.5234 25.4278 28.9609 25.4278H37.0391Z" fill="#542C2C"/>
</svg>
