<svg width="349" height="87" viewBox="0 0 349 87" fill="none" xmlns="http://www.w3.org/2000/svg">
<g filter="url(#filter0_d_8781_6394)">
<path fill-rule="evenodd" clip-rule="evenodd" d="M8.41347 21.4743C7.00121 22.0441 6.18822 22.6229 5.40266 23.6174C2.97817 26.6869 3.7803 31.0727 7.16331 33.2455L7.87763 33.7044V39.5068C7.87763 42.95 7.96201 45.72 8.08526 46.3195C8.38584 47.7817 9.62057 50.2225 10.6492 51.3878C11.6005 52.4655 13.235 53.6679 14.46 54.1914C16.5557 55.087 16.6834 55.1015 23.164 55.1905L29.4024 55.2761L29.4053 62.3594C29.4076 67.9984 29.4666 69.6914 29.6952 70.6622C30.5709 74.3795 33.7104 77.6605 37.498 78.8163C38.5228 79.1289 39.4183 79.1649 46.1651 79.1649C53.0195 79.1649 53.7826 79.1331 54.7369 78.8079C58.5487 77.5087 61.229 74.9133 62.3754 71.4116L62.8325 70.0147V53.6205V46.7339L52.6981 39.6031V34.6591L47.2593 31.7117V49.1336L52.7713 51.963L52.7008 46.6483L56.8322 49.5585L56.8178 54.5561C56.8071 65.1553 56.7431 69.2249 56.5797 69.6685C56.1122 70.9373 55.2034 71.9439 53.9668 72.5623L52.7713 73.1601H46.2371C40.1762 73.1601 39.6294 73.1326 38.688 72.78C37.6037 72.3741 36.5353 71.4074 35.9475 70.3006C35.6204 69.6847 35.5859 68.9302 35.4979 60.4832C35.4073 51.7693 35.3846 51.302 35.0217 50.6857C34.8122 50.3296 34.399 49.8578 34.1034 49.6373C33.5832 49.2488 33.3163 49.2327 25.7221 49.1336C18.2831 49.0366 17.8333 49.0107 17.0108 48.6323C15.9694 48.1532 15.0614 47.2813 14.4896 46.2114C14.085 45.4543 14.0661 45.1906 14.0109 39.4763L13.9531 33.5292L14.5002 33.2461C15.3481 32.8073 16.6051 31.4159 17.1043 30.3636C18.5876 27.2367 17.3059 23.5777 14.1305 21.8748C13.0411 21.2904 12.7519 21.2231 11.1159 21.1714C9.68667 21.1262 9.11864 21.1899 8.41347 21.4743ZM12.2544 26.0399C12.5186 26.2363 12.8415 26.7147 12.9714 27.1034C13.2642 27.978 12.9634 28.8414 12.139 29.4924C11.3241 30.1362 9.91125 29.9711 9.17464 29.146C8.54699 28.443 8.44242 27.2033 8.94968 26.4785C9.63352 25.5018 11.2416 25.2882 12.2544 26.0399Z" fill="#FFCB46" stroke="#FFCB46" stroke-width="0.891541"/>
<path fill-rule="evenodd" clip-rule="evenodd" d="M83.5084 58.6956C84.9207 58.1258 85.7337 57.5471 86.5192 56.5525C88.9437 53.483 88.1416 49.0972 84.7586 46.9244L84.0442 46.4655V40.6631C84.0442 37.22 83.9599 34.4499 83.8366 33.8504C83.536 32.3883 82.3013 29.9474 81.2727 28.7821C80.3214 27.7045 78.6869 26.502 77.4619 25.9785C75.3661 25.0829 75.2385 25.0684 68.7578 24.9794L62.5195 24.8938L62.5166 17.8106C62.5143 12.1715 62.4553 10.4786 62.2267 9.50768C61.351 5.79038 58.2115 2.50944 54.4239 1.35365C53.399 1.04102 52.5036 1.00499 45.7568 1.00499C38.9024 1.00499 38.1393 1.03682 37.185 1.36204C33.3732 2.66118 30.6929 5.25662 29.5465 8.75831L29.0894 10.1552V26.5494L29.0894 33.436L39.2238 40.5669V45.5108L44.6626 48.4582V31.0363L39.1506 28.2069L39.2211 33.5216L35.0896 30.6114L35.1041 25.6138C35.1148 15.0146 35.1788 10.945 35.3422 10.5014C35.8097 9.23259 36.7185 8.22606 37.9551 7.60766L39.1506 7.00984H45.6848C51.7456 7.00984 52.2925 7.03729 53.2339 7.38996C54.3181 7.79581 55.3866 8.7625 55.9744 9.8693C56.3015 10.4852 56.3359 11.2397 56.4239 19.6868C56.5146 28.4007 56.5373 28.8679 56.9002 29.4842C57.1097 29.8403 57.5228 30.3121 57.8185 30.5327C58.3387 30.9212 58.6056 30.9372 66.1998 31.0363C73.6388 31.1333 74.0886 31.1593 74.9111 31.5377C75.9524 32.0167 76.8605 32.8887 77.4323 33.9585C77.8369 34.7157 77.8558 34.9793 77.911 40.6936L77.9687 46.6407L77.4217 46.9238C76.5738 47.3626 75.3168 48.7541 74.8175 49.8063C73.3342 52.9332 74.616 56.5922 77.7914 58.2951C78.8808 58.8796 79.1699 58.9469 80.806 58.9985C82.2352 59.0437 82.8032 58.98 83.5084 58.6956ZM79.6675 54.13C79.4033 53.9337 79.0804 53.4552 78.9505 53.0665C78.6577 52.1919 78.9585 51.3285 79.7829 50.6775C80.5978 50.0338 82.0106 50.1988 82.7472 51.0239C83.3749 51.7269 83.4795 52.9666 82.9722 53.6914C82.2884 54.6682 80.6803 54.8817 79.6675 54.13Z" fill="#FFCB46" stroke="#FFCB46" stroke-width="0.891541"/>
</g>
<path d="M96.8638 59.582V25.3696H101.116V40.2764H105.515V44.4308H101.116V59.582H96.8638ZM107.958 44.4308V40.2764H112.308V25.3696H116.609V59.582H112.308V44.4308H107.958ZM120.568 59.582V25.3696H138.359V29.5728H124.82V40.423H133.764V44.6752H124.82V55.3788H138.359V59.582H120.568ZM141.78 59.582L148.28 30.6969H149.062L150.724 38.2725L145.983 59.582H141.78ZM149.6 54.108L150.529 49.9537H155.758L150.333 25.4184H154.585L162.307 59.582H158.055L156.833 54.108H149.6ZM165.533 59.582V25.3696H169.785V55.3788H183.91V59.582H165.533ZM185.67 29.5239V25.3696H206.833V29.5239H198.377V59.582H194.076V29.5239H185.67ZM209.618 59.582V25.3696H213.871V40.2764H218.269V44.4308H213.871V59.582H209.618ZM220.713 44.4308V40.2764H225.063V25.3696H229.364V59.582H225.063V44.4308H220.713Z" fill="#3A6CF9"/>
<path d="M232.199 29.5239V25.3696H253.361V29.5239H244.906V59.582H240.605V29.5239H232.199ZM256.196 59.582V25.3696H273.987V29.5728H260.448V40.423H269.392V44.6752H260.448V55.3788H273.987V59.582H256.196ZM277.799 50.7357V34.2648C277.799 32.8311 278.271 31.316 279.216 29.7194C281.041 26.624 283.811 25.0926 287.525 25.1252V29.3284C285.961 29.361 284.641 29.9149 283.566 30.9902C282.589 32.0328 282.1 33.1244 282.1 34.2648V50.7357C282.1 51.2896 282.279 51.925 282.638 52.6418C283.648 54.6294 285.277 55.6232 287.525 55.6232V59.8264C284.332 59.7938 281.79 58.6045 279.901 56.2585C278.5 54.4665 277.799 52.6255 277.799 50.7357ZM289.92 59.8264V55.6232L290.897 55.4765C291.549 55.3788 292.266 55.0367 293.048 54.4502C293.863 53.8637 294.416 53.098 294.71 52.153C294.84 51.7946 294.938 51.2407 295.003 50.4913C295.036 50.3284 295.052 50.0677 295.052 49.7093L299.108 50.6868C299.108 53.0002 298.278 55.053 296.616 56.845C294.759 58.8326 292.527 59.8264 289.92 59.8264ZM289.92 29.3284V25.1252C292.103 25.1252 294.139 25.9886 296.029 27.7156C298.082 29.6705 299.108 31.8862 299.108 34.3625L295.003 35.4378V34.6558C294.938 34.0041 294.84 33.4828 294.71 33.0918C294.091 31.4952 292.966 30.3548 291.337 29.6705C290.392 29.4425 289.92 29.3284 289.92 29.3284ZM302.579 59.582V25.3696H306.831V40.2764H311.229V44.4308H306.831V59.582H302.579ZM313.673 44.4308V40.2764H318.023V25.3696H322.324V59.582H318.023V44.4308H313.673ZM325.501 51.8598L329.411 50.4913C329.606 51.8598 330.128 52.9839 330.975 53.8637C331.855 54.7434 332.686 55.281 333.468 55.4765L334.592 55.7698V59.7287C331.724 59.7287 329.313 58.5068 327.358 56.063C326.153 54.5316 325.534 53.1305 325.501 51.8598ZM325.892 34.6069C325.892 31.0879 327.407 28.4487 330.437 26.6892C331.936 25.8094 333.321 25.3696 334.592 25.3696V29.3773C333.451 29.5076 332.376 30.1104 331.366 31.1857C330.454 32.1958 329.997 33.3525 329.997 34.6558C329.997 36.6434 331.431 38.1422 334.298 39.1523C335.015 39.3804 336.107 39.6899 337.573 40.0809C339.104 40.5045 340.18 40.8303 340.799 41.0584C343.731 42.264 345.605 43.9095 346.419 45.9948C346.843 47.0375 347.055 48.2105 347.055 49.5138C347.055 52.3485 345.963 54.8086 343.78 56.8939C341.793 58.7837 339.544 59.7287 337.035 59.7287V55.7698C338.371 55.7046 339.658 55.0692 340.897 53.8637C342.135 52.5929 342.77 51.143 342.803 49.5138C342.803 47.233 341.222 45.5712 338.062 44.5285C337.378 44.3005 336.335 44.0235 334.934 43.6977C333.435 43.3392 332.425 43.046 331.904 42.8179C329.134 41.6775 327.358 40.1787 326.576 38.3214C326.12 37.2462 325.892 36.008 325.892 34.6069ZM337.035 29.3773V25.3696C339.87 25.3696 342.232 26.624 344.122 29.1329C345.067 30.4037 345.589 31.5441 345.686 32.5542L341.727 33.8738C341.271 31.593 339.968 30.143 337.817 29.5239C337.296 29.4262 337.035 29.3773 337.035 29.3773Z" fill="#009825"/>
<defs>
<filter id="filter0_d_8781_6394" x="-0.0114775" y="0.558594" width="91.9448" height="86.1851" filterUnits="userSpaceOnUse" color-interpolation-filters="sRGB">
<feFlood flood-opacity="0" result="BackgroundImageFix"/>
<feColorMatrix in="SourceAlpha" type="matrix" values="0 0 0 0 0 0 0 0 0 0 0 0 0 0 0 0 0 0 127 0" result="hardAlpha"/>
<feOffset dy="3.56616"/>
<feGaussianBlur stdDeviation="1.78308"/>
<feComposite in2="hardAlpha" operator="out"/>
<feColorMatrix type="matrix" values="0 0 0 0 0 0 0 0 0 0 0 0 0 0 0 0 0 0 0.25 0"/>
<feBlend mode="normal" in2="BackgroundImageFix" result="effect1_dropShadow_8781_6394"/>
<feBlend mode="normal" in="SourceGraphic" in2="effect1_dropShadow_8781_6394" result="shape"/>
</filter>
</defs>
</svg>
