<svg width="252" height="35" viewBox="0 0 252 35" fill="none" xmlns="http://www.w3.org/2000/svg">
<path d="M0.863828 34.582V0.369552H5.11595V15.2764H9.5147V19.4308H5.11595V34.582H0.863828ZM11.9584 19.4308V15.2764H16.3083V0.369552H20.6093V34.582H16.3083V19.4308H11.9584ZM24.5682 34.582V0.369552H42.3587V4.5728H28.8203V15.423H37.7644V19.6752H28.8203V30.3788H42.3587V34.582H24.5682ZM45.7799 34.582L52.2803 5.69692H53.0623L54.724 13.2725L49.9832 34.582H45.7799ZM53.5999 29.108L54.5285 24.9537H59.7582L54.333 0.418427H58.5852L66.3074 34.582H62.0553L60.8334 29.108H53.5999ZM69.5332 34.582V0.369552H73.7853V30.3788H87.9102V34.582H69.5332ZM89.6697 4.52392V0.369552H110.833V4.52392H102.377V34.582H98.0761V4.52392H89.6697ZM113.618 34.582V0.369552H117.871V15.2764H122.269V19.4308H117.871V34.582H113.618ZM124.713 19.4308V15.2764H129.063V0.369552H133.364V34.582H129.063V19.4308H124.713Z" fill="#3A6CF9"/>
<path d="M136.199 4.52392V0.369552H157.361V4.52392H148.906V34.582H144.605V4.52392H136.199ZM160.196 34.582V0.369552H177.987V4.5728H164.448V15.423H173.392V19.6752H164.448V30.3788H177.987V34.582H160.196ZM181.799 25.7357V9.2648C181.799 7.83113 182.271 6.31601 183.216 4.71942C185.041 1.62401 187.811 0.0925937 191.525 0.125177V4.32842C189.961 4.36101 188.641 4.91492 187.566 5.99017C186.589 7.03284 186.1 8.12438 186.1 9.2648V25.7357C186.1 26.2896 186.279 26.925 186.638 27.6418C187.648 29.6294 189.277 30.6232 191.525 30.6232V34.8264C188.332 34.7938 185.79 33.6045 183.901 31.2585C182.5 29.4665 181.799 27.6255 181.799 25.7357ZM193.92 34.8264V30.6232L194.897 30.4765C195.549 30.3788 196.266 30.0367 197.048 29.4502C197.863 28.8637 198.416 28.098 198.71 27.153C198.84 26.7946 198.938 26.2407 199.003 25.4913C199.036 25.3284 199.052 25.0677 199.052 24.7093L203.108 25.6868C203.108 28.0002 202.278 30.053 200.616 31.845C198.759 33.8326 196.527 34.8264 193.92 34.8264ZM193.92 4.32842V0.125177C196.103 0.125177 198.139 0.988635 200.029 2.71555C202.082 4.67055 203.108 6.88621 203.108 9.36255L199.003 10.4378V9.6558C198.938 9.00413 198.84 8.4828 198.71 8.0918C198.091 6.49521 196.966 5.3548 195.337 4.67055C194.392 4.44247 193.92 4.32842 193.92 4.32842ZM206.579 34.582V0.369552H210.831V15.2764H215.229V19.4308H210.831V34.582H206.579ZM217.673 19.4308V15.2764H222.023V0.369552H226.324V34.582H222.023V19.4308H217.673ZM229.501 26.8598L233.411 25.4913C233.606 26.8598 234.128 27.9839 234.975 28.8637C235.855 29.7434 236.686 30.281 237.468 30.4765L238.592 30.7698V34.7287C235.724 34.7287 233.313 33.5068 231.358 31.063C230.153 29.5316 229.534 28.1305 229.501 26.8598ZM229.892 9.60692C229.892 6.08792 231.407 3.44868 234.437 1.68918C235.936 0.809427 237.321 0.369552 238.592 0.369552V4.3773C237.451 4.50763 236.376 5.11042 235.366 6.18567C234.454 7.19576 233.997 8.35246 233.997 9.6558C233.997 11.6434 235.431 13.1422 238.298 14.1523C239.015 14.3804 240.107 14.6899 241.573 15.0809C243.104 15.5045 244.18 15.8303 244.799 16.0584C247.731 17.264 249.605 18.9095 250.419 20.9948C250.843 22.0375 251.055 23.2105 251.055 24.5138C251.055 27.3485 249.963 29.8086 247.78 31.8939C245.793 33.7837 243.544 34.7287 241.035 34.7287V30.7698C242.371 30.7046 243.658 30.0692 244.897 28.8637C246.135 27.5929 246.77 26.143 246.803 24.5138C246.803 22.233 245.222 20.5712 242.062 19.5285C241.378 19.3005 240.335 19.0235 238.934 18.6977C237.435 18.3392 236.425 18.046 235.904 17.8179C233.134 16.6775 231.358 15.1787 230.576 13.3214C230.12 12.2462 229.892 11.008 229.892 9.60692ZM241.035 4.3773V0.369552C243.87 0.369552 246.232 1.62401 248.122 4.13292C249.067 5.40367 249.589 6.54409 249.686 7.55417L245.727 8.8738C245.271 6.59296 243.968 5.14301 241.817 4.52392C241.296 4.42617 241.035 4.3773 241.035 4.3773Z" fill="#009825"/>
</svg>
