<?xml version="1.0" ?><svg id="Layer_1" style="enable-background:new 0 0 468 468;" version="1.1" viewBox="0 0 468 468" xml:space="preserve" xmlns="http://www.w3.org/2000/svg" xmlns:xlink="http://www.w3.org/1999/xlink"><g><g><g><g><path d="M234,237.157L234,237.157c-62.706,0-113.539,50.833-113.539,113.539V443c0,11.046,8.954,20,20,20      h187.078c11.046,0,20-8.954,20-20v-92.304C347.539,287.99,296.706,237.157,234,237.157z" style="fill:#ED4848;"/><path d="M243.988,237.6c-3.292-0.287-6.621-0.443-9.988-0.443l0,0      c-62.706,0-113.539,50.859-113.539,113.597v92.27c0,11.032,8.944,19.976,19.976,19.976h0V350.754      C140.437,291.384,185.961,242.661,243.988,237.6z" style="fill:#CC4040;"/><path d="M327.539,468H140.461c-13.785,0-25-11.215-25-25v-92.304      c0-65.363,53.176-118.539,118.539-118.539s118.539,53.176,118.539,118.539V443C352.539,456.785,341.324,468,327.539,468z       M234,242.157c-59.849,0-108.539,48.69-108.539,108.539V443c0,8.271,6.729,15,15,15h187.078c8.271,0,15-6.729,15-15v-92.304      C342.539,290.848,293.849,242.157,234,242.157z" style="fill:#333333;"/></g><g><path d="M163.812,463h-23.351c-11.046,0-20-8.954-20-20v-77.558h43.351V463z" style="fill:#FDD2B5;"/><path d="M120.461,365.441v77.583c0,11.032,8.944,19.976,19.976,19.976h0v-97.559H120.461z" style="fill:#F9B995;"/><path d="M163.812,468h-23.351c-13.785,0-25-11.215-25-25v-77.559c0-2.761,2.239-5,5-5h43.351      c2.761,0,5,2.239,5,5V463C168.812,465.761,166.573,468,163.812,468z M125.461,370.441V443c0,8.271,6.729,15,15,15h18.351      v-87.559H125.461z" style="fill:#333333;"/></g><g><path d="M327.539,463h-23.351v-97.558h43.351V443C347.539,454.046,338.585,463,327.539,463z" style="fill:#FDD2B5;"/><path d="M327.563,365.441V463l0,0c11.032,0,19.976-8.944,19.976-19.976v-77.583H327.563z" style="fill:#F9B995;"/><path d="M327.539,468h-23.351c-2.761,0-5-2.239-5-5v-97.559c0-2.761,2.239-5,5-5h43.351      c2.761,0,5,2.239,5,5V443C352.539,456.785,341.324,468,327.539,468z M309.188,458h18.351c8.271,0,15-6.729,15-15v-72.559      h-33.351V458z" style="fill:#333333;"/></g></g><g><path d="M234,287.155L234,287.155c-15.894,0-28.779-12.885-28.779-28.779v-58.11h57.558v58.11     C262.779,274.271,249.894,287.155,234,287.155z" style="fill:#FDD2B5;"/><path d="M221.202,258.362v-58.095h-15.981v58.095c0,15.902,12.885,28.793,28.779,28.793     c2.774,0,5.452-0.401,7.99-1.133C229.985,282.557,221.202,271.489,221.202,258.362z" style="fill:#F9B995;"/><path d="M234,292.155c-18.625,0-33.779-15.153-33.779-33.779v-58.11c0-2.761,2.239-5,5-5h57.558     c2.761,0,5,2.239,5,5v58.11C267.779,277.002,252.626,292.155,234,292.155z M210.221,205.267v53.11     c0,13.112,10.667,23.779,23.779,23.779s23.779-10.667,23.779-23.779v-53.11H210.221z" style="fill:#333333;"/></g><g><g><ellipse cx="315.637" cy="139.021" rx="20.903" ry="20.967" style="fill:#FDD2B5;"/><path d="M315.637,164.988c-14.283,0-25.903-11.648-25.903-25.967c0-14.318,11.62-25.966,25.903-25.966      s25.903,11.648,25.903,25.966C341.54,153.339,329.92,164.988,315.637,164.988z M315.637,123.055      c-8.769,0-15.903,7.163-15.903,15.966c0,8.804,7.134,15.967,15.903,15.967s15.903-7.163,15.903-15.967      C331.54,130.217,324.406,123.055,315.637,123.055z" style="fill:#333333;"/></g><g><ellipse cx="152.363" cy="139.021" rx="20.903" ry="20.967" style="fill:#FDD2B5;"/><path d="M152.363,164.988c-14.283,0-25.903-11.648-25.903-25.967c0-14.318,11.62-25.966,25.903-25.966      s25.903,11.648,25.903,25.966C178.267,153.339,166.647,164.988,152.363,164.988z M152.363,123.055      c-8.769,0-15.903,7.163-15.903,15.966c0,8.804,7.134,15.967,15.903,15.967s15.903-7.163,15.903-15.967      C168.267,130.217,161.132,123.055,152.363,123.055z" style="fill:#333333;"/></g><g><path d="M234,224.847L234,224.847c-42.648,0-77.222-34.573-77.222-77.222V57.856h154.443v89.769      C311.222,190.274,276.648,224.847,234,224.847z" style="fill:#FDD2B5;"/><path d="M234,229.847c-45.337,0-82.222-36.884-82.222-82.221v-89.77c0-2.761,2.239-5,5-5h154.443      c2.761,0,5,2.239,5,5v89.77C316.222,192.962,279.337,229.847,234,229.847z M161.778,62.856v84.77      c0,39.823,32.398,72.221,72.222,72.221s72.222-32.398,72.222-72.221v-84.77H161.778z" style="fill:#333333;"/></g><path d="M167.032,130.449V84.056c13.11,10.897,38.178,18.269,66.966,18.269     c28.815,0,53.904-7.386,67.004-18.299v46.411c0,6.083,4.094,11.208,9.692,12.817c8.804-13.239,13.902-28.913,13.902-45.719     C324.597,50.113,284.035,5,234,5c-48.997,0-90.597,38.734-90.597,92.535c0,16.813,5.1,32.495,13.911,45.737     C162.925,141.671,167.032,136.541,167.032,130.449z" style="fill:#FBAB68;"/><g><path d="M163.403,97.535c0-50,35.931-86.98,80.337-91.956C240.54,5.2,237.291,5,234,5      c-48.997,0-90.597,38.734-90.597,92.535c0,16.813,5.1,32.495,13.911,45.737c5.611-1.601,9.717-6.731,9.717-12.823v-8.785      C164.671,114.009,163.403,105.913,163.403,97.535z" style="fill:#EA8E49;"/></g><path d="M157.314,148.272c-1.644,0-3.219-0.813-4.163-2.231c-9.648-14.5-14.749-31.274-14.749-48.507     C138.403,42.842,180.395,0,234,0c50.925,0,95.597,45.577,95.597,97.535c0,17.222-5.097,33.988-14.739,48.487     c-1.207,1.815-3.452,2.638-5.544,2.037c-7.838-2.252-13.312-9.499-13.312-17.623V93.479     c-15.233,8.669-37.926,13.846-62.004,13.846c-24.054,0-46.733-5.169-61.966-13.826v36.95c0,8.139-5.488,15.389-13.345,17.631     C158.232,148.21,157.771,148.272,157.314,148.272z M234,10c-47.998,0-85.597,38.45-85.597,87.535     c0,13.79,3.694,27.255,10.721,39.209c1.798-1.554,2.907-3.836,2.907-6.295V84.056c0-1.939,1.121-3.703,2.876-4.526     c1.756-0.823,3.829-0.558,5.32,0.681c12.7,10.557,37.135,17.114,63.77,17.114c26.664,0,51.112-6.568,63.804-17.141     c1.49-1.242,3.564-1.51,5.321-0.686c1.757,0.823,2.879,2.588,2.879,4.528v46.411c0,2.45,1.101,4.725,2.887,6.278     c7.018-11.949,10.708-25.404,10.708-39.18C319.597,50.904,279.598,10,234,10z" style="fill:#333333;"/><g><path d="M189.286,141.652c-0.749,0-1.502-0.239-2.14-0.732c-1.529-1.184-1.808-3.382-0.625-4.91      c6.282-8.113,17.562-10.104,26.238-4.629c1.635,1.031,2.124,3.193,1.092,4.828c-1.031,1.635-3.192,2.125-4.828,1.092      c-5.61-3.54-12.905-2.252-16.968,2.994C191.366,141.186,190.332,141.652,189.286,141.652z" style="fill:#333333;"/><path d="M209.405,156.595c0.653,3.796-1.45,7.347-4.697,7.933c-3.247,0.586-6.408-2.017-7.06-5.812      c-0.653-3.796,1.45-7.347,4.697-7.933S208.752,152.799,209.405,156.595z" style="fill:#333333;"/></g><g><path d="M278.617,141.209c-1.045,0-2.08-0.466-2.77-1.357c-4.063-5.247-11.359-6.534-16.968-2.995      c-1.636,1.031-3.796,0.542-4.828-1.092c-1.032-1.635-0.542-3.796,1.092-4.828c8.677-5.474,19.956-3.484,26.238,4.628      c1.184,1.528,0.904,3.727-0.624,4.91C280.12,140.97,279.366,141.209,278.617,141.209z" style="fill:#333333;"/><path d="M270.264,158.228c-0.684,3.79-3.874,6.408-7.125,5.847c-3.251-0.561-5.332-4.088-4.648-7.878      s3.874-6.408,7.125-5.847C268.868,150.91,270.948,154.438,270.264,158.228z" style="fill:#333333;"/></g><path d="M186.604,161.016c0,2.417-1.958,4.377-4.374,4.377s-4.374-1.959-4.374-4.377     s4.374-9.571,4.374-9.571S186.604,158.598,186.604,161.016z" style="fill:#EBFBFF;"/><path d="M290.143,161.016c0,2.417-1.958,4.377-4.374,4.377c-2.415,0-4.374-1.959-4.374-4.377     s4.374-9.571,4.374-9.571S290.143,158.598,290.143,161.016z" style="fill:#EBFBFF;"/><g><g><path d="M246.583,195.874l-3.278-1.934l-6.194,0c-3.092,0-5.599-2.522-5.599-5.633v-0.005       c0-3.111,2.507-5.633,5.599-5.633h6.194l3.278-1.934c5.576-3.289,11.923-5.023,18.387-5.023h56.567       c6.914,0,12.518,5.638,12.518,12.592v0c0,6.955-5.605,12.592-12.518,12.592H264.97       C258.506,200.898,252.159,199.164,246.583,195.874z" style="fill:#29B6F6;"/><path d="M321.537,204.397H264.97c-7.083,0-14.057-1.905-20.166-5.509l-2.455-1.448h-5.239       c-5.017,0-9.099-4.097-9.099-9.133c0-5.041,4.082-9.137,9.099-9.137h5.239l2.455-1.448c6.11-3.604,13.083-5.509,20.166-5.509       h56.567c8.833,0,16.018,7.219,16.018,16.092S330.369,204.397,321.537,204.397z M237.11,186.17       c-1.157,0-2.099,0.957-2.099,2.132c0,1.181,0.942,2.138,2.099,2.138h6.194c0.625,0,1.24,0.167,1.778,0.485l3.278,1.934l0,0       c5.032,2.969,10.776,4.538,16.609,4.538h56.567c4.973,0,9.018-4.079,9.018-9.092s-4.045-9.092-9.018-9.092H264.97       c-5.833,0-11.576,1.569-16.609,4.538l-3.277,1.934c-0.539,0.318-1.153,0.486-1.779,0.486H237.11z" style="fill:#333333;"/></g><g><g><path d="M265.523,175.713h-0.553c-6.464,0-12.811,1.734-18.387,5.023l-3.278,1.934h-6.194        c-3.092,0-5.599,2.522-5.599,5.633v0.005c0,3.111,2.507,5.633,5.599,5.633h6.194l3.278,1.934        c5.576,3.289,11.923,5.023,18.388,5.023h0.552L265.523,175.713z" style="fill:#FFFFFF;"/><path d="M265.522,204.397h-0.552c-7.083,0-14.057-1.905-20.166-5.509l-2.455-1.448h-5.239        c-5.017,0-9.099-4.097-9.099-9.133c0-5.041,4.082-9.137,9.099-9.137h5.239l2.456-1.449c6.109-3.604,13.082-5.509,20.165-5.509        h0.553c1.933,0,3.5,1.567,3.5,3.5v25.185C269.022,202.831,267.456,204.397,265.522,204.397z M237.11,186.17        c-1.157,0-2.099,0.957-2.099,2.132c0,1.181,0.942,2.138,2.099,2.138h6.194c0.625,0,1.24,0.167,1.778,0.485l3.278,1.934        c4.182,2.467,8.854,3.967,13.662,4.404v-17.917c-4.807,0.437-9.479,1.938-13.661,4.404l-3.278,1.934        c-0.539,0.318-1.153,0.485-1.778,0.485H237.11z" style="fill:#333333;"/></g></g><path d="M310.987,191.805h-26.485c-1.933,0-3.5-1.567-3.5-3.5s1.567-3.5,3.5-3.5h26.485      c1.933,0,3.5,1.567,3.5,3.5S312.92,191.805,310.987,191.805z" style="fill:#333333;"/></g><g><rect height="31.525" style="fill:#FFFFFF;" width="139.38" x="164.31" y="84.056"/><rect height="31.525" style="fill:#F2F2F2;" width="18.584" x="164.31" y="84.056"/><path d="M303.69,120.581H164.31c-2.761,0-5-2.239-5-5V84.056c0-2.761,2.239-5,5-5h139.38      c2.761,0,5,2.239,5,5v31.525C308.69,118.342,306.451,120.581,303.69,120.581z M169.31,110.581h129.38V89.056H169.31V110.581z" style="fill:#333333;"/></g></g></g><g><path d="M112.142,66.55c-0.91,0-1.831-0.248-2.658-0.769c-2.337-1.471-3.04-4.558-1.569-6.895l6.369-10.122    h-9.331c-1.833,0-3.52-1.003-4.394-2.615c-0.875-1.611-0.798-3.572,0.201-5.109l11.003-16.938c1.504-2.315,4.6-2.973,6.917-1.469    c2.315,1.504,2.973,4.601,1.469,6.917l-5.985,9.213h9.173c1.82,0,3.497,0.989,4.377,2.583c0.88,1.594,0.824,3.54-0.145,5.08    l-11.19,17.784C115.428,65.723,113.803,66.55,112.142,66.55z" style="fill:#333333;"/><path d="M72.19,127.508c-0.91,0-1.831-0.248-2.658-0.769c-2.337-1.471-3.04-4.558-1.569-6.895l6.369-10.122    H65c-1.833,0-3.52-1.003-4.395-2.615c-0.875-1.611-0.797-3.572,0.202-5.109l11.004-16.938c1.505-2.314,4.601-2.973,6.917-1.469    c2.315,1.504,2.973,4.601,1.469,6.917l-5.986,9.213h9.174c1.82,0,3.497,0.989,4.377,2.583c0.88,1.594,0.824,3.54-0.145,5.08    l-11.19,17.784C75.477,126.68,73.852,127.508,72.19,127.508z" style="fill:#333333;"/><path d="M361.841,66.55c-0.91,0-1.831-0.248-2.658-0.769c-2.337-1.471-3.04-4.558-1.569-6.895l6.369-10.122    h-9.332c-1.833,0-3.52-1.003-4.395-2.615c-0.875-1.611-0.797-3.572,0.202-5.109l11.004-16.938    c1.504-2.315,4.602-2.973,6.917-1.469s2.973,4.601,1.469,6.917l-5.986,9.213h9.174c1.82,0,3.497,0.989,4.377,2.583    c0.88,1.594,0.824,3.54-0.145,5.08l-11.19,17.784C365.128,65.723,363.503,66.55,361.841,66.55z" style="fill:#333333;"/><path d="M391.805,126.509c-0.91,0-1.831-0.248-2.658-0.769c-2.337-1.471-3.04-4.558-1.569-6.895    l6.369-10.122h-9.332c-1.833,0-3.52-1.003-4.395-2.615c-0.875-1.611-0.797-3.572,0.202-5.109l11.004-16.937    c1.505-2.316,4.602-2.972,6.917-1.469c2.315,1.504,2.973,4.601,1.469,6.917l-5.986,9.213H403c1.82,0,3.497,0.989,4.377,2.583    c0.88,1.594,0.824,3.54-0.145,5.08l-11.19,17.785C395.092,125.681,393.467,126.509,391.805,126.509z" style="fill:#333333;"/></g></g><g/><g/><g/><g/><g/><g/><g/><g/><g/><g/><g/><g/><g/><g/><g/></svg>