<svg width="84" height="84" viewBox="0 0 84 84" fill="none" xmlns="http://www.w3.org/2000/svg">
<path d="M41.9922 14.0039C45.7052 14.0039 49.2662 15.4789 51.8917 18.1044C54.5172 20.7299 55.9922 24.2909 55.9922 28.0039C55.9922 31.7169 54.5172 35.2779 51.8917 37.9034C49.2662 40.5289 45.7052 42.0039 41.9922 42.0039C38.2792 42.0039 34.7182 40.5289 32.0927 37.9034C29.4672 35.2779 27.9922 31.7169 27.9922 28.0039C27.9922 24.2909 29.4672 20.7299 32.0927 18.1044C34.7182 15.4789 38.2792 14.0039 41.9922 14.0039ZM41.9922 49.0039C57.4622 49.0039 69.9922 55.2689 69.9922 63.0039V70.0039H13.9922V63.0039C13.9922 55.2689 26.5222 49.0039 41.9922 49.0039Z" fill="#08080D"/>
</svg>
