<svg width="916" height="937" viewBox="0 0 916 937" fill="none" xmlns="http://www.w3.org/2000/svg">
<path opacity="0.37" d="M80.097 762.502C82.0935 767.453 84.3001 772.405 86.7168 777.146C122.653 847.835 195.575 892.398 273.331 900.405C335.536 906.726 396.06 886.393 448.072 853.208C499.979 820.128 541.589 773.564 599.276 749.333C680.605 715.305 771.285 688.441 835.066 616.382C907.568 534.525 935.518 410.423 901.369 305.705C868.165 203.516 757.94 170.436 672.304 125.452C518.368 44.4378 305.169 -9.39598 144.929 85.7349C-47.0445 199.618 -12.1594 458.146 48.6794 637.557C62.5494 678.433 64.2306 722.469 80.097 762.502Z" fill="#CCE9FF"/>
<path d="M178.027 278.106L177.712 276.104H175.715C136.837 276.104 124.228 263.568 124.123 263.463L122.442 261.566L120.761 263.463C120.656 263.568 108.152 276.104 69.1687 276.104H67.1722L66.857 278.106C66.7519 278.738 58.556 341.527 121.391 373.764L122.442 374.291L123.493 373.764C186.538 341.527 178.027 278.738 178.027 278.106ZM168.57 316.98C160.795 339.525 145.243 357.013 122.337 369.023C99.4305 357.013 83.8793 339.525 76.1037 316.98C70.4296 300.44 70.7448 286.007 71.1651 280.845C103.528 280.424 117.924 271.785 122.337 268.203C126.75 271.68 141.145 280.424 173.509 280.845C173.929 286.113 174.244 300.44 168.57 316.98ZM239.706 197.408L237.5 191.614C235.503 191.403 233.612 190.877 231.721 190.244L227.202 194.458L214.173 185.082L216.695 179.393C215.434 177.813 214.383 176.128 213.543 174.337L207.343 174.126L204.716 158.218L210.495 156.006C210.706 154.004 211.231 152.108 211.861 150.211L207.658 145.681L217.01 132.513L222.684 135.041C224.26 133.777 225.942 132.723 227.728 131.881L227.938 125.665L243.804 123.031L246.011 128.825C248.007 129.036 249.899 129.563 251.79 130.195L256.308 125.981L269.338 135.357L266.816 141.046C268.077 142.626 269.128 144.312 269.968 146.103L276.168 146.314L278.795 162.221L273.015 164.434C272.7 166.435 272.28 168.332 271.65 170.228L275.853 174.758L266.501 187.927L260.827 185.398C259.251 186.663 257.569 187.716 255.783 188.559L255.573 194.774L239.706 197.408ZM230.67 185.188L231.931 185.714C234.243 186.663 236.764 187.189 239.286 187.4L240.652 187.505L242.544 192.457L251.265 190.982L251.475 185.714L252.736 185.188C255.048 184.134 257.149 182.765 259.145 181.184L260.196 180.342L265.03 182.554L270.178 175.39L266.501 171.492L267.026 170.228C267.972 167.91 268.497 165.382 268.707 162.853L268.812 161.484L273.751 159.588L272.28 150.844L267.026 150.633L266.501 149.369C265.45 147.051 264.084 144.944 262.508 142.942L261.667 141.889L263.874 137.043L256.729 131.881L252.841 135.463L251.58 134.936C249.268 133.988 246.747 133.461 244.225 133.25L242.859 133.145L240.967 128.193L232.246 129.668L232.036 134.936L230.775 135.463C228.463 136.516 226.362 137.886 224.365 139.466L223.315 140.309L218.481 138.096L213.333 145.26L217.01 149.158L216.485 150.422C215.539 152.74 215.014 155.268 214.804 157.797L214.698 159.166L209.76 161.063L211.231 169.807L216.485 170.017L217.01 171.281C218.061 173.599 219.427 175.706 221.003 177.708L221.844 178.761L219.637 183.607L226.782 188.77L230.67 185.188ZM241.598 177.813C238.025 177.813 234.453 176.654 231.511 174.547C223.63 168.964 221.844 158.007 227.413 150.106C232.982 142.205 243.91 140.414 251.79 145.998C255.573 148.737 258.095 152.74 258.935 157.375C259.671 162.011 258.62 166.646 255.993 170.439C253.261 174.231 249.268 176.76 244.645 177.602C243.489 177.708 242.544 177.813 241.598 177.813ZM241.598 147.156C237.5 147.156 233.507 149.053 230.985 152.635C228.989 155.479 228.148 158.956 228.779 162.432C229.409 165.909 231.195 168.858 234.032 170.86C236.869 172.862 240.337 173.704 243.804 173.072C247.272 172.44 250.214 170.649 252.211 167.805C254.207 164.96 255.048 161.484 254.417 158.007C253.787 154.531 252 151.581 249.163 149.579C246.852 147.999 244.225 147.156 241.598 147.156ZM743.439 369.128L738.501 356.17C733.247 355.538 727.993 354.379 723.055 352.588L712.967 362.07L685.648 342.58L691.322 329.938C688.064 325.83 685.227 321.3 682.916 316.453L669.151 316.032L663.582 282.847L676.506 277.895C677.137 272.628 678.292 267.36 680.079 262.409L670.622 252.295L690.061 224.904L702.67 230.593C706.768 227.328 711.286 224.483 716.12 222.165L716.54 208.365L749.639 202.781L754.577 215.739C759.831 216.371 765.085 217.53 770.023 219.321L780.111 209.839L807.43 229.329L801.756 241.971C805.014 246.08 807.851 250.61 810.162 255.456L823.927 255.877L829.496 289.063L816.572 294.014C815.942 299.281 814.786 304.549 812.999 309.5L822.456 319.614L803.017 347.005L790.408 341.316C786.31 344.582 781.792 347.426 776.958 349.744L776.538 363.545L743.439 369.128ZM721.584 345.846L723.265 346.478C728.834 348.585 734.718 349.955 740.707 350.481L742.599 350.692L747.117 362.491L770.654 358.488L771.074 345.846L772.755 345.109C778.219 342.686 783.368 339.42 787.991 335.522L789.357 334.363L800.916 339.525L814.786 320.035L806.17 310.765L806.8 309.079C808.901 303.495 810.267 297.596 810.793 291.591L810.898 289.695L822.666 285.165L818.673 261.566L806.064 261.145L805.329 259.459C802.912 253.981 799.655 248.819 795.767 244.184L794.611 242.814L799.76 231.225L780.321 217.319L771.074 225.958L769.393 225.326C763.824 223.219 757.94 221.849 751.95 221.323L750.059 221.217L745.541 209.418L722.004 213.421L721.584 226.063L719.902 226.801C714.438 229.224 709.29 232.49 704.666 236.388L703.3 237.546L691.742 232.384L678.082 251.874L686.698 261.145L686.068 262.83C683.966 268.414 682.6 274.314 682.075 280.318L681.97 282.215L670.202 286.745L674.194 310.343L686.803 310.765L687.539 312.45C689.956 317.928 693.213 323.091 697.101 327.726L698.257 329.095L693.108 340.684L712.547 354.59L721.584 345.846ZM746.381 324.144C738.711 324.144 731.04 321.826 724.316 317.086C707.188 304.865 703.195 280.951 715.384 263.779C727.573 246.607 751.425 242.603 768.552 254.824C785.68 267.044 789.673 290.959 777.484 308.131C770.023 318.56 758.255 324.144 746.381 324.144ZM746.486 253.665C736.399 253.665 726.417 258.406 720.218 267.255C715.174 274.314 713.283 282.847 714.649 291.38C716.12 299.914 720.743 307.288 727.783 312.345C742.283 322.669 762.458 319.298 772.755 304.76C777.694 297.701 779.69 289.168 778.324 280.635C776.853 272.101 772.23 264.727 765.19 259.67C759.411 255.561 752.896 253.665 746.486 253.665ZM231.826 606.165C226.782 591.943 221.003 575.93 227.413 559.495C236.029 537.372 217.746 525.994 201.669 515.775C187.799 507.137 174.77 498.919 179.183 485.329C184.016 470.58 183.701 459.202 178.237 451.723C173.614 445.402 165.418 442.03 154.49 442.136C145.769 442.241 137.993 431.495 129.692 420.223C119.92 406.949 109.938 393.253 97.329 396.309C95.1224 396.835 93.3361 398.1 92.2853 400.101C87.8721 408.424 94.8071 428.23 102.268 449.3C110.253 472.055 119.395 497.76 113.406 508.717C106.891 520.727 118.659 531.683 131.163 543.377C144.403 555.703 159.429 569.714 155.436 587.308C151.653 603.742 150.812 609.853 153.124 613.435C154.91 616.279 158.588 616.911 164.157 617.965C167.94 618.702 172.773 619.545 178.658 621.441C203.981 629.342 211.336 645.777 211.441 645.988L211.756 646.725L212.492 646.62C224.681 644.723 231.826 641.247 235.188 635.663C235.398 635.347 235.503 635.031 235.714 634.715C239.286 627.235 235.819 617.438 231.826 606.165Z" fill="#FFBE55"/>
<path d="M167.106 574.768C171.309 581.3 174.356 586.989 174.041 594.995C173.831 602.475 172.675 609.85 172.044 617.224C171.939 618.804 171.834 620.279 171.729 621.754C169.628 619.963 167.631 618.172 165.53 616.381C164.584 616.276 163.638 616.276 162.587 616.276C165.53 618.699 168.577 621.333 171.519 623.967C171.204 629.129 171.099 634.291 171.099 639.453C171.099 642.508 170.994 645.774 171.204 648.829C168.472 647.144 165.635 645.458 163.008 643.772C154.812 638.716 147.141 633.975 141.257 631.446C136.739 629.55 131.695 627.865 126.862 626.284C114.253 622.176 101.328 617.962 97.0203 609.007C94.8137 604.372 95.0238 598.788 97.6507 592.046C104.27 574.663 98.071 571.713 87.6685 566.656C80.1031 562.969 69.8057 558.018 59.5082 545.481C54.99 540.003 50.9971 535.262 47.4245 531.153C36.8119 518.617 30.9277 511.769 31.6632 507.766C31.8733 506.818 32.3987 505.975 33.4495 505.132C33.9748 504.711 34.6053 504.289 35.4459 503.868C39.4388 501.655 43.4317 503.341 47.9499 505.237C54.0443 507.766 61.5047 511.032 71.9072 505.659C80.1031 501.445 89.2447 497.547 94.7086 500.707C98.4913 502.814 100.698 508.293 101.433 517.247C101.644 520.092 102.589 522.093 104.165 523.252C106.477 524.938 110.05 524.727 114.148 523.884C116.985 527.782 120.662 529.679 125.075 531.259C131.275 533.471 135.898 535.473 140.417 540.53C150.083 551.486 159.435 562.653 167.106 574.768Z" fill="#2A94F4"/>
<path d="M133.589 592.151C127.284 587.937 121.82 577.718 116.567 567.815C109.422 554.33 101.961 540.424 91.7688 540.74C75.377 541.162 60.7715 521.777 60.5613 521.672L59.1953 522.725C59.8258 523.568 74.5364 542.953 91.7688 542.531C100.91 542.32 108.161 555.7 114.991 568.763C120.349 578.771 125.918 589.201 132.538 593.731C136.531 596.365 143.886 601.738 152.608 608.585V606.373C144.937 599.947 138.107 595.101 133.589 592.151Z" fill="white"/>
<path d="M687.333 722.68C687.333 722.68 696.79 699.082 679.557 665.58C662.22 632.079 648.245 637.241 689.96 611.431C731.675 585.62 690.17 504.501 725.686 494.176C761.201 483.852 791.988 352.481 818.993 369.231C845.997 385.982 809.956 450.351 829.29 469.735C848.519 489.119 851.146 513.666 811.322 533.577C771.499 553.488 839.588 629.551 785.579 652.728C731.57 675.905 747.121 766.822 687.333 722.68Z" fill="#FFBE55"/>
<path d="M703.832 747.65C703.727 747.334 697.948 717.204 716.337 678.224C735.04 638.507 743.971 595.103 740.294 562.024C738.297 544.114 749.751 537.161 760.784 530.419C771.711 523.782 782.954 516.828 782.324 499.235C781.799 483.327 788.523 446.033 788.734 444.453L791.15 444.875C791.045 445.296 784.215 483.538 784.741 499.13C785.371 518.198 773.498 525.467 762.044 532.42C751.117 539.057 740.924 545.378 742.71 561.707C746.493 595.103 737.457 639.034 718.543 679.172C700.575 717.414 706.144 746.807 706.249 747.123L703.832 747.65Z" fill="white"/>
<path d="M847.26 551.91C862.286 544.746 878.257 548.012 869.956 563.077C861.655 578.142 849.256 579.301 851.568 591.206C853.88 603.11 859.974 616.068 840.43 623.653C820.886 631.133 811.744 629.869 799.871 651.887C787.892 673.905 783.794 690.234 763.304 684.967C742.815 679.594 759.837 652.519 770.449 641.141C770.449 641.141 784.845 628.921 784.635 606.903C784.425 584.885 775.388 570.136 803.758 571.611C832.129 572.875 837.067 556.756 847.26 551.91Z" fill="#0E538C"/>
<path d="M760.047 700.346C760.887 697.502 780.641 629.34 796.823 621.966C813.32 614.381 822.251 594.575 826.139 583.513C831.183 569.08 852.723 566.236 853.564 566.131L853.879 568.554C853.669 568.554 832.969 571.293 828.451 584.251C823.617 598.262 814.371 616.593 797.874 624.178C782.743 631.131 762.674 700.346 762.463 701.084L760.047 700.346ZM239.607 645.459C207.243 637.347 206.823 619.859 206.403 603.003C206.088 589.202 205.772 576.139 188.225 568.132C165.003 557.492 164.478 537.792 163.952 520.409C163.532 507.451 163.217 495.23 153.55 488.593C130.328 472.685 110.679 434.127 110.469 433.706L112.255 432.758C112.465 433.179 131.799 471.21 154.706 486.908C165.213 494.071 165.633 506.819 165.949 520.303C166.474 537.897 166.999 556.228 189.065 566.236C207.664 574.769 208.084 589.097 208.399 602.898C208.82 619.754 209.24 635.767 240.132 643.457L239.607 645.459Z" fill="white"/>
<path d="M195.992 629.871H727.57V245.133C727.57 239.655 723.157 235.125 717.588 235.125H205.974C200.51 235.125 195.992 239.55 195.992 245.133V629.871Z" fill="#F7F7F7"/>
<path d="M707.781 558.141L214.766 558.141L214.766 254.417L707.781 254.417V558.141Z" fill="#0B4870" stroke="white" stroke-miterlimit="10"/>
<path d="M727.58 572.875H196.212L138 790.844H785.687L727.58 572.875Z" fill="#F2F2F2"/>
<path d="M216.276 611.114H248.954C250.32 611.114 251.371 612.167 251.056 613.326L247.903 627.548C247.693 628.391 246.853 629.023 245.802 629.023H212.598C211.232 629.023 210.181 627.97 210.496 626.706L214.174 612.483C214.384 611.746 215.225 611.114 216.276 611.114ZM263.875 611.114H288.568L285.31 629.129H260.092L263.875 611.114ZM300.862 611.114H325.554L323.033 629.129H297.814L300.862 611.114ZM337.953 611.114H362.646L360.755 629.129H335.537L337.953 611.114ZM374.94 611.114H399.633L398.477 629.129H373.259L374.94 611.114ZM411.927 611.114H436.619L436.199 629.129H410.981L411.927 611.114ZM708.24 611.114H671.148L675.141 629.129H712.863L708.24 611.114ZM658.854 611.114H634.162L637.419 629.129H662.637L658.854 611.114ZM621.868 611.114H597.175L599.697 629.129H624.915L621.868 611.114ZM584.776 611.114H560.083L561.975 629.129H587.193L584.776 611.114ZM547.789 611.114H523.097L524.252 629.129H549.471L547.789 611.114ZM510.803 611.114H486.11L486.53 629.129H511.748L510.803 611.114ZM449.018 611.114H473.711L474.026 629.129H449.018V611.114ZM205.453 642.508H256.94L253.998 661.05H201.46L205.453 642.508ZM716.226 642.508H652.55L656.122 661.05H721.164L716.226 642.508ZM639.731 642.508H614.302L617.139 661.05H643.198L639.731 642.508ZM601.483 642.508H576.055L578.156 661.05H604.215L601.483 642.508ZM563.236 642.508H537.807L539.278 661.05H565.232L563.236 642.508ZM524.988 642.508H499.56L500.295 661.05H526.249L524.988 642.508ZM197.677 675.482H250.425L246.537 693.919H192.844L197.677 675.482ZM263.56 675.482H289.934L286.886 693.919H259.987L263.56 675.482ZM303.173 675.482H500.821L501.556 693.919H300.231L303.173 675.482ZM514.06 675.482H540.434L541.905 693.919H515.006L514.06 675.482ZM553.569 675.482H579.943L582.149 693.919H555.25L553.569 675.482ZM593.182 675.482H619.556L622.393 693.919H595.599L593.182 675.482ZM632.691 675.482H659.065L662.637 693.919H635.843L632.691 675.482ZM672.199 675.482H724.947L729.781 693.919H676.087L672.199 675.482ZM486.846 642.508H461.522V661.05H487.266L486.846 642.508ZM448.598 642.508H423.065L422.329 661.05H448.388L448.598 642.508ZM410.35 642.508H384.817L383.346 661.05H409.405L410.35 642.508ZM372.103 642.508H346.569L344.363 661.05H370.422L372.103 642.508ZM333.855 642.508H308.322L305.38 661.05H331.439L333.855 642.508ZM295.608 642.508H270.074L266.502 661.05H292.455L295.608 642.508ZM217.431 599.841L221.634 583.828H233.613L229.725 599.841H217.431ZM245.592 583.828H269.549L266.292 599.841H241.809L245.592 583.828ZM281.633 583.828H305.59L302.858 599.841H278.48L281.633 583.828ZM317.569 583.828H341.526L339.424 599.841H315.047L317.569 583.828ZM353.504 583.828H377.462L375.991 599.841H351.613L353.504 583.828ZM389.44 583.828H413.398L412.557 599.841H388.179L389.44 583.828ZM425.376 583.828H449.333L449.123 599.841H424.746L425.376 583.828ZM461.312 583.828H485.269L485.69 599.841H461.312V583.828ZM497.248 583.828H521.205L522.256 599.841H497.878L497.248 583.828ZM533.184 583.828H557.246L558.822 599.841H534.445L533.184 583.828ZM569.225 583.828H593.182L595.494 599.841H571.116L569.225 583.828ZM605.161 583.828H629.118L632.06 599.841H607.683L605.161 583.828ZM641.097 583.828H665.054L668.626 599.841H644.249L641.097 583.828ZM677.033 583.828H700.99L705.193 599.841H680.815L677.033 583.828Z" fill="#0B4870" stroke="white" stroke-miterlimit="10"/>
<path d="M768.769 807.804H154.917C145.565 807.804 138 800.219 138 790.843H785.687C785.687 800.219 778.121 807.804 768.769 807.804ZM537.183 720.364C536.552 716.571 533.19 713.727 529.407 713.727H394.385C390.497 713.727 387.239 716.571 386.609 720.364L378.203 771.458C377.362 776.304 381.145 780.729 385.979 780.729H537.708C542.646 780.729 546.324 776.304 545.483 771.458L537.183 720.364Z" fill="#D3D3D3"/>
<path d="M248.008 280.211H302.962V285.9H248.008V280.211ZM318.409 322.667H358.022V328.356H318.409V322.667ZM364.222 322.667H390.49V328.356H364.222V322.667ZM248.638 429.492H274.907V435.18H248.638V429.492ZM395.744 322.667H459.315V328.356H395.744V322.667ZM248.638 408.106H289.513V413.794H248.638V408.106ZM305.589 450.667H330.492V456.356H305.589V450.667ZM248.638 450.667H298.024V456.356H248.638V450.667ZM248.638 471.948H275.853V477.636H248.638V471.948ZM313.68 280.211H352.663V285.9H313.68V280.211ZM313.68 343.948H352.663V349.636H313.68V343.948ZM294.136 365.123H310.843V370.812H294.136V365.123ZM277.534 386.72H314.941V392.408H277.534V386.72ZM320.615 386.72H372.312V392.408H320.615V386.72ZM248.638 365.334H287.621V371.022H248.638V365.334ZM248.638 386.72H271.755V392.408H248.638V386.72ZM318.724 365.334H340.579V371.022H318.724V365.334ZM249.374 493.123H271.23V498.812H249.374V493.123ZM248.533 322.667H287.516V328.356H248.533V322.667ZM282.998 429.492H321.981V435.18H282.998V429.492ZM283.523 471.948H322.506V477.636H283.523V471.948ZM352.768 471.948H391.751V477.636H352.768V471.948ZM248.533 343.948H304.118V349.636H248.533V343.948ZM509.016 280.211H547.999V285.9H509.016V280.211ZM370.106 493.123H409.089V498.812H370.106V493.123ZM560.083 280.211H586.141V285.9H560.083V280.211ZM648.451 301.492H674.51V307.18H648.451V301.492ZM363.171 280.211H412.872V285.9H363.171V280.211ZM556.72 301.492H606.421V307.18H556.72V301.492ZM495.776 322.667H545.477V328.356H495.776V322.667ZM431.155 343.948H480.856V349.636H431.155V343.948ZM551.677 322.667H586.982V328.356H551.677V322.667ZM449.543 280.211H499.244V285.9H449.543V280.211ZM392.907 343.948H422.013V349.636H392.907V343.948ZM370.106 429.808H399.212V435.497H370.106V429.808ZM422.013 280.211H440.191V285.9H422.013V280.211ZM363.171 343.948H381.349V349.636H363.171V343.948ZM618.4 301.492H636.578V307.18H618.4V301.492ZM248.008 301.492H276.483V307.18H248.008V301.492ZM323.978 408.211H346.464V413.9H323.978V408.211ZM283.523 301.492H292.665V307.18H283.523V301.492ZM472.029 301.492H547.999V307.18H472.029V301.492ZM399.212 471.948H475.181V477.636H399.212V471.948ZM299.39 301.492H308.742V307.18H299.39V301.492ZM440.191 301.492H464.989V307.18H440.191V301.492ZM465.094 322.667H489.892V328.356H465.094V322.667ZM337.322 493.123H362.12V498.812H337.322V493.123ZM380.823 301.492H433.677V307.18H380.823V301.492ZM331.543 429.808H362.435V435.497H331.543V429.808ZM329.652 471.948H345.098V477.636H329.652V471.948ZM355.08 301.492H373.258V307.18H355.08V301.492ZM293.926 322.667H312.104V328.356H293.926V322.667ZM297.498 408.211H315.677V413.9H297.498V408.211ZM316.517 301.492H348.25V307.18H316.517V301.492Z" fill="#F7F7F7"/>
<path d="M582.578 344.159C582.578 344.159 591.824 359.856 595.712 362.385C600.966 365.861 597.709 369.338 595.187 369.443C592.665 369.443 579.846 370.391 577.009 367.125C574.172 363.859 572.806 354.273 570.179 351.744C567.552 349.216 564.82 339.208 571.44 336.785C577.219 334.572 582.578 344.159 582.578 344.159Z" fill="#FFB750"/>
<path d="M578.469 337.312C578.469 337.312 589.082 355.748 590.868 358.382C592.654 361.121 587.4 361.121 584.143 359.857C580.886 358.593 572.69 345.424 571.534 343.001C570.168 340.156 571.324 336.891 571.324 336.891L578.469 337.312Z" fill="#FFE3CA"/>
<path d="M567.754 347.111L570.276 365.969L571.537 366.074L571.116 352.484L567.754 347.111ZM490.839 344.161C490.839 344.161 500.085 359.859 503.973 362.387C509.227 365.864 505.97 369.34 503.448 369.445C500.926 369.445 488.107 370.394 485.27 367.128C482.433 363.862 481.067 354.275 478.44 351.747C475.813 349.218 472.976 338.894 479.701 336.787C485.585 334.891 490.839 344.161 490.839 344.161Z" fill="#FFB750"/>
<path d="M487.362 337.312C487.362 337.312 497.344 355.643 499.235 358.382C501.021 361.121 495.768 361.121 492.51 359.857C489.253 358.593 481.057 345.424 479.901 343.001C478.535 340.156 479.691 336.891 479.691 336.891L487.362 337.312Z" fill="#FFE3CA"/>
<path d="M476.133 347.109L478.55 365.967L479.916 366.072L479.495 352.482L476.133 347.109Z" fill="#FFB750"/>
<path d="M449.859 201.2L533.5 239.442C533.5 239.442 542.851 242.497 543.902 252.926C547.159 285.374 571.327 336.785 571.327 336.785C579.103 340.577 578.472 337.312 578.472 337.312C573.533 321.509 567.649 256.614 565.443 230.592C565.022 225.114 564.707 221.322 564.602 220.057C564.602 219.215 563.656 218.161 562.08 216.897C550.627 207.521 503.343 188.242 503.343 188.242C468.143 187.294 449.859 201.2 449.859 201.2Z" fill="#FFE3CA"/>
<path d="M434.103 217.632C436.73 240.282 468.988 237.754 468.988 237.754H508.076C508.076 237.754 497.779 260.72 493.786 279.999C489.583 300.542 479.601 336.783 479.601 336.783C479.601 336.783 480.231 338.047 487.376 337.309C487.376 337.309 518.058 275.996 529.827 260.509C532.349 257.243 539.599 239.123 540.86 228.378C541.28 224.796 541.07 221.951 539.704 220.792C538.338 219.634 535.186 217.527 531.088 214.893C518.794 207.097 497.568 195.192 485.695 192.559C469.829 188.977 444.715 182.234 444.715 182.234C444.715 182.234 431.476 194.982 434.103 217.632Z" fill="#FFE3CA"/>
<path d="M460.672 42.9632C460.672 42.9632 454.788 31.7961 457.625 19.997C460.462 8.09243 471.495 -3.70674 487.571 1.77144C503.648 7.24963 516.677 19.6809 507.01 34.2192C497.343 48.6521 515.732 55.2891 511.003 62.1369C506.275 68.9846 508.061 76.2538 510.057 77.834C512.054 79.4142 518.464 85.1031 517.728 91.9509C516.992 98.6933 486.52 72.2505 486.52 72.2505C486.52 72.2505 470.024 38.6439 460.672 42.9632Z" fill="#0E538C"/>
<path d="M509.757 185.398C509.757 185.398 507.34 197.198 444.82 182.343C444.82 182.343 465.73 175.39 509.757 185.398Z" fill="#EB4747"/>
<path d="M444.081 185.61C443.136 187.507 442.19 189.298 441.139 191.194C463.941 191.826 486.847 192.564 509.649 193.196C506.076 181.08 507.232 164.646 507.862 152.215C508.598 136.939 517.004 126.404 516.163 111.023C520.682 111.76 521.417 111.866 525.935 112.603C519 92.7973 516.689 82.9998 495.148 75.4146C488.108 72.8862 483.59 72.4648 476.024 73.0969C451.121 75.2039 443.661 75.4146 431.367 98.0648C450.491 101.12 447.339 107.968 453.118 127.141C455.955 136.412 458.897 146.842 457.426 156.639C455.955 166.226 444.081 176.866 444.081 185.61Z" fill="white"/>
<path d="M483.789 80.1541C473.596 78.2578 475.803 72.5689 475.803 72.5689C475.803 72.5689 476.223 69.4084 476.433 65.2998C476.433 64.2463 476.539 63.1928 476.539 62.0339C476.539 60.3483 476.434 58.6627 476.223 56.9771C475.383 50.1294 494.717 54.238 494.717 54.238C494.717 54.238 493.561 68.1442 496.293 72.2528C498.92 76.4668 493.981 82.1557 483.789 80.1541Z" fill="#FFE3CA"/>
<path d="M464.352 72.5664C464.352 72.5664 484.947 96.3755 492.512 101.854C492.512 101.854 501.233 93.9525 495.874 73.0932C495.874 73.0932 485.997 68.0364 464.352 72.5664ZM464.982 15.2562C464.982 15.2562 454.264 35.9047 464.877 55.3944C475.49 74.8841 496.295 46.8611 497.556 43.5953C498.922 40.3294 506.067 21.6825 491.882 16.099C477.696 10.4101 468.029 9.67262 464.982 15.2562Z" fill="#FFE3CA"/>
<path d="M485.587 57.5C485.587 57.5 483.696 61.6086 476.445 65.2959C476.445 64.2424 476.55 63.1889 476.55 62.03C476.55 62.03 481.489 61.5033 485.587 57.5Z" fill="#FCD2B1"/>
<path d="M377.677 167.065C377.677 167.065 372.633 169.278 370.216 168.329C367.799 167.276 364.122 167.065 362.966 167.065C361.39 167.065 356.451 165.274 356.556 167.276C356.661 169.172 364.542 170.542 366.118 171.174C367.694 171.806 361.285 175.282 360.654 176.863C360.024 178.443 367.379 188.767 371.477 185.817C375.575 182.868 377.782 176.968 378.622 176.547C379.463 176.125 381.669 174.545 381.669 174.545L377.677 167.065Z" fill="#FFE3CA"/>
<path d="M361.491 175.914C361.491 175.914 349.617 185.817 349.407 187.187C349.197 188.556 349.828 189.188 350.983 188.24C352.139 187.397 362.752 178.969 362.752 178.969C362.752 178.969 350.878 193.086 350.458 194.14C350.248 194.772 351.404 196.036 352.034 195.614C352.665 195.193 365.379 181.919 365.379 181.919C365.379 181.919 354.241 195.088 354.241 196.141C354.136 196.984 355.502 197.932 356.447 196.984C357.393 196.036 368.426 184.447 368.426 184.447C368.426 184.447 360.966 194.561 361.491 195.509C361.806 196.036 362.752 197.195 364.538 194.561C366.324 191.927 371.368 186.028 371.368 186.028L361.491 175.914Z" fill="#FFE3CA"/>
<path d="M503.978 237.648H468.988C468.988 237.648 436.73 240.282 434.103 217.527C431.476 194.876 444.715 182.234 444.715 182.234C444.715 182.234 461.738 186.764 476.658 190.346C484.119 188.766 493.05 187.713 503.558 188.029C503.558 188.029 566.603 208.888 564.712 219.95C564.712 220.055 538.338 205.938 503.978 237.648Z" fill="#0E538C"/>
<path d="M481.172 198.46L548 197.406L514.271 214.578L481.172 198.46Z" fill="#F2F2F2"/>
<path d="M501.973 189.821C501.973 189.821 486.948 195.615 468.559 190.348L467.719 183.5L505.651 185.607L501.973 189.821Z" fill="white"/>
<path d="M514.271 214.579L481.172 201.727V198.461L516.898 211.314L514.271 214.579Z" fill="#D3D3D3"/>
<path d="M501.653 193.089C501.443 195.512 503.965 197.303 506.277 196.355L510.164 194.669C511.32 194.142 512.056 192.983 511.846 191.719C510.269 181.606 506.802 142.205 511.846 135.357C513.737 132.829 514.893 130.616 515.523 128.72C518.886 137.359 522.984 148.526 524.665 154.531L556.188 196.671L566.8 199.41C553.561 167.489 542.948 150.633 542.948 150.633C540.847 145.049 534.962 128.193 529.708 113.234C526.346 103.752 523.404 95.0081 521.723 90.3728C520.882 87.9497 519.306 85.9481 517.099 84.6839C512.161 81.7341 504.07 77.0987 496.715 73.5168H496.61C496.399 73.4114 496.189 73.3061 495.874 73.2007C509.954 94.3761 504.49 154.531 501.653 193.089C501.653 192.983 501.653 192.983 501.653 193.089ZM449.536 74.8863C445.017 75.6238 433.879 86.4748 427.995 97.4312C421.27 109.968 414.335 124.19 409.187 128.825C399.73 137.464 373.146 167.91 371.885 167.173C371.359 166.857 379.135 176.233 380.186 176.654C380.711 176.865 423.792 139.36 427.995 133.672C431.883 128.299 442.391 105.543 445.543 106.07C445.753 106.597 449.641 114.919 453.213 127.034C453.318 127.245 453.318 127.456 453.424 127.667C455.945 136.095 455.735 145.365 454.369 155.69C453.318 163.486 447.539 176.233 444.072 182.448C443.651 183.186 443.757 184.661 444.177 185.714C444.492 186.346 444.807 186.873 445.333 187.084L458.047 191.825L460.989 192.878C463.091 193.721 465.402 193.3 467.083 192.035C468.449 191.087 469.5 189.507 469.71 187.611C472.547 165.909 476.12 143.68 478.957 135.357C491.461 98.6954 474.123 71.0938 474.123 71.0938C474.123 71.0938 453.529 73.4114 449.536 74.8863Z" fill="#FFBE55"/>
<path d="M514.273 214.579L534.133 160.219L598.124 161.272L579.21 211.419L514.273 214.579Z" fill="#FFBE55"/>
<path d="M554.614 184.234C552.617 188.132 553.248 192.451 555.98 193.715C558.712 195.085 562.389 192.978 564.386 189.08C566.382 185.182 565.752 180.862 563.02 179.598C560.288 178.229 556.505 180.336 554.614 184.234Z" fill="#F2F0F0"/>
<path d="M515.748 81.522C511.02 74.3582 507.658 68.6693 507.237 58.4504C506.922 51.708 505.451 42.5425 500.828 38.0125C505.661 25.3705 499.987 21.5779 497.675 17.4693C494.838 12.3072 473.823 -0.124118 465.522 12.9393C457.221 25.8973 460.163 39.4874 460.163 39.4874C461.004 32.3236 468.359 22.6314 468.359 22.6314C469.515 30.1113 484.961 42.3319 491.686 47.2833C491.581 47.3886 491.476 47.5993 491.476 47.7047C487.693 53.1829 492.421 58.6611 493.262 64.4553C494.103 70.2495 477.396 85.8413 495.994 93.6372C514.593 101.538 520.477 88.5804 515.748 81.522ZM177.51 695.184C177.51 695.184 177.089 699.609 156.495 699.609C135.9 699.609 105.953 694.236 105.953 694.236L153.763 689.601C153.763 689.601 172.151 688.653 177.51 695.184Z" fill="#0E538C"/>
<path d="M125.074 696.765C113.411 696.765 108.472 702.77 103.849 704.666C99.2255 706.562 94.6022 709.407 94.6022 709.301C97.229 704.139 100.907 704.034 102.798 702.348C104.689 700.663 104.164 701.505 100.066 701.189C97.7544 700.979 93.5514 705.298 90.6093 707.721C87.9824 709.723 86.4062 709.933 86.4062 709.933C86.4062 709.933 89.4534 705.614 93.2362 702.138C97.8595 697.924 103.639 694.447 105.005 693.815C107.526 692.761 115.302 692.551 120.766 693.288C127.071 694.131 133.48 696.765 125.074 696.765Z" fill="#0E538C"/>
<path d="M105.736 694.026C105.736 694.026 96.8049 696.344 95.2288 697.608C94.178 698.451 89.5547 703.402 89.5547 703.402C89.5547 703.402 92.9171 702.876 94.8085 700.979C96.8049 698.978 105.736 694.026 105.736 694.026ZM160.586 686.125C160.586 686.125 183.072 687.6 181.496 701.506C180.655 709.407 175.507 712.146 168.677 711.514C156.068 710.461 141.777 708.564 141.777 708.564L135.368 686.968L160.586 686.125Z" fill="#0E538C"/>
<path d="M165.318 688.023L187.384 616.701C187.384 616.701 190.641 606.272 196 608.168C203.671 611.013 199.888 619.546 199.257 624.603C197.891 634.927 198.837 639.457 191.692 664.32C187.279 679.701 183.496 697.399 179.713 707.513C177.086 714.466 172.568 704.458 165.738 701.719C152.919 696.557 165.318 688.023 165.318 688.023ZM166.999 577.933C171.307 590.364 184.652 596.79 196.946 592.26C209.134 587.73 215.649 573.93 211.341 561.498C207.033 549.067 193.688 542.641 181.394 547.171C169.206 551.701 162.691 565.502 166.999 577.933Z" fill="#0E538C"/>
<path d="M142.824 579.09C149.549 589.203 162.999 591.732 172.771 584.779L171.405 572.874C181.177 565.816 183.593 551.909 176.869 541.796L172.245 534.948C165.52 524.834 152.071 522.306 142.299 529.259L137.885 532.42C128.113 539.478 125.697 553.384 132.422 563.498L142.824 579.09Z" fill="#0E538C"/>
<path d="M134.003 545.906C135.159 547.592 136.42 549.172 137.891 550.752C147.558 561.287 160.483 565.291 168.678 560.971C172.461 566.133 176.769 570.242 180.657 573.403C185.175 577.09 196.734 578.565 196.734 578.565C203.458 585.939 178.24 629.027 176.454 628.817C172.776 628.5 168.048 604.691 171.515 596.053C173.092 592.155 175.613 587.519 174.878 585.412C172.251 578.143 168.573 579.408 168.573 579.408C168.573 579.408 163.74 585.096 159.957 584.886C156.069 584.57 149.344 578.459 149.029 578.354C147.873 577.406 146.823 576.247 145.877 574.877L135.79 559.707C133.163 555.493 132.532 550.436 134.003 545.906Z" fill="#FFE3CA"/>
<path d="M211.132 727.421C211.132 727.421 202.936 737.324 200.414 738.377C197.052 739.852 186.755 736.692 186.755 736.692C186.755 736.692 184.023 691.286 180.87 673.587C177.718 655.888 173.095 651.253 172.885 645.67C172.569 636.715 165.109 633.133 166.37 626.18C167.631 619.227 169.837 594.364 170.573 597.63C176.983 625.864 184.863 602.371 186.65 598.684C187.595 596.682 211.132 727.421 211.132 727.421Z" fill="#F2F0F0"/>
<path d="M173.82 589.205C173.82 589.205 163.837 600.161 164.573 604.481C165.203 608.8 160.265 622.285 165.203 641.037C170.772 662.423 173.715 676.961 174.765 690.973C175.816 704.984 171.088 717.837 172.979 735.009C174.45 748.494 177.497 749.231 177.497 749.231C177.497 749.231 183.487 750.706 187.69 745.439C191.893 740.277 185.588 694.344 183.487 682.966C181.385 671.483 174.66 644.724 172.874 636.823C170.667 627.131 171.088 617.228 171.193 614.383C171.718 604.375 172.979 598.16 174.03 594.367C174.135 593.84 174.66 587.941 173.82 589.205ZM191.262 602.058C196.726 617.86 213.748 625.972 229.3 620.178C244.851 614.383 253.047 596.895 247.583 581.093C242.119 565.291 225.097 557.179 209.545 562.973C193.994 568.662 185.798 586.255 191.262 602.058Z" fill="#0E538C"/>
<path d="M137.787 873.648L143.356 918.211L119.188 929.695L105.844 932.644L129.591 914.208L121.815 873.964L137.787 873.648Z" fill="#FCBAA2"/>
<path d="M144.923 924.949L139.669 926.319L136.097 923.053L116.763 932.745L99.6353 936.854C99.6353 936.854 99.4251 935.484 99.9505 934.747C102.052 931.902 114.136 925.687 114.136 925.687C114.136 925.687 114.346 929.795 116.027 929.901C117.708 930.006 132.524 922.21 135.991 920.103C141.876 916.416 143.032 913.993 143.452 914.309C144.713 914.941 144.923 924.949 144.923 924.949Z" fill="#0E538C"/>
<path d="M79.4709 811.698L60.2421 849.624L33.763 848.36L20.5234 844.462L49.8396 839.51L65.8111 807.062L79.4709 811.698Z" fill="#FCBAA2"/>
<path d="M58.6677 856.371L53.4139 855.107L51.7327 850.471L27.8805 850.155L13.6953 846.784C13.6953 846.784 15.3765 844.888 16.4273 844.361C19.5796 842.991 30.8227 842.359 30.8227 842.359C30.8227 842.359 29.6668 845.625 31.1379 846.468C32.6089 847.416 49.0008 847.943 52.9936 847.627C59.9286 847.1 61.9251 845.625 62.1352 846.047C62.8707 847.522 58.6677 856.371 58.6677 856.371Z" fill="#0E538C"/>
<path d="M219.748 698.242L205.458 704.668L205.563 724.369L107.107 708.25C107.107 708.25 97.7554 705.195 91.7661 720.682C83.255 742.594 61.6094 810.756 61.6094 810.756L75.2692 825.61L118.245 748.599C118.245 748.599 206.299 791.477 235.299 782.206C246.438 778.624 254.949 758.186 253.372 737.538C252.112 721.314 248.959 706.459 248.959 706.459L219.748 698.242Z" fill="#FFB750"/>
<path d="M207.245 781.779L136.739 776.511L142.834 889.446L122.029 890.184L106.688 757.864C106.688 757.864 110.785 738.164 124.235 741.114C137.79 744.169 170.363 770.085 207.245 781.779Z" fill="#FFB750"/>
<path d="M254.732 810.122C254.732 810.122 217.745 768.508 208.183 745.015C196.73 716.887 197.676 681.595 195.574 669.901C191.687 648.41 186.958 606.691 186.118 601.529C185.172 596.367 188.429 590.573 188.429 590.573C188.429 590.573 186.012 574.981 192.947 576.667C202.93 579.09 212.807 584.568 216.274 586.253C222.789 589.203 236.134 667.794 236.869 671.587C239.601 685.282 249.583 697.713 256.728 710.461C273.541 740.696 277.849 776.41 277.849 776.41C277.849 776.41 275.747 802.536 254.732 810.122Z" fill="#2A94F4"/>
<path d="M216.596 701.296C216.596 701.296 216.281 706.353 192.744 705.194C169.207 703.93 134.742 696.028 134.742 696.028L189.276 693.5C189.276 693.5 210.187 693.605 216.596 701.296Z" fill="#FFE3CA"/>
<path d="M153.232 698.763C141.988 698.552 137.155 704.347 132.742 706.137C128.329 707.928 123.81 710.562 123.81 710.562C126.332 705.611 129.905 705.505 131.796 703.925C133.582 702.345 133.162 703.188 129.169 702.766C126.858 702.556 122.865 706.664 120.028 708.982C117.506 710.984 115.93 711.089 115.93 711.089C115.93 711.089 118.872 706.875 122.549 703.504C127.068 699.5 132.532 696.129 133.898 695.602C136.314 694.654 143.775 694.549 149.134 695.392C155.123 696.235 161.322 698.974 153.232 698.763Z" fill="#FFE3CA"/>
<path d="M134.426 695.711C134.426 695.711 125.81 697.818 124.339 698.977C123.288 699.82 118.875 704.56 118.875 704.56C118.875 704.56 122.027 704.034 123.919 702.243C125.81 700.557 134.426 695.711 134.426 695.711Z" fill="#FFE3CA"/>
<path d="M197.789 695.71L232.674 677.273C232.674 677.273 232.779 699.608 232.989 708.141C233.2 716.674 236.772 728.684 230.047 730.475C223.322 732.266 219.855 731.318 226.79 735.427C233.725 739.43 232.149 743.644 229.522 747.12C226.895 750.597 238.348 785.994 235.616 787.996C224.794 774.301 213.13 757.339 208.086 745.013C201.677 729 199.155 710.669 197.789 695.71Z" fill="#0E538C"/>
<path d="M209.028 686.755L207.662 615.538C207.662 615.538 207.767 593.309 208.188 586.778C208.608 580.035 220.061 587.937 220.061 587.937C220.061 587.937 236.138 609.744 236.453 662.314C236.663 697.5 234.772 715.831 218.59 714.356C203.564 712.987 186.437 710.669 186.437 710.669L178.977 691.179L209.028 686.755Z" fill="#2A94F4"/>
<path d="M205.445 724.367L85.3438 709.302L85.659 706.773L205.761 721.838L205.445 724.367Z" fill="#D3D3D3"/>
<path d="M152.816 715.098C152.606 717.1 151.03 718.575 149.349 718.364L87.7743 710.674C86.0931 710.463 83.9916 708.883 82.5205 703.615L58.7734 641.986C59.0887 639.457 61.0851 638.193 62.7663 638.825L125.707 648.728C127.388 649.36 128.544 650.835 129.174 653.574L152.816 715.098Z" fill="#D3D3D3"/>
<path d="M145.032 716.777L145.663 716.882L205.766 724.467C203.454 725.415 199.777 725.731 195.679 725.205L145.347 718.884L144.717 718.778L94.3857 712.457C90.2878 711.931 86.8203 710.666 84.7188 709.297L145.032 716.777Z" fill="#D3D3D3"/>
<path d="M209.021 686.758L207.655 615.542C207.655 615.542 208.706 609.537 210.807 604.164C211.332 611.96 214.905 668.111 215.325 675.486C215.851 683.492 222.365 684.335 223.731 686.969C225.202 689.497 223.942 690.024 219.108 689.076C214.38 688.022 216.061 688.865 217.112 691.394C218.162 694.027 215.536 693.29 206.289 689.919C199.564 687.496 186.64 689.919 180.125 691.394L209.021 686.758Z" fill="#0E538C"/>
<path d="M624.281 511.982C612.722 515.037 591.392 525.783 586.874 544.219C580.149 571.926 593.599 612.485 572.373 652.308C565.543 664.95 689.743 682.016 689.743 682.016L713.7 542.112C713.7 542.112 683.753 511.771 677.659 509.664C664.945 505.45 647.397 505.871 624.281 511.982Z" fill="#CCE9FF"/>
<path d="M713.805 542.217C718.113 553.384 729.041 619.86 716.852 635.557C715.487 637.348 723.157 640.192 721.791 648.41C721.581 649.779 719.269 656.416 719.269 656.416L709.392 659.05L687.852 634.082C687.852 634.082 696.573 620.492 708.026 568.976C711.389 553.806 712.86 539.689 713.805 542.217Z" fill="#2A94F4"/>
<path d="M632.271 621.653C632.271 621.653 642.673 649.149 667.786 656.524C672.095 657.788 674.827 662.634 672.725 664.214C669.993 666.216 666.42 666.637 660.116 666.637C646.981 666.637 629.119 662.423 616.825 649.992C598.542 631.661 592.762 623.233 594.654 614.068C596.335 604.692 632.271 621.653 632.271 621.653Z" fill="#FCD2B1"/>
<path d="M590.444 534.949C585.085 544.009 582.038 558.547 582.143 579.406C582.143 595.525 595.593 621.968 597.589 630.08C597.905 631.449 598.745 637.243 598.745 637.243L613.561 652.414L643.297 631.449L634.261 617.016L631.529 617.332C631.529 617.332 629.848 609.326 630.268 606.27C630.688 603.215 622.072 561.602 617.764 534.949C615.347 519.462 595.698 525.994 590.444 534.949Z" fill="#2A94F4"/>
<path d="M617.133 616.695L625.854 613.956L629.427 613.008C629.637 615.536 631.739 617.222 631.739 617.222L624.909 618.065L617.028 620.593L607.781 627.23L617.133 616.695Z" fill="#0E538C"/>
<path d="M665.9 656.413L681.031 652.094C681.031 652.094 685.339 658.099 684.498 659.574C683.657 661.048 684.498 669.898 684.498 669.898L677.143 676.43L671.153 674.323C671.153 674.323 670.733 671.583 672.73 671.373C674.831 671.057 671.364 669.582 670.313 668.95C669.262 668.212 660.541 663.577 665.9 656.413Z" fill="#FCD2B1"/>
<path d="M642.56 510.608C640.878 515.559 643.4 521.143 648.234 522.828L656.85 525.989C661.683 527.78 666.937 525.041 668.618 520.089L676.289 497.334C677.97 492.382 675.448 486.799 670.615 485.008L661.999 481.847C657.165 480.056 651.911 482.795 650.23 487.747L642.56 510.608Z" fill="#FF957E"/>
<path d="M680.188 530.631C679.348 533.897 675.985 535.898 672.833 534.95L646.879 527.47C643.727 526.522 641.836 523.151 642.676 519.78L653.289 479.852C654.13 476.586 657.492 474.585 660.644 475.533L686.598 482.907C689.75 483.856 691.642 487.227 690.801 490.598L680.188 530.631Z" fill="#FCD2B1"/>
<path d="M693.633 486.589C693.843 486.378 691.216 483.428 692.582 477.634C694.369 469.838 688.59 466.678 684.282 466.572C681.76 466.467 673.249 470.576 668.73 471.945C664.212 473.315 664.632 471.524 656.436 470.049C650.973 468.995 649.712 472.051 647.82 476.264C645.929 480.584 645.719 497.018 645.719 497.018C646.454 498.072 647.61 498.915 648.346 498.072C649.081 497.229 652.023 484.06 654.44 480.162C656.752 476.265 666.208 482.48 671.357 485.535C676.401 488.59 680.919 489.117 689.01 487.432C689.956 488.485 690.796 489.644 690.796 490.171C690.796 491.224 688.485 498.704 688.485 498.704C688.485 498.704 693.003 495.86 694.264 493.647C694.894 492.91 695.104 489.328 693.633 486.589Z" fill="#FFBE55"/>
<path d="M650.863 511.456C650.548 512.509 649.497 513.247 648.446 512.93L642.877 511.35C641.826 511.034 641.196 509.875 641.511 508.822L644.348 498.182C644.663 497.128 645.714 496.391 646.765 496.707L652.334 498.287C653.385 498.603 654.015 499.762 653.7 500.815L650.863 511.456Z" fill="#FCD2B1"/>
<path d="M647.398 501.344C647.398 501.344 643.195 517.041 641.829 522.308C640.568 527.049 639.622 538.005 665.366 545.38C680.602 549.699 683.124 537.9 684.174 534.108C684.91 531.158 684.069 521.571 682.913 519.464C682.913 519.359 681.232 525.996 681.232 525.996C681.232 525.996 679.761 518.727 672.511 516.725C660.848 513.354 656.224 519.78 651.181 518.094C647.188 516.725 646.032 509.14 647.398 501.344Z" fill="#FFBE55"/>
<path d="M664.949 525.468L672.935 527.786C673.985 528.102 675.141 527.47 675.351 526.311L675.667 525.152L663.793 521.781L663.478 522.94C663.268 524.099 663.898 525.152 664.949 525.468Z" fill="#FCD2B1"/>
<path d="M791.568 685.073C787.891 695.713 723.164 734.798 701.413 732.481L635.951 735.746C580.366 728.688 553.992 638.93 553.992 638.93C556.199 616.385 611.048 649.043 630.592 659.157C661.485 675.17 681.134 676.013 681.134 676.013C701.834 678.225 725.791 661.58 751.955 661.053C780.64 660.316 797.453 668.322 791.568 685.073Z" fill="#0B4870"/>
<path d="M649.289 674.322C649.289 674.217 649.289 674.217 649.289 674.322V671.373L761.825 669.266V672.215L761.51 672.742C760.144 675.271 757.517 675.692 754.575 675.797L656.644 677.694C653.702 677.799 651.075 677.378 649.604 674.954L649.289 674.322Z" fill="#D3D3D3"/>
<path d="M676.394 674.223L676.079 674.75C675.658 675.382 675.133 675.908 674.503 676.225L657.375 676.541C654.538 676.646 652.016 676.33 650.545 674.328L650.23 673.907L650.125 673.801V672.432L676.184 671.905L676.394 674.223ZM691.63 673.169L747.845 672.116V670.114L691.525 671.273L691.63 673.169ZM677.024 670.746L690.579 613.015C690.894 611.54 692.365 610.276 693.836 610.17L772.853 608.695C774.324 608.695 775.165 609.854 774.85 611.434L761.295 669.166L677.024 670.746Z" fill="#D3D3D3"/>
<path d="M626.065 750.6C633.841 751.97 639.83 742.594 639.83 742.594L660.005 726.159L655.697 714.992L616.398 733.323C616.398 733.323 618.185 749.231 626.065 750.6Z" fill="#FCD2B1"/>
<path d="M639.733 741.963C639.733 741.963 639.733 742.911 638.262 747.23C636.791 751.55 634.9 753.025 633.008 753.657C625.443 755.974 620.084 754.815 602.011 758.397C583.938 761.979 578.474 759.24 573.22 750.602C567.967 741.963 573.431 735.115 582.257 734.483C594.971 733.535 602.116 735.01 608.736 733.956C615.671 732.903 616.091 731.217 620.189 728.583C623.972 726.16 627.545 740.699 623.972 744.07C620.715 747.02 637.106 747.441 639.733 741.963Z" fill="#FFB750"/>
<path d="M635.943 750.286C628.483 752.603 623.019 751.444 604.946 755.026C586.873 758.608 581.409 755.869 576.155 747.231C573.738 743.227 573.633 739.645 574.999 736.906C571.006 739.751 569.64 744.702 573.213 750.602C578.467 759.24 583.931 761.979 602.004 758.398C620.077 754.816 625.541 755.975 633.001 753.657C634.472 753.235 635.943 752.182 637.204 749.759C636.784 749.97 636.363 750.18 635.943 750.286Z" fill="white"/>
<path d="M639.726 742.273V742.062C639.726 742.168 639.621 742.273 639.516 742.379C639.621 742.273 639.726 742.273 639.726 742.273Z" fill="#E9D6B8"/>
<path d="M600.752 748.704C600.227 748.915 599.701 747.756 599.491 746.176C599.176 742.91 598.44 739.75 597.39 736.484C596.864 734.904 596.864 733.534 597.495 733.323C598.125 733.113 599.176 734.272 599.596 735.852C600.647 739.012 601.277 742.278 601.593 745.439C601.803 747.019 601.277 748.494 600.752 748.704ZM606.321 747.651C605.691 747.756 605.165 746.703 604.955 745.228C604.64 742.173 603.904 739.118 602.854 736.168C602.328 734.693 602.328 733.429 603.064 733.323C603.694 733.218 604.745 734.377 605.27 735.852C606.216 738.802 606.951 741.857 607.267 744.807C607.372 746.281 606.952 747.546 606.321 747.651ZM612.205 747.44C611.575 747.546 610.944 746.387 610.734 744.807C610.209 741.646 609.473 738.591 608.317 735.43C607.792 733.85 607.792 732.586 608.423 732.586C609.158 732.586 610.209 733.745 610.734 735.325C611.89 738.38 612.626 741.541 613.046 744.596C613.256 746.071 612.836 747.335 612.205 747.44Z" fill="white"/>
<path d="M627.438 723.731C627.438 723.731 765.822 664.63 773.703 664.525C800.392 664.314 794.298 692.337 780.743 705.611C764.771 721.203 643.304 749.753 643.304 749.753L627.438 723.731Z" fill="#0E538C"/>
<path d="M682.28 734.06L644.453 696.766L660.635 680.227L701.824 725.316L682.28 734.06Z" fill="#FCD2B1"/>
<path d="M690.058 704.767C690.058 704.767 593.913 613.218 587.504 610.479C565.543 601.209 551.988 626.387 552.724 635.131C553.775 646.404 651.39 738.058 651.39 738.058L690.058 704.767Z" fill="#0E538C"/>
<path d="M747.009 736.904C749.215 739.011 749.636 745.437 749.636 745.437C749.636 745.437 717.587 758.079 706.344 758.29C703.402 758.395 698.148 757.131 693.105 755.656C692.264 755.445 690.268 753.127 689.427 752.917C687.851 752.495 687.536 753.97 686.275 753.549C682.912 752.39 680.391 751.442 680.286 751.231C673.456 736.271 675.767 728.897 675.767 728.897C675.767 728.897 690.478 733.322 687.956 729.845C682.597 722.471 698.043 714.991 701.406 718.889C715.276 734.586 740.494 730.688 747.009 736.904Z" fill="#FFB750"/>
<path d="M748.804 740.067C738.927 744.175 718.227 752.498 714.129 752.814C697.212 754.078 685.443 747.862 677.562 744.175C678.298 746.282 679.139 748.705 680.294 751.234C680.4 751.444 682.816 752.393 686.284 753.551C687.65 753.973 687.965 752.392 689.436 752.919C690.277 753.13 692.168 755.448 693.114 755.658C698.157 757.133 703.411 758.292 706.353 758.292C717.596 758.081 749.644 745.439 749.644 745.439C749.644 745.439 749.644 742.49 748.804 740.067ZM726.213 730.374C726.528 731.007 725.267 731.639 723.481 732.06C719.803 732.797 716.23 733.956 712.658 735.431C710.872 736.169 709.295 736.379 709.085 735.747C708.875 735.115 710.031 733.956 711.817 733.219C715.285 731.744 718.962 730.69 722.535 729.953C724.216 729.426 725.897 729.742 726.213 730.374ZM718.962 727.741C719.278 728.373 718.017 729.216 716.23 729.742C712.658 730.796 709.19 732.271 705.723 734.062C704.042 734.904 702.465 735.221 702.255 734.588C702.045 733.956 703.201 732.587 704.882 731.744C708.245 730.058 711.712 728.583 715.285 727.635C717.071 726.898 718.752 727.109 718.962 727.741ZM712.027 725.423C712.237 726.055 711.082 727.003 709.4 727.635C705.933 729.005 702.571 730.69 699.313 732.692C697.737 733.746 696.266 734.062 696.056 733.324C695.846 732.692 696.896 731.217 698.578 730.164C701.835 728.162 705.197 726.476 708.56 725.212C710.241 724.686 711.817 724.791 712.027 725.423Z" fill="white"/>
</svg>
