<svg width="528" height="150" viewBox="0 0 528 150" fill="none" xmlns="http://www.w3.org/2000/svg">
<path d="M414.727 102H407.01L404.879 96.4937H404.598C402.722 98.8516 400.807 100.486 398.851 101.397C396.895 102.281 394.336 102.723 391.174 102.723C387.262 102.723 384.194 101.611 381.97 99.3875C379.746 97.1367 378.634 93.9347 378.634 89.7815C378.634 85.6283 380.108 82.5201 383.055 80.4569C386.029 78.3937 390.584 77.2549 396.72 77.0406L403.754 76.8396V75.0712C403.754 70.9715 401.651 68.9217 397.444 68.9217C394.255 68.9217 390.464 69.8863 386.069 71.8156L382.412 64.38C387.047 61.9417 392.152 60.7225 397.725 60.7225C403.325 60.7225 407.559 61.9283 410.426 64.3398C413.293 66.7246 414.727 70.3017 414.727 75.0712V102ZM403.754 86.6063V83.2704L399.494 83.391C396.251 83.4981 393.853 84.0876 392.299 85.1594C390.745 86.2044 389.968 87.8121 389.968 89.9825C389.968 93.0907 391.75 94.6448 395.314 94.6448C397.886 94.6448 399.936 93.9213 401.463 92.4744C402.99 91.0007 403.754 89.0447 403.754 86.6063Z" fill="white"/>
<path d="M414.727 102V103H415.727V102H414.727ZM407.01 102L406.077 102.361L406.324 103H407.01V102ZM404.879 96.4937L405.812 96.1329L405.565 95.4937H404.879V96.4937ZM404.598 96.4937V95.4937H404.116L403.816 95.8711L404.598 96.4937ZM398.851 101.397L399.263 102.308L399.273 102.304L398.851 101.397ZM381.97 99.3875L381.258 100.09L381.263 100.095L381.97 99.3875ZM383.055 80.4569L382.485 79.6353L382.482 79.6377L383.055 80.4569ZM396.72 77.0406L396.692 76.041L396.685 76.0412L396.72 77.0406ZM403.754 76.8396L403.783 77.8392L404.754 77.8115V76.8396H403.754ZM386.069 71.8156L385.172 72.257L385.595 73.1161L386.471 72.7312L386.069 71.8156ZM382.412 64.38L381.946 63.495L381.085 63.9481L381.515 64.8214L382.412 64.38ZM410.426 64.3398L409.782 65.1051L409.787 65.1086L410.426 64.3398ZM403.754 83.2704H404.754V82.2417L403.726 82.2708L403.754 83.2704ZM399.494 83.391L399.465 82.3913L399.461 82.3915L399.494 83.391ZM392.299 85.1594L392.857 85.9893L392.867 85.9826L392.299 85.1594ZM401.463 92.4744L402.151 93.2004L402.157 93.194L401.463 92.4744ZM414.727 101H407.01V103H414.727V101ZM407.942 101.639L405.812 96.1329L403.947 96.8545L406.077 102.361L407.942 101.639ZM404.879 95.4937H404.598V97.4937H404.879V95.4937ZM403.816 95.8711C402 98.153 400.2 99.6657 398.428 100.491L399.273 102.304C401.414 101.306 403.445 99.5502 405.381 97.1162L403.816 95.8711ZM398.439 100.486C396.658 101.291 394.255 101.723 391.174 101.723V103.723C394.416 103.723 397.131 103.272 399.263 102.308L398.439 100.486ZM391.174 101.723C387.459 101.723 384.67 100.673 382.677 98.6804L381.263 100.095C383.718 102.55 387.065 103.723 391.174 103.723V101.723ZM382.681 98.6846C380.694 96.674 379.634 93.7569 379.634 89.7815H377.634C377.634 94.1126 378.797 97.5994 381.259 100.09L382.681 98.6846ZM379.634 89.7815C379.634 85.8966 380.993 83.1212 383.628 81.2762L382.482 79.6377C379.223 81.919 377.634 85.3601 377.634 89.7815H379.634ZM383.625 81.2786C386.366 79.3769 390.692 78.2518 396.755 78.04L396.685 76.0412C390.476 76.2581 385.692 77.4105 382.485 79.6353L383.625 81.2786ZM396.749 78.0402L403.783 77.8392L403.726 75.84L396.692 76.041L396.749 78.0402ZM404.754 76.8396V75.0712H402.754V76.8396H404.754ZM404.754 75.0712C404.754 72.8606 404.185 71.0205 402.874 69.7429C401.568 68.47 399.695 67.9217 397.444 67.9217V69.9217C399.4 69.9217 400.681 70.3983 401.479 71.1753C402.271 71.9475 402.754 73.1821 402.754 75.0712H404.754ZM397.444 67.9217C394.065 67.9217 390.13 68.9406 385.667 70.8999L386.471 72.7312C390.797 70.8321 394.445 69.9217 397.444 69.9217V67.9217ZM386.967 71.3742L383.309 63.9386L381.515 64.8214L385.172 72.257L386.967 71.3742ZM382.877 65.265C387.36 62.907 392.303 61.7225 397.725 61.7225V59.7225C392 59.7225 386.735 60.9763 381.946 63.495L382.877 65.265ZM397.725 61.7225C403.202 61.7225 407.166 62.9045 409.782 65.1051L411.07 63.5745C407.952 60.952 403.448 59.7225 397.725 59.7225V61.7225ZM409.787 65.1086C412.364 67.2527 413.727 70.5092 413.727 75.0712H415.727C415.727 70.0941 414.222 66.1964 411.065 63.571L409.787 65.1086ZM413.727 75.0712V102H415.727V75.0712H413.727ZM404.754 86.6063V83.2704H402.754V86.6063H404.754ZM403.726 82.2708L399.465 82.3914L399.522 84.3906L403.782 84.27L403.726 82.2708ZM399.461 82.3915C396.149 82.501 393.52 83.1027 391.732 84.3362L392.867 85.9826C394.187 85.0725 396.354 84.4953 399.527 84.3904L399.461 82.3915ZM391.741 84.3296C389.864 85.5922 388.968 87.5405 388.968 89.9825H390.968C390.968 88.0837 391.627 86.8167 392.857 85.9893L391.741 84.3296ZM388.968 89.9825C388.968 91.729 389.475 93.2105 390.647 94.2329C391.793 95.2324 393.409 95.6448 395.314 95.6448V93.6448C393.655 93.6448 392.598 93.2802 391.962 92.7256C391.352 92.1938 390.968 91.3442 390.968 89.9825H388.968ZM395.314 95.6448C398.082 95.6448 400.398 94.8607 402.151 93.2004L400.775 91.7485C399.473 92.982 397.69 93.6448 395.314 93.6448V95.6448ZM402.157 93.194C403.91 91.5033 404.754 89.272 404.754 86.6063H402.754C402.754 88.8174 402.071 90.4981 400.769 91.7548L402.157 93.194Z" fill="black"/>
<path d="M521.395 1.60431C521.395 1.60431 466.993 20.1455 461.031 22.3706C455.069 24.5957 455.069 30.5289 461.776 31.2705C468.483 32.0122 487.501 36.2217 488.991 36.9634C490.482 37.705 494.208 58.4713 494.953 62.1796C495.698 65.8878 501.273 66.8699 502.764 63.1616C504.254 59.4534 524.227 11.9875 526.611 6.05423C528.996 0.121004 524.127 0.615439 521.395 1.60431Z" fill="#FFC800" stroke="#FFC800" stroke-width="1.50001" stroke-linecap="round"/>
<path d="M518.232 9.73671C518.232 9.73671 474.85 24.2936 471.665 25.4861C468.481 26.6786 466.979 27.121 470.561 27.5184C474.143 27.9159 492.695 31.7489 493.446 32.4989C494.198 33.2489 498.434 51.5122 498.832 53.4996C499.23 55.487 499.628 54.7363 500.424 52.7489C501.22 50.7616 516.947 12.912 518.232 9.73671Z" fill="white"/>
<path d="M518.232 9.73671C518.232 9.73671 474.85 24.2936 471.665 25.4861C468.481 26.6786 466.979 27.121 470.561 27.5184C474.143 27.9159 492.695 31.7489 493.446 32.4989C494.198 33.2489 498.434 51.5122 498.832 53.4996C499.23 55.487 499.628 54.7363 500.424 52.7489C501.22 50.7616 516.947 12.912 518.232 9.73671ZM518.232 9.73671C519.691 9.20675 518.273 9.63437 518.232 9.73671Z" stroke="white" stroke-width="2" stroke-linecap="round"/>
<path d="M6.93003 85.5824C12.7601 90.0924 19.7726 92.3475 27.9676 92.3475C31.0477 92.3475 33.4952 91.77 35.3102 90.6149C37.1802 89.4599 38.1152 87.8649 38.1152 85.8299C38.1152 85.0599 37.9777 84.3724 37.7027 83.7674C37.4827 83.1624 37.0152 82.6399 36.3002 82.1999C35.5852 81.7049 34.9527 81.3474 34.4027 81.1274C33.9077 80.8524 33.0277 80.5774 31.7627 80.3024C30.4976 80.0274 29.5626 79.8349 28.9576 79.7249C28.4076 79.6149 27.3351 79.4499 25.7401 79.2299C23.9251 78.9549 22.3851 78.6799 21.1201 78.4049C19.8551 78.1299 18.2876 77.7449 16.4176 77.2499C14.6026 76.6999 13.0626 76.0399 11.7976 75.2699C10.5326 74.4999 9.29505 73.5649 8.08504 72.4649C6.87503 71.3649 5.96753 69.9898 5.36253 68.3398C4.75752 66.6898 4.45502 64.8473 4.45502 62.8123C4.45502 57.3123 6.51753 53.1323 10.6426 50.2722C14.8226 47.3572 20.4876 45.8997 27.6376 45.8997C35.3927 45.8997 42.5977 47.6872 49.2527 51.2623L44.3852 60.5848C38.9402 57.6148 33.1102 56.1298 26.8951 56.1298C23.6501 56.1298 21.1751 56.6798 19.4701 57.7798C17.7651 58.8248 16.9126 60.2823 16.9126 62.1523C16.9126 63.2523 17.1876 64.1873 17.7376 64.9573C18.2876 65.7273 19.1676 66.3598 20.3776 66.8548C21.5876 67.2948 22.6876 67.6523 23.6776 67.9273C24.7226 68.1473 26.1251 68.3948 27.8851 68.6698C34.7052 69.7698 39.5177 70.9799 42.3227 72.2999C47.9327 74.9399 50.7377 79.2024 50.7377 85.0874C50.7377 90.8074 48.5652 95.2075 44.2202 98.2875C39.9302 101.312 34.0727 102.825 26.6476 102.825C21.8076 102.825 17.2426 102.11 12.9526 100.68C8.66254 99.25 5.00502 97.4075 1.98001 95.1525L6.93003 85.5824ZM59.3539 102V46.8072H70.8214L97.1391 83.2724V46.8072H108.689V102H97.4691L70.9864 65.9473V102H59.3539Z" fill="#FFC800"/>
<path d="M137.739 45.9522V66.7813C141.131 63.1243 145.397 61.2958 150.538 61.2958C155.997 61.2958 160.555 63.2833 164.212 67.2583C167.869 71.2334 169.698 76.1889 169.698 82.1249C169.698 88.0609 167.869 93.0165 164.212 96.9915C160.608 100.913 156.077 102.875 150.618 102.875C145.424 102.875 141.078 100.993 137.58 97.23V102H126.529V45.9522H137.739ZM140.601 89.8364C142.615 91.9565 145.132 93.0165 148.153 93.0165C151.068 93.0165 153.506 91.983 155.467 89.9159C157.428 87.7959 158.409 85.1989 158.409 82.1249C158.409 79.0509 157.402 76.4804 155.388 74.4134C153.427 72.2934 150.989 71.2334 148.074 71.2334C145.106 71.2334 142.588 72.2934 140.521 74.4134C138.507 76.4804 137.5 79.0509 137.5 82.1249C137.5 85.1989 138.534 87.7694 140.601 89.8364ZM181.682 66.9403C185.657 63.0713 190.825 61.1368 197.185 61.1368C203.28 61.1368 208.262 62.9918 212.131 66.7018C216 70.3588 217.934 75.1024 217.934 80.9324C217.934 82.4694 217.855 83.7944 217.696 84.9074H186.293C186.717 87.7164 187.883 89.9689 189.791 91.6649C191.752 93.308 194.19 94.1295 197.105 94.1295C201.822 94.1295 205.108 92.3275 206.963 88.7234L215.947 92.5395C214.622 95.6665 212.263 98.184 208.871 100.092C205.532 101.947 201.637 102.875 197.185 102.875C190.719 102.875 185.498 100.94 181.523 97.071C177.601 93.202 175.64 88.2199 175.64 82.1249C175.64 75.9239 177.654 70.8623 181.682 66.9403ZM186.373 78.3089H207.202C206.778 75.7649 205.638 73.6979 203.783 72.1079C201.928 70.4648 199.676 69.6433 197.026 69.6433C194.429 69.6433 192.15 70.4383 190.189 72.0284C188.228 73.6184 186.956 75.7119 186.373 78.3089ZM226.02 102V62.0113H236.911V66.7813C239.349 63.0183 243.033 61.1368 247.962 61.1368C249.658 61.1368 251.301 61.4283 252.891 62.0113L252.811 73.0619C250.956 72.3729 249.075 72.0284 247.167 72.0284C244.04 72.0284 241.602 72.9824 239.853 74.8904C238.157 76.7454 237.309 79.2894 237.309 82.5224V102H226.02ZM262.606 67.1788C266.316 63.2568 270.927 61.2958 276.439 61.2958C281.368 61.2958 285.555 63.0978 289 66.7018V45.9522H300.13V102H289.239V97.23C285.794 100.993 281.421 102.875 276.121 102.875C270.662 102.875 266.104 100.887 262.447 96.912C258.843 92.937 257.041 87.9814 257.041 82.0454C257.041 76.1094 258.896 71.1539 262.606 67.1788ZM271.192 89.8364C273.153 91.9565 275.617 93.0165 278.585 93.0165C281.66 93.0165 284.204 91.983 286.218 89.9159C288.285 87.8489 289.318 85.2519 289.318 82.1249C289.318 79.0509 288.285 76.4804 286.218 74.4134C284.204 72.2934 281.686 71.2334 278.665 71.2334C275.697 71.2334 273.206 72.2934 271.192 74.4134C269.178 76.4804 268.171 79.0509 268.171 82.1249C268.171 85.1989 269.178 87.7694 271.192 89.8364ZM310.604 102V62.0113H322.131V102H310.604ZM309.411 50.4838C309.411 48.5757 310.074 46.9592 311.399 45.6342C312.777 44.3092 314.446 43.6467 316.407 43.6467C318.368 43.6467 320.011 44.3092 321.336 45.6342C322.661 46.9592 323.324 48.5757 323.324 50.4838C323.324 52.4448 322.661 54.0878 321.336 55.4128C320.011 56.7908 318.368 57.4798 316.407 57.4798C314.446 57.4798 312.777 56.8173 311.399 55.4923C310.074 54.1143 309.411 52.4448 309.411 50.4838ZM332.594 46.2702H343.883V78.6269L358.511 62.0113H371.787L354.615 81.7274L372.026 102H358.113L343.883 85.3844V102H332.594V46.2702Z" fill="white"/>
<path d="M137.739 45.9522H138.739V44.9522H137.739V45.9522ZM137.739 66.7813H136.739V69.3299L138.472 67.4614L137.739 66.7813ZM164.212 67.2583L163.476 67.9354L164.212 67.2583ZM164.212 96.9915L163.476 96.3144L163.476 96.3148L164.212 96.9915ZM137.58 97.23L138.312 96.5491L136.58 94.6855V97.23H137.58ZM137.58 102V103H138.58V102H137.58ZM126.529 102H125.529V103H126.529V102ZM126.529 45.9522V44.9522H125.529V45.9522H126.529ZM140.601 89.8364L141.326 89.1477L141.317 89.1384L141.308 89.1293L140.601 89.8364ZM155.467 89.9159L156.193 90.6043L156.201 90.595L155.467 89.9159ZM155.388 74.4134L154.654 75.0924L154.663 75.1019L154.672 75.1112L155.388 74.4134ZM140.521 74.4134L139.805 73.7153L139.805 73.7155L140.521 74.4134ZM136.739 45.9522V66.7813H138.739V45.9522H136.739ZM138.472 67.4614C141.668 64.0154 145.666 62.2958 150.538 62.2958V60.2958C145.129 60.2958 140.593 62.2333 137.006 66.1013L138.472 67.4614ZM150.538 62.2958C155.721 62.2958 160.011 64.1687 163.476 67.9354L164.948 66.5813C161.1 62.3979 156.274 60.2958 150.538 60.2958V62.2958ZM163.476 67.9354C166.946 71.7069 168.698 76.4128 168.698 82.1249H170.698C170.698 75.965 168.793 70.7598 164.948 66.5813L163.476 67.9354ZM168.698 82.1249C168.698 87.8371 166.946 92.5429 163.476 96.3144L164.948 97.6685C168.793 93.49 170.698 88.2848 170.698 82.1249H168.698ZM163.476 96.3148C160.067 100.025 155.805 101.875 150.618 101.875V103.875C156.349 103.875 161.15 101.802 164.949 97.6681L163.476 96.3148ZM150.618 101.875C145.698 101.875 141.619 100.106 138.312 96.5491L136.847 97.9108C140.537 101.88 145.149 103.875 150.618 103.875V101.875ZM136.58 97.23V102H138.58V97.23H136.58ZM137.58 101H126.529V103H137.58V101ZM127.529 102V45.9522H125.529V102H127.529ZM126.529 46.9522H137.739V44.9522H126.529V46.9522ZM139.876 90.5252C142.086 92.8512 144.868 94.0165 148.153 94.0165V92.0165C145.396 92.0165 143.144 91.0617 141.326 89.1477L139.876 90.5252ZM148.153 94.0165C151.336 94.0165 154.038 92.8754 156.193 90.6042L154.742 89.2277C152.975 91.0905 150.801 92.0165 148.153 92.0165V94.0165ZM156.201 90.595C158.345 88.2775 159.409 85.4329 159.409 82.1249H157.409C157.409 84.9649 156.512 87.3143 154.733 89.2369L156.201 90.595ZM159.409 82.1249C159.409 78.8089 158.313 75.9823 156.104 73.7155L154.672 75.1112C156.491 76.9785 157.409 79.2929 157.409 82.1249H159.409ZM156.122 73.7343C153.97 71.4075 151.265 70.2333 148.074 70.2333V72.2333C150.713 72.2333 152.884 73.1792 154.654 75.0924L156.122 73.7343ZM148.074 70.2333C144.837 70.2333 142.061 71.4017 139.805 73.7153L141.237 75.1115C143.116 73.185 145.375 72.2333 148.074 72.2333V70.2333ZM139.805 73.7155C137.596 75.9823 136.5 78.8089 136.5 82.1249H138.5C138.5 79.2929 139.418 76.9785 141.238 75.1112L139.805 73.7155ZM136.5 82.1249C136.5 85.4489 137.629 88.2785 139.894 90.5435L141.308 89.1293C139.439 87.2604 138.5 84.9489 138.5 82.1249H136.5ZM181.682 66.9403L180.984 66.2237L180.984 66.2239L181.682 66.9403ZM212.131 66.7018L211.438 67.4236L211.444 67.4286L212.131 66.7018ZM217.696 84.9074V85.9074H218.563L218.686 85.0488L217.696 84.9074ZM186.293 84.9074V83.9074H185.131L185.304 85.0567L186.293 84.9074ZM189.791 91.665L189.127 92.4124L189.138 92.4221L189.149 92.4315L189.791 91.665ZM206.963 88.7234L207.354 87.803L206.499 87.4398L206.074 88.2658L206.963 88.7234ZM215.947 92.5395L216.867 92.9296L217.257 92.0097L216.338 91.619L215.947 92.5395ZM208.871 100.092L209.357 100.966L209.361 100.964L208.871 100.092ZM181.523 97.071L180.821 97.7829L180.825 97.7876L181.523 97.071ZM186.373 78.3089L185.397 78.0898L185.123 79.3089H186.373V78.3089ZM207.202 78.3089V79.3089H208.382L208.188 78.1445L207.202 78.3089ZM203.783 72.1079L203.12 72.8564L203.126 72.8618L203.132 72.8671L203.783 72.1079ZM190.189 72.0284L189.559 71.2516L190.189 72.0284ZM182.379 67.6569C186.14 63.9965 191.044 62.1368 197.185 62.1368V60.1368C190.605 60.1368 185.174 62.1461 180.984 66.2237L182.379 67.6569ZM197.185 62.1368C203.06 62.1368 207.782 63.9169 211.439 67.4236L212.823 65.98C208.742 62.0667 203.499 60.1368 197.185 60.1368V62.1368ZM211.444 67.4286C215.093 70.8776 216.934 75.3483 216.934 80.9324H218.934C218.934 74.8564 216.907 69.8401 212.818 65.9751L211.444 67.4286ZM216.934 80.9324C216.934 82.438 216.856 83.7133 216.706 84.766L218.686 85.0488C218.853 83.8755 218.934 82.5009 218.934 80.9324H216.934ZM217.696 83.9074H186.293V85.9074H217.696V83.9074ZM185.304 85.0567C185.759 88.0691 187.024 90.5433 189.127 92.4124L190.455 90.9175C188.742 89.3946 187.675 87.3638 187.282 84.7582L185.304 85.0567ZM189.149 92.4315C191.315 94.2462 193.99 95.1295 197.105 95.1295V93.1295C194.39 93.1295 192.189 92.3697 190.433 90.8984L189.149 92.4315ZM197.105 95.1295C199.589 95.1295 201.764 94.6549 203.588 93.6548C205.42 92.65 206.841 91.1452 207.852 89.1811L206.074 88.2658C205.23 89.9056 204.08 91.1039 202.627 91.9011C201.164 92.703 199.338 93.1295 197.105 93.1295V95.1295ZM206.572 89.6438L215.556 93.4599L216.338 91.619L207.354 87.803L206.572 89.6438ZM215.026 92.1493C213.8 95.0436 211.61 97.4043 208.381 99.2204L209.361 100.964C212.917 98.9637 215.444 96.2894 216.867 92.9296L215.026 92.1493ZM208.385 99.2178C205.218 100.978 201.495 101.875 197.185 101.875V103.875C201.778 103.875 205.846 102.916 209.357 100.966L208.385 99.2178ZM197.185 101.875C190.933 101.875 185.978 100.012 182.22 96.3544L180.825 97.7876C185.018 101.868 190.504 103.875 197.185 103.875V101.875ZM182.225 96.3591C178.515 92.6989 176.64 87.9836 176.64 82.1249H174.64C174.64 88.4562 176.687 93.7051 180.821 97.7829L182.225 96.3591ZM176.64 82.1249C176.64 76.1631 178.566 71.3702 182.38 67.6568L180.984 66.2239C176.742 70.3545 174.64 75.6847 174.64 82.1249H176.64ZM186.373 79.3089H207.202V77.3089H186.373V79.3089ZM208.188 78.1445C207.728 75.3829 206.478 73.1003 204.434 71.3486L203.132 72.8671C204.799 74.2954 205.827 76.1469 206.215 78.4733L208.188 78.1445ZM204.446 71.3593C202.395 69.5425 199.901 68.6433 197.026 68.6433V70.6433C199.45 70.6433 201.461 71.3872 203.12 72.8564L204.446 71.3593ZM197.026 68.6433C194.206 68.6433 191.703 69.5127 189.559 71.2516L190.818 72.8051C192.596 71.364 194.651 70.6433 197.026 70.6433V68.6433ZM189.559 71.2516C187.413 72.9914 186.026 75.2861 185.397 78.0898L187.348 78.5279C187.885 76.1376 189.042 74.2454 190.818 72.8051L189.559 71.2516ZM226.02 102H225.02V103H226.02V102ZM226.02 62.0113V61.0113H225.02V62.0113H226.02ZM236.911 62.0113H237.911V61.0113H236.911V62.0113ZM236.911 66.7813H235.911V70.1639L237.75 67.3251L236.911 66.7813ZM252.891 62.0113L253.891 62.0185L253.896 61.3147L253.235 61.0724L252.891 62.0113ZM252.811 73.0619L252.463 73.9993L253.801 74.4962L253.811 73.0691L252.811 73.0619ZM239.853 74.8904L239.116 74.2146L239.115 74.2156L239.853 74.8904ZM237.309 102V103H238.309V102H237.309ZM227.02 102V62.0113H225.02V102H227.02ZM226.02 63.0113H236.911V61.0113H226.02V63.0113ZM235.911 62.0113V66.7813H237.911V62.0113H235.911ZM237.75 67.3251C239.983 63.8785 243.332 62.1368 247.962 62.1368V60.1368C242.734 60.1368 238.715 62.1581 236.072 66.2376L237.75 67.3251ZM247.962 62.1368C249.54 62.1368 251.067 62.4077 252.546 62.9502L253.235 61.0724C251.535 60.4489 249.775 60.1368 247.962 60.1368V62.1368ZM251.891 62.0041L251.811 73.0547L253.811 73.0691L253.891 62.0185L251.891 62.0041ZM253.159 72.1244C251.197 71.3956 249.198 71.0284 247.167 71.0284V73.0284C248.951 73.0284 250.715 73.3501 252.463 73.9993L253.159 72.1244ZM247.167 71.0284C243.823 71.0284 241.093 72.0576 239.116 74.2146L240.59 75.5661C242.111 73.9071 244.257 73.0284 247.167 73.0284V71.0284ZM239.115 74.2156C237.206 76.303 236.309 79.1134 236.309 82.5224H238.309C238.309 79.4653 239.107 77.1878 240.591 75.5651L239.115 74.2156ZM236.309 82.5224V102H238.309V82.5224H236.309ZM237.309 101H226.02V103H237.309V101ZM262.606 67.1788L261.879 66.4916L261.875 66.4965L262.606 67.1788ZM289 66.7018L288.277 67.3928L290 69.1952V66.7018H289ZM289 45.9522V44.9522H288V45.9522H289ZM300.13 45.9522H301.13V44.9522H300.13V45.9522ZM300.13 102V103H301.13V102H300.13ZM289.239 102H288.239V103H289.239V102ZM289.239 97.23H290.239V94.6567L288.501 96.5547L289.239 97.23ZM262.447 96.912L261.706 97.5837L261.711 97.589L262.447 96.912ZM271.192 89.8364L271.926 89.1574L271.917 89.1479L271.908 89.1386L271.192 89.8364ZM286.218 89.9159L285.51 89.2088L285.501 89.2181L286.218 89.9159ZM286.218 74.4134L285.493 75.1021L285.501 75.1114L285.51 75.1205L286.218 74.4134ZM271.192 74.4134L271.908 75.1113L271.917 75.1021L271.192 74.4134ZM263.332 67.866C266.849 64.1484 271.195 62.2958 276.439 62.2958V60.2958C270.659 60.2958 265.783 62.3652 261.879 66.4916L263.332 67.866ZM276.439 62.2958C281.091 62.2958 285.018 63.9836 288.277 67.3928L289.723 66.0108C286.092 62.212 281.645 60.2958 276.439 60.2958V62.2958ZM290 66.7018V45.9522H288V66.7018H290ZM289 46.9522H300.13V44.9522H289V46.9522ZM299.13 45.9522V102H301.13V45.9522H299.13ZM300.13 101H289.239V103H300.13V101ZM290.239 102V97.23H288.239V102H290.239ZM288.501 96.5547C285.254 100.102 281.153 101.875 276.121 101.875V103.875C281.689 103.875 286.334 101.884 289.976 97.9052L288.501 96.5547ZM276.121 101.875C270.938 101.875 266.648 100.002 263.183 96.2349L261.711 97.589C265.56 101.772 270.386 103.875 276.121 103.875V101.875ZM263.188 96.2403C259.769 92.4693 258.041 87.7617 258.041 82.0454H256.041C256.041 88.2012 257.917 93.4046 261.706 97.5837L263.188 96.2403ZM258.041 82.0454C258.041 76.3374 259.816 71.6333 263.337 67.8611L261.875 66.4965C257.975 70.6744 256.041 75.8814 256.041 82.0454H258.041ZM270.458 90.5155C272.614 92.8465 275.348 94.0165 278.585 94.0165V92.0165C275.887 92.0165 273.692 91.0664 271.926 89.1574L270.458 90.5155ZM278.585 94.0165C281.91 94.0165 284.718 92.8876 286.934 90.6138L285.501 89.2181C283.689 91.0783 281.409 92.0165 278.585 92.0165V94.0165ZM286.925 90.623C289.193 88.3545 290.318 85.4967 290.318 82.1249H288.318C288.318 85.0072 287.376 87.3434 285.51 89.2088L286.925 90.623ZM290.318 82.1249C290.318 78.8009 289.19 75.9713 286.925 73.7063L285.51 75.1205C287.379 76.9894 288.318 79.3009 288.318 82.1249H290.318ZM286.943 73.7246C284.733 71.3986 281.95 70.2333 278.665 70.2333V72.2333C281.422 72.2333 283.674 73.1881 285.493 75.1021L286.943 73.7246ZM278.665 70.2333C275.428 70.2333 272.673 71.4025 270.467 73.7246L271.917 75.1021C273.739 73.1842 275.966 72.2333 278.665 72.2333V70.2333ZM270.476 73.7155C268.267 75.9823 267.171 78.8089 267.171 82.1249H269.171C269.171 79.2929 270.089 76.9785 271.908 75.1112L270.476 73.7155ZM267.171 82.1249C267.171 85.4409 268.267 88.2675 270.476 90.5343L271.908 89.1386C270.089 87.2713 269.171 84.957 269.171 82.1249H267.171ZM310.604 102H309.604V103H310.604V102ZM310.604 62.0113V61.0113H309.604V62.0113H310.604ZM322.131 62.0113H323.131V61.0113H322.131V62.0113ZM322.131 102V103H323.131V102H322.131ZM311.399 45.6342L310.706 44.9134L310.698 44.9202L310.692 44.9271L311.399 45.6342ZM321.336 45.6342L322.043 44.9271V44.9271L321.336 45.6342ZM321.336 55.4128L320.629 54.7057L320.622 54.7126L320.615 54.7197L321.336 55.4128ZM311.399 55.4923L310.678 56.1854L310.691 56.1995L310.706 56.2131L311.399 55.4923ZM311.604 102V62.0113H309.604V102H311.604ZM310.604 63.0113H322.131V61.0113H310.604V63.0113ZM321.131 62.0113V102H323.131V62.0113H321.131ZM322.131 101H310.604V103H322.131V101ZM310.411 50.4838C310.411 48.8355 310.972 47.475 312.106 46.3413L310.692 44.9271C309.175 46.4435 308.411 48.316 308.411 50.4838H310.411ZM312.092 46.3551C313.278 45.2143 314.697 44.6467 316.407 44.6467V42.6467C314.195 42.6467 312.275 43.4042 310.706 44.9134L312.092 46.3551ZM316.407 44.6467C318.117 44.6467 319.501 45.2134 320.629 46.3413L322.043 44.9271C320.521 43.4051 318.62 42.6467 316.407 42.6467V44.6467ZM320.629 46.3413C321.763 47.475 322.324 48.8355 322.324 50.4838H324.324C324.324 48.316 323.56 46.4435 322.043 44.9271L320.629 46.3413ZM322.324 50.4838C322.324 52.1933 321.757 53.5777 320.629 54.7057L322.043 56.1199C323.565 54.5978 324.324 52.6962 324.324 50.4838H322.324ZM320.615 54.7197C319.484 55.896 318.104 56.4798 316.407 56.4798V58.4798C318.632 58.4798 320.538 57.6856 322.057 56.1059L320.615 54.7197ZM316.407 56.4798C314.697 56.4798 313.278 55.9123 312.092 54.7714L310.706 56.2131C312.275 57.7223 314.195 58.4798 316.407 58.4798V56.4798ZM312.119 54.7992C310.979 53.6127 310.411 52.1938 310.411 50.4838H308.411C308.411 52.6958 309.169 54.6158 310.678 56.1854L312.119 54.7992ZM332.594 46.2702V45.2702H331.594V46.2702H332.594ZM343.883 46.2702H344.883V45.2702H343.883V46.2702ZM343.883 78.6269H342.883V81.2761L344.633 79.2877L343.883 78.6269ZM358.511 62.0113V61.0113H358.059L357.76 61.3505L358.511 62.0113ZM371.787 62.0113L372.541 62.6681L373.984 61.0113H371.787V62.0113ZM354.615 81.7274L353.861 81.0706L353.293 81.7228L353.857 82.3789L354.615 81.7274ZM372.026 102V103H374.203L372.784 101.348L372.026 102ZM358.113 102L357.354 102.65L357.653 103H358.113V102ZM343.883 85.3844L344.642 84.7339L342.883 82.6795V85.3844H343.883ZM343.883 102V103H344.883V102H343.883ZM332.594 102H331.594V103H332.594V102ZM332.594 47.2702H343.883V45.2702H332.594V47.2702ZM342.883 46.2702V78.6269H344.883V46.2702H342.883ZM344.633 79.2877L359.261 62.6721L357.76 61.3505L343.132 77.9661L344.633 79.2877ZM358.511 63.0113H371.787V61.0113H358.511V63.0113ZM371.033 61.3545L353.861 81.0706L355.369 82.3842L372.541 62.6681L371.033 61.3545ZM353.857 82.3789L371.267 102.652L372.784 101.348L355.374 81.0759L353.857 82.3789ZM372.026 101H358.113V103H372.026V101ZM358.873 101.35L344.642 84.7339L343.123 86.0349L357.354 102.65L358.873 101.35ZM342.883 85.3844V102H344.883V85.3844H342.883ZM343.883 101H332.594V103H343.883V101ZM333.594 102V46.2702H331.594V102H333.594Z" fill="black"/>
<path d="M426.951 102V62.0113H437.843V66.7813C440.281 63.0183 443.964 61.1368 448.893 61.1368C450.589 61.1368 452.232 61.4283 453.822 62.0113L453.743 73.0619C451.888 72.3729 450.006 72.0284 448.098 72.0284C444.971 72.0284 442.533 72.9824 440.784 74.8904C439.088 76.7454 438.24 79.2894 438.24 82.5224V102H426.951ZM461.052 102V62.0113H472.58V102H461.052ZM459.86 50.4838C459.86 48.5757 460.522 46.9592 461.847 45.6342C463.225 44.3092 464.895 43.6467 466.856 43.6467C468.817 43.6467 470.46 44.3092 471.785 45.6342C473.11 46.9592 473.772 48.5757 473.772 50.4838C473.772 52.4448 473.11 54.0878 471.785 55.4128C470.46 56.7908 468.817 57.4798 466.856 57.4798C464.895 57.4798 463.225 56.8173 461.847 55.4923C460.522 54.1143 459.86 52.4448 459.86 50.4838Z" fill="white"/>
<path d="M426.951 102H425.951V103H426.951V102ZM426.951 62.0113V61.0113H425.951V62.0113H426.951ZM437.843 62.0113H438.843V61.0113H437.843V62.0113ZM437.843 66.7813H436.843V70.1639L438.682 67.3251L437.843 66.7813ZM453.822 62.0113L454.822 62.0185L454.827 61.3147L454.166 61.0724L453.822 62.0113ZM453.743 73.0619L453.395 73.9993L454.732 74.4962L454.743 73.0691L453.743 73.0619ZM440.784 74.8904L440.047 74.2146L440.046 74.2156L440.784 74.8904ZM438.24 102V103H439.24V102H438.24ZM427.951 102V62.0113H425.951V102H427.951ZM426.951 63.0113H437.843V61.0113H426.951V63.0113ZM436.843 62.0113V66.7813H438.843V62.0113H436.843ZM438.682 67.3251C440.915 63.8785 444.263 62.1368 448.893 62.1368V60.1368C443.665 60.1368 439.646 62.1581 437.003 66.2376L438.682 67.3251ZM448.893 62.1368C450.472 62.1368 451.998 62.4077 453.478 62.9502L454.166 61.0724C452.466 60.4489 450.706 60.1368 448.893 60.1368V62.1368ZM452.822 62.0041L452.743 73.0547L454.743 73.0691L454.822 62.0185L452.822 62.0041ZM454.091 72.1244C452.129 71.3956 450.129 71.0284 448.098 71.0284V73.0284C449.883 73.0284 451.647 73.3501 453.395 73.9993L454.091 72.1244ZM448.098 71.0284C444.754 71.0284 442.024 72.0576 440.047 74.2146L441.521 75.5661C443.042 73.9071 445.188 73.0284 448.098 73.0284V71.0284ZM440.046 74.2156C438.138 76.303 437.24 79.1134 437.24 82.5224H439.24C439.24 79.4653 440.039 77.1878 441.522 75.5651L440.046 74.2156ZM437.24 82.5224V102H439.24V82.5224H437.24ZM438.24 101H426.951V103H438.24V101ZM461.052 102H460.052V103H461.052V102ZM461.052 62.0113V61.0113H460.052V62.0113H461.052ZM472.58 62.0113H473.58V61.0113H472.58V62.0113ZM472.58 102V103H473.58V102H472.58ZM461.847 45.6342L461.154 44.9134L461.147 44.9202L461.14 44.9271L461.847 45.6342ZM471.785 45.6342L472.492 44.9271L472.492 44.9271L471.785 45.6342ZM471.785 55.4128L471.078 54.7057L471.071 54.7126L471.064 54.7197L471.785 55.4128ZM461.847 55.4923L461.127 56.1854L461.14 56.1995L461.154 56.2131L461.847 55.4923ZM462.052 102V62.0113H460.052V102H462.052ZM461.052 63.0113H472.58V61.0113H461.052V63.0113ZM471.58 62.0113V102H473.58V62.0113H471.58ZM472.58 101H461.052V103H472.58V101ZM460.86 50.4838C460.86 48.8355 461.421 47.475 462.555 46.3413L461.14 44.9271C459.624 46.4435 458.86 48.316 458.86 50.4838H460.86ZM462.541 46.3551C463.727 45.2143 465.146 44.6467 466.856 44.6467V42.6467C464.644 42.6467 462.724 43.4042 461.154 44.9134L462.541 46.3551ZM466.856 44.6467C468.565 44.6467 469.95 45.2134 471.078 46.3413L472.492 44.9271C470.97 43.4051 469.068 42.6467 466.856 42.6467V44.6467ZM471.078 46.3413C472.212 47.475 472.772 48.8355 472.772 50.4838H474.772C474.772 48.316 474.008 46.4435 472.492 44.9271L471.078 46.3413ZM472.772 50.4838C472.772 52.1933 472.206 53.5777 471.078 54.7057L472.492 56.1199C474.014 54.5978 474.772 52.6962 474.772 50.4838H472.772ZM471.064 54.7197C469.933 55.896 468.553 56.4798 466.856 56.4798V58.4798C469.081 58.4798 470.987 57.6856 472.506 56.1059L471.064 54.7197ZM466.856 56.4798C465.146 56.4798 463.727 55.9123 462.541 54.7714L461.154 56.2131C462.724 57.7223 464.644 58.4798 466.856 58.4798V56.4798ZM462.568 54.7992C461.427 53.6127 460.86 52.1938 460.86 50.4838H458.86C458.86 52.6958 459.617 54.6158 461.127 56.1854L462.568 54.7992Z" fill="black"/>
</svg>
