<svg width="30" height="30" viewBox="0 0 30 30" fill="none" xmlns="http://www.w3.org/2000/svg">
<g clip-path="url(#clip0_6235_3475)">
<path opacity="0.5" d="M13.2608 17.3408C13.9825 16.5986 14.8393 16.01 15.7824 15.6083C16.7254 15.2067 17.7361 15 18.7568 15C19.7776 15 20.7883 15.2067 21.7314 15.6083C22.6744 16.01 23.5312 16.5986 24.2529 17.3408C27.2882 20.4613 27.2882 25.5205 24.2529 28.6597C22.7952 30.1582 20.8183 31 18.7568 31C16.6955 31 14.7185 30.1582 13.2608 28.6597C10.2464 25.5392 10.2464 20.4794 13.2608 17.3408Z" fill="#D4BC66"/>
<path opacity="0.75" d="M24 13C26.7614 13 29 10.7614 29 8C29 5.2386 26.7614 3 24 3C21.2386 3 19 5.2386 19 8C19 10.7614 21.2386 13 24 13Z" fill="#C8A834"/>
<path d="M9.81984 12.8633H6.90154C6.65372 12.8633 6.45312 13.0639 6.45312 13.3117V16.23C6.45312 16.4775 6.65372 16.6784 6.90154 16.6784H9.81984C10.0677 16.6784 10.2683 16.4775 10.2683 16.23V13.3117C10.2683 13.0642 10.0677 12.8633 9.81984 12.8633ZM9.37142 15.7816H7.34996V13.7601H9.37142V15.7816Z" fill="#564405"/>
<path d="M16.6323 12.8633H13.714C13.4662 12.8633 13.2656 13.0639 13.2656 13.3117V16.23C13.2656 16.4775 13.4662 16.6784 13.714 16.6784H16.6323C16.8799 16.6784 17.0808 16.4775 17.0808 16.23V13.3117C17.0808 13.0642 16.8799 12.8633 16.6323 12.8633ZM16.1839 15.7816H14.1625V13.7601H16.1839V15.7816Z" fill="#564405"/>
<path d="M23.2261 12.8633H20.3078C20.0603 12.8633 19.8594 13.0639 19.8594 13.3117V16.23C19.8594 16.4775 20.0603 16.6784 20.3078 16.6784H23.2261C23.4736 16.6784 23.6745 16.4775 23.6745 16.23V13.3117C23.6745 13.0642 23.4736 12.8633 23.2261 12.8633ZM22.7777 15.7816H20.7562V13.7601H22.7777V15.7816Z" fill="#564405"/>
<path d="M9.81984 19.5117H6.90154C6.65372 19.5117 6.45312 19.7126 6.45312 19.9601V22.8784C6.45312 23.126 6.65372 23.3269 6.90154 23.3269H9.81984C10.0677 23.3269 10.2683 23.126 10.2683 22.8784V19.9601C10.2683 19.7126 10.0677 19.5117 9.81984 19.5117ZM9.37142 22.43H7.34996V20.4086H9.37142V22.43Z" fill="#564405"/>
<path d="M16.6245 19.5117H13.7062C13.4584 19.5117 13.2578 19.7126 13.2578 19.9601V22.8784C13.2578 23.126 13.4584 23.3269 13.7062 23.3269H16.6245C16.8721 23.3269 17.0729 23.126 17.0729 22.8784V19.9601C17.0729 19.7126 16.8721 19.5117 16.6245 19.5117ZM16.1761 22.43H14.1546V20.4086H16.1761V22.43Z" fill="#564405"/>
<path d="M23.2261 19.5117H20.3078C20.0603 19.5117 19.8594 19.7126 19.8594 19.9601V22.8784C19.8594 23.126 20.0603 23.3269 20.3078 23.3269H23.2261C23.4736 23.3269 23.6745 23.126 23.6745 22.8784V19.9601C23.6745 19.7126 23.4736 19.5117 23.2261 19.5117ZM22.7777 22.43H20.7562V20.4086H22.7777V22.43Z" fill="#564405"/>
<path d="M26.7764 4.18014H23.8148C23.8109 4.18014 23.8076 4.18104 23.8037 4.18134V3.58405C23.8037 2.60709 23.0091 1.8125 22.0322 1.8125C21.0552 1.8125 20.2606 2.60739 20.2606 3.58405V4.18014H16.9235V3.58405C16.9235 2.60709 16.1289 1.8125 15.1519 1.8125C14.175 1.8125 13.3804 2.60739 13.3804 3.58405V4.18014H10.043V3.58405C10.043 2.60709 9.24838 1.8125 8.27143 1.8125C7.29448 1.8125 6.49989 2.60739 6.49989 3.58405V4.18044C6.49839 4.18044 6.4969 4.18014 6.4954 4.18014H3.53435C3.28653 4.18014 3.08594 4.38073 3.08594 4.62856V27.8703C3.08594 28.1178 3.28653 28.3187 3.53435 28.3187H26.7764C27.0239 28.3187 27.2248 28.1178 27.2248 27.8703V4.62856C27.2248 4.38073 27.0239 4.18014 26.7764 4.18014ZM21.1574 3.58405C21.1574 3.10155 21.5497 2.70933 22.0322 2.70933C22.5147 2.70933 22.9069 3.10155 22.9069 3.58405V6.05841C22.9069 6.54061 22.5147 6.93312 22.0322 6.93312C21.5497 6.93312 21.1574 6.54091 21.1574 6.05841V3.58405ZM15.1519 2.70933C15.6341 2.70933 16.0267 3.10155 16.0267 3.58405V6.05841C16.0267 6.54061 15.6344 6.93312 15.1519 6.93312C14.6694 6.93312 14.2772 6.54091 14.2772 6.05841V4.67041C14.2784 4.65636 14.2814 4.64291 14.2814 4.62826C14.2814 4.61361 14.2784 4.60016 14.2772 4.58611V3.58405C14.2772 3.10155 14.6694 2.70933 15.1519 2.70933ZM7.39672 3.58405C7.39672 3.10155 7.78894 2.70933 8.27143 2.70933C8.75363 2.70933 9.14615 3.10155 9.14615 3.58405V6.05841C9.14615 6.54061 8.75393 6.93312 8.27143 6.93312C7.78894 6.93312 7.39672 6.54091 7.39672 6.05841V3.58405ZM26.328 27.4219H3.98277V5.07698H6.4954C6.4969 5.07698 6.49839 5.07668 6.49989 5.07668V6.05871C6.49989 7.03566 7.29478 7.83026 8.27143 7.83026C9.24809 7.83026 10.043 7.03566 10.043 6.05871V5.07728H13.3804V6.05871C13.3804 7.03566 14.1753 7.83026 15.1519 7.83026C16.1286 7.83026 16.9235 7.03566 16.9235 6.05871V5.07728H20.2606V6.05871C20.2606 7.03566 21.0552 7.83026 22.0322 7.83026C23.0091 7.83026 23.8037 7.03566 23.8037 6.05871V5.07578C23.8076 5.07578 23.8109 5.07698 23.8148 5.07698H26.328V27.4219Z" fill="#564405"/>
</g>
<defs>
<clipPath id="clip0_6235_3475">
<rect width="30" height="30" fill="white"/>
</clipPath>
</defs>
</svg>
