<svg width="30" height="30" viewBox="0 0 30 30" fill="none" xmlns="http://www.w3.org/2000/svg">
<g clip-path="url(#clip0_6235_3489)">
<path opacity="0.5" d="M13.2608 17.3408C13.9825 16.5986 14.8393 16.01 15.7824 15.6083C16.7254 15.2067 17.7361 15 18.7568 15C19.7776 15 20.7883 15.2067 21.7314 15.6083C22.6744 16.01 23.5312 16.5986 24.2529 17.3408C27.2882 20.4613 27.2882 25.5205 24.2529 28.6597C22.7952 30.1582 20.8183 31 18.7568 31C16.6955 31 14.7185 30.1582 13.2608 28.6597C10.2464 25.5392 10.2464 20.4794 13.2608 17.3408Z" fill="#D4BC66"/>
<path opacity="0.75" d="M24 13C26.7614 13 29 10.7614 29 8C29 5.2386 26.7614 3 24 3C21.2386 3 19 5.2386 19 8C19 10.7614 21.2386 13 24 13Z" fill="#C8A834"/>
<g clip-path="url(#clip1_6235_3489)">
<path d="M5.89491 23.5781H2.0625L2.06315 4.45312V2.20312H4.31315H25.6882H27.9382V4.45312V23.5781H23.9872" stroke="#564405" stroke-width="0.9" stroke-linecap="square" stroke-linejoin="round"/>
<path d="M2.0625 7.82812H27.9375" stroke="#564405" stroke-width="0.9" stroke-linecap="round" stroke-linejoin="round"/>
<path d="M6 4.73438C6.05563 4.73438 6.11 4.75087 6.15625 4.78177C6.20251 4.81268 6.23855 4.8566 6.25984 4.908C6.28113 4.95939 6.2867 5.01594 6.27585 5.07049C6.26499 5.12505 6.23821 5.17517 6.19887 5.2145C6.15954 5.25383 6.10943 5.28062 6.05487 5.29147C6.00031 5.30232 5.94376 5.29675 5.89237 5.27547C5.84098 5.25418 5.79705 5.21813 5.76615 5.17188C5.73525 5.12563 5.71875 5.07125 5.71875 5.01562C5.71875 4.94103 5.74838 4.8695 5.80113 4.81675C5.85387 4.76401 5.92541 4.73438 6 4.73438Z" stroke="#564405" stroke-width="1.125" stroke-linecap="round" stroke-linejoin="round"/>
<path d="M9.375 4.73438C9.43063 4.73438 9.485 4.75087 9.53125 4.78177C9.57751 4.81268 9.61355 4.8566 9.63484 4.908C9.65613 4.95939 9.6617 5.01594 9.65085 5.07049C9.63999 5.12505 9.61321 5.17517 9.57387 5.2145C9.53454 5.25383 9.48443 5.28062 9.42987 5.29147C9.37531 5.30232 9.31876 5.29675 9.26737 5.27547C9.21598 5.25418 9.17205 5.21813 9.14115 5.17188C9.11024 5.12563 9.09375 5.07125 9.09375 5.01562C9.09375 4.94103 9.12338 4.8695 9.17613 4.81675C9.22887 4.76401 9.30041 4.73438 9.375 4.73438Z" stroke="#564405" stroke-width="1.125" stroke-linecap="round" stroke-linejoin="round"/>
<path d="M12.75 4.73438C12.8056 4.73438 12.86 4.75087 12.9063 4.78177C12.9525 4.81268 12.9886 4.8566 13.0098 4.908C13.0311 4.95939 13.0367 5.01594 13.0258 5.07049C13.015 5.12505 12.9882 5.17517 12.9489 5.2145C12.9095 5.25383 12.8594 5.28062 12.8049 5.29147C12.7503 5.30232 12.6938 5.29675 12.6424 5.27547C12.591 5.25418 12.5471 5.21813 12.5161 5.17188C12.4852 5.12563 12.4688 5.07125 12.4688 5.01562C12.4688 4.94103 12.4984 4.8695 12.5511 4.81675C12.6039 4.76401 12.6754 4.73438 12.75 4.73438Z" stroke="#564405" stroke-width="1.125" stroke-linecap="round" stroke-linejoin="round"/>
<path d="M15 28.0781C18.7279 28.0781 21.75 25.056 21.75 21.3281C21.75 17.6002 18.7279 14.5781 15 14.5781C11.2721 14.5781 8.25 17.6002 8.25 21.3281C8.25 25.056 11.2721 28.0781 15 28.0781Z" stroke="#564405" stroke-width="1.125" stroke-linecap="round" stroke-linejoin="round"/>
<path d="M15 14.5781V11.2031" stroke="#564405" stroke-width="1.125" stroke-linecap="round" stroke-linejoin="round"/>
<path d="M13.3125 11.2031H16.6875" stroke="#564405" stroke-width="1.125" stroke-linecap="round" stroke-linejoin="round"/>
<path d="M9.375 14.5781L10.8229 16.026" stroke="#564405" stroke-width="1.125" stroke-linecap="round" stroke-linejoin="round"/>
<path d="M20.6276 14.5781L19.1797 16.026" stroke="#564405" stroke-width="1.125" stroke-linecap="round" stroke-linejoin="round"/>
<path d="M15.6016 20.7313L17.3914 18.9414" stroke="#564405" stroke-width="1.125" stroke-linecap="round" stroke-linejoin="round"/>
<path d="M14.8005 21.129C14.8398 21.0897 14.8899 21.063 14.9445 21.0522C14.999 21.0414 15.0555 21.047 15.1069 21.0684C15.1582 21.0897 15.2021 21.1257 15.233 21.1719C15.2638 21.2182 15.2803 21.2725 15.2803 21.3281C15.2803 21.3837 15.2638 21.4381 15.233 21.4843C15.2021 21.5305 15.1582 21.5666 15.1069 21.5879C15.0555 21.6092 14.999 21.6148 14.9445 21.604C14.8899 21.5932 14.8398 21.5665 14.8005 21.5273C14.7481 21.4742 14.7188 21.4027 14.7188 21.3281C14.7188 21.2536 14.7481 21.1821 14.8005 21.129Z" stroke="#564405" stroke-width="1.125" stroke-linecap="round" stroke-linejoin="round"/>
</g>
</g>
<defs>
<clipPath id="clip0_6235_3489">
<rect width="30" height="30" fill="white"/>
</clipPath>
<clipPath id="clip1_6235_3489">
<rect width="27" height="27" fill="white" transform="translate(1.5 1.64062)"/>
</clipPath>
</defs>
</svg>
