<svg width="30" height="30" viewBox="0 0 30 30" fill="none" xmlns="http://www.w3.org/2000/svg">
<g clip-path="url(#clip0_6235_3433)">
<path opacity="0.5" d="M13.2608 17.3408C13.9825 16.5986 14.8393 16.01 15.7824 15.6083C16.7254 15.2067 17.7361 15 18.7568 15C19.7776 15 20.7883 15.2067 21.7314 15.6083C22.6744 16.01 23.5312 16.5986 24.2529 17.3408C27.2882 20.4613 27.2882 25.5205 24.2529 28.6597C22.7952 30.1582 20.8183 31 18.7568 31C16.6955 31 14.7185 30.1582 13.2608 28.6597C10.2464 25.5392 10.2464 20.4794 13.2608 17.3408Z" fill="#D4BC66"/>
<path opacity="0.75" d="M24 13C26.7614 13 29 10.7614 29 8C29 5.2386 26.7614 3 24 3C21.2386 3 19 5.2386 19 8C19 10.7614 21.2386 13 24 13Z" fill="#C8A834"/>
<path d="M25.1061 4.6522H22.6001V3.23091C22.6001 2.9417 22.3657 2.70728 22.0765 2.70728H18.2879C17.9647 1.1769 16.6029 0.0390625 14.9946 0.0390625C13.3863 0.0390625 12.0246 1.1769 11.7014 2.70726H7.91276C7.62354 2.70726 7.38911 2.94168 7.38911 3.2309V4.65218H4.88303C4.59381 4.65218 4.35938 4.88661 4.35938 5.17583V29.4386C4.35938 29.7278 4.59381 29.9622 4.88303 29.9622H25.1061C25.3954 29.9622 25.6298 29.7278 25.6298 29.4386V5.17585C25.6298 4.88663 25.3954 4.6522 25.1061 4.6522ZM8.43642 3.75456H12.1578C12.4347 3.75456 12.6637 3.53898 12.6805 3.26261C12.7544 2.0423 13.7709 1.08638 14.9946 1.08638C16.2184 1.08638 17.2348 2.0423 17.3088 3.26261C17.3256 3.53898 17.5545 3.75456 17.8315 3.75456H21.5528V4.6522V5.6995V6.94633H8.43642V5.6995V4.6522V3.75456ZM24.5825 28.9149H5.40671V5.6995H7.38911V7.46998C7.38911 7.75921 7.62354 7.99363 7.91276 7.99363H22.0765C22.3657 7.99363 22.6001 7.7592 22.6001 7.46998V5.6995H24.5825V28.9149Z" fill="#564405"/>
<path d="M11.0587 11.3994L8.90424 13.5539L7.94085 12.5905C7.73632 12.3861 7.40479 12.3861 7.20024 12.5905C6.99575 12.795 6.99575 13.1266 7.20024 13.3311L8.53392 14.6648C8.63619 14.767 8.77019 14.8182 8.90424 14.8182C9.03829 14.8182 9.17229 14.767 9.27455 14.6648L11.7993 12.14C12.0038 11.9355 12.0038 11.604 11.7993 11.3994C11.5948 11.195 11.2633 11.195 11.0587 11.3994Z" fill="#564405"/>
<path d="M13.7424 12.5078C13.4532 12.5078 13.2188 12.7422 13.2188 13.0315C13.2188 13.3207 13.4532 13.5551 13.7424 13.5551H22.4201C22.7094 13.5551 22.9438 13.3207 22.9438 13.0315C22.9438 12.7422 22.7094 12.5078 22.4201 12.5078H13.7424Z" fill="#564405"/>
<path d="M11.0587 17.333L8.90424 19.4875L7.94085 18.5241C7.73632 18.3197 7.40479 18.3197 7.20024 18.5241C6.99575 18.7286 6.99575 19.0601 7.20024 19.2647L8.53392 20.5984C8.63619 20.7006 8.77019 20.7517 8.90424 20.7517C9.03829 20.7517 9.17229 20.7006 9.27455 20.5984L11.7993 18.0736C12.0038 17.8691 12.0038 17.5376 11.7993 17.333C11.5948 17.1286 11.2633 17.1286 11.0587 17.333Z" fill="#564405"/>
<path d="M22.4201 18.4414H13.7424C13.4532 18.4414 13.2188 18.6758 13.2188 18.9651C13.2188 19.2543 13.4532 19.4887 13.7424 19.4887H22.4201C22.7094 19.4887 22.9438 19.2543 22.9438 18.9651C22.9438 18.6758 22.7094 18.4414 22.4201 18.4414Z" fill="#564405"/>
<path d="M11.0587 23.2627L8.90424 25.4172L7.94085 24.4537C7.73632 24.2493 7.40479 24.2493 7.20024 24.4537C6.99575 24.6583 6.99575 24.9898 7.20024 25.1944L8.53392 26.5281C8.63619 26.6303 8.77019 26.6814 8.90424 26.6814C9.03829 26.6814 9.17229 26.6303 9.27455 26.5281L11.7993 24.0033C12.0038 23.7987 12.0038 23.4672 11.7993 23.2627C11.5948 23.0583 11.2633 23.0583 11.0587 23.2627Z" fill="#564405"/>
<path d="M11.0587 23.2627L8.90424 25.4172L7.94085 24.4537C7.73632 24.2493 7.40479 24.2493 7.20024 24.4537C6.99575 24.6583 6.99575 24.9898 7.20024 25.1944L8.53392 26.5281C8.63619 26.6303 8.77019 26.6814 8.90424 26.6814C9.03829 26.6814 9.17229 26.6303 9.27455 26.5281L11.7993 24.0033C12.0038 23.7987 12.0038 23.4672 11.7993 23.2627C11.5948 23.0583 11.2633 23.0583 11.0587 23.2627Z" stroke="black"/>
<path d="M22.4201 24.375H13.7424C13.4532 24.375 13.2188 24.6094 13.2188 24.8987C13.2188 25.1879 13.4532 25.4223 13.7424 25.4223H22.4201C22.7094 25.4223 22.9438 25.1879 22.9438 24.8987C22.9438 24.6094 22.7094 24.375 22.4201 24.375Z" fill="#564405"/>
</g>
<defs>
<clipPath id="clip0_6235_3433">
<rect width="30" height="30" fill="white"/>
</clipPath>
</defs>
</svg>
