<svg width="64" height="64" viewBox="0 0 64 64" fill="none" xmlns="http://www.w3.org/2000/svg">
<path d="M12.9724 63.1452H47.7379V62.4555V61.7325H42.1611C42.2325 61.6221 42.2845 61.4981 42.2845 61.3568V55.334C42.2845 54.9438 41.9685 54.6276 41.5781 54.6276C41.1878 54.6276 40.8718 54.9438 40.8718 55.334V61.3568C40.8718 61.4981 40.9236 61.6221 40.9951 61.7325H23.0047C23.0762 61.6221 23.1283 61.4981 23.1283 61.3568V55.334C23.1283 54.9438 22.812 54.6276 22.4219 54.6276C22.0317 54.6276 21.7155 54.9438 21.7155 55.334V61.3568C21.7155 61.4981 21.7674 61.6221 21.8389 61.7325H13.679V57.1715C13.679 50.6377 19.0138 45.3223 25.5713 45.3223H26.6763C26.7654 48.1802 29.112 50.4791 31.9907 50.4791H32.009C34.8881 50.4791 37.2344 48.1802 37.3235 45.3223H38.4289C44.986 45.3223 50.3207 50.6377 50.3207 57.1715V61.7325H47.7379V62.3865V63.1452H51.0271C51.4176 63.1452 51.7335 62.829 51.7335 62.4388V57.1713C51.7335 49.8587 45.7648 43.9093 38.4288 43.9093H37.3319V42.0253C43.1865 42.3453 47.997 39.0615 49.724 35.1483C49.7695 35.0435 49.7889 34.929 49.7806 34.8148L48.7034 19.9617H48.6761C48.6439 19.8195 49.135 13.6857 43.8396 9.09597L45.144 1.68434C45.1799 1.47872 45.1232 1.26772 44.9887 1.10759C44.8549 0.947844 44.6569 0.855469 44.4479 0.855469H25.5V1.56184C25.5 1.95197 25.5 2.26822 25.5 2.26822H43.6061L41.7076 13.0563C36.5095 10.5332 27.6699 10.5338 22.4724 13.0563L20.5735 2.26822H26V1.5V0.855469H19.7318C19.5231 0.855469 19.3248 0.947969 19.1905 1.10759C19.0564 1.26759 18.9997 1.47872 19.036 1.68434L20.3155 8.95422C17.281 11.5077 15.3385 15.3083 15.3245 19.5631L14.2186 34.8148C14.2104 34.929 14.23 35.0436 14.2759 35.1483C15.9303 38.9375 20.6407 42.3547 26.6672 42.0253V43.9093H25.5707C18.2344 43.9093 12.2656 49.8587 12.2656 57.1713V62.4388C12.266 62.829 12.5822 63.1452 12.9724 63.1452ZM20.9386 21.6075C27.998 22.7798 33.1591 20.6128 35.957 17.3085C37.091 18.2897 39.7341 20.2897 43.0613 20.9737V27.9033C43.0613 33.9897 38.1094 38.9416 32.023 38.9416H31.9767C25.8904 38.9416 20.9385 33.9897 20.9385 27.9033L20.9386 21.6075ZM32.0089 49.0661H31.9906C29.8345 49.0661 28.0805 47.3117 28.0805 45.1556V39.7212C29.3077 40.127 30.6154 40.3545 31.9769 40.3545H32.0231C33.3846 40.3545 34.692 40.127 35.9191 39.7212V45.1556C35.919 47.3117 34.1647 49.0661 32.0089 49.0661ZM37.3636 40.6138L37.436 39.0988C41.5936 37.0801 44.474 32.8272 44.474 27.9033V21.1695C45.402 21.2426 46.3687 21.1996 47.3621 20.9982L48.358 34.7323C47.8641 35.7296 44.8763 41.053 37.3636 40.6138ZM20.6031 10.5863L21.2504 14.2633C21.2908 14.4921 21.4407 14.6866 21.6519 14.7832C21.8636 14.8801 22.1086 14.8667 22.3076 14.7477C27.1532 11.86 37.0276 11.86 41.8726 14.7477C42.0779 14.8701 42.3235 14.8772 42.528 14.7832C43.1155 14.5143 42.8702 14.0513 43.5464 10.762C45.8235 13.0277 47.2549 16.1348 47.2633 19.5843C41.5278 20.86 36.4179 15.8191 36.3661 15.767C36.215 15.6152 36.0074 15.5386 35.7894 15.5631C35.5762 15.5862 35.3851 15.7045 35.2699 15.885C35.2195 15.963 30.1911 23.5432 16.7463 19.106C16.8793 15.764 18.3381 12.7617 20.6031 10.5863ZM26.6359 40.6138C19.125 41.0522 16.1334 35.7258 15.6415 34.7323L16.5539 22.1508V20.5228C17.5893 20.8566 18.5826 21.1303 19.5259 21.338V27.9033C19.5259 32.8682 22.454 37.1511 26.6677 39.149C26.6636 39.335 26.6336 40.7187 26.6359 40.6138Z" fill="#878A99"/>
<path d="M32.0895 4.1543C31.6993 4.1543 31.3831 4.47055 31.3831 4.86067V6.04967H30.1868C29.7967 6.04967 29.4805 6.36592 29.4805 6.75605C29.4805 7.14617 29.7967 7.46242 30.1868 7.46242H31.3831V8.65142C31.3831 9.04155 31.6993 9.3578 32.0895 9.3578C32.4796 9.3578 32.7962 9.04155 32.7962 8.65142V7.46242H33.9925C34.383 7.46242 34.6988 7.14617 34.6988 6.75605C34.6988 6.36592 34.3828 6.04967 33.9925 6.04967H32.7962V4.86067C32.7962 4.47055 32.4796 4.1543 32.0895 4.1543Z" fill="#878A99"/>
</svg>
