<svg width="55" height="64" viewBox="0 0 55 64" fill="none" xmlns="http://www.w3.org/2000/svg">
<path fill-rule="evenodd" clip-rule="evenodd" d="M26.0427 0.0547192C23.1967 0.29397 20.0752 1.77597 17.9175 3.9126C16.264 5.5496 15.2483 7.36598 14.5722 9.89498C14.2876 10.9594 14.2518 11.3336 14.2488 13.2792C14.2462 15.049 14.2975 15.7159 14.5168 16.7711C14.666 17.4886 14.7751 18.0832 14.7591 18.0926C14.7432 18.1021 14.4723 18.2572 14.1572 18.4376C12.2007 19.5571 11.4421 22.0743 12.4394 24.1373C13.0177 25.3335 14.4318 26.3799 15.7546 26.5904C16.2733 26.673 16.2806 26.6815 16.4212 27.3588C16.783 29.1009 17.7527 31.368 18.8007 32.921C19.096 33.3586 19.8618 34.25 20.5027 34.9018L21.6677 36.0868V37.2207V38.3545L20.0526 39.2595C18.2236 40.2843 17.8557 40.6083 17.3685 41.6234L17.0237 42.3418L14.699 43.2515C12.927 43.9449 12.3501 44.1232 12.2729 44.0015C12.2171 43.9137 12.1707 42.8995 12.1696 41.748L12.1677 39.6543H12.521C12.9597 39.6543 13.4177 39.1919 13.4177 38.749C13.4177 38.545 13.2941 38.3252 13.0884 38.1634C12.7699 37.9128 12.6192 37.9043 8.52024 37.9043H4.28137L3.97462 38.2112C3.80587 38.3799 3.66775 38.6355 3.66775 38.7793C3.66775 39.1489 4.21612 39.6543 4.61725 39.6543H4.95312L4.88187 43.498C4.76912 49.5759 4.5805 50.3423 1.62988 56.7168C0.141756 59.9319 0.0091314 60.2778 0.000256419 60.9668C-0.0149935 62.1582 0.650755 63.1471 1.789 63.6239C2.44163 63.8973 27.5093 63.7793 27.5093 63.7793L27.5 62.5L27.5093 62.0231L25.5 62L23.4177 62.0231V54.8387C23.4177 50.8299 23.466 47.6543 23.5268 47.6543C23.5868 47.6543 23.8995 47.7708 24.2215 47.9133C25.9226 48.6658 28.6683 49.0447 30.5774 48.7903C31.5406 48.6619 33.1804 48.2484 33.8239 47.9717C34.0308 47.8827 34.0427 48.262 34.0427 54.9534V62.0293H32.2393L31 62L27.5123 62.0293L27.5 63L27.5123 63.7793H41.4975C52.1824 63.7793 52.4768 63.7729 52.9719 63.5312C53.2514 63.3947 53.6208 63.0743 53.7926 62.8192C54.0891 62.3791 54.104 62.2732 54.0838 60.7494C54.0373 57.2431 53.2641 53.4521 51.8831 49.9584C51.2359 48.3208 50.6445 47.3868 49.7203 46.542C48.7411 45.6472 48.121 45.3383 44.2927 43.8385C42.402 43.0979 40.8123 42.4547 40.76 42.4092C40.7077 42.3637 40.9889 42.1959 41.385 42.0364C43.174 41.3158 44.9535 39.883 46.0319 38.2952C47.2828 36.453 47.8134 34.7305 47.8274 32.4668C47.8418 30.1096 47.2655 28.313 45.8718 26.3704L45.2174 25.4584L45.5323 24.7751C45.9863 23.79 45.9808 22.3776 45.519 21.3824C45.1607 20.6098 44.3137 19.6111 43.7844 19.3375L43.4507 19.1649L43.7489 17.9001C44.1132 16.3556 44.4185 13.8372 44.4152 12.405C44.4123 11.1295 44.1343 8.97873 43.8497 8.02923C42.8964 4.84923 40.3283 3.03847 36.7614 3.03135C36.1599 3.03022 35.6677 2.97772 35.6677 2.91485C35.6677 2.74122 34.1969 1.67247 33.4186 1.28035C31.4614 0.29447 28.6832 -0.167156 26.0427 0.0547192ZM30.8551 2.14822C32.3413 2.5581 33.6436 3.28472 34.4703 4.16523L35.1688 4.90923L36.3244 4.82998C37.7313 4.7336 38.7137 4.89873 39.7479 5.40548C41.0752 6.05573 41.9398 7.33123 42.3818 9.29098C42.7024 10.7124 42.6645 14.378 42.3089 16.3381C42.1597 17.1611 41.9795 17.8924 41.9088 17.9631C41.838 18.0339 41.4198 18.0841 40.9795 18.0749C38.8055 18.0292 36.4729 15.8041 34.7202 12.1041C34.4141 11.458 34.0757 10.8956 33.9679 10.8544C33.5246 10.6842 33.1554 10.8031 32.5816 11.301C31.3098 12.4044 29.2527 13.5656 26.8834 14.5179C25.7886 14.9579 22.713 16.0037 22.713 16.0037L26.1832 16.5274C26.9264 16.5316 30.4106 14.9002 32.1627 13.7275C32.7376 13.3427 33.2157 13.0422 33.2252 13.0599C34.432 15.3025 35.3727 16.6007 36.6859 17.8362C37.6483 18.7415 38.908 19.4941 39.8059 19.7002C40.1015 19.768 40.139 19.8463 40.2122 20.5455C40.3479 21.8446 40.3022 23.9443 40.1053 25.446C39.649 28.9268 38.4313 31.5354 36.24 33.7267C33.9472 36.0195 31.8421 36.9559 28.9802 36.9559C26.1201 36.9559 24.0237 36.024 21.7156 33.7267C19.7403 31.7606 18.537 29.3631 17.9622 26.249C17.7265 24.9721 17.6501 20.9925 17.8328 19.5085L17.9353 18.6752L18.5828 18.5864C19.9453 18.3994 26.1832 16.5274 26.1832 16.5274L22.713 16.0037C22.585 15.997 21.6927 16.164 20.7302 16.3746C19.1671 16.7167 18.2477 16.8794 16.7752 17.074L16.3201 17.1341L16.1502 16.1129C15.8786 14.4809 15.9365 11.5682 16.267 10.2416C16.7878 8.15086 17.7915 6.4086 19.3158 4.94923C20.9713 3.36422 22.7058 2.49272 25.4802 1.85197C25.6177 1.82022 26.6583 1.81185 27.7927 1.83335C29.4469 1.86472 30.0531 1.92697 30.8551 2.14822ZM15.9846 22.1989L15.9802 24.8685L15.6155 24.764C13.9997 24.3016 13.2265 22.33 14.0857 20.8639C14.4892 20.1754 15.2293 19.6414 15.9221 19.5391C15.9588 19.5337 15.987 20.7306 15.9846 22.1989ZM43.0332 20.9118C43.6557 21.3626 44.1652 22.3439 44.1652 23.0918C44.1652 23.7673 43.663 24.8016 43.1499 25.1829C42.7782 25.459 41.919 25.8335 41.852 25.7486C41.8382 25.7311 41.878 25.2668 41.9408 24.7168C42.0034 24.1668 42.0379 22.9995 42.0174 22.1229C41.9813 20.5751 41.9878 20.5289 42.2427 20.5291C42.387 20.5291 42.7428 20.7014 43.0332 20.9118ZM44.4155 27.248C44.9248 27.8585 45.5933 29.2558 45.8658 30.2793C46.1526 31.3563 46.1576 33.4383 45.876 34.5293C45.7608 34.9762 45.433 35.8199 45.1479 36.4043C44.2593 38.2255 42.2949 39.9437 40.3682 40.585C39.767 40.785 39.751 40.7837 39.4559 40.5028C39.2907 40.3454 38.4129 39.7937 37.5053 39.2767L35.8552 38.3365L35.8183 37.4248L35.7814 36.5132L36.9718 35.3867C37.6265 34.767 38.4475 33.8847 38.7963 33.4259C39.6074 32.3589 40.8303 29.886 41.1962 28.5726L41.4802 27.5534L42.0427 27.4771C42.352 27.4351 42.8864 27.2654 43.2302 27.0999C43.5739 26.9344 43.8933 26.7945 43.9398 26.7891C43.9864 26.7836 44.2004 26.9903 44.4155 27.248ZM26.2679 38.4162C28.4473 38.9785 30.9206 38.8183 33.0099 37.9794L34.0427 37.5647V41.7815V45.9985L33.4083 46.2714C31.9856 46.8835 30.9617 47.0704 29.0427 47.0684C27.4438 47.0667 27.1008 47.0274 26.1327 46.7349C25.5291 46.5524 24.6713 46.2258 24.2265 46.0089L23.4177 45.6145V41.455V37.2955L24.3617 37.7317C24.8808 37.9715 25.7386 38.2795 26.2679 38.4162ZM10.4177 41.072C10.4177 41.8518 10.4546 43.258 10.4996 44.197L10.5815 45.9043H8.62461H6.66774V42.7793V39.6543H8.54274H10.4177V41.072ZM21.6677 51.2168V62.0293H21.3761C21.1108 62.0293 20.9138 61.6202 19.1886 57.4843C18.1458 54.9846 17.2927 52.8599 17.2927 52.7628C17.2927 52.6658 17.574 52.0374 17.9177 51.3664C18.7833 49.6765 18.756 49.392 17.56 47.6633C17.2067 47.1527 16.9177 46.611 16.9177 46.4599C16.9177 46.1929 19.0512 41.9904 19.3373 41.6938C19.5011 41.524 21.4323 40.4139 21.574 40.4082C21.6255 40.406 21.6677 45.2699 21.6677 51.2168ZM37.1469 41.031L38.2492 41.6577L39.4584 43.9604C40.1235 45.2268 40.6677 46.3532 40.6677 46.4634C40.6677 46.5737 40.3208 47.1798 39.8968 47.8103C38.807 49.431 38.7867 49.7589 39.6703 51.4719L40.3329 52.7566L38.4065 57.3896C36.5372 61.8854 36.4701 62.0226 36.1364 62.0258L35.7927 62.0293V51.2168C35.7927 44.0354 35.8349 40.4043 35.9187 40.4043C35.9879 40.4043 36.5407 40.6863 37.1469 41.031ZM15.6677 44.8468C15.6677 44.8839 15.5552 45.1348 15.4177 45.4043C15.1126 46.0024 15.0935 46.8979 15.3742 47.4418C15.4878 47.6618 15.8535 48.2303 16.1867 48.7052C16.5201 49.18 16.7927 49.6261 16.7927 49.6964C16.7927 49.7668 16.5051 50.3844 16.1535 51.0689C15.5893 52.1672 15.5212 52.3813 15.5745 52.8902C15.6113 53.2432 16.3198 55.1017 17.4012 57.6819C18.3728 60.0002 19.1677 61.9268 19.1677 61.9632C19.1677 61.9996 18.7002 62.0293 18.1287 62.0293H17.0898L17.0975 61.1231L17.1052 60.2168L15.3721 56.4668C13.104 51.5594 12.5492 49.8458 12.3379 47.0955L12.259 46.0703L13.8071 45.4358C15.3105 44.8197 15.6677 44.7065 15.6677 44.8468ZM44.8049 45.8902C46.2209 46.4497 47.6417 47.081 47.9619 47.2932C49.1988 48.1124 49.9041 49.3057 50.8474 52.1741C51.7723 54.9864 52.2695 57.7971 52.3256 60.5293L52.3551 61.9668L48.6465 61.9999L44.9379 62.0331L44.8605 61.1874C44.7447 59.9216 44.4082 57.8716 44.2755 57.6231C44.0672 57.2326 43.6084 57.0106 43.2732 57.1379C42.605 57.3921 42.582 57.5343 42.8983 59.4668C42.9658 59.8793 43.0574 60.6246 43.1019 61.1231L43.1828 62.0293H40.8003C39.4368 62.0293 38.4177 61.9802 38.4177 61.9146C38.4177 61.8514 39.2179 59.8967 40.196 57.5708C42.3075 52.5494 42.2834 52.6829 41.377 51.0191C41.0557 50.4291 40.7927 49.8477 40.7927 49.7272C40.7927 49.6067 41.1383 49.0085 41.5605 48.398C42.4837 47.0638 42.6144 46.4477 42.1818 45.4695C41.8733 44.772 41.8668 44.7329 42.0739 44.8128C42.1599 44.8458 43.3888 45.3307 44.8049 45.8902ZM10.6677 47.9663C10.6677 48.5314 11.2621 51.0979 11.6641 52.2689C11.8812 52.9011 12.8146 55.0553 13.7382 57.0559C14.6671 59.0677 15.4177 60.8549 15.4177 61.0546C15.4177 61.2713 15.2951 61.5383 15.1108 61.7224L14.8041 62.0293H8.62111C5.22049 62.0293 2.34713 61.9943 2.23588 61.9517C2.00938 61.8648 1.66775 61.2731 1.66775 60.9677C1.66775 60.8582 2.42225 59.1257 3.3445 57.1177C4.26662 55.1097 5.21725 52.9008 5.45699 52.2092C5.91049 50.9006 6.41774 48.6977 6.41774 48.0365V47.6543H8.54274H10.6677V47.9663Z" fill="#878A99"/>
</svg>
