<svg width="55" height="64" viewBox="0 0 55 64" fill="none" xmlns="http://www.w3.org/2000/svg">
<path fill-rule="evenodd" clip-rule="evenodd" d="M25.3173 0.161932C20.8028 0.871682 17.3414 3.20656 15.6733 6.66756C14.9943 8.07656 14.6458 9.43294 14.5464 11.0548C14.4417 12.7646 14.7457 15.0332 15.3279 16.8863C15.385 17.0682 15.3162 17.1056 14.9194 17.1078C14.2418 17.1117 13.4728 17.4998 13.0528 18.0499C12.7019 18.5096 12.6912 18.5677 12.6518 20.2379C12.6154 21.7801 12.6378 22.0058 12.873 22.4668C13.258 23.2216 13.927 23.6122 15.0043 23.7111L15.8919 23.7926L16.1758 24.6065C16.8707 26.5983 18.1095 28.4006 19.7634 29.8255C21.0318 30.9182 21.1776 31.2518 21.0871 32.8551C21.0214 34.0157 20.7268 34.9992 20.1342 36.0351L19.7573 36.6936L18.0373 36.7822C7.4019 37.33 2.41576 41.3357 0.76201 50.6609C0.148883 54.1189 -0.214867 60.7469 0.138758 62.0202C0.308259 62.6304 1.04926 63.4541 1.69226 63.7469C2.17064 63.9647 3.28427 63.9746 27.5048 63.9746C51.7254 63.9746 52.839 63.9647 53.3174 63.7469C53.9604 63.4541 54.7014 62.6304 54.8709 62.0202C55.1309 61.0839 54.9364 54.6079 54.5581 51.6051C53.2724 41.3996 48.4714 37.3393 37.0277 36.7796L35.2382 36.692L34.8703 36.0548C33.9748 34.5036 33.6562 32.5286 34.0742 31.1208C34.2353 30.5786 34.431 30.3121 35.2148 29.5675C36.705 28.1521 37.7558 26.4997 38.385 24.5831L38.6545 23.7623L39.4468 23.6987C40.422 23.6204 41.0178 23.2782 41.4435 22.552C41.7311 22.0612 41.7548 21.8994 41.7548 20.4328C41.7548 18.6262 41.5753 18.0674 40.8402 17.5856L40.4316 17.3177L40.736 16.0551C41.0021 14.9519 41.0412 14.4928 41.0462 12.4176C41.0511 10.3464 41.0167 9.91457 40.7771 9.04256C39.4556 4.23344 35.5426 0.983433 30.101 0.175432C28.5588 -0.0535683 26.7213 -0.0586933 25.3173 0.161932ZM31.2891 2.14731C35.2532 3.18518 38.1381 5.87594 39.0837 9.41756C39.4523 10.7983 39.4175 14.1164 39.0163 15.8238C38.8507 16.5284 38.6746 17.1051 38.625 17.1051C38.5753 17.1051 38.4385 16.4723 38.321 15.6988C38.064 14.0079 37.8336 13.4401 37.1576 12.8312C36.3241 12.0804 36.0458 12.0433 32.6305 12.2274C28.1399 12.4696 26.0703 12.2707 23.3102 11.3321C22.0404 10.9002 21.7122 10.8331 21.2259 10.9059C20.4182 11.0271 19.7751 11.5072 18.8662 12.6676C18.4354 13.2176 17.7712 14.0604 17.3902 14.5407L16.6973 15.4138L16.533 14.7282C16.2422 13.5146 16.1918 10.9297 16.4354 9.72544C17.0213 6.82919 18.7537 4.58681 21.4843 3.19043C23.7248 2.04468 25.2492 1.71856 28.0673 1.78231C29.7112 1.81943 30.2848 1.88443 31.2891 2.14731ZM22.9379 13.0344C25.6654 13.9683 27.8652 14.1893 32.2724 13.9726C33.9666 13.8893 35.4987 13.8578 35.6772 13.9026C35.8556 13.9474 36.0908 14.1201 36.1997 14.2863C36.4493 14.6673 37.2517 19.8288 37.2535 21.0657C37.2583 24.3351 35.2775 27.8563 32.4749 29.5603C30.7348 30.6185 28.3938 31.1308 26.4203 30.8856C23.8998 30.5723 21.9916 29.6291 20.1923 27.8068C19.3104 26.9138 18.9415 26.4245 18.4852 25.5426C17.4642 23.5696 17.3467 23.0376 17.2848 20.1051L17.2305 17.5426L18.9407 15.3551C20.7659 13.0202 21.1487 12.6051 21.4762 12.6051C21.5903 12.6051 22.2481 12.7983 22.9379 13.0344ZM15.5048 20.4176V21.9801H15.0744C14.4319 21.9801 14.2548 21.6423 14.2548 20.4176C14.2548 19.1928 14.4319 18.8551 15.0744 18.8551H15.5048V20.4176ZM39.8548 19.0051C39.9517 19.1019 40.0048 19.6023 40.0048 20.4176C40.0048 21.7929 39.927 21.9801 39.3548 21.9801H39.0048L38.9973 21.0113C38.9933 20.4786 38.946 19.7754 38.8922 19.4488L38.7945 18.8551H39.2497C39.5 18.8551 39.7723 18.9226 39.8548 19.0051ZM24.2673 32.2263C26.7929 32.9293 29.5792 32.7721 31.9111 31.795C32.1072 31.7128 32.1298 31.7931 32.1298 32.5717C32.1298 34.0212 32.6916 35.7801 33.6976 37.4801L34.0305 38.0426L30.81 46.1363C29.0387 50.588 27.5513 54.2301 27.5048 54.2301C27.4583 54.2301 25.9709 50.588 24.1997 46.1363L20.9792 38.0426L21.3121 37.4801C22.3158 35.7838 22.8798 34.0213 22.8798 32.5807C22.8798 31.7832 22.8964 31.7302 23.1111 31.8451C23.2383 31.9131 23.7586 32.0847 24.2673 32.2263ZM22.9381 47.6251C24.9361 52.6206 26.6772 56.8252 26.8072 56.9689C26.9656 57.144 27.1957 57.2301 27.5048 57.2301C27.8139 57.2301 28.0441 57.144 28.2024 56.9689C28.3324 56.8252 30.0747 52.6206 32.074 47.6251L35.7092 38.5426L37.3257 38.5717C40.9396 38.637 44.4947 39.434 46.7184 40.6775C49.5547 42.2637 51.3189 44.7927 52.2506 48.6082C52.8844 51.2034 53.2511 55.1931 53.2536 59.517C53.2549 61.5801 53.2496 61.6217 52.948 61.9232L52.6412 62.2301H27.5048H2.36839L2.06164 61.9232C1.76351 61.6251 1.75476 61.5641 1.75501 59.767C1.75539 55.9262 2.16551 51.8079 2.81301 49.143C4.41439 42.5517 8.47953 39.3837 16.3173 38.619C16.936 38.5586 17.8615 38.5167 18.3738 38.5258L19.3054 38.5426L22.9381 47.6251ZM12.3173 42.4633C9.8264 43.3255 8.05465 44.7183 6.87115 46.745C6.27577 47.7642 6.2519 48.2514 6.77802 48.6425C7.27965 49.0154 7.7159 48.7825 8.21552 47.875C9.2669 45.9655 10.918 44.6813 13.221 43.9818C13.7132 43.8323 14.1789 43.634 14.2559 43.5412C14.5089 43.2363 14.4439 42.5843 14.1355 42.3346C13.7625 42.0326 13.5104 42.0505 12.3173 42.4633ZM39.1867 44.287C38.8948 44.5787 38.8798 44.6675 38.8798 46.0995V47.6051H37.3742C35.9422 47.6051 35.8535 47.6201 35.5617 47.912C35.2601 48.2135 35.2548 48.2547 35.2548 50.3356C35.2548 53.137 35.1738 53.0279 37.2961 53.0839L38.8598 53.1251L38.9011 54.6889C38.9571 56.8111 38.848 56.7301 41.6493 56.7301C43.7302 56.7301 43.7715 56.7249 44.073 56.4232C44.3646 56.1317 44.3799 56.0421 44.3799 54.621V53.1255L45.9537 53.0841C48.0914 53.0277 48.0049 53.1457 48.0049 50.2878V48.1232L47.6755 47.8642C47.3844 47.6351 47.1742 47.6051 45.863 47.6051H44.3799V46.122C44.3799 44.8107 44.3499 44.6006 44.1207 44.3095L43.8617 43.9801H41.6776C39.5253 43.9801 39.489 43.9846 39.1867 44.287ZM42.6298 47.1147C42.6298 48.6166 42.6317 48.6262 42.9952 48.9897C43.3587 49.3532 43.3684 49.3551 44.8702 49.3551H46.3799V50.3551V51.3551H44.8901C44.0707 51.3551 43.3092 51.3901 43.198 51.4327C42.7801 51.5931 42.6298 52.1659 42.6298 53.5989V54.9801H41.6298H40.6298V53.4745C40.6298 52.0425 40.6148 51.9537 40.323 51.662C40.0312 51.3701 39.9425 51.3551 38.5105 51.3551H37.0048V50.3551V49.3551H38.3861C39.8191 49.3551 40.3918 49.2048 40.5522 48.787C40.5948 48.6757 40.6298 47.9142 40.6298 47.0948V45.6051H41.6298H42.6298V47.1147ZM5.70827 50.2652C5.41452 50.559 5.21427 51.3417 5.05764 52.8094C4.98539 53.4861 5.00677 53.6071 5.24027 53.8406C5.73177 54.3321 6.5499 54.1052 6.68452 53.4401C7.18727 50.9561 7.17902 50.3991 6.63515 50.108C6.26802 49.9115 6.0199 49.9536 5.70827 50.2652Z" fill="#878A99"/>
</svg>
