<svg width="54" height="64" viewBox="0 0 54 64" fill="none" xmlns="http://www.w3.org/2000/svg">
<path fill-rule="evenodd" clip-rule="evenodd" d="M24.9827 0.0574515C22.0003 0.341077 19.1022 1.29458 16.9079 2.71396C12.1358 5.80109 10.1294 10.8936 11.2503 17.0746C11.3677 17.7222 11.3565 17.9131 11.175 18.3532C10.8508 19.1397 10.7842 21.3159 11.0557 22.2499C11.516 23.8337 12.4157 24.9689 13.4587 25.2821C13.9005 25.4149 13.9558 25.486 14.2273 26.2729C15.0865 28.7635 16.5613 31.1406 18.3533 32.9239L19.5373 34.1023L19.3918 34.6464C19.1599 35.5134 18.5124 36.7359 17.9519 37.365C17.436 37.9439 17.431 37.946 15.9092 38.2515C14.2325 38.588 10.9122 39.5565 9.02105 40.2606C3.69417 42.244 0.952796 44.9613 0.174421 49.0297C-0.032829 50.1128 -0.062954 53.3313 0.124921 54.3218C0.890671 58.3601 6.25155 61.4407 15.1867 62.9772C26.7211 64.9608 40.6539 63.7341 47.9348 60.0939C49.6027 59.2599 50.6048 58.5497 51.6172 57.4839C53.2112 55.8059 53.5764 54.5943 53.4601 51.3707C53.3763 49.05 53.0978 47.849 52.2297 46.0653C51.6812 44.9385 51.4466 44.6127 50.5146 43.6842C49.6297 42.8025 49.2092 42.4933 48.1848 41.9704C45.2748 40.4851 41.7238 39.2023 38.0598 38.3124C36.0202 37.8171 35.9169 37.777 35.4907 37.3139C34.9908 36.771 34.3362 35.5424 34.0729 34.6533L33.8975 34.0609L34.6385 33.4191C36.2514 32.0218 37.9698 29.4871 38.8803 27.1626C39.1586 26.452 39.4382 25.7441 39.5017 25.5894C39.5651 25.4347 39.7048 25.3081 39.812 25.3081C40.445 25.3081 41.5048 24.3986 41.9977 23.4324C42.6453 22.163 42.7979 19.7761 42.3193 18.4021C42.1311 17.8616 42.1293 17.7204 42.3003 16.819C43.2363 11.8846 41.9158 7.36984 38.6296 4.26971C35.9124 1.70658 32.003 0.213202 27.4973 0.0174514C26.7067 -0.0169237 25.575 0.00107637 24.9827 0.0574515ZM29.6608 2.06808C31.0861 2.28208 32.4296 2.65558 33.62 3.16883C38.2453 5.16284 40.9045 9.65272 40.559 14.8844L40.4757 16.1482L39.5802 16.0884C39.0877 16.0555 38.6517 15.9931 38.6113 15.9496C38.5709 15.9061 38.2684 15.0831 37.9392 14.1206C37.5683 13.0361 37.2201 12.241 37.0234 12.0298C36.6132 11.5891 34.9108 10.7505 33.8723 10.4776C32.8124 10.1991 31.0541 10.1995 29.9995 10.4783C29.1729 10.6971 27.7434 11.2553 25.6223 12.1877C22.5642 13.532 20.0788 13.5042 17.8435 12.1008C17.3774 11.8082 16.8194 11.7263 16.5327 11.9086C16.3195 12.044 15.7305 13.3956 15.2493 14.8532L14.8424 16.086L14.4335 16.0196C14.2087 15.9831 13.8263 15.998 13.584 16.0526C13.0192 16.18 13.0007 16.1149 13.0007 13.9956C13.0005 10.4772 13.9863 7.94509 16.2419 5.66934C18.0375 3.85771 20.5155 2.62558 23.2473 2.18633C23.7629 2.10346 24.2692 2.01908 24.3723 1.99883C24.8869 1.89795 28.8761 1.9502 29.6608 2.06808ZM33.0562 12.372C33.5355 12.4736 34.3231 12.7443 34.8062 12.9738L35.6848 13.3911L36.1625 14.8809C37.3063 18.447 37.4474 18.6296 38.6656 18.1206C39.3638 17.8289 39.6772 17.8827 40.1032 18.368C40.5547 18.8822 40.6919 19.4321 40.6651 20.6206C40.6429 21.5986 40.3963 22.4016 39.9307 23.0121C39.6517 23.3779 39.5442 23.4246 38.906 23.4581C38.0692 23.5021 38.0823 23.4845 37.5116 25.331C36.319 29.189 33.8892 32.2109 30.8523 33.6124C29.361 34.3008 28.5084 34.4818 26.7473 34.4844C25.5027 34.4863 24.9864 34.4301 24.2099 34.2086C22.404 33.6935 20.849 32.7564 19.4569 31.3441C17.8503 29.7144 16.8162 27.9423 15.9729 25.3741C15.7014 24.5472 15.3903 23.7722 15.2814 23.6519C15.1469 23.5031 14.8972 23.4331 14.5013 23.4331C14.0279 23.4331 13.8585 23.3689 13.5954 23.0894C12.8294 22.2757 12.559 19.9626 13.0913 18.7775C13.4337 18.0151 13.8105 17.8241 14.5365 18.0447C15.504 18.339 15.83 18.3505 16.0788 18.0994C16.2058 17.9711 16.5897 17.0362 16.9317 16.022C17.4324 14.5371 17.5907 14.1949 17.7442 14.2647C19.667 15.1404 21.9538 15.4016 23.7409 14.9496C24.3197 14.8032 25.4157 14.3954 26.1765 14.0432C30.2968 12.1358 31.0628 11.9497 33.0562 12.372ZM23.6862 36.1733C26.0638 36.8951 29.0172 36.663 31.4426 35.5636L32.2003 35.2201L32.4836 36.0098C32.7832 36.8453 33.5548 38.1385 34.0993 38.7178L34.4255 39.0649L34.181 39.5189C33.5499 40.6908 30.9574 43.0067 28.1563 44.9009L26.7528 45.8499L25.5313 45.0349C22.7123 43.1539 19.9248 40.6875 19.3185 39.5376L19.0772 39.08L19.4539 38.6509C19.9833 38.048 20.6655 36.8806 21.0117 35.9854L21.3055 35.2253L22.0577 35.5661C22.4713 35.7536 23.2042 36.0269 23.6862 36.1733ZM38.3032 40.3513C38.903 40.5033 38.9264 40.5264 39.0845 41.1268C39.3249 42.0395 39.8387 44.8704 39.9379 45.8293L40.0243 46.6628L39.6045 46.879C38.7893 47.2989 38.3697 47.7203 37.9817 48.5085C37.6227 49.2377 37.5943 49.384 37.6483 50.2262C37.7418 51.6825 38.4574 52.8389 39.6379 53.4412C41.3227 54.3007 43.6437 53.4854 44.4515 51.7504C44.7833 51.038 44.8562 49.6624 44.6014 48.9205C44.2457 47.8848 43.4668 47.065 42.5332 46.7442C41.9954 46.5593 41.9639 46.4815 41.75 44.8082C41.6665 44.155 41.4906 43.0915 41.3591 42.4448C41.2276 41.798 41.1407 41.2481 41.166 41.2228C41.2468 41.142 44.1346 42.1912 45.5087 42.8005C47.1807 43.5419 48.3563 44.3218 49.3211 45.3295C50.2183 46.2669 50.6684 47.0015 51.0671 48.18C51.7709 50.2603 51.7402 53.6307 51.0037 55.1265C49.9556 57.2557 46.6313 59.0787 41.6485 60.2569C38.5473 60.9902 33.3644 61.6792 29.4035 61.8847L27.7473 61.9706V54.7227V47.4748L28.7353 46.8313C32.1784 44.5887 34.9954 42.0288 35.8654 40.3519L36.1345 39.8331L36.9097 40.0139C37.3359 40.1134 37.963 40.2651 38.3032 40.3513ZM17.8144 40.7144C18.7624 42.265 21.9339 45.0612 24.814 46.8857L25.7473 47.4768V54.724V61.9713L24.1535 61.8881C18.5159 61.5938 12.6554 60.6562 9.0598 59.4733C5.60767 58.3376 3.32967 56.8304 2.4913 55.1274C2.1818 54.4988 2.08005 54.0799 1.97505 53.0017C1.7368 50.5567 2.14142 48.2737 3.09167 46.7023C4.3683 44.5908 6.59942 43.1402 10.7953 41.6934C12.2359 41.1966 12.2744 41.1904 12.1984 41.4641C12.1555 41.619 12.001 42.4207 11.8553 43.2457C11.7095 44.0707 11.5734 44.81 11.5528 44.8887C11.5322 44.9673 11.1902 45.1804 10.7928 45.3623C9.37567 46.0112 8.66767 46.7904 8.23967 48.1725C7.94055 49.1387 7.8943 50.9477 8.12805 52.5462C8.24367 53.3363 8.24292 53.6418 8.12517 53.9263C7.92155 54.4178 8.0633 54.9799 8.50117 55.4178C9.1038 56.0204 9.86355 56.0252 10.5003 55.4304C10.8183 55.1334 10.8723 54.9909 10.8723 54.4499C10.8723 53.9297 10.8077 53.7433 10.51 53.4043C10.198 53.0489 10.1263 52.8215 9.99355 51.7668C9.67192 49.2117 10.0854 47.9553 11.4802 47.2498C12.0725 46.9502 13.1257 46.8667 13.8292 47.0635C15.085 47.4152 15.7559 48.5825 16.0685 50.9595C16.2397 52.261 16.2373 52.3109 15.9804 52.7462C15.2988 53.9015 16.5252 55.3144 17.7642 54.8012C18.5499 54.4757 18.8828 53.298 18.3723 52.649C18.2212 52.4569 18.122 52.1413 18.1218 51.8509C18.1203 50.4615 17.5425 48.1464 16.9412 47.1202C16.3845 46.1704 14.8435 45.0673 14.0598 45.0574C13.5425 45.051 13.5048 44.9298 13.6888 43.8689C13.7839 43.3199 13.9849 42.3525 14.1353 41.7192L14.4087 40.5678L15.6092 40.3013C16.2695 40.1548 16.866 40.0164 16.9348 39.9939C17.2528 39.8895 17.3675 39.9835 17.8144 40.7144ZM42.0985 48.6864C43.1009 49.2974 43.1009 50.9333 42.0985 51.5624C41.1838 52.1365 39.8537 51.5868 39.633 50.5433C39.4608 49.7285 39.8767 48.8349 40.5598 48.5524C41.0029 48.3692 41.674 48.4275 42.0985 48.6864Z" fill="#878A99"/>
</svg>
