<svg width="946" height="251" viewBox="0 0 946 251" fill="none" xmlns="http://www.w3.org/2000/svg">
<path d="M746.514 180.01H732.624L728.789 170.098H728.283C724.907 174.343 721.458 177.285 717.937 178.925C714.417 180.516 709.811 181.312 704.119 181.312C697.078 181.312 691.555 179.31 687.552 175.307C683.549 171.256 681.547 165.492 681.547 158.016C681.547 150.541 684.2 144.946 689.505 141.232C694.859 137.518 703.058 135.469 714.103 135.083L726.764 134.721V131.538C726.764 124.158 722.978 120.469 715.405 120.469C709.666 120.469 702.841 122.205 694.931 125.678L688.348 112.294C696.692 107.905 705.88 105.71 715.912 105.71C725.992 105.71 733.613 107.88 738.773 112.221C743.934 116.514 746.514 122.953 746.514 131.538V180.01ZM726.764 152.301V146.296L719.095 146.513C713.259 146.706 708.942 147.767 706.145 149.697C703.348 151.578 701.949 154.471 701.949 158.378C701.949 163.973 705.156 166.77 711.571 166.77C716.201 166.77 719.891 165.468 722.64 162.864C725.389 160.211 726.764 156.69 726.764 152.301Z" fill="black"/>
<path d="M746.514 180.01V181.81H748.314V180.01H746.514ZM732.624 180.01L730.945 180.659L731.39 181.81H732.624V180.01ZM728.789 170.098L730.468 169.449L730.023 168.298H728.789V170.098ZM728.283 170.098V168.298H727.415L726.874 168.978L728.283 170.098ZM717.937 178.925L718.679 180.565L718.688 180.561L718.697 180.556L717.937 178.925ZM687.552 175.307L686.272 176.572L686.279 176.58L687.552 175.307ZM689.505 141.232L688.479 139.753L688.473 139.757L689.505 141.232ZM714.103 135.083L714.052 133.283L714.04 133.284L714.103 135.083ZM726.764 134.721L726.815 136.52L728.564 136.47V134.721H726.764ZM694.931 125.678L693.316 126.472L694.077 128.019L695.655 127.326L694.931 125.678ZM688.348 112.294L687.51 110.7L685.959 111.516L686.733 113.088L688.348 112.294ZM738.773 112.221L737.615 113.599L737.622 113.605L738.773 112.221ZM726.764 146.296H728.564V144.445L726.713 144.497L726.764 146.296ZM719.095 146.513L719.044 144.714L719.036 144.714L719.095 146.513ZM706.145 149.697L707.149 151.19L707.158 151.184L707.167 151.178L706.145 149.697ZM722.64 162.864L723.878 164.17L723.884 164.165L723.89 164.159L722.64 162.864ZM746.514 178.21H732.624V181.81H746.514V178.21ZM734.303 179.36L730.468 169.449L727.111 170.748L730.945 180.659L734.303 179.36ZM728.789 168.298H728.283V171.898H728.789V168.298ZM726.874 168.978C723.607 173.085 720.366 175.808 717.177 177.293L718.697 180.556C722.551 178.761 726.207 175.6 729.692 171.219L726.874 168.978ZM717.196 177.284C713.991 178.733 709.666 179.512 704.119 179.512V183.112C709.955 183.112 714.842 182.299 718.679 180.565L717.196 177.284ZM704.119 179.512C697.432 179.512 692.412 177.622 688.825 174.034L686.279 176.58C690.698 180.999 696.723 183.112 704.119 183.112V179.512ZM688.832 174.042C685.256 170.423 683.347 165.172 683.347 158.016H679.747C679.747 165.812 681.841 172.089 686.272 176.572L688.832 174.042ZM683.347 158.016C683.347 151.024 685.793 146.028 690.538 142.707L688.473 139.757C682.607 143.864 679.747 150.058 679.747 158.016H683.347ZM690.531 142.711C695.466 139.288 703.253 137.263 714.166 136.882L714.04 133.284C702.864 133.674 694.252 135.749 688.479 139.753L690.531 142.711ZM714.155 136.882L726.815 136.52L726.712 132.922L714.052 133.283L714.155 136.882ZM728.564 134.721V131.538H724.964V134.721H728.564ZM728.564 131.538C728.564 127.559 727.54 124.246 725.18 121.947C722.829 119.656 719.457 118.669 715.405 118.669V122.269C718.926 122.269 721.233 123.127 722.668 124.525C724.094 125.915 724.964 128.137 724.964 131.538H728.564ZM715.405 118.669C709.324 118.669 702.241 120.503 694.208 124.029L695.655 127.326C703.441 123.907 710.008 122.269 715.405 122.269V118.669ZM696.546 124.883L689.963 111.499L686.733 113.088L693.316 126.472L696.546 124.883ZM689.186 113.887C697.255 109.642 706.152 107.51 715.912 107.51V103.91C705.607 103.91 696.129 106.167 687.51 110.7L689.186 113.887ZM715.912 107.51C725.771 107.51 732.905 109.638 737.615 113.599L739.932 110.844C734.32 106.123 726.213 103.91 715.912 103.91V107.51ZM737.622 113.605C742.262 117.464 744.714 123.326 744.714 131.538H748.314C748.314 122.579 745.606 115.563 739.924 110.837L737.622 113.605ZM744.714 131.538V180.01H748.314V131.538H744.714ZM728.564 152.301V146.296H724.964V152.301H728.564ZM726.713 144.497L719.044 144.714L719.146 148.313L726.815 148.096L726.713 144.497ZM719.036 144.714C713.074 144.911 708.342 145.995 705.123 148.215L707.167 151.178C709.542 149.54 713.444 148.501 719.154 148.312L719.036 144.714ZM705.141 148.203C701.761 150.476 700.149 153.983 700.149 158.378H703.749C703.749 154.96 704.934 152.68 707.149 151.19L705.141 148.203ZM700.149 158.378C700.149 161.522 701.061 164.189 703.171 166.029C705.234 167.828 708.142 168.57 711.571 168.57V164.97C708.585 164.97 706.682 164.314 705.538 163.316C704.44 162.359 703.749 160.829 703.749 158.378H700.149ZM711.571 168.57C716.554 168.57 720.723 167.159 723.878 164.17L721.402 161.557C719.058 163.777 715.849 164.97 711.571 164.97V168.57ZM723.89 164.159C727.044 161.116 728.564 157.099 728.564 152.301H724.964C724.964 156.281 723.734 159.306 721.39 161.568L723.89 164.159Z" fill="black"/>
<path d="M933.505 3.00732C933.505 3.00732 835.582 33.9135 824.849 37.6224C814.117 41.3313 814.119 51.2214 826.191 52.4576C838.263 53.6939 872.496 60.7107 875.179 61.9469C877.862 63.1832 884.569 97.7983 885.91 103.98C887.251 110.161 897.286 111.798 899.969 105.617C902.652 99.4352 938.602 20.3149 942.895 10.4248C947.187 0.534811 938.423 1.35898 933.505 3.00732Z" fill="#FFC800" stroke="#FFC800" stroke-width="2.70002" stroke-linecap="round"/>
<path d="M927.82 16.5665C927.82 16.5665 849.731 40.8312 843.999 42.8189C838.267 44.8067 835.564 45.5441 842.012 46.2066C848.46 46.8692 881.854 53.2584 883.205 54.5086C884.557 55.7587 892.183 86.2016 892.9 89.5143C893.616 92.8271 894.333 91.5758 895.766 88.263C897.199 84.9503 925.507 21.8593 927.82 16.5665Z" fill="white"/>
<path d="M927.82 16.5665C927.82 16.5665 849.731 40.8312 843.999 42.8189C838.267 44.8067 835.564 45.5441 842.012 46.2066C848.46 46.8692 881.854 53.2584 883.205 54.5086C884.557 55.7587 892.183 86.2016 892.9 89.5143C893.616 92.8271 894.333 91.5758 895.766 88.263C897.199 84.9503 925.507 21.8593 927.82 16.5665ZM927.82 16.5665C930.447 15.6831 927.894 16.3959 927.82 16.5665Z" stroke="white" stroke-width="3.60001" stroke-linecap="round"/>
<path d="M12.4741 150.452C22.9682 158.57 35.5908 162.629 50.3419 162.629C55.886 162.629 60.2915 161.59 63.5585 159.511C66.9246 157.432 68.6076 154.561 68.6076 150.898C68.6076 149.512 68.3601 148.274 67.8651 147.185C67.4691 146.096 66.6275 145.156 65.3405 144.364C64.0535 143.473 62.915 142.829 61.925 142.433C61.034 141.938 59.45 141.443 57.173 140.948C54.896 140.453 53.2129 140.107 52.1239 139.909C51.1339 139.711 49.2034 139.414 46.3324 139.018C43.0654 138.523 40.2933 138.028 38.0163 137.533C35.7393 137.038 32.9178 136.345 29.5517 135.454C26.2847 134.464 23.5127 133.276 21.2357 131.89C18.9587 130.503 16.7311 128.82 14.5531 126.84C12.3751 124.86 10.7416 122.385 9.65258 119.415C8.56357 116.445 8.01907 113.129 8.01907 109.466C8.01907 99.5657 11.7316 92.0417 19.1567 86.8936C26.6807 81.6466 36.8778 79.0231 49.7479 79.0231C63.707 79.0231 76.6761 82.2406 88.6552 88.6757L79.8937 105.456C70.0926 100.11 59.5985 97.4372 48.4114 97.4372C42.5704 97.4372 38.1153 98.4272 35.0463 100.407C31.9773 102.288 30.4428 104.912 30.4428 108.278C30.4428 110.258 30.9378 111.941 31.9278 113.327C32.9178 114.713 34.5018 115.851 36.6798 116.742C38.8578 117.534 40.8378 118.178 42.6199 118.673C44.5009 119.069 47.0254 119.514 50.1934 120.009C62.4695 121.989 71.1321 124.167 76.1811 126.543C86.2792 131.296 91.3283 138.968 91.3283 149.561C91.3283 159.857 87.4177 167.777 79.5967 173.321C71.8746 178.766 61.331 181.489 47.9659 181.489C39.2538 181.489 31.0368 180.202 23.3147 177.628C15.5926 175.054 9.00907 171.737 3.56403 167.678L12.4741 150.452ZM106.837 180.004V80.6566H127.479L174.851 146.294V80.6566H195.641V180.004H175.445L127.776 115.109V180.004H106.837Z" fill="#FFC800"/>
<path d="M247.938 79.1254V116.618C254.043 110.035 261.723 106.744 270.977 106.744C280.803 106.744 289.008 110.321 295.59 117.477C302.173 124.632 305.464 133.552 305.464 144.236C305.464 154.921 302.173 163.841 295.59 170.996C289.103 178.056 280.946 181.586 271.12 181.586C261.771 181.586 253.948 178.199 247.651 171.426V180.012H227.76V79.1254H247.938ZM253.089 158.117C256.715 161.933 261.246 163.841 266.684 163.841C271.931 163.841 276.319 161.981 279.849 158.26C283.379 154.444 285.144 149.77 285.144 144.236C285.144 138.703 283.331 134.076 279.706 130.356C276.176 126.54 271.788 124.632 266.541 124.632C261.198 124.632 256.667 126.54 252.946 130.356C249.321 134.076 247.508 138.703 247.508 144.236C247.508 149.77 249.369 154.397 253.089 158.117ZM327.036 116.904C334.191 109.94 343.492 106.458 354.94 106.458C365.912 106.458 374.879 109.797 381.843 116.475C388.808 123.057 392.29 131.596 392.29 142.09C392.29 144.857 392.147 147.242 391.861 149.245H335.336C336.099 154.301 338.198 158.356 341.632 161.409C345.162 164.366 349.55 165.845 354.797 165.845C363.288 165.845 369.203 162.601 372.542 156.114L388.712 162.983C386.327 168.611 382.082 173.143 375.976 176.577C369.966 179.916 362.954 181.586 354.94 181.586C343.302 181.586 333.905 178.104 326.75 171.139C319.69 164.175 316.16 155.208 316.16 144.236C316.16 133.075 319.785 123.964 327.036 116.904ZM335.479 137.368H372.971C372.208 132.788 370.157 129.068 366.818 126.206C363.479 123.248 359.424 121.77 354.654 121.77C349.98 121.77 345.877 123.201 342.348 126.063C338.818 128.925 336.528 132.693 335.479 137.368ZM406.844 180.012V108.032H426.449V116.618C430.837 109.844 437.467 106.458 446.34 106.458C449.392 106.458 452.35 106.982 455.212 108.032L455.069 127.923C451.73 126.683 448.343 126.063 444.909 126.063C439.28 126.063 434.892 127.78 431.743 131.214C428.69 134.553 427.164 139.132 427.164 144.952V180.012H406.844ZM472.699 117.333C479.377 110.274 487.677 106.744 497.599 106.744C506.471 106.744 514.008 109.988 520.209 116.475V79.1254H540.243V180.012H520.638V171.426C514.437 178.199 506.567 181.586 497.027 181.586C487.2 181.586 478.996 178.008 472.413 170.853C465.926 163.698 462.682 154.778 462.682 144.093C462.682 133.408 466.021 124.488 472.699 117.333ZM488.154 158.117C491.684 161.933 496.12 163.841 501.463 163.841C506.996 163.841 511.575 161.981 515.2 158.26C518.921 154.54 520.781 149.865 520.781 144.236C520.781 138.703 518.921 134.076 515.2 130.356C511.575 126.54 507.044 124.632 501.606 124.632C496.263 124.632 491.779 126.54 488.154 130.356C484.529 134.076 482.716 138.703 482.716 144.236C482.716 149.77 484.529 154.397 488.154 158.117ZM559.096 180.012V108.032H579.845V180.012H559.096ZM556.949 87.2822C556.949 83.8477 558.142 80.938 560.527 78.553C563.007 76.168 566.012 74.9755 569.542 74.9755C573.072 74.9755 576.029 76.168 578.414 78.553C580.799 80.938 581.992 83.8477 581.992 87.2822C581.992 90.812 580.799 93.7694 578.414 96.1544C576.029 98.6349 573.072 99.8751 569.542 99.8751C566.012 99.8751 563.007 98.6826 560.527 96.2975C558.142 93.8171 556.949 90.812 556.949 87.2822ZM598.678 79.6978H618.998V137.94L645.329 108.032H669.226L638.317 143.521L669.656 180.012H644.613L618.998 150.104V180.012H598.678V79.6978Z" fill="black"/>
<path d="M247.938 79.1254H249.738V77.3254H247.938V79.1254ZM247.938 116.618H246.138V121.205L249.257 117.842L247.938 116.618ZM295.59 117.477L294.266 118.695L294.266 118.695L295.59 117.477ZM295.59 170.996L294.266 169.778L294.265 169.778L295.59 170.996ZM247.651 171.426L248.97 170.2L245.851 166.846V171.426H247.651ZM247.651 180.012V181.812H249.451V180.012H247.651ZM227.76 180.012H225.96V181.812H227.76V180.012ZM227.76 79.1254V77.3254H225.96V79.1254H227.76ZM253.089 158.117L254.394 156.877L254.378 156.861L254.362 156.844L253.089 158.117ZM279.849 158.26L281.155 159.499L281.163 159.491L281.171 159.483L279.849 158.26ZM279.706 130.356L278.385 131.578L278.401 131.595L278.417 131.612L279.706 130.356ZM252.946 130.356L251.657 129.099L251.657 129.099L252.946 130.356ZM246.138 79.1254V116.618H249.738V79.1254H246.138ZM249.257 117.842C255.011 111.639 262.207 108.544 270.977 108.544V104.944C261.24 104.944 253.076 108.431 246.618 115.394L249.257 117.842ZM270.977 108.544C280.306 108.544 288.028 111.915 294.266 118.695L296.915 116.258C289.987 108.728 281.301 104.944 270.977 104.944V108.544ZM294.266 118.695C300.511 125.484 303.664 133.955 303.664 144.236H307.264C307.264 133.149 303.835 123.779 296.915 116.258L294.266 118.695ZM303.664 144.236C303.664 154.518 300.511 162.989 294.266 169.778L296.915 172.215C303.835 164.694 307.264 155.324 307.264 144.236H303.664ZM294.265 169.778C288.128 176.457 280.457 179.786 271.12 179.786V183.386C281.436 183.386 290.078 179.655 296.916 172.214L294.265 169.778ZM271.12 179.786C262.265 179.786 254.922 176.603 248.97 170.2L246.333 172.651C252.974 179.796 261.277 183.386 271.12 183.386V179.786ZM245.851 171.426V180.012H249.451V171.426H245.851ZM247.651 178.212H227.76V181.812H247.651V178.212ZM229.56 180.012V79.1254H225.96V180.012H229.56ZM227.76 80.9254H247.938V77.3254H227.76V80.9254ZM251.784 159.357C255.762 163.544 260.771 165.641 266.684 165.641V162.041C261.721 162.041 257.667 160.323 254.394 156.877L251.784 159.357ZM266.684 165.641C272.412 165.641 277.277 163.587 281.155 159.499L278.543 157.021C275.362 160.375 271.45 162.041 266.684 162.041V165.641ZM281.171 159.483C285.029 155.311 286.944 150.191 286.944 144.236H283.344C283.344 149.349 281.729 153.577 278.528 157.038L281.171 159.483ZM286.944 144.236C286.944 138.268 284.971 133.18 280.995 129.099L278.417 131.612C281.692 134.973 283.344 139.139 283.344 144.236H286.944ZM281.028 129.133C277.153 124.945 272.284 122.832 266.541 122.832V126.432C271.292 126.432 275.199 128.134 278.385 131.578L281.028 129.133ZM266.541 122.832C260.714 122.832 255.718 124.935 251.657 129.099L254.235 131.612C257.616 128.145 261.682 126.432 266.541 126.432V122.832ZM251.657 129.099C247.681 133.18 245.708 138.268 245.708 144.236H249.308C249.308 139.139 250.961 134.973 254.235 131.612L251.657 129.099ZM245.708 144.236C245.708 150.22 247.739 155.313 251.817 159.39L254.362 156.844C250.998 153.48 249.308 149.32 249.308 144.236H245.708ZM327.036 116.904L325.78 115.614L325.78 115.614L327.036 116.904ZM381.843 116.475L380.598 117.774L380.607 117.783L381.843 116.475ZM391.861 149.245V151.045H393.422L393.642 149.5L391.861 149.245ZM335.336 149.245V147.445H333.244L333.556 149.514L335.336 149.245ZM341.632 161.409L340.436 162.754L340.456 162.771L340.476 162.788L341.632 161.409ZM372.542 156.114L373.246 154.457L371.707 153.803L370.941 155.29L372.542 156.114ZM388.712 162.983L390.37 163.685L391.071 162.029L389.416 161.326L388.712 162.983ZM375.976 176.577L376.851 178.151L376.859 178.146L375.976 176.577ZM326.75 171.139L325.485 172.421L325.494 172.429L326.75 171.139ZM335.479 137.368L333.722 136.973L333.23 139.168H335.479V137.368ZM372.971 137.368V139.168H375.096L374.747 137.072L372.971 137.368ZM366.818 126.206L365.624 127.553L365.635 127.563L365.646 127.572L366.818 126.206ZM342.348 126.063L341.214 124.664L341.214 124.664L342.348 126.063ZM328.291 118.194C335.06 111.605 343.887 108.258 354.94 108.258V104.658C343.098 104.658 333.321 108.274 325.78 115.614L328.291 118.194ZM354.94 108.258C365.516 108.258 374.015 111.462 380.598 117.774L383.089 115.176C375.743 108.132 366.307 104.658 354.94 104.658V108.258ZM380.607 117.783C387.175 123.991 390.49 132.039 390.49 142.09H394.09C394.09 131.153 390.44 122.124 383.08 115.167L380.607 117.783ZM390.49 142.09C390.49 144.8 390.349 147.096 390.079 148.99L393.642 149.5C393.944 147.388 394.09 144.913 394.09 142.09H390.49ZM391.861 147.445H335.336V151.045H391.861V147.445ZM333.556 149.514C334.374 154.936 336.651 159.39 340.436 162.754L342.828 160.063C339.744 157.322 337.823 153.666 337.115 148.976L333.556 149.514ZM340.476 162.788C344.375 166.055 349.19 167.645 354.797 167.645V164.045C349.911 164.045 345.949 162.677 342.788 160.029L340.476 162.788ZM354.797 167.645C359.268 167.645 363.184 166.79 366.467 164.99C369.765 163.182 372.323 160.473 374.142 156.938L370.941 155.29C369.422 158.242 367.353 160.399 364.736 161.834C362.104 163.277 358.817 164.045 354.797 164.045V167.645ZM371.838 157.771L388.009 164.639L389.416 161.326L373.246 154.457L371.838 157.771ZM387.055 162.28C384.847 167.49 380.906 171.739 375.094 175.008L376.859 178.146C383.258 174.546 387.807 169.733 390.37 163.685L387.055 162.28ZM375.102 175.004C369.401 178.171 362.699 179.786 354.94 179.786V183.386C363.209 183.386 370.532 181.661 376.851 178.151L375.102 175.004ZM354.94 179.786C343.687 179.786 334.769 176.433 328.005 169.85L325.494 172.429C333.041 179.775 342.916 183.386 354.94 183.386V179.786ZM328.014 169.858C321.335 163.27 317.96 154.782 317.96 144.236H314.36C314.36 155.633 318.045 165.081 325.485 172.421L328.014 169.858ZM317.96 144.236C317.96 133.505 321.427 124.878 328.291 118.194L325.78 115.614C318.144 123.05 314.36 132.644 314.36 144.236H317.96ZM335.479 139.168H372.971V135.568H335.479V139.168ZM374.747 137.072C373.918 132.101 371.668 127.992 367.989 124.839L365.646 127.572C368.646 130.143 370.498 133.476 371.196 137.663L374.747 137.072ZM368.011 124.858C364.319 121.588 359.831 119.97 354.654 119.97V123.57C359.018 123.57 362.639 124.909 365.624 127.553L368.011 124.858ZM354.654 119.97C349.58 119.97 345.074 121.534 341.214 124.664L343.481 127.461C346.681 124.867 350.38 123.57 354.654 123.57V119.97ZM341.214 124.664C337.352 127.796 334.855 131.927 333.722 136.973L337.235 137.762C338.201 133.459 340.284 130.053 343.481 127.461L341.214 124.664ZM406.844 180.012H405.044V181.812H406.844V180.012ZM406.844 108.032V106.232H405.044V108.032H406.844ZM426.449 108.032H428.249V106.232H426.449V108.032ZM426.449 116.618H424.649V122.707L427.959 117.597L426.449 116.618ZM455.212 108.032L457.012 108.045L457.021 106.778L455.832 106.342L455.212 108.032ZM455.069 127.923L454.442 129.61L456.85 130.505L456.869 127.936L455.069 127.923ZM431.743 131.214L430.416 129.998L430.415 130L431.743 131.214ZM427.164 180.012V181.812H428.964V180.012H427.164ZM408.644 180.012V108.032H405.044V180.012H408.644ZM406.844 109.832H426.449V106.232H406.844V109.832ZM424.649 108.032V116.618H428.249V108.032H424.649ZM427.959 117.597C431.979 111.393 438.006 108.258 446.34 108.258V104.658C436.929 104.658 429.695 108.296 424.938 115.639L427.959 117.597ZM446.34 108.258C449.181 108.258 451.929 108.745 454.592 109.722L455.832 106.342C452.771 105.22 449.604 104.658 446.34 104.658V108.258ZM453.412 108.019L453.269 127.91L456.869 127.936L457.012 108.045L453.412 108.019ZM455.696 126.236C452.164 124.924 448.565 124.263 444.909 124.263V127.863C448.121 127.863 451.296 128.442 454.442 129.61L455.696 126.236ZM444.909 124.263C438.889 124.263 433.976 126.115 430.416 129.998L433.07 132.431C435.808 129.444 439.671 127.863 444.909 127.863V124.263ZM430.415 130C426.98 133.757 425.364 138.816 425.364 144.952H428.964C428.964 139.449 430.401 135.35 433.072 132.429L430.415 130ZM425.364 144.952V180.012H428.964V144.952H425.364ZM427.164 178.212H406.844V181.812H427.164V178.212ZM472.699 117.333L471.392 116.096L471.383 116.105L472.699 117.333ZM520.209 116.475L518.908 117.719L522.009 120.963V116.475H520.209ZM520.209 79.1254V77.3254H518.409V79.1254H520.209ZM540.243 79.1254H542.043V77.3254H540.243V79.1254ZM540.243 180.012V181.812H542.043V180.012H540.243ZM520.638 180.012H518.838V181.812H520.638V180.012ZM520.638 171.426H522.438V166.794L519.311 170.21L520.638 171.426ZM472.413 170.853L471.08 172.062L471.088 172.072L472.413 170.853ZM488.154 158.117L489.476 156.895L489.46 156.878L489.443 156.861L488.154 158.117ZM515.2 158.26L513.928 156.988L513.919 156.996L513.911 157.004L515.2 158.26ZM515.2 130.356L513.895 131.595L513.911 131.612L513.928 131.628L515.2 130.356ZM488.154 130.356L489.443 131.612L489.451 131.604L489.459 131.595L488.154 130.356ZM474.007 118.57C480.337 111.879 488.16 108.544 497.599 108.544V104.944C487.194 104.944 478.418 108.669 471.392 116.096L474.007 118.57ZM497.599 108.544C505.973 108.544 513.042 111.582 518.908 117.719L521.51 115.231C514.974 108.393 506.969 104.944 497.599 104.944V108.544ZM522.009 116.475V79.1254H518.409V116.475H522.009ZM520.209 80.9254H540.243V77.3254H520.209V80.9254ZM538.443 79.1254V180.012H542.043V79.1254H538.443ZM540.243 178.212H520.638V181.812H540.243V178.212ZM522.438 180.012V171.426H518.838V180.012H522.438ZM519.311 170.21C513.465 176.595 506.084 179.786 497.027 179.786V183.386C507.049 183.386 515.409 179.803 521.966 172.641L519.311 170.21ZM497.027 179.786C487.698 179.786 479.975 176.415 473.738 169.635L471.088 172.072C478.016 179.602 486.703 183.386 497.027 183.386V179.786ZM473.747 169.644C467.592 162.856 464.482 154.383 464.482 144.093H460.882C460.882 155.174 464.259 164.54 471.08 172.062L473.747 169.644ZM464.482 144.093C464.482 133.819 467.678 125.351 474.015 118.562L471.383 116.105C464.365 123.625 460.882 132.998 460.882 144.093H464.482ZM486.833 159.34C490.714 163.535 495.634 165.641 501.463 165.641V162.041C496.606 162.041 492.654 160.331 489.476 156.895L486.833 159.34ZM501.463 165.641C507.446 165.641 512.502 163.609 516.49 159.517L513.911 157.004C510.649 160.353 506.546 162.041 501.463 162.041V165.641ZM516.473 159.533C520.557 155.45 522.581 150.306 522.581 144.236H518.981C518.981 149.425 517.285 153.63 513.928 156.988L516.473 159.533ZM522.581 144.236C522.581 138.253 520.55 133.16 516.473 129.083L513.928 131.628C517.292 134.993 518.981 139.153 518.981 144.236H522.581ZM516.505 129.116C512.528 124.929 507.519 122.832 501.606 122.832V126.432C506.569 126.432 510.622 128.15 513.895 131.595L516.505 129.116ZM501.606 122.832C495.778 122.832 490.82 124.936 486.849 129.116L489.459 131.595C492.739 128.143 496.748 126.432 501.606 126.432V122.832ZM486.865 129.099C482.889 133.18 480.916 138.268 480.916 144.236H484.516C484.516 139.139 486.169 134.973 489.443 131.612L486.865 129.099ZM480.916 144.236C480.916 150.205 482.889 155.293 486.865 159.373L489.443 156.861C486.169 153.5 484.516 149.334 484.516 144.236H480.916ZM559.096 180.012H557.296V181.812H559.096V180.012ZM559.096 108.032V106.232H557.296V108.032H559.096ZM579.845 108.032H581.645V106.232H579.845V108.032ZM579.845 180.012V181.812H581.645V180.012H579.845ZM560.527 78.553L559.279 77.2555L559.266 77.2677L559.254 77.2802L560.527 78.553ZM578.414 78.553L579.687 77.2802L579.687 77.2802L578.414 78.553ZM578.414 96.1544L577.141 94.8816L577.129 94.8941L577.117 94.9068L578.414 96.1544ZM560.527 96.2975L559.229 97.5451L559.254 97.5706L559.279 97.595L560.527 96.2975ZM560.896 180.012V108.032H557.296V180.012H560.896ZM559.096 109.832H579.845V106.232H559.096V109.832ZM578.045 108.032V180.012H581.645V108.032H578.045ZM579.845 178.212H559.096V181.812H579.845V178.212ZM558.749 87.2822C558.749 84.3154 559.759 81.8664 561.799 79.8258L559.254 77.2802C556.524 80.0096 555.149 83.3801 555.149 87.2822H558.749ZM561.774 79.8505C563.91 77.797 566.464 76.7755 569.542 76.7755V73.1755C565.56 73.1755 562.104 74.5389 559.279 77.2555L561.774 79.8505ZM569.542 76.7755C572.619 76.7755 575.111 77.7954 577.141 79.8258L579.687 77.2802C576.947 74.5405 573.524 73.1755 569.542 73.1755V76.7755ZM577.141 79.8258C579.182 81.8664 580.192 84.3154 580.192 87.2822H583.792C583.792 83.3801 582.416 80.0096 579.687 77.2802L577.141 79.8258ZM580.192 87.2822C580.192 90.3593 579.172 92.8513 577.141 94.8816L579.687 97.4272C582.427 94.6875 583.792 91.2646 583.792 87.2822H580.192ZM577.117 94.9068C575.081 97.0242 572.596 98.0751 569.542 98.0751V101.675C573.547 101.675 576.978 100.246 579.712 97.402L577.117 94.9068ZM569.542 98.0751C566.464 98.0751 563.91 97.0535 561.774 95L559.279 97.595C562.104 100.312 565.56 101.675 569.542 101.675V98.0751ZM561.824 95.0499C559.771 92.9143 558.749 90.3602 558.749 87.2822H555.149C555.149 91.2638 556.512 94.7199 559.229 97.5451L561.824 95.0499ZM598.678 79.6978V77.8978H596.878V79.6978H598.678ZM618.998 79.6978H620.798V77.8978H618.998V79.6978ZM618.998 137.94H617.198V142.709L620.349 139.129L618.998 137.94ZM645.329 108.032V106.232H644.515L643.977 106.842L645.329 108.032ZM669.226 108.032L670.584 109.214L673.181 106.232H669.226V108.032ZM638.317 143.521L636.959 142.339L635.937 143.513L636.951 144.694L638.317 143.521ZM669.656 180.012V181.812H673.574L671.021 178.839L669.656 180.012ZM644.613 180.012L643.246 181.183L643.785 181.812H644.613V180.012ZM618.998 150.104L620.365 148.933L617.198 145.235V150.104H618.998ZM618.998 180.012V181.812H620.798V180.012H618.998ZM598.678 180.012H596.878V181.812H598.678V180.012ZM598.678 81.4978H618.998V77.8978H598.678V81.4978ZM617.198 79.6978V137.94H620.798V79.6978H617.198ZM620.349 139.129L646.68 109.221L643.977 106.842L617.647 136.751L620.349 139.129ZM645.329 109.832H669.226V106.232H645.329V109.832ZM667.869 106.85L636.959 142.339L639.674 144.703L670.584 109.214L667.869 106.85ZM636.951 144.694L668.29 181.184L671.021 178.839L639.682 142.348L636.951 144.694ZM669.656 178.212H644.613V181.812H669.656V178.212ZM645.98 178.841L620.365 148.933L617.631 151.274L643.246 181.183L645.98 178.841ZM617.198 150.104V180.012H620.798V150.104H617.198ZM618.998 178.212H598.678V181.812H618.998V178.212ZM600.478 180.012V79.6978H596.878V180.012H600.478Z" fill="black"/>
<path d="M764.518 180.012V108.032H784.123V116.618C788.512 109.844 795.142 106.458 804.014 106.458C807.067 106.458 810.024 106.982 812.886 108.032L812.743 127.923C809.404 126.683 806.018 126.063 802.583 126.063C796.954 126.063 792.566 127.78 789.418 131.214C786.365 134.553 784.839 139.132 784.839 144.952V180.012H764.518ZM825.901 180.012V108.032H846.65V180.012H825.901ZM823.754 87.2822C823.754 83.8477 824.947 80.938 827.332 78.553C829.812 76.168 832.817 74.9755 836.347 74.9755C839.877 74.9755 842.834 76.168 845.219 78.553C847.604 80.938 848.797 83.8477 848.797 87.2822C848.797 90.812 847.604 93.7694 845.219 96.1544C842.834 98.6349 839.877 99.8751 836.347 99.8751C832.817 99.8751 829.812 98.6826 827.332 96.2975C824.947 93.8171 823.754 90.812 823.754 87.2822Z" fill="black"/>
<path d="M764.518 180.012H762.718V181.812H764.518V180.012ZM764.518 108.032V106.232H762.718V108.032H764.518ZM784.123 108.032H785.923V106.232H784.123V108.032ZM784.123 116.618H782.323V122.707L785.634 117.597L784.123 116.618ZM812.886 108.032L814.686 108.045L814.696 106.778L813.506 106.342L812.886 108.032ZM812.743 127.923L812.117 129.61L814.525 130.505L814.543 127.936L812.743 127.923ZM789.418 131.214L788.091 129.998L788.089 130L789.418 131.214ZM784.839 180.012V181.812H786.639V180.012H784.839ZM766.318 180.012V108.032H762.718V180.012H766.318ZM764.518 109.832H784.123V106.232H764.518V109.832ZM782.323 108.032V116.618H785.923V108.032H782.323ZM785.634 117.597C789.653 111.393 795.68 108.258 804.014 108.258V104.658C794.604 104.658 787.37 108.296 782.612 115.639L785.634 117.597ZM804.014 108.258C806.856 108.258 809.604 108.745 812.267 109.722L813.506 106.342C810.445 105.22 807.278 104.658 804.014 104.658V108.258ZM811.086 108.019L810.943 127.91L814.543 127.936L814.686 108.045L811.086 108.019ZM813.37 126.236C809.838 124.924 806.239 124.263 802.583 124.263V127.863C805.796 127.863 808.971 128.442 812.117 129.61L813.37 126.236ZM802.583 124.263C796.564 124.263 791.65 126.115 788.091 129.998L790.745 132.431C793.482 129.444 797.345 127.863 802.583 127.863V124.263ZM788.089 130C784.654 133.757 783.039 138.816 783.039 144.952H786.639C786.639 139.449 788.076 135.35 790.746 132.429L788.089 130ZM783.039 144.952V180.012H786.639V144.952H783.039ZM784.839 178.212H764.518V181.812H784.839V178.212ZM825.901 180.012H824.101V181.812H825.901V180.012ZM825.901 108.032V106.232H824.101V108.032H825.901ZM846.65 108.032H848.45V106.232H846.65V108.032ZM846.65 180.012V181.812H848.45V180.012H846.65ZM827.332 78.553L826.084 77.2555L826.071 77.2677L826.059 77.2802L827.332 78.553ZM845.219 78.553L846.492 77.2802L846.492 77.2802L845.219 78.553ZM845.219 96.1544L843.947 94.8816L843.934 94.8941L843.922 94.9068L845.219 96.1544ZM827.332 96.2975L826.034 97.5451L826.059 97.5706L826.084 97.595L827.332 96.2975ZM827.701 180.012V108.032H824.101V180.012H827.701ZM825.901 109.832H846.65V106.232H825.901V109.832ZM844.85 108.032V180.012H848.45V108.032H844.85ZM846.65 178.212H825.901V181.812H846.65V178.212ZM825.554 87.2822C825.554 84.3154 826.564 81.8664 828.605 79.8258L826.059 77.2802C823.33 80.0096 821.954 83.3801 821.954 87.2822H825.554ZM828.579 79.8505C830.715 77.797 833.269 76.7755 836.347 76.7755V73.1755C832.366 73.1755 828.909 74.5389 826.084 77.2555L828.579 79.8505ZM836.347 76.7755C839.424 76.7755 841.916 77.7954 843.947 79.8258L846.492 77.2802C843.753 74.5405 840.33 73.1755 836.347 73.1755V76.7755ZM843.947 79.8258C845.987 81.8664 846.997 84.3154 846.997 87.2822H850.597C850.597 83.3801 849.222 80.0096 846.492 77.2802L843.947 79.8258ZM846.997 87.2822C846.997 90.3593 845.977 92.8513 843.947 94.8816L846.492 97.4272C849.232 94.6875 850.597 91.2646 850.597 87.2822H846.997ZM843.922 94.9068C841.886 97.0242 839.402 98.0751 836.347 98.0751V101.675C840.352 101.675 843.783 100.246 846.517 97.402L843.922 94.9068ZM836.347 98.0751C833.269 98.0751 830.715 97.0535 828.579 95L826.084 97.595C828.909 100.312 832.366 101.675 836.347 101.675V98.0751ZM828.629 95.0499C826.576 92.9143 825.554 90.3602 825.554 87.2822H821.954C821.954 91.2638 823.318 94.7199 826.034 97.5451L828.629 95.0499Z" fill="black"/>
</svg>
