<svg width="28" height="28" viewBox="0 0 28 28" fill="none" xmlns="http://www.w3.org/2000/svg">
<path d="M16.0933 21.9975C15.9226 21.9981 15.7539 21.9604 15.5996 21.8872C15.4453 21.8141 15.3094 21.7073 15.2019 21.5747L9.68186 14.7175C9.51377 14.513 9.42188 14.2565 9.42188 13.9918C9.42188 13.7271 9.51377 13.4706 9.68186 13.2661L15.3961 6.40895C15.5901 6.17556 15.8689 6.02879 16.1711 6.00093C16.4733 5.97307 16.7742 6.0664 17.0076 6.26038C17.241 6.45437 17.3877 6.73312 17.4156 7.03533C17.4435 7.33753 17.3501 7.63842 17.1561 7.87181L12.0476 13.9975L16.9847 20.1232C17.1245 20.291 17.2132 20.4953 17.2405 20.7119C17.2678 20.9285 17.2325 21.1484 17.1387 21.3456C17.0449 21.5428 16.8966 21.709 16.7114 21.8245C16.5261 21.94 16.3116 22.0001 16.0933 21.9975Z" fill="#715A06"/>
</svg>
