<svg width="28" height="28" viewBox="0 0 28 28" fill="none" xmlns="http://www.w3.org/2000/svg">
<path d="M11.9067 21.9975C12.0774 21.9981 12.2461 21.9604 12.4004 21.8872C12.5547 21.8141 12.6906 21.7073 12.7981 21.5747L18.3181 14.7175C18.4862 14.513 18.5781 14.2565 18.5781 13.9918C18.5781 13.7271 18.4862 13.4706 18.3181 13.2661L12.6039 6.40895C12.4099 6.17556 12.1311 6.02879 11.8289 6.00093C11.5267 5.97307 11.2258 6.0664 10.9924 6.26038C10.759 6.45437 10.6123 6.73312 10.5844 7.03533C10.5565 7.33753 10.6499 7.63842 10.8439 7.87181L15.9524 13.9975L11.0153 20.1232C10.8755 20.291 10.7868 20.4953 10.7595 20.7119C10.7322 20.9285 10.7675 21.1484 10.8613 21.3456C10.9551 21.5428 11.1034 21.709 11.2886 21.8245C11.4739 21.94 11.6884 22.0001 11.9067 21.9975Z" fill="#715A06"/>
</svg>
