<svg width="48" height="48" viewBox="0 0 48 48" fill="none" xmlns="http://www.w3.org/2000/svg">
<path fill-rule="evenodd" clip-rule="evenodd" d="M8.30858 23.4609C8.84131 19.7682 12.5462 18.7633 12.8973 15.3975C11.2265 16.1361 9.22875 15.906 7.76374 14.6953C6.14135 17.6131 6.05659 20.4825 8.30858 23.4609Z" fill="#023F87"/>
<path fill-rule="evenodd" clip-rule="evenodd" d="M15.4549 12.7455C17.3437 12.467 18.9661 11.1353 20.5158 9.82769C22.6589 8.01163 25.6494 5.77181 28.4947 5.98974C23.4095 4.41582 17.9006 5.54178 14.5469 7.59999C15.8424 9.02862 16.133 11.0384 15.4549 12.7334V12.7455Z" fill="#023F87"/>
<path fill-rule="evenodd" clip-rule="evenodd" d="M39.7606 24.6113C39.2279 28.304 35.523 29.3089 35.1719 32.6747C36.8427 31.9361 38.8404 32.1662 40.3054 33.3769C41.9278 30.4591 42.0126 27.5897 39.7606 24.6113Z" fill="#023F87"/>
<path fill-rule="evenodd" clip-rule="evenodd" d="M32.6022 35.3242C30.7135 35.6027 29.0911 36.9345 27.5413 38.242C25.3983 40.0581 22.4078 42.2979 19.5625 42.08C24.6476 43.6539 30.1444 42.5279 33.4982 40.4697C32.2027 39.0411 31.9121 37.0313 32.5901 35.3363L32.6022 35.3242Z" fill="#023F87"/>
<path fill-rule="evenodd" clip-rule="evenodd" d="M24.6094 8.30267C28.3021 8.83538 29.295 12.5402 32.6729 12.8913C31.9344 11.2205 32.1644 9.22281 33.3752 7.75785C30.4573 6.1355 27.5878 6.05075 24.6094 8.30267Z" fill="#00A551"/>
<path fill-rule="evenodd" clip-rule="evenodd" d="M35.3281 15.4584C35.6066 17.3471 36.9384 18.9695 38.246 20.5192C40.0621 22.6622 42.302 25.6526 42.0841 28.4978C43.6581 23.4128 42.5321 17.9162 40.4738 14.5625C39.0451 15.858 37.0353 16.1606 35.3402 15.4705L35.3281 15.4584Z" fill="#00A551"/>
<path fill-rule="evenodd" clip-rule="evenodd" d="M23.4689 39.7566C19.7761 39.2238 18.7712 35.5191 15.4054 35.168C16.1439 36.8387 15.9139 38.8364 14.7031 40.3014C17.621 41.9237 20.4905 42.0085 23.4689 39.7566Z" fill="#00A551"/>
<path fill-rule="evenodd" clip-rule="evenodd" d="M12.7457 32.6019C12.4672 30.7131 11.1354 29.0908 9.82782 27.5411C8.01171 25.3981 5.78394 22.4077 5.98976 19.5625C4.41579 24.6475 5.54179 30.1441 7.60005 33.4978C9.02873 32.2023 11.0386 31.9117 12.7336 32.5897L12.7457 32.6019Z" fill="#00A551"/>
<path fill-rule="evenodd" clip-rule="evenodd" d="M40.0741 7.98708C41.6481 9.56101 41.6481 12.1035 40.0741 13.6774C38.5001 15.2513 35.9576 15.2513 34.3836 13.6774C32.8096 12.1035 32.8096 9.56101 34.3836 7.98708C35.9576 6.41316 38.5001 6.41316 40.0741 7.98708Z" fill="#00A551"/>
<path fill-rule="evenodd" clip-rule="evenodd" d="M13.6835 34.3914C15.2574 35.9653 15.2574 38.5078 13.6835 40.0817C12.1095 41.6556 9.56695 41.6556 7.99298 40.0817C6.41901 38.5078 6.41901 35.9653 7.99298 34.3914C9.56695 32.8175 12.1095 32.8175 13.6835 34.3914Z" fill="#00A551"/>
<path fill-rule="evenodd" clip-rule="evenodd" d="M40.0741 40.07C38.5001 41.6439 35.9576 41.6439 34.3836 40.07C32.8096 38.4961 32.8096 35.9536 34.3836 34.3797C35.9576 32.8057 38.5001 32.8057 40.0741 34.3797C41.6481 35.9536 41.6481 38.4961 40.0741 40.07Z" fill="#023F87"/>
<path fill-rule="evenodd" clip-rule="evenodd" d="M13.6835 13.6774C12.1095 15.2513 9.56695 15.2513 7.99298 13.6774C6.41901 12.1035 6.41901 9.56101 7.99298 7.98708C9.56695 6.41316 12.1095 6.41316 13.6835 7.98708C15.2574 9.56101 15.2574 12.1035 13.6835 13.6774Z" fill="#023F87"/>
<path fill-rule="evenodd" clip-rule="evenodd" d="M22.3168 27.421V28.8376H25.7432V25.7503L28.6853 28.5954C28.9274 28.8255 28.9153 28.9586 28.9153 29.1887V30.1572C28.9153 30.1572 28.9153 30.1815 28.9153 30.2057C28.9153 30.2057 28.9153 30.242 28.9153 30.2541C28.9153 30.2541 28.9153 30.2904 28.9153 30.3025C28.9153 30.3025 28.9153 30.3267 28.9153 30.3389C28.9153 30.3389 28.9153 30.3752 28.9153 30.3873C28.9153 30.3873 28.9153 30.4236 28.9153 30.4357V30.472C28.9153 30.472 28.9153 30.5084 28.9153 30.5205C28.9153 30.5205 28.9153 30.5568 28.9153 30.5689V30.6052C28.9153 30.6052 28.9153 30.6415 28.9153 30.6536C28.9153 30.6536 28.9153 30.6779 28.9153 30.7021V30.7384C28.9153 30.7384 28.9153 30.7747 28.9032 30.7868C28.9032 30.7868 28.9032 30.8231 28.8911 30.8231C28.8911 30.8231 28.8911 30.8474 28.8911 30.8595C28.8911 30.8595 28.8911 30.8958 28.879 30.9079C28.879 30.9079 28.879 30.9321 28.8669 30.9442C28.8669 30.9442 28.8669 30.9684 28.8548 30.9805C28.8548 30.9805 28.8548 31.0169 28.8427 31.029C28.8427 31.029 28.8427 31.0532 28.8306 31.0653C28.8306 31.0653 28.8306 31.0895 28.8185 31.1016C28.8185 31.1016 28.8063 31.1379 28.7942 31.15C28.7942 31.15 28.7942 31.1742 28.7821 31.1863C28.7821 31.1863 28.7821 31.2106 28.77 31.2227C28.77 31.2227 28.77 31.259 28.7458 31.259C28.7458 31.259 28.7458 31.2832 28.7337 31.2953C28.7337 31.2953 28.7216 31.3195 28.7095 31.3316C28.7095 31.3316 28.7095 31.3316 28.6974 31.3437C28.6974 31.3437 28.6974 31.3558 28.6853 31.368C28.6853 31.368 28.6853 31.3922 28.6732 31.3922C28.6732 31.3922 28.6732 31.3922 28.6611 31.4043C28.6611 31.4043 28.6489 31.4164 28.6368 31.4285C28.6368 31.4285 28.6368 31.4285 28.6247 31.4406C28.6247 31.4406 28.6247 31.4406 28.6126 31.4527H28.6005L28.5884 31.4769C28.5884 31.4769 28.5884 31.4769 28.5763 31.489C28.5763 31.489 28.5642 31.5011 28.5521 31.5132C28.5521 31.5132 28.5521 31.5132 28.54 31.5253C28.54 31.5253 28.54 31.5253 28.5279 31.5375H28.5158L28.5037 31.5617C28.5037 31.5617 28.4794 31.5738 28.4794 31.5859H28.4673C28.4673 31.5859 28.4673 31.6101 28.4552 31.6101H28.4431C28.4431 31.6101 28.4431 31.6343 28.431 31.6343C28.431 31.6343 28.431 31.6343 28.4189 31.6343C28.4189 31.6343 28.3947 31.6464 28.3826 31.6585C28.3826 31.6585 28.3705 31.6706 28.3584 31.6827H28.3463C28.3463 31.6827 28.3342 31.6948 28.322 31.707H28.3099C28.3099 31.707 28.2857 31.7312 28.2736 31.7312H28.2615C28.2615 31.7312 28.2494 31.7433 28.2373 31.7554H28.2252C28.2252 31.7554 28.2131 31.7675 28.201 31.7796C28.201 31.7796 28.1768 31.8038 28.1647 31.8038H28.1525L28.1283 31.8159C28.1283 31.8159 28.1283 31.8159 28.1162 31.8159C27.8741 31.9249 27.6198 31.9854 27.3413 31.9854H22.6073V33.4019L19.5805 30.3994L22.6073 27.3968L22.3168 27.421ZM25.7432 22.324H28.8306V25.7503H27.414L30.4166 28.777L33.4193 25.7503H32.0027V21.0164C32.0027 20.7379 31.9422 20.4716 31.8332 20.2415C31.8332 20.2415 31.8332 20.2415 31.8332 20.2294V20.2052L31.8211 20.1931C31.8211 20.181 31.809 20.1689 31.7969 20.1568V20.1326C31.7969 20.1326 31.7969 20.1084 31.7969 20.0962C31.7969 20.0962 31.7848 20.0599 31.7727 20.0478C31.7727 20.0478 31.7727 20.0236 31.7606 20.0115C31.7606 20.0115 31.7606 19.9873 31.7485 19.9752C31.7485 19.9752 31.7363 19.9389 31.7242 19.9267C31.7242 19.9267 31.7242 19.9267 31.7242 19.9146C31.7242 19.9146 31.7242 19.9146 31.7121 19.9025C31.7121 19.9025 31.7121 19.8783 31.7 19.8662C31.7 19.8662 31.6879 19.8299 31.6758 19.8299H31.6637L31.6516 19.8057C31.6516 19.8057 31.6516 19.8057 31.6395 19.7936C31.6395 19.7936 31.6395 19.7936 31.6274 19.7815C31.6274 19.7815 31.6153 19.7694 31.6032 19.7572C31.6032 19.7572 31.6032 19.7572 31.5911 19.7451H31.579L31.5668 19.7209C31.5668 19.7209 31.5668 19.7209 31.5547 19.7088C31.5547 19.7088 31.5547 19.7088 31.5426 19.6967C31.5426 19.6967 31.5305 19.6846 31.5184 19.6725C31.5184 19.6725 31.5184 19.6725 31.5063 19.6725C31.5063 19.6725 31.5063 19.6725 31.4942 19.6604H31.4821C31.4821 19.6604 31.47 19.6362 31.4579 19.6362C31.4579 19.6362 31.4579 19.6362 31.4458 19.6241C31.4458 19.6241 31.4337 19.612 31.4216 19.612H31.4094C31.4094 19.612 31.4094 19.5877 31.3973 19.5877H31.3852C31.3852 19.5877 31.3731 19.5635 31.361 19.5635H31.3489C31.3489 19.5635 31.3368 19.5393 31.3247 19.5393H31.3126C31.3126 19.5393 31.3005 19.5151 31.2884 19.5151H31.2763C31.2763 19.5151 31.2521 19.4909 31.2399 19.4909C31.2399 19.4909 31.2278 19.4788 31.2157 19.4667H31.2036C31.2036 19.4667 31.1915 19.4546 31.1794 19.4425C31.1794 19.4425 31.1552 19.4182 31.1431 19.4182C31.1431 19.4182 31.131 19.4061 31.1189 19.394H31.1068C31.1068 19.394 31.0825 19.3819 31.0825 19.3698C31.0825 19.3698 31.0583 19.3577 31.0462 19.3456C31.0462 19.3456 31.0341 19.3456 31.022 19.3335H31.0099C31.0099 19.3335 30.9857 19.3214 30.9736 19.3214C30.9736 19.3214 30.9494 19.3214 30.9373 19.3093H30.9251C30.9251 19.3093 30.913 19.3093 30.9009 19.2972C30.9009 19.2972 30.8767 19.2972 30.8646 19.2851C30.8646 19.2851 30.8404 19.2851 30.8283 19.2851C30.8283 19.2851 30.8041 19.2851 30.792 19.2851C30.792 19.2851 30.7678 19.2851 30.7556 19.2851C30.7556 19.2851 30.7314 19.2851 30.7193 19.2851H30.7072C30.7072 19.2851 30.683 19.2851 30.6709 19.2851C30.6709 19.2851 30.6467 19.2851 30.6346 19.2851C30.6346 19.2851 30.6104 19.2851 30.5982 19.2851H30.5861C30.5861 19.2851 30.5619 19.2851 30.5498 19.2851C30.5498 19.2851 30.5256 19.2851 30.5014 19.2851C30.5014 19.2851 30.4772 19.2851 30.4651 19.2851H30.453C30.453 19.2851 30.4287 19.2851 30.4045 19.2851H29.4359C29.218 19.2851 29.0848 19.2609 28.8427 19.5151L25.9974 22.4571L25.7432 22.324ZM22.3168 25.7503H19.2293V22.324H20.6459L17.6433 19.2972L14.6406 22.324H16.0572V27.0578C16.0572 27.3363 16.1177 27.6026 16.2267 27.8327C16.2267 27.8327 16.2267 27.8327 16.2267 27.8448V27.869L16.2388 27.8811C16.2388 27.8932 16.2509 27.9053 16.263 27.9174V27.9416C16.263 27.9416 16.263 27.9659 16.263 27.978C16.263 27.978 16.2751 28.0143 16.2872 28.0264C16.2872 28.0264 16.2872 28.0506 16.2993 28.0627C16.2993 28.0627 16.2993 28.0869 16.3115 28.099C16.3115 28.099 16.3236 28.1354 16.3357 28.1475C16.3357 28.1475 16.3357 28.1475 16.3357 28.1596C16.3357 28.1596 16.3357 28.1596 16.3478 28.1717C16.3478 28.1717 16.3478 28.1959 16.3599 28.208C16.3599 28.208 16.372 28.2443 16.3841 28.2564H16.3962L16.4083 28.2806C16.4083 28.2806 16.4083 28.2806 16.4204 28.2928C16.4204 28.2928 16.4204 28.2928 16.4325 28.3049C16.4325 28.3049 16.4446 28.317 16.4567 28.3291C16.4567 28.3291 16.4567 28.3291 16.4689 28.3412H16.481L16.4931 28.3654C16.4931 28.3654 16.4931 28.3654 16.5052 28.3775C16.5052 28.3775 16.5052 28.3775 16.5173 28.3896C16.5173 28.3896 16.5294 28.4017 16.5415 28.4138C16.5415 28.4138 16.5415 28.4138 16.5536 28.4259C16.5536 28.4259 16.5536 28.4259 16.5657 28.438H16.5778C16.5778 28.438 16.5899 28.4623 16.602 28.4623C16.602 28.4623 16.602 28.4623 16.6141 28.4744C16.6141 28.4744 16.6262 28.4865 16.6384 28.4865H16.6505C16.6505 28.4865 16.6505 28.5107 16.6626 28.5107H16.6747C16.6747 28.5107 16.6868 28.5349 16.6989 28.5349H16.711C16.711 28.5349 16.7231 28.5591 16.7352 28.5591H16.7473C16.7473 28.5591 16.7594 28.5833 16.7715 28.5833H16.7836C16.7836 28.5833 16.8079 28.6075 16.82 28.6075C16.82 28.6075 16.8321 28.6196 16.8442 28.6318H16.8563C16.8563 28.6318 16.8684 28.6439 16.8805 28.656C16.8805 28.656 16.9047 28.6802 16.9168 28.6802C16.9168 28.6802 16.9289 28.6923 16.941 28.7044C16.941 28.7044 16.9653 28.7165 16.9653 28.7286C16.9653 28.7286 16.9895 28.7407 17.0016 28.7528C17.0016 28.7528 17.0137 28.7649 17.0258 28.7649H17.0379C17.0379 28.7649 17.0621 28.777 17.0742 28.777C17.0742 28.777 17.0984 28.777 17.1105 28.7891C17.1105 28.7891 17.1348 28.7891 17.1348 28.8013H17.1469C17.1469 28.8013 17.1711 28.8012 17.1832 28.8134C17.1832 28.8134 17.2074 28.8134 17.2195 28.8134C17.2195 28.8134 17.2437 28.8134 17.2558 28.8134C17.2558 28.8134 17.28 28.8134 17.2922 28.8134C17.2922 28.8134 17.3164 28.8134 17.3285 28.8134H17.3406C17.3406 28.8134 17.3648 28.8134 17.3769 28.8134C17.3769 28.8134 17.4011 28.8134 17.4132 28.8134C17.4132 28.8134 17.4374 28.8134 17.4496 28.8134H17.4617C17.4617 28.8134 17.4859 28.8134 17.498 28.8134C17.498 28.8134 17.5222 28.8134 17.5464 28.8134C17.5464 28.8134 17.5706 28.8134 17.5827 28.8134H17.5948C17.5948 28.8134 17.6191 28.8134 17.6433 28.8134H18.6119C18.8298 28.8134 18.963 28.8376 19.2051 28.5833L22.0504 25.6413L22.3168 25.7503ZM22.3168 22.324L19.3746 19.4788C19.1204 19.2366 19.1446 19.1156 19.1446 18.8855V17.917C19.1446 17.917 19.1446 17.8928 19.1446 17.8806C19.1446 17.8806 19.1446 17.8443 19.1446 17.8322C19.1446 17.8322 19.1446 17.7959 19.1446 17.7717C19.1446 17.7717 19.1446 17.7475 19.1446 17.7233C19.1446 17.7233 19.1446 17.6869 19.1446 17.6748C19.1446 17.6748 19.1446 17.6385 19.1446 17.6264V17.5901C19.1446 17.5901 19.1446 17.5538 19.1446 17.5416C19.1446 17.5416 19.1446 17.5053 19.1446 17.4932V17.4569C19.1446 17.4569 19.1446 17.4206 19.1446 17.4085C19.1446 17.4085 19.1446 17.3843 19.1567 17.36C19.1567 17.36 19.1567 17.3358 19.1567 17.3237C19.1567 17.3237 19.1567 17.2874 19.1688 17.2753C19.1688 17.2753 19.1688 17.2511 19.1688 17.239V17.2026C19.1688 17.2026 19.1688 17.1663 19.1809 17.1542C19.1809 17.1542 19.1809 17.13 19.193 17.1179C19.193 17.1179 19.193 17.0937 19.2051 17.0816C19.2051 17.0816 19.2051 17.0453 19.2172 17.0331C19.2172 17.0331 19.2172 17.0089 19.2293 16.9968C19.2293 16.9968 19.2294 16.9726 19.2415 16.9605C19.2415 16.9605 19.2536 16.9242 19.2657 16.9121C19.2657 16.9121 19.2657 16.8879 19.2778 16.8758C19.2778 16.8758 19.2778 16.8515 19.2899 16.8394C19.2899 16.8394 19.2899 16.8031 19.3141 16.8031C19.3141 16.8031 19.3141 16.7789 19.3262 16.7668C19.3262 16.7668 19.3383 16.7426 19.3383 16.7305C19.3383 16.7305 19.3383 16.7305 19.3504 16.7184C19.3504 16.7184 19.3504 16.7063 19.3625 16.6941C19.3625 16.6941 19.3625 16.6699 19.3746 16.6699C19.3746 16.6699 19.3746 16.6699 19.3867 16.6578C19.3867 16.6578 19.3989 16.6457 19.411 16.6336C19.411 16.6336 19.411 16.6336 19.4231 16.6215C19.4231 16.6215 19.4231 16.6215 19.4352 16.6094H19.4473L19.4594 16.5852C19.4594 16.5852 19.4594 16.5852 19.4715 16.5731C19.4715 16.5731 19.4836 16.561 19.4957 16.5489C19.4957 16.5489 19.4957 16.5489 19.5078 16.5368C19.5078 16.5368 19.5078 16.5368 19.5199 16.5247H19.532L19.5441 16.5004C19.5441 16.5004 19.5684 16.4883 19.5684 16.4762H19.5805C19.5805 16.4762 19.5805 16.452 19.5926 16.452H19.6047C19.6047 16.452 19.6047 16.4278 19.6168 16.4278C19.6168 16.4278 19.6168 16.4278 19.6289 16.4278C19.6289 16.4278 19.6531 16.4157 19.6652 16.4036C19.6652 16.4036 19.6773 16.3915 19.6894 16.3794H19.7015C19.7015 16.3794 19.7136 16.3673 19.7258 16.3552H19.7379C19.7379 16.3552 19.7621 16.3309 19.7742 16.3309H19.7863C19.7863 16.3309 19.7984 16.3188 19.8105 16.3067H19.8226C19.8226 16.3067 19.8347 16.2946 19.8468 16.2825C19.8468 16.2825 19.871 16.2583 19.8832 16.2583H19.8953L19.9195 16.2462C19.9195 16.2462 19.9195 16.2462 19.9316 16.2462C20.1737 16.1372 20.428 16.0767 20.7065 16.0767H25.4405V14.6602L28.4673 17.6627L25.4405 20.6653V19.2487H22.0141V22.3361L22.3168 22.324Z" fill="#00A551"/>
<path fill-rule="evenodd" clip-rule="evenodd" d="M22.4503 28.9173V25.8543H19.375V22.4522H22.4503V19.377H25.8525V22.4522H28.9157V25.8543H25.8525V28.9173H22.4503Z" fill="white"/>
</svg>
