<svg width="104" height="104" viewBox="0 0 104 104" fill="none" xmlns="http://www.w3.org/2000/svg">
<path d="M52 2C24.4298 2 2 24.4298 2 52C2 79.57 24.4298 102 52 102C79.57 102 102 79.57 102 52C102 24.4298 79.57 2 52 2Z" fill="#F3CF16"/>
<path d="M52 102C79.6142 102 102 79.6142 102 52C102 24.3858 79.6142 2 52 2C24.3858 2 2 24.3858 2 52C2 79.6142 24.3858 102 52 102Z" stroke="black" stroke-width="3" stroke-miterlimit="10"/>
<path d="M32.4375 67.2188H71.5679" stroke="black" stroke-width="3" stroke-miterlimit="10" stroke-linecap="round" stroke-linejoin="round"/>
<path d="M38.9575 41.1311C38.9575 44.7329 36.0341 47.6529 32.4358 47.6529C28.8373 47.6529 25.9141 44.7326 25.9141 41.1311C25.9141 37.5329 28.8373 34.6094 32.4358 34.6094C36.0341 34.6094 38.9575 37.5329 38.9575 41.1311Z" fill="black"/>
<path d="M78.0864 41.1311C78.0864 44.7329 75.1632 47.6529 71.5647 47.6529C67.9662 47.6529 65.043 44.7326 65.043 41.1311C65.043 37.5329 67.9662 34.6094 71.5647 34.6094C75.1632 34.6094 78.0864 37.5329 78.0864 41.1311Z" fill="black"/>
</svg>
