<svg width="104" height="104" viewBox="0 0 104 104" fill="none" xmlns="http://www.w3.org/2000/svg">
<path d="M52 102C79.6142 102 102 79.6142 102 52C102 24.3858 79.6142 2 52 2C24.3858 2 2 24.3858 2 52C2 79.6142 24.3858 102 52 102Z" fill="#308A45"/>
<path d="M83.7306 64.2617C83.7568 67.6089 83.1137 70.9275 81.8393 74.0226C54.6871 80.6095 26.5567 74.7617 22.0784 73.74C20.8637 70.7287 20.2507 67.5087 20.2741 64.2617H20.5132C20.5132 64.2617 52.6871 72.0661 83.3176 64.4139L83.7306 64.2617Z" fill="white"/>
<path d="M81.8351 74.0209C77.9438 83.3035 68.0307 89.7383 52.0742 89.7383C35.9655 89.7383 25.922 83.1513 22.0742 73.7383C26.5525 74.76 54.6827 80.6078 81.8351 74.0209Z" fill="#EA5A47"/>
<path d="M52 102C79.6142 102 102 79.6142 102 52C102 24.3858 79.6142 2 52 2C24.3858 2 2 24.3858 2 52C2 79.6142 24.3858 102 52 102Z" stroke="black" stroke-width="3" stroke-linecap="round" stroke-linejoin="round"/>
<path d="M35.846 52.4831C39.4478 52.4831 42.3677 47.2236 42.3677 40.7357C42.3677 34.2478 39.4478 28.9883 35.846 28.9883C32.2441 28.9883 29.3242 34.2478 29.3242 40.7357C29.3242 47.2236 32.2441 52.4831 35.846 52.4831Z" fill="black"/>
<path d="M68.1506 52.4909C71.7525 52.4909 74.6724 47.2314 74.6724 40.7435C74.6724 34.2556 71.7525 28.9961 68.1506 28.9961C64.5488 28.9961 61.6289 34.2556 61.6289 40.7435C61.6289 47.2314 64.5488 52.4909 68.1506 52.4909Z" fill="black"/>
<path d="M83.7306 64.2617C83.7568 67.6089 83.1137 70.9275 81.8393 74.0226C54.6871 80.6095 26.5567 74.7617 22.0784 73.74C20.8637 70.7287 20.2507 67.5087 20.2741 64.2617H20.5132C20.5132 64.2617 52.6871 72.0661 83.3176 64.4139L83.7306 64.2617Z" stroke="black" stroke-width="3" stroke-linecap="round" stroke-linejoin="round"/>
<path d="M81.8351 74.0209C77.9438 83.3035 68.0307 89.7383 52.0742 89.7383C35.9655 89.7383 25.922 83.1513 22.0742 73.7383C26.5525 74.76 54.6827 80.6078 81.8351 74.0209Z" stroke="black" stroke-width="3" stroke-linecap="round" stroke-linejoin="round"/>
</svg>
