<svg width="104" height="104" viewBox="0 0 104 104" fill="none" xmlns="http://www.w3.org/2000/svg">
<path d="M52.4359 2.6875C25.1057 2.6875 2.87109 24.9221 2.87109 52.2523C2.87109 79.5823 25.1057 101.817 52.4359 101.817C79.7659 101.817 102.001 79.5823 102.001 52.2523C102.001 24.9221 79.7659 2.6875 52.4359 2.6875Z" fill="#EE6100"/>
<path d="M34.6055 84.6081C35.1933 83.8338 41.8009 66.7435 52.9122 67.2085C62.9239 67.6274 68.627 83.602 69.3881 84.6081C57.7939 84.6081 46.1996 84.6081 34.6055 84.6081Z" fill="white"/>
<path d="M52 102C79.6142 102 102 79.6142 102 52C102 24.3858 79.6142 2 52 2C24.3858 2 2 24.3858 2 52C2 79.6142 24.3858 102 52 102Z" stroke="black" stroke-width="3" stroke-miterlimit="10"/>
<path d="M70.5547 20.3438L84.4358 27.4674" stroke="black" stroke-width="3" stroke-miterlimit="10" stroke-linecap="round" stroke-linejoin="round"/>
<path d="M32.2639 20.3438L18.3828 27.4674" stroke="black" stroke-width="3" stroke-miterlimit="10" stroke-linecap="round" stroke-linejoin="round"/>
<path d="M25.9141 34.6094C30.9867 37.5079 36.0588 40.4065 41.1315 43.305C36.0588 46.2035 30.9867 49.1022 25.9141 52.0007" stroke="black" stroke-width="3" stroke-miterlimit="10" stroke-linecap="round" stroke-linejoin="round"/>
<path d="M78.0885 34.6094C73.0159 37.5079 67.9437 40.4065 62.8711 43.305C67.9437 46.2035 73.0159 49.1022 78.0885 52.0007" stroke="black" stroke-width="3" stroke-miterlimit="10" stroke-linecap="round" stroke-linejoin="round"/>
<path d="M34.6094 84.6066C35.1972 83.8322 36.7833 67.2153 52.9161 67.207C67.2181 67.1999 68.6309 83.6005 69.392 84.6066C57.7979 84.6066 46.2035 84.6066 34.6094 84.6066Z" stroke="black" stroke-width="3" stroke-miterlimit="10" stroke-linecap="round" stroke-linejoin="round"/>
</svg>
