<svg width="104" height="104" viewBox="0 0 104 104" fill="none" xmlns="http://www.w3.org/2000/svg">
<path d="M86.7874 87.6089C88.695 84.0632 88.9613 75.9132 88.9613 71.5654C88.9613 62.8697 80.2656 47.6523 80.2656 47.6523" stroke="black" stroke-width="3" stroke-miterlimit="10" stroke-linecap="round" stroke-linejoin="round"/>
<path d="M69.3984 52C69.3984 52 75.9202 66.6261 75.9202 73.7391C75.9202 80.4022 73.7463 91.1304 73.7463 95.4783" stroke="black" stroke-width="3" stroke-miterlimit="10" stroke-linecap="round" stroke-linejoin="round"/>
<path d="M17.2247 87.6523C15.3171 84.1067 15.0508 75.9132 15.0508 71.5654C15.0508 62.8697 23.7464 47.6523 23.7464 47.6523" stroke="black" stroke-width="3" stroke-miterlimit="10" stroke-linecap="round" stroke-linejoin="round"/>
<path d="M34.6155 52C34.6155 52 28.0938 66.6261 28.0938 73.7391C28.0938 80.4022 30.2677 91.1304 30.2677 95.4783" stroke="black" stroke-width="3" stroke-miterlimit="10" stroke-linecap="round" stroke-linejoin="round"/>
<path d="M52.4324 2.69727C25.1063 2.69727 2.86719 24.9364 2.86719 52.2625C2.86719 79.5886 25.1063 101.828 52.4324 101.828C79.7585 101.828 101.998 79.5886 101.998 52.2625C101.998 24.9364 79.7585 2.69727 52.4324 2.69727Z" fill="#D40B0B"/>
<path fill-rule="evenodd" clip-rule="evenodd" d="M51.8478 85.8702C46.4978 85.8702 41.5391 80.7224 41.5391 75.0289C41.5391 69.3354 46.8521 64.8984 52.2021 64.8984C57.5521 64.8984 62.4217 69.6919 62.4217 75.3832C62.4217 81.0767 57.1978 85.868 51.8478 85.868V85.8702Z" fill="black"/>
<path d="M41.9297 72.1968C46.3319 74.9968 57.8384 74.9968 62.0601 72.1968L51.9949 63.4902L41.9297 72.1968Z" fill="white"/>
<path d="M38.2987 43.3494C25.7726 64.0907 29.9074 74.3711 30.2639 95.4798C30.2639 99.3994 19.077 90.2363 17.2204 86.7841C12.503 73.9146 16.3533 56.7624 22.6552 45.0885C28.9313 41.5624 37.8552 40.5581 38.2987 43.3426V43.3494Z" fill="#92D3F5"/>
<path d="M65.6914 44.1755C78.2175 64.9168 74.0827 75.1973 73.7262 96.306C73.7262 100.226 84.9131 91.0625 86.7697 87.6103C91.4871 74.7407 87.6368 57.5886 81.3349 45.9147C75.0588 42.3886 66.1349 41.3842 65.6914 44.1688V44.1755Z" fill="#92D3F5"/>
<path d="M61.7852 45.0859C62.6834 44.3381 66.6678 41.1902 72.4569 41.5294C77.1547 41.8031 80.3047 44.2098 81.3504 45.0859" stroke="black" stroke-width="3" stroke-miterlimit="10" stroke-linecap="round" stroke-linejoin="round"/>
<path d="M22.6523 45.0859C23.5506 44.3381 27.535 41.1902 33.3241 41.5294C38.0219 41.8031 41.1719 44.2098 42.2176 45.0859" stroke="black" stroke-width="3" stroke-miterlimit="10" stroke-linecap="round" stroke-linejoin="round"/>
<path d="M52 102C79.6142 102 102 79.6142 102 52C102 24.3858 79.6142 2 52 2C24.3858 2 2 24.3858 2 52C2 79.6142 24.3858 102 52 102Z" stroke="black" stroke-width="3" stroke-miterlimit="10"/>
<path d="M52.0019 85.3905C57.7157 85.3905 62.3476 80.7586 62.3476 75.0449C62.3476 69.3311 57.7157 64.6992 52.0019 64.6992C46.2882 64.6992 41.6562 69.3311 41.6562 75.0449C41.6562 80.7586 46.2882 85.3905 52.0019 85.3905Z" stroke="black" stroke-width="3" stroke-miterlimit="10" stroke-linecap="round" stroke-linejoin="round"/>
</svg>
