<svg width="660" height="165" viewBox="0 0 660 165" fill="none" xmlns="http://www.w3.org/2000/svg">
<path fill-rule="evenodd" clip-rule="evenodd" d="M10.0966 43.3805C7.12583 44.5791 5.41563 45.7966 3.76313 47.8886C-1.33702 54.3456 0.350343 63.5715 7.46683 68.1421L8.96947 69.1073V81.3131C8.96947 88.556 9.14698 94.383 9.40623 95.6441C10.0385 98.7198 12.6359 103.854 14.7997 106.306C16.8008 108.572 20.2392 111.102 22.8162 112.203C27.2247 114.087 27.4932 114.118 41.1259 114.305L54.2489 114.485L54.2549 129.385C54.2597 141.247 54.384 144.808 54.8648 146.851C56.7068 154.67 63.3112 161.572 71.2788 164.003C73.4346 164.661 75.3183 164.737 89.5108 164.737C103.93 164.737 105.535 164.67 107.542 163.986C115.561 161.253 121.199 155.793 123.611 148.427L124.572 145.488V111.002V96.5159L103.254 81.5156V71.1156L91.8125 64.9156V101.564L103.408 107.516L103.259 96.3358L111.95 102.458L111.92 112.97C111.897 135.267 111.763 143.827 111.419 144.76C110.436 147.429 108.524 149.547 105.922 150.848L103.408 152.105H89.6623C76.9127 152.105 75.7623 152.047 73.782 151.305C71.5012 150.452 69.2537 148.418 68.0171 146.09C67.3291 144.794 67.2565 143.207 67.0714 125.438C66.8807 107.108 66.833 106.125 66.0697 104.829C65.6289 104.08 64.7598 103.087 64.1379 102.623C63.0436 101.806 62.4822 101.772 46.5069 101.564C30.8583 101.36 29.9122 101.305 28.182 100.509C25.9913 99.5014 24.0812 97.6672 22.8783 95.4168C22.0272 93.824 21.9875 93.2694 21.8713 81.2489L21.7499 68.7388L22.9007 68.1433C24.6842 67.2202 27.3285 64.2933 28.3787 62.0797C31.499 55.5021 28.8027 47.8052 22.1229 44.223C19.8313 42.9936 19.2231 42.852 15.7814 42.7433C12.7749 42.6483 11.5801 42.7822 10.0966 43.3805ZM18.1764 52.9846C18.7322 53.3976 19.4114 54.4041 19.6847 55.2218C20.3005 57.0616 19.6678 58.8777 17.9336 60.2471C16.2194 61.6013 13.2474 61.2541 11.6979 59.5185C10.3775 58.0396 10.1576 55.4319 11.2246 53.9073C12.6631 51.8525 16.0459 51.4034 18.1764 52.9846Z" fill="#FFCB46"/>
<path fill-rule="evenodd" clip-rule="evenodd" d="M168.083 121.672C171.054 120.473 172.764 119.256 174.417 117.164C179.517 110.707 177.829 101.481 170.713 96.9101L169.21 95.9449V83.7392C169.21 76.4963 169.033 70.6693 168.773 69.4081C168.141 66.3324 165.544 61.198 163.38 58.7466C161.379 56.4798 157.94 53.9502 155.364 52.8491C150.955 50.9652 150.687 50.9347 137.054 50.7474L123.931 50.5674L123.925 35.6673C123.92 23.8052 123.796 20.2439 123.315 18.2015C121.473 10.382 114.868 3.48029 106.901 1.04901C104.745 0.391365 102.861 0.315575 88.6689 0.315575C74.25 0.315575 72.6448 0.382538 70.6373 1.06665C62.6188 3.79949 56.9805 9.25917 54.569 16.6252L53.6074 19.5638V54.0501L53.6074 68.5364L74.9262 83.5367V93.9367L86.3672 100.137L86.3672 63.4885L74.7721 57.5367L74.9204 68.7164L66.2295 62.5947L66.26 52.0819C66.2824 29.7857 66.417 21.2251 66.7608 20.292C67.7442 17.6229 69.6559 15.5056 72.2573 14.2047L74.7721 12.9472H88.5174C101.267 12.9472 102.417 13.0049 104.398 13.7468C106.678 14.6005 108.926 16.634 110.163 18.9623C110.851 20.2579 110.923 21.8451 111.108 39.6139C111.299 57.9442 111.347 58.9271 112.11 60.2235C112.551 60.9726 113.42 61.9651 114.042 62.429C115.136 63.2463 115.698 63.28 131.673 63.4885C147.321 63.6926 148.267 63.7471 149.998 64.5431C152.188 65.5508 154.099 67.385 155.301 69.6355C156.153 71.2283 156.192 71.7829 156.308 83.8033L156.43 96.3134L155.279 96.9089C153.495 97.832 150.851 100.759 149.801 102.973C146.681 109.55 149.377 117.247 156.057 120.829C158.348 122.059 158.957 122.2 162.398 122.309C165.405 122.404 166.6 122.27 168.083 121.672ZM160.003 112.068C159.447 111.655 158.768 110.648 158.495 109.83C157.879 107.991 158.512 106.175 160.246 104.805C161.96 103.451 164.932 103.798 166.482 105.534C167.802 107.013 168.022 109.62 166.955 111.145C165.517 113.2 162.134 113.649 160.003 112.068Z" fill="#FFCB46"/>
<path d="M188.424 114.526V50.4508H196.387V78.3695H204.625V86.1501H196.387V114.526H188.424ZM209.202 86.1501V78.3695H217.349V50.4508H225.404V114.526H217.349V86.1501H209.202ZM232.819 114.526V50.4508H266.138V58.323H240.782V78.6441H257.534V86.6077H240.782V106.654H266.138V114.526H232.819ZM272.546 114.526L284.72 60.4283H286.184L289.297 74.6165L280.418 114.526H272.546ZM287.191 104.274L288.931 96.4937H298.725L288.564 50.5424H296.528L310.991 114.526H303.027L300.739 104.274H287.191ZM317.032 114.526V50.4508H324.996V106.654H351.45V114.526H317.032ZM354.745 58.2314V50.4508H394.381V58.2314H378.545V114.526H370.49V58.2314H354.745ZM399.598 114.526V50.4508H407.562V78.3695H415.8V86.1501H407.562V114.526H399.598ZM420.377 86.1501V78.3695H428.524V50.4508H436.579V114.526H428.524V86.1501H420.377ZM441.888 58.2314V50.4508H481.523V58.2314H465.687V114.526H457.632V58.2314H441.888ZM486.832 114.526V50.4508H520.152V58.323H494.796V78.6441H511.547V86.6077H494.796V106.654H520.152V114.526H486.832ZM527.291 97.9583V67.1105C527.291 64.4254 528.176 61.5878 529.946 58.5976C533.363 52.8003 538.55 49.9321 545.507 49.9932V57.8653C542.578 57.9263 540.107 58.9637 538.093 60.9775C536.262 62.9303 535.347 64.9746 535.347 67.1105V97.9583C535.347 98.9957 535.682 100.186 536.354 101.528C538.245 105.251 541.297 107.112 545.507 107.112V114.984C539.527 114.923 534.767 112.696 531.228 108.302C528.604 104.946 527.291 101.498 527.291 97.9583ZM549.993 114.984V107.112L551.823 106.837C553.044 106.654 554.386 106.013 555.851 104.915C557.376 103.817 558.414 102.383 558.963 100.613C559.207 99.9416 559.39 98.9041 559.512 97.5006C559.573 97.1955 559.604 96.7073 559.604 96.036L567.201 97.8667C567.201 102.199 565.645 106.044 562.533 109.4C559.055 113.123 554.874 114.984 549.993 114.984ZM549.993 57.8653V49.9932C554.081 49.9932 557.895 51.6103 561.435 54.8446C565.279 58.5061 567.201 62.6557 567.201 67.2936L559.512 69.3074V67.8428C559.39 66.6223 559.207 65.6459 558.963 64.9136C557.804 61.9234 555.698 59.7876 552.647 58.5061C550.877 58.0789 549.993 57.8653 549.993 57.8653ZM573.7 114.526V50.4508H581.664V78.3695H589.902V86.1501H581.664V114.526H573.7ZM594.479 86.1501V78.3695H602.626V50.4508H610.681V114.526H602.626V86.1501H594.479ZM616.631 100.064L623.954 97.5006C624.32 100.064 625.296 102.169 626.883 103.817C628.531 105.464 630.087 106.471 631.551 106.837L633.657 107.387V114.801C628.287 114.801 623.771 112.513 620.109 107.936C617.852 105.068 616.692 102.444 616.631 100.064ZM617.363 67.7512C617.363 61.1606 620.201 56.2176 625.876 52.9223C628.683 51.2747 631.277 50.4508 633.657 50.4508V57.9568C631.521 58.2009 629.507 59.3299 627.615 61.3437C625.907 63.2354 625.052 65.4018 625.052 67.8428C625.052 71.5653 627.737 74.3724 633.108 76.2641C634.45 76.6913 636.494 77.271 639.241 78.0033C642.109 78.7966 644.122 79.4069 645.282 79.8341C650.774 82.092 654.283 85.1737 655.809 89.0792C656.602 91.032 656.999 93.2289 656.999 95.6699C656.999 100.979 654.954 105.586 650.866 109.492C647.143 113.031 642.933 114.801 638.234 114.801V107.387C640.736 107.264 643.146 106.075 645.465 103.817C647.784 101.437 648.974 98.7211 649.035 95.6699C649.035 91.3982 646.075 88.2859 640.156 86.3331C638.874 85.906 636.922 85.3873 634.298 84.777C631.49 84.1058 629.599 83.5565 628.622 83.1294C623.435 80.9935 620.109 78.1864 618.645 74.708C617.79 72.6942 617.363 70.3753 617.363 67.7512ZM638.234 57.9568V50.4508C643.543 50.4508 647.967 52.8003 651.506 57.4992C653.276 59.8791 654.253 62.015 654.436 63.9067L647.021 66.3782C646.167 62.1065 643.726 59.3909 639.698 58.2314C638.722 58.0484 638.234 57.9568 638.234 57.9568Z" fill="white"/>
</svg>
