<svg width="1581" height="412" viewBox="0 0 1581 412" fill="none" xmlns="http://www.w3.org/2000/svg">
<path fill-rule="evenodd" clip-rule="evenodd" d="M23.2104 107.662C15.7833 110.659 11.5078 113.702 7.37658 118.933C-5.3738 135.075 -1.15539 158.14 16.6358 169.566L20.3924 171.979V202.494C20.3924 220.601 20.8362 235.168 21.4843 238.321C23.0651 246.011 29.5585 258.847 34.968 264.975C39.9708 270.642 48.5669 276.966 55.0092 279.719C66.0305 284.429 66.7017 284.505 100.783 284.973L133.591 285.423L133.606 322.674C133.618 352.329 133.929 361.232 135.131 366.338C139.736 385.887 156.247 403.141 176.166 409.219C181.555 410.863 186.264 411.053 221.746 411.053C257.793 411.053 261.806 410.885 266.825 409.175C286.871 402.343 300.967 388.694 306.995 370.279L309.4 362.932V276.716V240.501L256.103 203V177L227.5 161.5V253.12L256.488 268L256.117 240.051L277.844 255.355L277.768 281.637C277.712 337.377 277.375 358.779 276.516 361.112C274.058 367.784 269.278 373.078 262.775 376.33L256.488 379.474H222.124C190.25 379.474 187.374 379.329 182.424 377.475C176.722 375.34 171.103 370.257 168.011 364.436C166.291 361.197 166.11 357.229 165.647 312.807C165.17 266.981 165.051 264.524 163.143 261.283C162.041 259.41 159.868 256.929 158.313 255.769C155.578 253.726 154.174 253.642 114.236 253.12C75.1144 252.61 72.7493 252.474 68.4237 250.484C62.9471 247.965 58.1717 243.379 55.1644 237.753C53.0367 233.771 52.9375 232.385 52.647 202.333L52.3435 171.058L55.2205 169.569C59.6794 167.262 66.29 159.944 68.9156 154.41C76.7163 137.966 69.9754 118.724 53.2761 109.769C47.5471 106.695 46.0264 106.341 37.4223 106.069C29.9061 105.832 26.9189 106.167 23.2104 107.662ZM43.4098 131.672C44.7992 132.705 46.4972 135.221 47.1804 137.265C48.7201 141.865 47.1384 146.405 42.8027 149.829C38.5172 153.214 31.0872 152.346 27.2134 148.007C23.9126 144.31 23.3626 137.791 26.0303 133.979C29.6266 128.842 38.0835 127.72 43.4098 131.672Z" fill="#FFC800"/>
<path fill-rule="evenodd" clip-rule="evenodd" d="M418.18 303.39C425.607 300.394 429.883 297.35 434.014 292.12C446.764 275.978 442.546 252.913 424.755 241.486L420.998 239.073V208.559C420.998 190.452 420.554 175.884 419.906 172.731C418.326 165.042 411.832 152.206 406.423 146.078C401.42 140.41 392.824 134.087 386.381 131.334C375.36 126.624 374.689 126.548 340.607 126.08L307.8 125.629L307.785 88.3792C307.773 58.724 307.462 49.8207 306.26 44.7149C301.655 25.166 285.144 7.9118 265.225 1.83359C259.835 0.189484 255.126 0 219.645 0C183.598 0 179.585 0.167419 174.566 1.87769C154.52 8.70978 140.424 22.359 134.395 40.7741L131.991 48.1205L131.991 134.336V170.552L185.288 208.053V234.053L213.891 249.553L213.891 157.932L184.903 143.053L185.274 171.002L163.546 155.698L163.623 129.416C163.679 73.6754 164.015 52.2738 164.875 49.941C167.333 43.2683 172.112 37.975 178.616 34.7229L184.903 31.579L219.266 31.579C251.14 31.579 254.016 31.7234 258.967 33.578C264.669 35.7124 270.288 40.7961 273.379 46.6167C275.099 49.8558 275.281 53.8237 275.743 98.2459C276.22 144.072 276.339 146.529 278.248 149.77C279.35 151.643 281.522 154.124 283.077 155.284C285.813 157.327 287.216 157.411 327.155 157.932C366.276 158.443 368.641 158.579 372.967 160.569C378.444 163.088 383.219 167.674 386.226 173.3C388.354 177.282 388.453 178.668 388.744 208.719L389.047 239.995L386.17 241.483C381.711 243.791 375.101 251.108 372.475 256.642C364.674 273.087 371.415 292.329 388.115 301.284C393.844 304.358 395.364 304.712 403.968 304.983C411.485 305.221 414.472 304.886 418.18 303.39ZM397.981 279.38C396.591 278.348 394.893 275.831 394.21 273.787C392.671 269.188 394.252 264.647 398.588 261.224C402.873 257.838 410.303 258.707 414.177 263.045C417.478 266.743 418.028 273.262 415.36 277.073C411.764 282.21 403.307 283.333 397.981 279.38Z" fill="#FFC800"/>
<path d="M478.164 266.526V116.591H496.799V181.92H516.076V200.127H496.799V266.526H478.164ZM526.786 200.127V181.92H545.849V116.591H564.698V266.526H545.849V200.127H526.786ZM582.047 266.526V116.591H660.013V135.012H600.682V182.563H639.879V201.198H600.682V248.106H660.013V266.526H582.047ZM675.007 266.526L703.495 139.938H706.922L714.204 173.138L693.427 266.526H675.007ZM709.278 242.537L713.347 224.33H736.266L712.491 116.806H731.125L764.968 266.526H746.333L740.978 242.537H709.278ZM779.105 266.526V116.591H797.739V248.106H859.641V266.526H779.105ZM867.352 134.798V116.591H960.097V134.798H923.042V266.526H904.193V134.798H867.352ZM972.306 266.526V116.591H990.941V181.92H1010.22V200.127H990.941V266.526H972.306ZM1020.93 200.127V181.92H1039.99V116.591H1058.84V266.526H1039.99V200.127H1020.93Z" fill="#3A6CF9"/>
<path d="M1071.26 134.798V116.591H1164.01V134.798H1126.95V266.526H1108.1V134.798H1071.26ZM1176.43 266.526V116.591H1254.4V135.012H1195.07V182.563H1234.26V201.198H1195.07V248.106H1254.4V266.526H1176.43ZM1271.11 227.757V155.575C1271.11 149.292 1273.18 142.652 1277.32 135.655C1285.31 122.089 1297.45 115.378 1313.73 115.521V133.941C1306.88 134.084 1301.09 136.511 1296.38 141.224C1292.1 145.793 1289.95 150.577 1289.95 155.575V227.757C1289.95 230.185 1290.74 232.97 1292.31 236.111C1296.74 244.822 1303.88 249.177 1313.73 249.177V267.597C1299.74 267.455 1288.6 262.243 1280.32 251.961C1274.18 244.108 1271.11 236.04 1271.11 227.757ZM1324.22 267.597V249.177L1328.51 248.534C1331.36 248.106 1334.51 246.606 1337.93 244.036C1341.5 241.466 1343.93 238.11 1345.22 233.969C1345.79 232.398 1346.22 229.971 1346.5 226.687C1346.64 225.973 1346.72 224.83 1346.72 223.259L1364.49 227.543C1364.49 237.682 1360.85 246.678 1353.57 254.532C1345.43 263.242 1335.65 267.597 1324.22 267.597ZM1324.22 133.941V115.521C1333.79 115.521 1342.72 119.305 1351 126.873C1360 135.44 1364.49 145.151 1364.49 156.003L1346.5 160.715V157.288C1346.22 154.432 1345.79 152.147 1345.22 150.434C1342.5 143.437 1337.58 138.439 1330.44 135.44C1326.3 134.441 1324.22 133.941 1324.22 133.941ZM1379.7 266.526V116.591H1398.34V181.92H1417.61V200.127H1398.34V266.526H1379.7ZM1428.32 200.127V181.92H1447.39V116.591H1466.23V266.526H1447.39V200.127H1428.32ZM1480.16 232.684L1497.29 226.687C1498.15 232.684 1500.43 237.61 1504.15 241.466C1508 245.321 1511.64 247.677 1515.07 248.534L1520 249.819V267.169C1507.43 267.169 1496.86 261.814 1488.3 251.104C1483.01 244.393 1480.3 238.253 1480.16 232.684ZM1481.87 157.074C1481.87 141.652 1488.51 130.086 1501.79 122.375C1508.36 118.519 1514.43 116.591 1520 116.591V134.155C1515 134.726 1510.29 137.368 1505.86 142.08C1501.86 146.507 1499.86 151.576 1499.86 157.288C1499.86 165.999 1506.15 172.567 1518.71 176.994C1521.85 177.993 1526.64 179.35 1533.06 181.063C1539.77 182.92 1544.49 184.348 1547.2 185.347C1560.05 190.631 1568.26 197.842 1571.83 206.981C1573.69 211.55 1574.62 216.691 1574.62 222.403C1574.62 234.826 1569.83 245.607 1560.27 254.746C1551.55 263.028 1541.7 267.169 1530.71 267.169V249.819C1536.56 249.534 1542.2 246.749 1547.63 241.466C1553.05 235.897 1555.84 229.542 1555.98 222.403C1555.98 212.407 1549.06 205.124 1535.2 200.555C1532.21 199.555 1527.64 198.342 1521.5 196.914C1514.93 195.343 1510.5 194.058 1508.22 193.058C1496.08 188.06 1488.3 181.492 1484.87 173.353C1482.87 168.64 1481.87 163.214 1481.87 157.074ZM1530.71 134.155V116.591C1543.13 116.591 1553.48 122.089 1561.76 133.084C1565.91 138.653 1568.19 143.651 1568.62 148.078L1551.27 153.861C1549.27 143.865 1543.56 137.511 1534.13 134.798C1531.85 134.369 1530.71 134.155 1530.71 134.155Z" fill="#009825"/>
</svg>
