<svg width="153" height="103" viewBox="0 0 153 103" fill="none" xmlns="http://www.w3.org/2000/svg">
<path d="M0.375289 100.858V2.04459H16.5964V87.07H58.5684V100.858H0.375289Z" fill="#D41D24"/>
<path d="M115.545 47.1932H152.448V96.8026C147.266 98.5149 141.904 99.8441 136.362 100.79C130.82 101.737 124.602 102.21 117.708 102.21C107.66 102.21 99.1436 100.227 92.1595 96.2619C85.2205 92.2517 79.9486 86.4617 76.3439 78.8919C72.7393 71.277 70.9369 62.1076 70.9369 51.3837C70.9369 41.0653 72.942 32.1211 76.9522 24.5513C80.9624 16.9364 86.7975 11.0563 94.4575 6.91091C102.117 2.72047 111.399 0.625246 122.304 0.625246C127.666 0.625246 132.847 1.16595 137.849 2.24735C142.895 3.2837 147.514 4.72557 151.704 6.57297L146.027 19.9553C142.693 18.3783 138.953 17.0491 134.807 15.9677C130.662 14.8863 126.359 14.3456 121.898 14.3456C114.824 14.3456 108.718 15.8776 103.582 18.9415C98.4902 22.0055 94.5701 26.3311 91.8215 31.9184C89.073 37.4606 87.6987 44.0166 87.6987 51.5864C87.6987 58.931 88.8026 65.3743 91.0105 70.9165C93.2184 76.4587 96.6653 80.7843 101.351 83.8934C106.083 86.9574 112.188 88.4893 119.668 88.4893C123.408 88.4893 126.584 88.2866 129.198 87.8811C131.811 87.4755 134.222 87.0249 136.429 86.5293V61.0487H115.545V47.1932Z" fill="#153060"/>
</svg>
