<svg width="30" height="33" viewBox="0 0 30 33" fill="none" xmlns="http://www.w3.org/2000/svg">
<g clip-path="url(#clip0_6235_3503)">
<path opacity="0.5" d="M13.2608 17.3408C13.9825 16.5986 14.8393 16.01 15.7824 15.6083C16.7254 15.2067 17.7361 15 18.7568 15C19.7776 15 20.7883 15.2067 21.7314 15.6083C22.6744 16.01 23.5312 16.5986 24.2529 17.3408C27.2882 20.4613 27.2882 25.5205 24.2529 28.6597C22.7952 30.1582 20.8183 31 18.7568 31C16.6955 31 14.7185 30.1582 13.2608 28.6597C10.2464 25.5392 10.2464 20.4794 13.2608 17.3408Z" fill="#D4BC66"/>
<path opacity="0.75" d="M24 13C26.7614 13 29 10.7614 29 8C29 5.2386 26.7614 3 24 3C21.2386 3 19 5.2386 19 8C19 10.7614 21.2386 13 24 13Z" fill="#C8A834"/>
<path d="M25.1061 4.6522H22.6001V3.23091C22.6001 2.9417 22.3657 2.70728 22.0765 2.70728H18.2879C17.9647 1.1769 16.6029 0.0390625 14.9946 0.0390625C13.3863 0.0390625 12.0246 1.1769 11.7014 2.70726H7.91276C7.62354 2.70726 7.38911 2.94168 7.38911 3.2309V4.65218H4.88303C4.59381 4.65218 4.35938 4.88661 4.35938 5.17583V29.4386C4.35938 29.7278 4.59381 29.9622 4.88303 29.9622H25.1061C25.3954 29.9622 25.6298 29.7278 25.6298 29.4386V5.17585C25.6298 4.88663 25.3954 4.6522 25.1061 4.6522ZM8.43643 3.75456H12.1578C12.4347 3.75456 12.6637 3.53898 12.6805 3.26261C12.7544 2.0423 13.7709 1.08638 14.9946 1.08638C16.2184 1.08638 17.2348 2.0423 17.3088 3.26261C17.3256 3.53898 17.5545 3.75456 17.8315 3.75456H21.5528V4.6522V5.6995V6.94633H8.43643V5.6995V4.6522V3.75456ZM24.5825 28.9149H5.40671V5.6995H7.38911V7.46998C7.38911 7.75921 7.62354 7.99363 7.91276 7.99363H22.0765C22.3657 7.99363 22.6001 7.7592 22.6001 7.46998V5.6995H24.5825V28.9149Z" fill="#564405"/>
<path d="M8 17.5H11.5L13.5 21.5L16 13L18 17.5H21" stroke="#564405" stroke-linecap="round" stroke-linejoin="round"/>
<rect x="15" y="19" width="14" height="14" rx="7" fill="#F0E2B3"/>
<path fill-rule="evenodd" clip-rule="evenodd" d="M18.4101 28.9471C18.1775 29.1156 18.1238 29.4428 18.3147 29.6574C18.9708 30.3947 19.8259 30.9329 20.7824 31.2038C21.9063 31.5221 23.1046 31.4528 24.1842 31.007C25.2639 30.5612 26.162 29.7648 26.7339 28.7463C27.3058 27.7278 27.5181 26.5464 27.3367 25.3925C27.1553 24.2386 26.5906 23.1794 25.7337 22.3855C24.8769 21.5917 23.7777 21.1094 22.6133 21.0165C21.4489 20.9236 20.2872 21.2253 19.3152 21.8732C18.4881 22.4246 17.8394 23.1992 17.4412 24.1023C17.4109 24.1709 17.3989 24.2418 17.4026 24.3106L16.7201 23.4006C16.5875 23.2239 16.3368 23.1881 16.16 23.3206C15.9833 23.4532 15.9475 23.7039 16.08 23.8806L17.2801 25.4807C17.4066 25.6494 17.6423 25.6909 17.8188 25.5756L19.6564 24.3756C19.8414 24.2548 19.8934 24.0069 19.7726 23.8219C19.6518 23.6369 19.404 23.5849 19.219 23.7057L18.6041 24.1073C18.9215 23.5621 19.3608 23.0928 19.8921 22.7386C20.6696 22.2203 21.599 21.9789 22.5305 22.0533C23.4621 22.1276 24.3414 22.5134 25.0269 23.1485C25.7124 23.7836 26.1641 24.6309 26.3093 25.5541C26.4544 26.4772 26.2846 27.4223 25.8271 28.2371C25.3695 29.0519 24.651 29.689 23.7873 30.0456C22.9236 30.4023 21.9649 30.4577 21.0658 30.2031C20.3343 29.9959 19.6768 29.5932 19.1618 29.0428C18.9656 28.8331 18.6426 28.7785 18.4101 28.9471ZM22.6042 23.3979C22.6042 23.177 22.4251 22.9979 22.2042 22.9979C21.9833 22.9979 21.8042 23.177 21.8042 23.3979V26.1981C21.8042 26.3196 21.8594 26.4345 21.9543 26.5104L23.9544 28.1105C24.1269 28.2485 24.3787 28.2206 24.5167 28.0481C24.6547 27.8755 24.6267 27.6238 24.4542 27.4858L22.6042 26.0058V23.3979Z" fill="#564405"/>
</g>
<defs>
<clipPath id="clip0_6235_3503">
<rect width="30" height="33" fill="white"/>
</clipPath>
</defs>
</svg>
