<svg width="652" height="98" viewBox="0 0 652 98" fill="none" xmlns="http://www.w3.org/2000/svg">
<path d="M36.7141 49.2905L61.6386 2.32464H73.3641L42.1603 59.6704V96H31.2678V60.1829L0 2.32464H11.9177L36.7141 49.2905ZM145.19 60.7596C145.19 66.5262 144.443 71.6735 142.948 76.2013C141.453 80.7292 139.296 84.5522 136.476 87.6705C133.657 90.7887 130.24 93.1808 126.225 94.8467C122.252 96.4699 117.746 97.2815 112.705 97.2815C108.006 97.2815 103.692 96.4699 99.7623 94.8467C95.8752 93.1808 92.5007 90.7887 89.6387 87.6705C86.8195 84.5522 84.6196 80.7292 83.0392 76.2013C81.5014 71.6735 80.7325 66.5262 80.7325 60.7596C80.7325 53.0708 82.0354 46.5353 84.641 41.1531C87.2467 35.7283 90.9629 31.6062 95.7898 28.787C100.659 25.925 106.447 24.494 113.154 24.494C119.561 24.494 125.157 25.925 129.941 28.787C134.768 31.6489 138.505 35.7923 141.154 41.2172C143.845 46.5994 145.19 53.1135 145.19 60.7596ZM91.7532 60.7596C91.7532 66.3981 92.5007 71.289 93.9957 75.4324C95.4908 79.5758 97.7974 82.7795 100.916 85.0434C104.034 87.3074 108.049 88.4393 112.961 88.4393C117.831 88.4393 121.825 87.3074 124.943 85.0434C128.104 82.7795 130.432 79.5758 131.927 75.4324C133.422 71.289 134.17 66.3981 134.17 60.7596C134.17 55.1639 133.422 50.337 131.927 46.279C130.432 42.1783 128.126 39.0174 125.007 36.7961C121.889 34.5749 117.852 33.4643 112.897 33.4643C105.593 33.4643 100.232 35.8778 96.815 40.7046C93.4404 45.5315 91.7532 52.2165 91.7532 60.7596ZM221.566 25.7755V96H212.852L211.314 86.1327H210.738C209.285 88.5675 207.406 90.6178 205.099 92.2837C202.792 93.9497 200.187 95.1884 197.282 96C194.42 96.8543 191.366 97.2815 188.12 97.2815C182.567 97.2815 177.911 96.3844 174.152 94.5904C170.393 92.7963 167.552 90.0198 165.63 86.2608C163.75 82.5019 162.811 77.675 162.811 71.7802V25.7755H173.575V71.0114C173.575 76.8634 174.899 81.2418 177.547 84.1464C180.196 87.0084 184.232 88.4393 189.657 88.4393C194.869 88.4393 199.012 87.4569 202.088 85.492C205.206 83.527 207.448 80.6437 208.815 76.842C210.182 72.9976 210.866 68.2989 210.866 62.7459V25.7755H221.566ZM275.964 24.494C277.374 24.494 278.848 24.5795 280.385 24.7503C281.923 24.8785 283.29 25.0707 284.486 25.327L283.141 35.1943C281.987 34.8953 280.706 34.6604 279.296 34.4895C277.886 34.3186 276.562 34.2332 275.324 34.2332C272.504 34.2332 269.835 34.8099 267.314 35.9632C264.837 37.0738 262.658 38.697 260.779 40.8328C258.899 42.9258 257.426 45.4674 256.358 48.4575C255.29 51.4049 254.756 54.694 254.756 58.3248V96H244.056V25.7755H252.898L254.051 38.7183H254.5C255.952 36.1127 257.703 33.742 259.754 31.6062C261.804 29.4277 264.175 27.6977 266.866 26.4162C269.6 25.1348 272.632 24.494 275.964 24.494Z" fill="#D41D24"/>
<path d="M298.839 96V2.32464H314.216V82.929H354.006V96H298.839ZM453.384 49.0342C453.384 56.2531 452.465 62.8313 450.628 68.7688C448.834 74.6635 446.122 79.7467 442.491 84.0183C438.86 88.2471 434.311 91.5149 428.844 93.8215C423.376 96.1281 416.969 97.2815 409.621 97.2815C402.146 97.2815 395.653 96.1281 390.143 93.8215C384.676 91.5149 380.126 88.2258 376.496 83.9542C372.907 79.6826 370.216 74.5781 368.422 68.6406C366.628 62.7032 365.731 56.125 365.731 48.906C365.731 39.2523 367.312 30.8373 370.473 23.6611C373.676 16.4422 378.525 10.8464 385.017 6.87385C391.553 2.85858 399.797 0.850948 409.75 0.850948C419.489 0.850948 427.583 2.83722 434.033 6.80978C440.484 10.7823 445.31 16.3781 448.514 23.597C451.76 30.7732 453.384 39.2523 453.384 49.0342ZM381.878 49.0342C381.878 56.2531 382.86 62.511 384.825 67.8077C386.79 73.0617 389.801 77.1197 393.859 79.9816C397.96 82.8009 403.214 84.2105 409.621 84.2105C416.072 84.2105 421.326 82.8009 425.384 79.9816C429.442 77.1197 432.432 73.0617 434.354 67.8077C436.276 62.511 437.237 56.2531 437.237 49.0342C437.237 38.0563 435.037 29.4704 430.638 23.2767C426.281 17.0402 419.318 13.9219 409.75 13.9219C403.342 13.9219 398.067 15.3315 393.923 18.1508C389.823 20.97 386.79 25.0066 384.825 30.2607C382.86 35.472 381.878 41.7298 381.878 49.0342ZM511.306 45.1257H546.29V92.1556C541.378 93.7788 536.295 95.0389 531.041 95.9359C525.787 96.833 519.892 97.2815 513.356 97.2815C503.831 97.2815 495.758 95.402 489.137 91.643C482.558 87.8413 477.561 82.3524 474.143 75.1761C470.726 67.9572 469.018 59.2646 469.018 49.0982C469.018 39.3164 470.918 30.8373 474.72 23.6611C478.522 16.4422 484.053 10.8678 491.315 6.93792C498.577 2.96537 507.376 0.979094 517.713 0.979094C522.797 0.979094 527.709 1.49168 532.45 2.51686C537.234 3.49932 541.613 4.86622 545.585 6.61756L540.203 19.3041C537.042 17.8091 533.497 16.5489 529.567 15.5238C525.637 14.4986 521.558 13.986 517.329 13.986C510.623 13.986 504.835 15.4383 499.965 18.343C495.138 21.2477 491.422 25.3484 488.816 30.6451C486.211 35.8991 484.908 42.1142 484.908 49.2905C484.908 56.2531 485.954 62.3614 488.047 67.6155C490.14 72.8695 493.408 76.9702 497.851 79.9176C502.336 82.8222 508.124 84.2746 515.214 84.2746C518.76 84.2746 521.771 84.0823 524.249 83.6979C526.726 83.3135 529.012 82.8863 531.105 82.4164V58.2607H511.306V45.1257ZM651.883 49.0342C651.883 56.2531 650.965 62.8313 649.128 68.7688C647.334 74.6635 644.621 79.7467 640.991 84.0183C637.36 88.2471 632.811 91.5149 627.343 93.8215C621.875 96.1281 615.468 97.2815 608.121 97.2815C600.646 97.2815 594.153 96.1281 588.643 93.8215C583.175 91.5149 578.626 88.2258 574.995 83.9542C571.407 79.6826 568.716 74.5781 566.922 68.6406C565.128 62.7032 564.231 56.125 564.231 48.906C564.231 39.2523 565.811 30.8373 568.972 23.6611C572.176 16.4422 577.024 10.8464 583.517 6.87385C590.052 2.85858 598.296 0.850948 608.249 0.850948C617.988 0.850948 626.083 2.83722 632.533 6.80978C638.983 10.7823 643.81 16.3781 647.014 23.597C650.26 30.7732 651.883 39.2523 651.883 49.0342ZM580.377 49.0342C580.377 56.2531 581.36 62.511 583.325 67.8077C585.289 73.0617 588.301 77.1197 592.359 79.9816C596.46 82.8009 601.714 84.2105 608.121 84.2105C614.571 84.2105 619.825 82.8009 623.883 79.9816C627.941 77.1197 630.931 73.0617 632.853 67.8077C634.776 62.511 635.737 56.2531 635.737 49.0342C635.737 38.0563 633.537 29.4704 629.137 23.2767C624.78 17.0402 617.817 13.9219 608.249 13.9219C601.842 13.9219 596.566 15.3315 592.423 18.1508C588.322 20.97 585.289 25.0066 583.325 30.2607C581.36 35.472 580.377 41.7298 580.377 49.0342Z" fill="#153060"/>
</svg>
