<svg width="240" height="324" viewBox="0 0 240 324" fill="none" xmlns="http://www.w3.org/2000/svg">
<path fill-rule="evenodd" clip-rule="evenodd" d="M41.0847 260.271C40.4521 266.071 39.0193 272.461 41.7506 277.934C40.0304 278.011 41.4259 278.509 42.3542 278.68C42.8842 279.091 43.5966 279.253 44.2666 279.196C47.7449 279.932 51.3356 280.198 54.8673 280.614C98.9627 284.278 143.354 283.305 187.531 281.726C188.968 281.664 189.932 280.62 190.042 279.214C191.661 258.518 192.467 237.758 192.426 216.999C191.707 209.704 197.218 212.55 194.278 202.937C191.915 192.798 188.416 182.928 183.955 173.524C180.871 167.405 177.966 160.965 173.266 155.891C171.781 155.685 170.516 154.21 169.261 153.385C167.99 153.138 167.047 152.058 165.759 151.726C163.304 151.087 157.81 149.728 155.719 151.362C155.636 151.34 155.553 151.32 155.47 151.297C155.061 151.751 154.499 151.41 154.193 151.003C153.149 150.191 148.582 150.108 148.064 148.862C145.362 146.411 144.639 141.251 144.639 138.232C143.629 137.097 143.559 137.308 142.188 136.707C140.843 135.011 139.219 133.533 137.406 132.368C127.204 125.667 112.399 132.728 110.011 144.376C106.235 147.367 102.349 150.405 97.7242 151.963C95.4675 150.802 92.8966 150.431 90.5014 150.429C88.716 150.364 86.2488 149.331 85.0885 151.211C65.568 157.604 53.7869 176.196 45.4097 193.813C44.2355 196.321 42.8308 198.948 43.1902 201.805C43.4371 205.228 47.1499 207.265 46.4483 210.892C45.4285 220.869 44.2685 230.835 43.2068 240.809C42.4993 247.296 41.792 253.784 41.0847 260.271Z" fill="#D08B5B"/>
<path fill-rule="evenodd" clip-rule="evenodd" d="M85.0884 151.211C86.2487 149.331 88.7159 150.364 90.5013 150.429C92.8964 150.431 95.4674 150.802 97.7241 151.963C97.8163 151.932 97.9082 151.901 97.9998 151.868L98.1337 152.165L88.3084 153.55L93.2631 162.54C104.93 173.459 117.899 178.312 132.171 177.099C146.3 175.897 156.01 168.35 161.301 154.455L161.46 154.032L154.739 152.165L154.739 151.452C154.984 151.556 155.249 151.542 155.47 151.297C155.552 151.32 155.636 151.34 155.719 151.362C157.81 149.728 163.304 151.087 165.759 151.726C167.047 152.058 167.99 153.138 169.261 153.385C170.516 154.21 171.78 155.685 173.266 155.891C177.966 160.965 180.871 167.405 183.955 173.524C188.416 182.928 191.914 192.798 194.278 202.937C196.16 209.09 194.58 210.139 193.387 212.009L193.288 212.024C191.671 212.275 190.165 212.63 188.771 213.088C185.793 214.066 182.861 215.302 179.975 216.796L179.642 216.97L183.293 281.876L181.014 281.954C143.775 283.226 106.403 283.927 69.2016 281.647L72.6813 219.879L43.7312 203.806C43.4466 203.182 43.2419 202.524 43.19 201.805C42.8307 198.948 44.2354 196.321 45.4096 193.813C53.7868 176.196 65.5679 157.604 85.0884 151.211Z" fill="#78E185"/>
<path fill-rule="evenodd" clip-rule="evenodd" d="M183.891 212.676C182.629 213.133 180.859 213.579 179.957 214.611C179.853 213.649 179.748 212.687 179.642 211.724C182.287 211.661 184.937 211.639 187.583 211.565C186.334 211.87 185.1 212.238 183.891 212.676M178.08 273.217C177.17 273.225 176.257 273.289 175.347 273.324C173.596 273.392 171.844 273.459 170.092 273.525C166.518 273.659 162.944 273.788 159.369 273.912C152.291 274.158 145.212 274.386 138.132 274.594C123.973 275.011 109.806 275.263 95.6486 275.74C91.721 275.872 87.7935 275.974 83.8694 276.188C81.836 276.299 79.793 276.394 77.7693 276.63C76.062 276.829 74.3791 277.164 72.6813 277.414C72.7952 275.201 72.9019 272.987 73.0128 270.774C73.1178 268.681 73.2158 266.587 73.3132 264.493C79.9405 264.84 86.5755 264.98 93.2117 265.039C100.231 265.102 107.249 265.276 114.269 265.289C128.166 265.317 142.065 265.142 155.962 265.003C159.892 264.963 163.823 264.924 167.754 264.884C169.719 264.864 171.684 264.844 173.649 264.825C174.631 264.815 175.617 264.836 176.598 264.795C177.644 264.752 178.279 264.454 179.038 263.75C179.443 263.374 179.46 262.609 179.038 262.237C178.429 261.699 177.863 261.286 177.019 261.225C176.189 261.166 175.324 261.247 174.492 261.258C172.667 261.282 170.842 261.306 169.017 261.33C165.507 261.377 161.998 261.423 158.488 261.469C151.469 261.561 144.45 261.656 137.431 261.763C130.553 261.868 123.673 261.946 116.795 262.119C109.773 262.296 102.759 262.615 95.7384 262.841C88.2655 263.081 80.7963 263.368 73.3403 263.928C73.5194 260.047 73.6844 256.165 73.8397 252.282C88.6443 253.088 103.459 253.662 118.288 253.687C133.738 253.713 149.187 253.449 164.63 253.046C166.807 252.989 168.983 252.932 171.159 252.863C172.282 252.828 173.405 252.795 174.528 252.755C175.354 252.725 176.202 252.69 176.949 252.294C178.422 251.515 178.676 249.239 176.928 248.616C175.973 248.276 174.959 248.609 174.727 249.47C174.656 249.477 174.588 249.483 174.528 249.485C173.686 249.517 172.843 249.541 172.001 249.567C170.176 249.625 168.351 249.685 166.526 249.742C163.156 249.847 159.787 249.945 156.417 250.034C149.537 250.216 142.656 250.365 135.774 250.48C122.149 250.707 108.526 250.916 94.9029 251.228C87.8875 251.389 80.8743 251.597 73.8598 251.775C74.0273 247.554 74.1855 243.334 74.3281 239.113C74.3448 238.618 74.363 238.123 74.381 237.629C75.3862 237.85 76.4155 237.972 77.4395 238.117C79.2165 238.369 80.9989 238.555 82.7835 238.743C86.146 239.098 89.5196 239.316 92.8946 239.502C99.7753 239.882 106.658 240.149 113.546 240.359C127.171 240.774 140.813 240.865 154.444 240.818C161.846 240.793 169.293 240.89 176.691 240.568C177.147 240.692 177.617 240.68 178.071 240.531C178.444 247.129 178.838 253.726 179.225 260.324C179.487 264.775 179.717 269.241 180.038 273.694C179.411 273.385 178.834 273.21 178.08 273.217M49.8129 206.181C48.5148 205.546 47.0833 204.966 45.9374 204.066C44.6848 203.082 44.3772 201.927 44.7621 200.383C44.7908 200.267 44.8246 200.152 44.8546 200.038C54.0851 200.06 63.2922 199.654 72.5186 199.435C81.8926 199.212 91.2631 199.025 100.64 198.972C119.339 198.867 138.036 199.289 156.727 199.814C163.458 200.003 170.189 200.189 176.921 200.373C176.767 202.015 176.826 203.697 176.791 205.327C176.761 206.759 176.769 208.193 176.79 209.627C173.269 209.618 169.748 209.542 166.226 209.502C157.507 209.404 148.793 209.655 140.077 209.854C122.644 210.253 105.206 210.567 87.777 211.092C83.0431 211.235 78.2789 211.31 73.5232 211.512C73.3597 210.739 73.1782 209.969 72.9735 209.204C72.6481 207.99 72.281 206.741 71.3081 205.897C71.2614 205.856 71.1967 205.874 71.1758 205.932C70.8063 206.956 70.8997 207.999 71.0079 209.073C71.0934 209.921 71.1513 210.771 71.1942 211.622C68.2371 211.778 65.2861 211.997 62.3505 212.324C61.5112 211.909 60.6714 211.495 59.8303 211.084C56.4917 209.448 53.1519 207.815 49.8129 206.181M156.974 236.685C150.087 236.74 143.2 236.746 136.313 236.702C122.68 236.615 109.052 236.279 95.4228 236.008C91.6295 235.933 87.8412 235.859 84.0473 235.858C82.0831 235.858 80.1124 235.872 78.1504 235.957C76.9155 236.01 75.6636 236.018 74.4344 236.167C74.5827 232.194 74.7372 228.218 74.7323 224.244C87.735 226.214 100.877 226.755 114.008 227.142C127.312 227.535 140.618 227.739 153.927 227.758C157.71 227.764 161.492 227.755 165.274 227.733C167.095 227.722 168.916 227.708 170.737 227.691C171.716 227.682 172.7 227.702 173.678 227.661C174.713 227.617 175.337 227.372 176.06 226.636C176.429 226.26 176.448 225.61 176.06 225.235C174.77 223.991 173.253 224.261 171.577 224.281C169.897 224.302 168.216 224.32 166.535 224.336C163.173 224.366 159.811 224.386 156.449 224.394C149.865 224.411 143.281 224.386 136.698 224.318C123.392 224.182 110.089 223.886 96.7867 223.575C89.4325 223.402 82.0798 223.45 74.7315 223.807C74.7287 223.147 74.7226 222.487 74.7097 221.827C74.6613 219.328 74.4179 216.829 74.0372 214.358C77.6385 214.345 81.2396 214.268 84.8246 214.222C93.5421 214.11 102.258 213.935 110.974 213.76C119.621 213.586 128.267 213.413 136.913 213.239C145.554 213.066 154.222 213.054 162.852 212.587C167.51 212.335 172.169 211.993 176.83 211.813C176.839 212.241 176.848 212.669 176.857 213.097C176.97 218.348 177.175 223.594 177.439 228.839C177.567 231.359 177.701 233.88 177.839 236.4C177.772 236.393 177.704 236.389 177.634 236.388C170.752 236.343 163.857 236.629 156.974 236.685M47.9949 191.081C48.7834 189.052 49.6398 187.036 50.5656 185.048C54.496 186.158 58.6886 186.73 62.745 187.111C67.0633 187.517 71.39 187.745 75.7261 187.834C84.2744 188.008 92.8227 187.603 101.362 187.25C118.926 186.524 136.488 185.995 154.069 185.961C158.978 185.951 163.888 185.974 168.797 186.029C171.251 186.057 173.706 186.09 176.16 186.132C177.423 186.154 178.685 186.178 179.947 186.204C180.506 186.215 181.071 186.256 181.63 186.239C182.377 186.217 182.922 185.992 183.615 185.722C184.411 185.412 184.88 184.081 183.887 183.64C182.895 183.199 182.099 182.941 180.999 182.917C179.807 182.891 178.614 182.867 177.423 182.845C175.249 182.806 173.075 182.772 170.901 182.745C166.483 182.69 162.064 182.667 157.646 182.667C148.949 182.669 140.252 182.771 131.558 182.976C114.103 183.387 96.6868 184.604 79.2382 185.126C74.4289 185.27 69.6105 185.298 64.801 185.154C60.1426 185.014 55.4941 184.622 50.8413 184.457C52.4484 181.068 54.2668 177.767 56.3186 174.629C64.0749 174.901 71.8145 174.7 79.5724 174.463C83.6434 174.339 87.7143 174.214 91.7848 174.074C93.8201 174.004 95.8555 173.934 97.8908 173.865C98.8734 173.831 99.856 173.797 100.839 173.764C101.897 173.727 103.011 173.796 104.039 173.517C104.225 173.467 104.373 173.359 104.484 173.222C107.221 174.63 110.115 175.741 113.091 176.564C119.551 178.351 126.499 179.021 133.181 178.472C138.543 178.03 143.886 176.703 148.601 174.103C159.247 175.083 170.043 174.623 180.712 174.553C181.731 174.546 182.155 173.612 181.984 172.842C185.408 180.223 187.677 188.226 189.8 196.01C191.119 200.848 192.292 205.716 193.409 210.601C193.363 210.605 193.316 210.609 193.27 210.614C193.4 210.079 193.108 209.448 192.376 209.431C188.058 209.332 183.726 209.58 179.407 209.62C179.285 208.539 179.164 207.458 179.036 206.377C178.861 204.906 178.653 203.437 178.474 201.966C178.41 201.432 178.35 200.917 178.277 200.41C181.697 200.503 185.116 200.597 188.536 200.687C190.756 200.746 190.752 197.307 188.536 197.24C169.743 196.664 150.949 196.082 132.149 195.763C113.337 195.444 94.4613 195.247 75.6644 196.211C65.4211 196.737 55.2031 197.44 45.0872 199.173C45.8729 196.43 46.969 193.722 47.9949 191.081M63.9919 164.953C64.3322 165.208 64.4412 165.369 64.95 165.459C65.5016 165.555 66.0689 165.586 66.6258 165.641C67.8173 165.757 69.0118 165.801 70.2074 165.858C72.5947 165.971 74.9818 166.091 77.3708 166.164C82.1132 166.308 86.9571 166.512 91.6973 166.301C92.857 166.249 93.3845 165.293 93.2791 164.421C94.1681 165.522 95.1401 166.556 96.1753 167.499C97.8397 169.014 99.6363 170.357 101.53 171.542C100.302 171.587 99.0505 171.742 97.8908 171.791C95.9256 171.876 93.9604 171.96 91.9952 172.044C87.8539 172.222 83.7131 172.413 79.5724 172.607C71.9091 172.965 64.272 173.411 56.6379 174.142C58.8181 170.865 61.2604 167.773 63.9919 164.953M188.718 180.875C185.48 171.984 181.306 162.748 173.793 156.641C169.932 153.502 165.63 151.331 160.758 150.302C160.609 150.27 160.549 150.483 160.695 150.531C169.12 153.296 175.355 160.613 179.572 168.111C180.337 169.47 181.045 170.861 181.714 172.273C181.496 172.008 181.163 171.831 180.712 171.838C170.749 172.006 160.669 171.837 150.729 172.811C150.983 172.641 151.237 172.473 151.485 172.295C154.201 170.359 156.644 167.99 158.664 165.307C159.88 165.616 161.161 165.691 162.402 165.809C164.059 165.967 165.727 166.039 167.389 166.128C169.048 166.217 170.714 166.225 172.375 166.266C173.516 166.293 175.748 166.483 175.749 164.736C175.751 162.987 173.517 163.172 172.375 163.195C170.713 163.228 169.049 163.233 167.389 163.311C165.797 163.385 164.197 163.445 162.61 163.588C161.642 163.674 160.646 163.732 159.673 163.885C161.257 161.522 162.517 158.947 163.359 156.232C163.444 155.959 163.471 155.703 163.458 155.467C163.815 155.09 164.042 154.574 164.042 154.101C164.042 152.976 163.166 152.317 162.142 152.2C158.089 151.736 153.624 151.076 150.358 148.41C148.884 147.207 147.698 145.785 146.582 144.254C145.328 142.534 144.858 140.367 144.853 138.261C144.853 138.143 144.657 138.107 144.639 138.232C144.026 142.501 144.911 147.375 147.974 150.573C150.981 153.714 155.066 154.89 159.211 155.577C157.502 160.461 154.681 164.751 150.72 168.124C146.307 171.883 140.72 173.893 135.024 174.652C128.879 175.471 122.439 175.073 116.396 173.736C110.574 172.449 104.88 170.146 100.142 166.472C97.7518 164.618 95.5529 162.433 93.637 160.094C92.0556 158.164 90.8431 156.011 89.4858 153.943C94.55 155.332 100.673 153.435 104.915 150.754C107.414 149.176 109.603 147.205 111.401 144.861C112.288 143.705 113.077 142.484 113.728 141.179C114.066 140.5 114.37 139.802 114.65 139.097C114.823 138.662 114.993 138.215 114.993 137.736C114.992 137.383 114.903 137.055 114.727 136.751C114.364 136.365 114.291 136.254 114.51 136.415C114.153 135.685 113.123 135.5 112.464 135.879C112.218 136.02 111.64 136.294 111.356 136.751C111.164 137.06 111.061 137.429 110.938 137.768C110.744 138.303 110.548 138.832 110.304 139.347C109.738 140.545 109.059 141.687 108.285 142.761C106.869 144.724 105.049 146.499 103.067 147.884C100.986 149.339 98.7437 150.528 96.3114 151.27C93.7424 152.054 91.1996 152.288 88.549 152.575C88.5207 152.536 88.4932 152.497 88.4649 152.457C88.4138 152.387 88.3033 152.41 88.2989 152.503C88.2967 152.547 88.2978 152.591 88.2965 152.635C87.9186 152.813 87.8873 153.346 88.3084 153.55C88.4645 156.003 89.5225 158.418 90.6754 160.541C91.1556 161.425 91.6981 162.282 92.2859 163.109C92.112 163.043 91.9166 163.001 91.6973 162.992C86.9554 162.81 82.1127 163.045 77.3708 163.218C75.0517 163.303 72.7352 163.433 70.418 163.557C69.2237 163.621 68.0265 163.662 66.8364 163.786C66.2412 163.848 65.6425 163.896 65.0505 163.985C65.0077 163.992 64.9677 163.999 64.9301 164.005C66.3946 162.563 67.9384 161.196 69.5681 159.92C74.9144 155.737 81.0547 152.328 87.6061 150.474C87.6682 150.456 87.6591 150.35 87.5905 150.357C74.5599 151.69 63.7056 159.905 56.1127 170.219C51.8996 175.942 48.7041 182.278 45.9545 188.811C44.5686 192.104 43.2572 195.455 42.1591 198.856C41.6009 200.585 41.3493 202.418 42.1487 204.114C42.7618 205.415 43.8931 206.382 45.079 207.15C45.1578 207.202 45.2389 207.249 45.3186 207.299C44.1063 211.524 43.2942 215.859 42.515 220.181C41.6687 224.877 40.9303 229.591 40.2961 234.32C39.0285 243.772 38.0575 253.243 37.6335 262.773C37.5162 265.409 37.4379 268.046 37.4036 270.685C37.3865 272.004 37.3941 273.324 37.4121 274.644C37.4326 276.12 37.2327 277.787 37.9842 279.105C38.9884 280.866 40.9386 280.26 41.7963 279.055C41.8088 279.072 41.8217 279.088 41.8343 279.105C41.9121 278.952 41.9772 278.799 42.0327 278.646C42.125 278.443 42.1853 278.231 42.2072 278.015C42.3688 277.197 42.308 276.366 42.3015 275.477C42.2919 274.227 42.2991 272.977 42.3027 271.726C42.3097 269.366 42.3365 267.006 42.4037 264.646C42.5383 259.927 42.8011 255.213 43.1605 250.506C43.8746 241.155 44.9279 231.848 45.8294 222.517C46.2883 217.765 46.8418 213.002 46.9373 208.225C48.05 208.811 49.1983 209.342 50.3089 209.908C52.3696 210.957 54.4301 212.006 56.4906 213.056C58.489 214.073 60.4903 215.085 62.4925 216.095C64.5114 217.114 66.5167 218.461 68.7881 218.712C70.0022 218.846 70.4417 217.209 69.7263 216.445C68.7921 215.447 67.5515 214.827 66.3044 214.247C67.9614 214.307 69.6205 214.34 71.2804 214.352C71.3032 216.442 71.2295 218.536 71.1247 220.62C70.867 225.734 70.5086 230.838 70.1693 235.947C69.4641 246.566 68.7815 257.19 68.2489 267.819C68.1186 270.423 67.988 273.026 67.8574 275.629C67.7941 276.894 67.706 278.162 67.67 279.428C67.6299 280.849 67.6648 282.631 68.9795 283.508C69.9082 284.128 70.9077 283.836 71.6049 282.984C72.5372 281.844 72.5358 280.193 72.6108 278.795C72.6281 278.472 72.6435 278.149 72.6602 277.826C74.0841 278.01 75.4977 278.265 76.9278 278.405C78.6746 278.575 80.4323 278.675 82.1867 278.72C85.7641 278.813 89.3358 278.846 92.9142 278.846C99.9959 278.846 107.077 278.725 114.158 278.61C128.319 278.382 142.479 277.985 156.636 277.545C160.561 277.423 164.485 277.296 168.41 277.162C170.442 277.093 172.474 277.022 174.507 276.95C176.43 276.882 178.532 277.13 180.225 276.131C180.274 276.739 180.324 277.348 180.377 277.955C180.479 279.106 181.288 280.095 182.516 280.095C183.671 280.095 184.663 279.116 184.655 277.955C184.224 267.455 183.291 256.953 182.552 246.471C181.873 236.842 181.237 227.2 180.266 217.594C180.541 217.772 180.878 217.883 181.275 217.884C182.543 217.89 183.809 217.103 184.995 216.685C186.193 216.263 187.41 215.897 188.643 215.598C189.373 215.421 190.106 215.272 190.842 215.145C190.753 216.648 190.775 218.165 190.748 219.662C190.705 221.964 190.633 224.265 190.577 226.566C190.467 231.101 190.428 235.635 190.342 240.17C190.167 249.312 189.88 258.449 189.391 267.579C189.257 270.088 189.106 272.596 188.939 275.103C188.85 276.426 188.757 277.749 188.66 279.072C188.564 280.371 188.34 281.752 188.829 282.998C188.845 282.989 188.86 282.981 188.876 282.972C189.217 284.044 190.717 284.559 191.425 283.338C192.529 281.435 192.275 278.707 192.402 276.565C192.538 274.268 192.66 271.969 192.768 269.67C192.984 265.071 193.134 260.47 193.222 255.867C193.396 246.658 193.366 237.436 192.803 228.241C192.649 225.726 192.434 223.217 192.213 220.708C192.047 218.827 191.955 216.895 191.662 215.014C193.096 214.802 194.541 214.679 196.001 214.643C197.413 214.608 198.324 213.334 198.024 211.985C195.68 201.421 192.418 191.036 188.718 180.875" fill="black"/>
<path fill-rule="evenodd" clip-rule="evenodd" d="M161.197 73.4597C154.861 64.717 143.194 62.2028 133.077 64.3292C113.298 67.9437 94.4009 83.0715 90.9061 103.645C85.4537 116.092 88.9355 135.696 104.793 137.161C107.05 137.289 109.286 136.768 111.548 137.049C125.351 139.259 141.661 148.721 153.88 137.563C154.492 138.003 155.299 138.215 155.985 137.949C161.186 135.934 161.43 130.106 161.874 125.315C162.446 119.124 162.983 112.93 163.484 106.734C163.663 96.0474 167.889 82.6936 161.197 73.4597V73.4597Z" fill="#D08B5B"/>
<path fill-rule="evenodd" clip-rule="evenodd" d="M122.85 51.182C131.177 50.7381 146.521 54.5619 153.786 59.0448C165.623 66.3489 166.54 80.919 166.058 83.4382C165.874 84.3997 165.288 85.2895 164.371 84.9938C165.149 91.6131 165.088 95.3964 165.219 102.054L165.308 106.499C165.367 109.462 165.417 112.426 165.429 115.39C165.729 115.278 166.024 115.415 166.134 115.703C166.161 115.773 166.066 115.811 166.02 115.771C165.493 115.31 165.868 116.36 166.049 116.574C166.3 116.868 166.718 117.144 167.011 117.396L167.806 118.087V118.087L168.602 118.776C169.63 119.665 170.625 120.556 171.584 121.514L171.845 121.777C173.592 123.557 175.783 125.279 176.871 127.581C177.91 129.779 177.59 132.271 175.863 134.023C175.235 134.659 174.501 135.145 173.704 135.513C175.123 137.855 175.33 140.951 173.85 143.36C172.368 145.778 169.517 147.044 166.772 146.85C166.688 147.194 166.557 147.53 166.384 147.849C165.296 149.854 163.131 150.115 161.078 150.007L160.998 150.003C156.377 149.737 151.93 148.576 147.883 146.321C146.479 146.416 145.226 145.26 144.952 143.992C144.214 143.965 143.472 143.903 142.715 143.817C140.47 143.557 138.168 143.073 136.188 141.929C135.885 141.754 136.026 141.291 136.363 141.282C138.775 141.228 141.189 141.395 143.597 141.133C145.806 140.894 148.161 140.283 150.221 139.452C153.923 137.956 157.098 135.418 158.85 131.901C161.118 127.348 160.911 121.881 161.158 116.935C161.431 111.461 161.768 105.992 162.127 100.523L162.302 97.9013C162.651 92.7918 162.94 90.0584 163.825 84.755C161.158 84.9938 150.08 80.9964 146.635 74.4578C140.096 88.3677 106.968 82.675 105.499 104.089C105.487 104.271 105.2 104.22 105.189 104.047L105.162 103.559C105.149 103.318 105.137 103.08 105.128 102.845L105.122 102.61L104.601 102.616C104.601 102.681 104.508 102.705 104.485 102.635C103.994 101.238 101.654 101.688 100.635 102.02C99.7183 102.32 98.8539 102.781 98.0781 103.35C96.5201 104.491 95.3121 106.027 94.9116 107.948C94.1505 111.596 96.4674 115.312 99.5433 117.073C101.483 118.182 103.608 118.899 105.467 120.156C107.11 121.266 108.64 122.566 109.966 124.043C115.22 129.895 118.311 138.772 115.825 146.497C115.635 147.086 115.134 147.76 114.47 147.856C113.371 148.014 112.273 147.854 111.657 146.805C111.417 146.395 111.303 145.928 111.328 145.467C110.902 146.934 109.522 148.384 108.248 148.929C106.513 149.673 104.559 149.451 103.028 148.492L102.835 148.635C100.346 150.472 97.5652 152.146 94.3761 151.808C92.0655 151.563 89.797 150.383 88.5194 148.524C86.8202 149.481 85.005 150.244 83.1329 150.764L82.9337 150.819C80.358 151.522 77.0726 152.166 74.6684 150.738C72.3599 149.367 71.5926 146.372 72.1344 143.872C72.1997 143.574 72.2819 143.284 72.3831 143.003C70.646 143.096 68.9109 142.929 67.2623 142.418C65.5778 141.895 63.9713 140.892 63.1639 139.264C62.2531 137.423 62.4956 135.331 63.1744 133.456C64.2602 130.449 66.0058 127.773 68.1793 125.442C70.2696 123.198 72.7909 121.295 75.4112 119.709L75.853 119.444C78.2117 118.033 81.0563 116.38 83.8434 116.489C83.835 116.453 83.8287 116.419 83.8244 116.384C83.4028 113.27 83.4513 110.096 83.3522 106.957C83.2615 104.07 83.1582 101.183 83.0908 98.2941C82.9812 93.3821 83.017 88.4494 83.6558 83.5714C84.2229 79.2429 85.2433 75.0221 87.1048 71.0592C89.0592 66.8959 92.0022 63.3431 95.6368 60.549C103.264 54.684 113.34 51.6892 122.85 51.182ZM96.9418 108.874C97.7724 107.304 99.6635 106.809 101.323 107.092C103.648 107.49 105.229 109.527 106.587 111.28C108.012 113.116 105.039 114.847 104.274 113.068L104.093 112.647C103.479 111.236 102.753 109.748 101.5 108.828C100.167 107.851 98.2868 107.708 97.1104 109.005C97.0261 109.1 96.8848 108.978 96.9418 108.874Z" fill="black"/>
<path fill-rule="evenodd" clip-rule="evenodd" d="M143.152 128.274C141.732 127.695 140.465 126.728 139.538 125.493C139.216 125.063 139.133 124.61 139.2 124.195C139.276 123.729 139.552 123.306 139.928 123.023C140.305 122.739 140.777 122.598 141.233 122.67C141.63 122.732 142.024 122.949 142.337 123.399L142.402 123.489C142.953 124.235 143.67 124.846 144.488 125.241C145.276 125.621 146.158 125.798 147.07 125.695C148.808 125.499 150.005 124.559 151.278 123.282C151.436 123.121 151.594 122.955 151.752 122.786C151.852 122.633 151.991 122.534 152.146 122.483C152.317 122.425 152.511 122.429 152.689 122.491C152.86 122.55 153.013 122.664 153.116 122.815C153.213 122.958 153.269 123.135 153.251 123.339C153.134 124.661 152.443 125.842 151.461 126.769C150.37 127.799 148.924 128.511 147.563 128.761C146.064 129.036 144.536 128.839 143.152 128.274V128.274ZM148.271 107.866C149.866 108.836 152.297 111.098 150.581 113.503C148.56 115.624 145.652 113.193 144.219 112.093C142.89 111.241 141.396 113.433 142.629 114.428C152.987 122.099 157.19 108.12 149.078 106.726C148.184 106.572 147.853 107.566 148.271 107.866ZM129.711 98.9429C129.887 96.7541 133.219 96.257 133.551 98.423C133.847 100.363 133.498 102.145 132.624 103.892C131.79 105.561 129.692 104.783 129.533 103.263C129.32 101.226 129.601 100.304 129.711 98.9429ZM155.076 97.9739C155.541 97.3652 156.212 96.9497 157.015 97.1845C159.526 97.9185 158.786 101.485 157.904 103.22C157.425 104.163 155.876 104.402 155.176 103.572C154.036 102.219 153.489 99.5157 154.94 98.1825C154.979 98.1136 155.023 98.044 155.076 97.9739ZM132.589 89.3654L132.986 89.2959C134.213 89.0836 135.738 88.8796 136.606 89.8665C137.067 90.3898 137.225 91.3624 136.606 91.8633C135.518 92.7446 134.314 92.4031 133.01 92.4777C131.935 92.5394 130.902 92.7174 129.867 93.0135C127.595 93.6629 125.744 94.8486 123.804 96.1505C123.55 96.3213 123.29 95.9956 123.411 95.7574C124.531 93.563 126.701 91.7604 128.875 90.6616C130.036 90.0751 131.305 89.5885 132.589 89.3654ZM152.787 88.3823L153.091 88.4445C156.395 89.1353 160.687 90.5153 162.251 93.7615C162.311 94.2205 162.248 94.3189 162.197 94.3832L162.18 94.4046C162.137 94.4595 162.104 94.5351 161.905 94.5976C161.85 94.5844 161.794 94.5705 161.737 94.5557C161.02 94.3677 160.453 94.1087 159.904 93.84L159.308 93.5465C158.617 93.2076 157.92 92.881 157.181 92.6399C155.605 92.1255 153.983 91.7631 152.337 91.5696C151.98 91.5277 151.636 91.4072 151.365 91.2006C151.108 91.0046 150.911 90.7332 150.821 90.3724C150.705 89.9056 150.739 89.5521 150.989 89.1309C151.177 88.8146 151.447 88.5953 151.756 88.4694C152.071 88.3411 152.43 88.3108 152.787 88.3823Z" fill="black"/>
<path fill-rule="evenodd" clip-rule="evenodd" d="M166.533 112.302C166.135 107.255 159.773 105.116 156.604 104.482C146.051 102.001 137.074 108.368 124.491 108.498C123.221 108.518 119.589 108.304 117.901 107.857C109.332 105.91 100.772 103.838 92.3643 101.283C91.1281 101.573 90.7624 103.187 91.6111 104.106C99.6638 106.963 111.983 109.521 118.489 109.813C118.364 118.22 113.928 126.674 107.801 131.324C117.545 142.104 140.271 145.649 153.646 139.99C160.225 138.015 167.167 120.334 166.533 112.302" fill="white"/>
<path fill-rule="evenodd" clip-rule="evenodd" d="M91.6841 101.538C91.3218 101.523 91.5331 100.467 92.3492 100.617C102.88 103.081 115.999 107.774 126.823 107.739C134.786 107.479 141.92 103.042 149.927 103.016C155.309 103.119 162.172 103.884 165.938 108.205C170.906 123.967 159.719 145.405 142.117 145.53L138.785 145.288C127.429 144.451 114.987 143.112 107.668 133.474L107.611 133.523V133.523C106.516 132.788 106.577 131.201 107.507 130.385L107.535 130.429V130.429C107.553 130.4 107.572 130.373 107.591 130.345L107.58 130.308V130.308C107.937 129.932 108.344 129.58 108.714 129.266L108.716 129.272V129.272C114.212 124.691 117.801 117.764 118.008 110.591C116.188 111.091 85.6165 104.75 91.0738 103.203C94.9772 104.523 98.9036 105.715 102.909 106.664C102.976 106.626 103.073 106.636 103.11 106.711C108.01 107.917 113.009 108.607 118.014 109.165C118.009 108.926 118 108.687 117.988 108.447C109.088 106.714 100.362 104.14 91.6841 101.538ZM163.752 107.935C145.497 98.7089 136.435 112.339 118.78 108.586C120.627 116.83 116.066 125.717 109.871 131.104C118.872 138.898 122.768 140.078 134.576 141.343L136.118 141.526C138.438 141.801 140.779 142.057 143.105 142.098C155.173 141.219 164.291 128.659 165.656 117.279L165.663 116.964C165.724 114.076 165.592 111.019 164.313 108.373C164.077 108.291 163.872 108.144 163.752 107.935ZM138.338 115.177C138.969 115.035 139.612 115.723 139.221 116.326C137.958 118.276 134.867 119.031 132.706 119.338C130.203 119.693 127.777 119.413 125.399 118.559C125.272 118.513 125.281 118.287 125.434 118.306C127.691 118.574 130.019 118.378 132.212 117.78C134.436 117.347 136.232 115.867 138.338 115.177ZM155.49 113.772C155.48 113.402 157.301 114.474 157.588 114.618C159.812 115.954 162.386 116.052 164.839 116.576C165.411 116.795 165.41 117.522 164.839 117.742C161.778 118.556 157.132 116.419 155.49 113.772Z" fill="black"/>
</svg>
