<svg width="240" height="324" viewBox="0 0 240 324" fill="none" xmlns="http://www.w3.org/2000/svg">
<path fill-rule="evenodd" clip-rule="evenodd" d="M61.3773 169.86C63.3622 156.099 77.1665 152.354 78.4747 139.812C72.2493 142.564 64.8058 141.707 59.3473 137.195C53.3023 148.068 52.9865 158.761 61.3773 169.86Z" fill="#023F87"/>
<path fill-rule="evenodd" clip-rule="evenodd" d="M88.0318 129.932C95.0693 128.894 101.114 123.931 106.889 119.058C114.873 112.291 126.016 103.945 136.617 104.757C117.67 98.8915 97.1444 103.087 84.6484 110.757C89.4754 116.081 90.5581 123.57 88.0318 129.886V129.932Z" fill="#023F87"/>
<path fill-rule="evenodd" clip-rule="evenodd" d="M178.574 174.146C176.589 187.907 162.785 191.652 161.477 204.194C167.702 201.442 175.145 202.299 180.604 206.811C186.649 195.938 186.965 185.245 178.574 174.146Z" fill="#023F87"/>
<path fill-rule="evenodd" clip-rule="evenodd" d="M151.906 214.072C144.868 215.11 138.823 220.073 133.049 224.945C125.064 231.713 113.922 240.059 103.32 239.247C122.267 245.112 142.748 240.917 155.244 233.247C150.417 227.923 149.334 220.434 151.861 214.117L151.906 214.072Z" fill="#023F87"/>
<path fill-rule="evenodd" clip-rule="evenodd" d="M122.141 113.374C135.9 115.359 139.599 129.165 152.185 130.473C149.433 124.247 150.29 116.803 154.802 111.344C143.93 105.298 133.238 104.982 122.141 113.374Z" fill="#00A551"/>
<path fill-rule="evenodd" clip-rule="evenodd" d="M162.07 140.04C163.108 147.078 168.07 153.124 172.942 158.898C179.709 166.884 188.055 178.028 187.243 188.63C193.107 169.681 188.912 149.198 181.243 136.701C175.92 141.529 168.431 142.657 162.115 140.085L162.07 140.04Z" fill="#00A551"/>
<path fill-rule="evenodd" clip-rule="evenodd" d="M117.864 230.583C104.105 228.598 100.361 214.793 87.8196 213.484C90.5714 219.71 89.7143 227.155 85.2031 232.614C96.0751 238.659 106.767 238.975 117.864 230.583Z" fill="#00A551"/>
<path fill-rule="evenodd" clip-rule="evenodd" d="M77.9288 203.922C76.8912 196.884 71.9289 190.839 67.0568 185.064C60.29 177.078 51.9894 165.934 52.7563 155.332C46.8918 174.281 51.0872 194.764 58.7562 207.261C64.0794 202.434 71.568 201.351 77.8836 203.877L77.9288 203.922Z" fill="#00A551"/>
<path fill-rule="evenodd" clip-rule="evenodd" d="M179.741 112.196C185.605 118.061 185.605 127.535 179.741 133.4C173.876 139.265 164.403 139.265 158.539 133.4C152.675 127.535 152.675 118.061 158.539 112.196C164.403 106.331 173.876 106.331 179.741 112.196Z" fill="#00A551"/>
<path fill-rule="evenodd" clip-rule="evenodd" d="M81.4205 210.592C87.2848 216.457 87.2848 225.931 81.4205 231.796C75.5561 237.661 66.0829 237.661 60.2186 231.796C54.3542 225.931 54.3542 216.457 60.2186 210.592C66.0829 204.727 75.5561 204.727 81.4205 210.592Z" fill="#00A551"/>
<path fill-rule="evenodd" clip-rule="evenodd" d="M179.741 231.751C173.876 237.616 164.403 237.616 158.539 231.751C152.675 225.886 152.675 216.412 158.539 210.547C164.403 204.682 173.876 204.682 179.741 210.547C185.605 216.412 185.605 225.886 179.741 231.751Z" fill="#023F87"/>
<path fill-rule="evenodd" clip-rule="evenodd" d="M81.4205 133.4C75.5561 139.265 66.0829 139.265 60.2186 133.4C54.3542 127.535 54.3542 118.061 60.2186 112.196C66.0829 106.331 75.5561 106.331 81.4205 112.196C87.2848 118.061 87.2848 127.535 81.4205 133.4Z" fill="#023F87"/>
<path fill-rule="evenodd" clip-rule="evenodd" d="M113.601 184.615V189.894H126.368V178.389L137.33 188.991C138.232 189.849 138.187 190.345 138.187 191.202V194.811C138.187 194.811 138.187 194.902 138.187 194.992C138.187 194.992 138.187 195.127 138.187 195.172C138.187 195.172 138.187 195.308 138.187 195.353C138.187 195.353 138.187 195.443 138.187 195.488C138.187 195.488 138.187 195.624 138.187 195.669C138.187 195.669 138.187 195.804 138.187 195.849V195.984C138.187 195.984 138.187 196.12 138.187 196.165C138.187 196.165 138.187 196.3 138.187 196.345V196.481C138.187 196.481 138.187 196.616 138.187 196.661C138.187 196.661 138.187 196.751 138.187 196.842V196.977C138.187 196.977 138.187 197.112 138.142 197.158C138.142 197.158 138.142 197.293 138.097 197.293C138.097 197.293 138.097 197.383 138.097 197.428C138.097 197.428 138.097 197.564 138.052 197.609C138.052 197.609 138.052 197.699 138.006 197.744C138.006 197.744 138.006 197.834 137.961 197.879C137.961 197.879 137.961 198.015 137.916 198.06C137.916 198.06 137.916 198.15 137.871 198.195C137.871 198.195 137.871 198.285 137.826 198.331C137.826 198.331 137.781 198.466 137.736 198.511C137.736 198.511 137.736 198.601 137.691 198.646C137.691 198.646 137.691 198.737 137.646 198.782C137.646 198.782 137.646 198.917 137.555 198.917C137.555 198.917 137.555 199.007 137.51 199.052C137.51 199.052 137.465 199.143 137.42 199.188C137.42 199.188 137.42 199.188 137.375 199.233C137.375 199.233 137.375 199.278 137.33 199.323C137.33 199.323 137.33 199.413 137.285 199.413C137.285 199.413 137.285 199.413 137.24 199.458C137.24 199.458 137.194 199.504 137.149 199.549C137.149 199.549 137.149 199.549 137.104 199.594C137.104 199.594 137.104 199.594 137.059 199.639H137.014L136.969 199.729C136.969 199.729 136.969 199.729 136.924 199.774C136.924 199.774 136.879 199.819 136.834 199.865C136.834 199.865 136.834 199.865 136.788 199.91C136.788 199.91 136.788 199.91 136.743 199.955H136.698L136.653 200.045C136.653 200.045 136.563 200.09 136.563 200.135H136.518C136.518 200.135 136.518 200.225 136.473 200.225H136.428C136.428 200.225 136.428 200.316 136.382 200.316C136.382 200.316 136.382 200.316 136.337 200.316C136.337 200.316 136.247 200.361 136.202 200.406C136.202 200.406 136.157 200.451 136.112 200.496H136.067C136.067 200.496 136.022 200.541 135.976 200.586H135.931C135.931 200.586 135.841 200.677 135.796 200.677H135.751C135.751 200.677 135.706 200.722 135.661 200.767H135.616C135.616 200.767 135.57 200.812 135.525 200.857C135.525 200.857 135.435 200.947 135.39 200.947H135.345L135.255 200.992C135.255 200.992 135.255 200.992 135.21 200.992C134.307 201.398 133.36 201.624 132.322 201.624H114.684V206.903L103.406 195.714L114.684 184.525L113.601 184.615ZM126.368 165.621H137.871V178.389H132.593L143.781 189.668L154.969 178.389H149.69V160.749C149.69 159.711 149.465 158.718 149.059 157.861C149.059 157.861 149.059 157.861 149.059 157.816V157.726L149.014 157.681C149.014 157.636 148.969 157.59 148.924 157.545V157.455C148.924 157.455 148.924 157.365 148.924 157.32C148.924 157.32 148.878 157.184 148.833 157.139C148.833 157.139 148.833 157.049 148.788 157.004C148.788 157.004 148.788 156.914 148.743 156.869C148.743 156.869 148.698 156.733 148.653 156.688C148.653 156.688 148.653 156.688 148.653 156.643C148.653 156.643 148.653 156.643 148.608 156.598C148.608 156.598 148.608 156.508 148.563 156.463C148.563 156.463 148.518 156.327 148.472 156.327H148.427L148.382 156.237C148.382 156.237 148.382 156.237 148.337 156.192C148.337 156.192 148.337 156.192 148.292 156.147C148.292 156.147 148.247 156.102 148.202 156.056C148.202 156.056 148.202 156.056 148.157 156.011H148.112L148.066 155.921C148.066 155.921 148.066 155.921 148.021 155.876C148.021 155.876 148.021 155.876 147.976 155.831C147.976 155.831 147.931 155.786 147.886 155.741C147.886 155.741 147.886 155.741 147.841 155.741C147.841 155.741 147.841 155.741 147.796 155.696H147.751C147.751 155.696 147.706 155.605 147.66 155.605C147.66 155.605 147.66 155.605 147.615 155.56C147.615 155.56 147.57 155.515 147.525 155.515H147.48C147.48 155.515 147.48 155.425 147.435 155.425H147.39C147.39 155.425 147.345 155.335 147.3 155.335H147.254C147.254 155.335 147.209 155.244 147.164 155.244H147.119C147.119 155.244 147.074 155.154 147.029 155.154H146.984C146.984 155.154 146.894 155.064 146.848 155.064C146.848 155.064 146.803 155.019 146.758 154.974H146.713C146.713 154.974 146.668 154.929 146.623 154.883C146.623 154.883 146.533 154.793 146.487 154.793C146.487 154.793 146.442 154.748 146.397 154.703H146.352C146.352 154.703 146.262 154.658 146.262 154.613C146.262 154.613 146.172 154.568 146.127 154.523C146.127 154.523 146.081 154.523 146.036 154.477H145.991C145.991 154.477 145.901 154.432 145.856 154.432C145.856 154.432 145.766 154.432 145.721 154.387H145.675C145.675 154.387 145.63 154.387 145.585 154.342C145.585 154.342 145.495 154.342 145.45 154.297C145.45 154.297 145.36 154.297 145.315 154.297C145.315 154.297 145.224 154.297 145.179 154.297C145.179 154.297 145.089 154.297 145.044 154.297C145.044 154.297 144.954 154.297 144.909 154.297H144.863C144.863 154.297 144.773 154.297 144.728 154.297C144.728 154.297 144.638 154.297 144.593 154.297C144.593 154.297 144.503 154.297 144.457 154.297H144.412C144.412 154.297 144.322 154.297 144.277 154.297C144.277 154.297 144.187 154.297 144.097 154.297C144.097 154.297 144.006 154.297 143.961 154.297H143.916C143.916 154.297 143.826 154.297 143.736 154.297H140.127C139.315 154.297 138.818 154.207 137.916 155.154L127.315 166.117L126.368 165.621ZM113.601 178.389H102.097V165.621H107.375L96.1877 154.342L85 165.621H90.2781V183.262C90.2781 184.299 90.5036 185.292 90.9097 186.149C90.9097 186.149 90.9097 186.149 90.9097 186.194V186.284L90.9548 186.33C90.9548 186.375 90.9999 186.42 91.045 186.465V186.555C91.045 186.555 91.045 186.645 91.045 186.691C91.045 186.691 91.0901 186.826 91.1352 186.871C91.1352 186.871 91.1352 186.961 91.1803 187.006C91.1803 187.006 91.1803 187.097 91.2254 187.142C91.2254 187.142 91.2706 187.277 91.3157 187.322C91.3157 187.322 91.3157 187.322 91.3157 187.367C91.3157 187.367 91.3157 187.367 91.3608 187.412C91.3608 187.412 91.3608 187.503 91.4059 187.548C91.4059 187.548 91.451 187.683 91.4961 187.728H91.5412L91.5863 187.818C91.5863 187.818 91.5863 187.818 91.6314 187.864C91.6314 187.864 91.6314 187.864 91.6766 187.909C91.6766 187.909 91.7217 187.954 91.7668 187.999C91.7668 187.999 91.7668 187.999 91.8119 188.044H91.857L91.9021 188.134C91.9021 188.134 91.9021 188.134 91.9472 188.179C91.9472 188.179 91.9472 188.179 91.9923 188.224C91.9923 188.224 92.0375 188.27 92.0826 188.315C92.0826 188.315 92.0826 188.315 92.1277 188.36C92.1277 188.36 92.1277 188.36 92.1728 188.405H92.2179C92.2179 188.405 92.263 188.495 92.3081 188.495C92.3081 188.495 92.3081 188.495 92.3532 188.54C92.3532 188.54 92.3983 188.585 92.4435 188.585H92.4886C92.4886 188.585 92.4886 188.676 92.5337 188.676H92.5788C92.5788 188.676 92.6239 188.766 92.669 188.766H92.7141C92.7141 188.766 92.7592 188.856 92.8044 188.856H92.8495C92.8495 188.856 92.8946 188.946 92.9397 188.946H92.9848C92.9848 188.946 93.075 189.037 93.1201 189.037C93.1201 189.037 93.1652 189.082 93.2104 189.127H93.2555C93.2555 189.127 93.3006 189.172 93.3457 189.217C93.3457 189.217 93.4359 189.307 93.481 189.307C93.481 189.307 93.5261 189.352 93.5713 189.398C93.5713 189.398 93.6615 189.443 93.6615 189.488C93.6615 189.488 93.7517 189.533 93.7968 189.578C93.7968 189.578 93.8419 189.623 93.887 189.623H93.9322C93.9322 189.623 94.0224 189.668 94.0675 189.668C94.0675 189.668 94.1577 189.668 94.2028 189.713C94.2028 189.713 94.293 189.713 94.293 189.758H94.3382C94.3382 189.758 94.4284 189.758 94.4735 189.804C94.4735 189.804 94.5637 189.804 94.6088 189.804C94.6088 189.804 94.6991 189.804 94.7442 189.804C94.7442 189.804 94.8344 189.804 94.8795 189.804C94.8795 189.804 94.9697 189.804 95.0148 189.804H95.0599C95.0599 189.804 95.1502 189.804 95.1953 189.804C95.1953 189.804 95.2855 189.804 95.3306 189.804C95.3306 189.804 95.4208 189.804 95.466 189.804H95.5111C95.5111 189.804 95.6013 189.804 95.6464 189.804C95.6464 189.804 95.7366 189.804 95.8269 189.804C95.8269 189.804 95.9171 189.804 95.9622 189.804H96.0073C96.0073 189.804 96.0975 189.804 96.1877 189.804H99.7967C100.609 189.804 101.105 189.894 102.007 188.946L112.608 177.983L113.601 178.389ZM113.601 165.621L102.639 155.019C101.691 154.116 101.782 153.665 101.782 152.808V149.199C101.782 149.199 101.782 149.109 101.782 149.063C101.782 149.063 101.782 148.928 101.782 148.883C101.782 148.883 101.782 148.748 101.782 148.657C101.782 148.657 101.782 148.567 101.782 148.477C101.782 148.477 101.782 148.342 101.782 148.296C101.782 148.296 101.782 148.161 101.782 148.116V147.981C101.782 147.981 101.782 147.845 101.782 147.8C101.782 147.8 101.782 147.665 101.782 147.62V147.484C101.782 147.484 101.782 147.349 101.782 147.304C101.782 147.304 101.782 147.214 101.827 147.123C101.827 147.123 101.827 147.033 101.827 146.988C101.827 146.988 101.827 146.853 101.872 146.808C101.872 146.808 101.872 146.717 101.872 146.672V146.537C101.872 146.537 101.872 146.402 101.917 146.356C101.917 146.356 101.917 146.266 101.962 146.221C101.962 146.221 101.962 146.131 102.007 146.086C102.007 146.086 102.007 145.95 102.052 145.905C102.052 145.905 102.052 145.815 102.097 145.77C102.097 145.77 102.097 145.68 102.143 145.635C102.143 145.635 102.188 145.499 102.233 145.454C102.233 145.454 102.233 145.364 102.278 145.319C102.278 145.319 102.278 145.229 102.323 145.183C102.323 145.183 102.323 145.048 102.413 145.048C102.413 145.048 102.413 144.958 102.458 144.913C102.458 144.913 102.503 144.823 102.503 144.777C102.503 144.777 102.503 144.777 102.549 144.732C102.549 144.732 102.549 144.687 102.594 144.642C102.594 144.642 102.594 144.552 102.639 144.552C102.639 144.552 102.639 144.552 102.684 144.507C102.684 144.507 102.729 144.462 102.774 144.416C102.774 144.416 102.774 144.416 102.819 144.371C102.819 144.371 102.819 144.371 102.864 144.326H102.909L102.955 144.236C102.955 144.236 102.955 144.236 103 144.191C103 144.191 103.045 144.146 103.09 144.101C103.09 144.101 103.09 144.101 103.135 144.056C103.135 144.056 103.135 144.056 103.18 144.01H103.225L103.27 143.92C103.27 143.92 103.361 143.875 103.361 143.83H103.406C103.406 143.83 103.406 143.74 103.451 143.74H103.496C103.496 143.74 103.496 143.649 103.541 143.649C103.541 143.649 103.541 143.649 103.586 143.649C103.586 143.649 103.676 143.604 103.721 143.559C103.721 143.559 103.767 143.514 103.812 143.469H103.857C103.857 143.469 103.902 143.424 103.947 143.379H103.992C103.992 143.379 104.082 143.289 104.127 143.289H104.173C104.173 143.289 104.218 143.243 104.263 143.198H104.308C104.308 143.198 104.353 143.153 104.398 143.108C104.398 143.108 104.488 143.018 104.533 143.018H104.579L104.669 142.973C104.669 142.973 104.669 142.973 104.714 142.973C105.616 142.567 106.563 142.341 107.601 142.341H125.24V137.062L136.518 148.251L125.24 159.44V154.162H112.473V165.666L113.601 165.621Z" fill="#00A551"/>
<path fill-rule="evenodd" clip-rule="evenodd" d="M113.662 189.757V178.342H102.203V165.665H113.662V154.205H126.338V165.665H137.751V178.342H126.338V189.757H113.662Z" fill="white"/>
<path d="M87.4421 272.879C86.1997 269.242 84.9422 265.606 83.6998 261.97L80.8817 265.485V272.894C80.8817 274.697 79.8666 275.863 77.6697 275.848H76.3516C76.3516 267.227 76.3516 258.621 76.3516 250H77.3212C77.7909 250 78.1848 250 78.6394 250.076C80.1848 250.364 80.8969 251.439 80.8969 252.955V261.015L88.942 251.333C90.0632 250 90.7147 250 92.5631 250H93.1843C91.0632 252.727 88.942 255.439 86.8209 258.167C88.9875 264.06 91.1692 269.954 93.3358 275.848H92.6237C91.5783 275.848 90.5783 275.894 89.6238 275.454C88.9723 275.151 88.442 274.697 88.0481 274.121C87.7754 273.727 87.6087 273.318 87.4572 272.879H87.4421Z" fill="#00A551"/>
<path d="M110.219 272.516C109.082 274.971 106.386 275.895 103.507 275.895C99.0525 275.895 96.6132 273.456 95.5224 270.259C94.7648 268.047 94.5224 265.289 94.9315 262.698C95.5527 258.744 97.9617 254.547 102.946 254.547C110.158 254.547 110.976 260.123 111.219 265.138H99.1434C99.0071 268.138 99.6283 273.638 104.128 273.638C105.325 273.638 106.234 273.425 106.84 273.001C107.931 272.365 108.825 271.804 110.219 272.501V272.516ZM107.098 263.289C107.007 262.077 106.87 261.047 106.689 260.213C105.613 255.441 100.659 255.941 99.5071 260.183C99.2798 261.016 99.1434 262.062 99.1131 263.289H107.098Z" fill="#00A551"/>
<path d="M117.739 272.775C118.542 273.306 119.512 273.578 120.633 273.578C121.754 273.578 122.678 273.306 123.254 272.745C123.83 272.2 124.118 271.488 124.118 270.624C124.118 270.018 124.027 269.518 123.83 269.109C123.633 268.7 123.39 268.351 123.072 268.063C122.769 267.775 122.405 267.533 122.012 267.351C121.602 267.169 121.209 266.988 120.784 266.836C119.86 266.503 119.012 266.139 118.239 265.76C117.466 265.366 116.8 264.927 116.239 264.442C115.678 263.957 115.239 263.397 114.921 262.76C114.603 262.124 114.451 261.397 114.451 260.548C114.451 259.548 114.633 258.67 114.981 257.927C115.33 257.17 115.83 256.548 116.466 256.048C117.103 255.548 117.845 255.17 118.724 254.912C119.587 254.654 120.542 254.533 121.557 254.533C122.799 254.533 123.966 254.73 125.057 255.154C126.148 255.563 126.936 256.321 127.451 257.427C125.981 258.457 125.027 257.715 124.102 257.382C123.936 257.291 123.754 257.215 123.572 257.139C123.057 256.957 122.496 256.867 121.89 256.867C121.406 256.867 120.936 256.927 120.481 257.033C120.027 257.139 119.633 257.321 119.284 257.548C118.936 257.776 118.678 258.079 118.481 258.427C118.284 258.776 118.193 259.215 118.193 259.715C118.193 260.548 118.451 261.215 118.966 261.669C119.481 262.139 120.118 262.518 120.89 262.836C121.663 263.139 122.496 263.442 123.375 263.715C124.269 263.988 125.102 264.366 125.86 264.821C126.633 265.291 127.269 265.897 127.784 266.654C128.299 267.412 128.557 268.427 128.557 269.715C128.557 270.685 128.36 271.563 127.996 272.336C127.617 273.109 127.102 273.76 126.436 274.291C125.784 274.821 124.996 275.23 124.072 275.518C123.163 275.806 122.178 275.942 121.133 275.942C119.375 275.942 117.875 275.624 116.633 274.972C115.391 274.336 114.466 273.351 113.891 272.018C114.375 271.715 115.148 271.26 116.148 271.624C116.815 271.866 117.209 272.366 117.769 272.745L117.739 272.775Z" fill="#00A551"/>
<path d="M162.896 260.182C162.896 259.121 162.654 258.409 162.139 258.015C161.639 257.636 160.851 257.439 159.775 257.439C158.896 257.439 158.078 257.636 157.321 258.015C156.563 258.394 156.018 258.818 155.669 259.303V273.03C155.669 274.469 154.987 275.485 153.518 275.772C153.078 275.848 152.715 275.848 152.26 275.848H151.336V250H152.26C152.715 250 153.078 250 153.518 250.076C154.987 250.348 155.669 251.364 155.669 252.818V254.727V257.121C156.23 256.439 157.063 255.848 158.154 255.333C159.26 254.818 160.533 254.561 162.002 254.561C163.76 254.561 165.063 255 165.926 255.864C166.775 256.727 167.214 258.076 167.214 259.894V275.863H166.29C165.835 275.863 165.472 275.863 165.032 275.788C163.563 275.515 162.881 274.5 162.881 273.045V260.182H162.896Z" fill="#00A551"/>
<path d="M181.335 264.078C180.85 264.32 180.274 264.517 179.608 264.653C178.956 264.79 178.32 264.956 177.699 265.138C176.471 265.487 175.608 266.032 175.062 266.759C174.532 267.487 174.259 268.441 174.259 269.608C174.259 270.926 174.517 271.896 175.047 272.502C175.577 273.108 176.396 273.411 177.517 273.411C178.365 273.411 179.123 273.214 179.789 272.82C180.441 272.426 180.956 271.865 181.32 271.168V264.093L181.335 264.078ZM181.668 272.971C181.183 273.88 180.441 274.577 179.471 275.108C178.502 275.623 177.35 275.88 176.032 275.88C174.032 275.88 172.532 275.38 171.547 274.38C170.562 273.38 170.062 271.987 170.062 270.199C170.062 268.411 170.456 267.047 171.229 266.093C172.002 265.138 173.214 264.411 174.85 263.911C175.38 263.729 175.956 263.593 176.547 263.502C177.138 263.396 177.729 263.305 178.305 263.199C178.88 263.108 179.426 262.987 179.956 262.835C181.153 262.502 181.274 262.199 181.289 261.35C181.289 260.956 181.289 260.562 181.289 260.184C181.289 259.108 181.047 258.29 180.562 257.744C180.077 257.199 179.153 256.911 177.774 256.911C176.744 256.911 175.865 257.108 175.123 257.517C173.684 258.305 173.047 258.941 171.184 258.032C171.896 256.805 172.865 255.911 174.093 255.366C175.32 254.82 176.653 254.562 178.093 254.562C179.123 254.562 180.092 254.638 181.002 254.775C181.911 254.911 182.714 255.199 183.38 255.593C184.047 256.002 184.577 256.578 184.971 257.305C185.365 258.047 185.562 259.002 185.562 260.199V275.85C185.456 275.85 184.88 275.85 184.395 275.85C182.335 275.85 181.698 274.759 181.653 272.956L181.668 272.971Z" fill="#00A551"/>
<path d="M200.893 274.485C200.212 274.985 199.515 275.333 198.787 275.545C198.06 275.757 197.121 275.863 195.954 275.863C194.106 275.863 192.651 275.333 191.606 274.288C190.561 273.242 190.03 271.788 190.03 269.924V256.651H189.333C188.136 256.621 187.5 256.424 187.5 254.561H190.03V250H190.954C191.409 250 191.773 250 192.212 250.076C193.682 250.348 194.363 251.364 194.363 252.818V254.561H196.894C198.091 254.591 198.727 254.788 198.727 256.651H194.333V269.939C194.333 271.091 194.591 271.985 195.091 272.621C195.591 273.257 196.394 273.591 197.484 273.591C197.878 273.591 198.242 273.56 198.545 273.515C199.818 273.318 200.439 273.5 200.924 274.5L200.893 274.485Z" fill="#00A551"/>
<path d="M232.693 260.183C232.693 259.123 232.435 258.41 231.935 258.017C231.435 257.638 230.648 257.441 229.572 257.441C228.693 257.441 227.875 257.638 227.117 258.017C226.36 258.395 225.814 258.82 225.466 259.304V273.031C225.466 274.471 224.784 275.486 223.315 275.774C222.875 275.85 222.512 275.85 222.057 275.85H221.133V254.547H222.057C222.512 254.547 222.875 254.547 223.315 254.623C224.693 254.88 225.375 255.804 225.451 257.107C226.011 256.426 226.845 255.835 227.936 255.32C229.026 254.804 230.314 254.547 231.784 254.547C233.541 254.547 234.844 254.986 235.708 255.85C236.557 256.714 236.996 258.062 236.996 259.88V275.85H236.072C235.617 275.85 235.254 275.85 234.814 275.774C233.344 275.501 232.663 274.486 232.663 273.031V260.183H232.693Z" fill="#00A551"/>
<path d="M146.841 272.516C145.704 274.971 143.008 275.895 140.129 275.895C135.674 275.895 133.235 273.456 132.144 270.259C131.387 268.047 131.144 265.289 131.538 262.698C132.159 258.744 134.568 254.547 139.553 254.547C146.765 254.547 147.583 260.123 147.826 265.138H135.75C135.614 268.138 136.235 273.638 140.735 273.638C141.932 273.638 142.841 273.425 143.447 273.001C144.538 272.365 145.432 271.804 146.826 272.501L146.841 272.516ZM143.72 263.289C143.629 262.077 143.492 261.047 143.311 260.213C142.25 255.441 137.28 255.941 136.129 260.183C135.902 261.016 135.765 262.062 135.735 263.289H143.72Z" fill="#00A551"/>
<path d="M213.725 264.078C213.241 264.32 212.665 264.517 211.998 264.653C211.347 264.79 210.71 264.956 210.089 265.138C208.862 265.487 207.983 266.032 207.453 266.759C206.923 267.487 206.65 268.441 206.65 269.608C206.65 270.926 206.908 271.896 207.438 272.502C207.968 273.108 208.786 273.411 209.907 273.411C210.756 273.411 211.513 273.214 212.18 272.82C212.847 272.426 213.347 271.865 213.725 271.168V264.093V264.078ZM214.059 272.971C213.574 273.88 212.832 274.577 211.862 275.108C210.892 275.623 209.741 275.88 208.423 275.88C206.423 275.88 204.923 275.38 203.938 274.38C202.953 273.38 202.453 271.987 202.453 270.199C202.453 268.411 202.847 267.047 203.62 266.093C204.408 265.138 205.605 264.411 207.241 263.911C207.771 263.729 208.347 263.593 208.938 263.502C209.529 263.396 210.119 263.305 210.695 263.199C211.271 263.108 211.816 262.987 212.347 262.835C213.544 262.502 213.665 262.199 213.68 261.35C213.68 260.956 213.68 260.562 213.68 260.184C213.68 259.108 213.438 258.29 212.953 257.744C212.468 257.199 211.544 256.911 210.165 256.911C209.135 256.911 208.256 257.108 207.514 257.517C206.074 258.305 205.438 258.941 203.574 258.032C204.286 256.805 205.256 255.911 206.483 255.366C207.71 254.82 209.044 254.562 210.483 254.562C211.513 254.562 212.483 254.638 213.392 254.775C214.301 254.911 215.104 255.199 215.771 255.593C216.437 256.002 216.968 256.578 217.362 257.305C217.756 258.047 217.953 259.002 217.953 260.199V275.85C217.847 275.85 217.271 275.85 216.786 275.85C214.725 275.85 214.089 274.759 214.044 272.956L214.059 272.971Z" fill="#00A551"/>
<path d="M9.89413 261.695C12.7425 261.604 13.5455 259.119 13.5455 257.043C13.5455 254.862 13.3183 252.392 10.3638 252.392H6.56092V261.695H9.89413ZM9.84868 273.664C11.2577 273.664 12.3031 273.27 12.9698 272.483C13.6364 271.695 13.9697 270.422 13.9697 268.664C13.9697 266.437 13.6667 264.164 10.6062 263.71H6.54577V273.664H9.83353H9.84868ZM2.01562 275.892V250.059H10.8941C15.9091 250.059 18.1514 253.271 17.6969 257.483C17.4848 259.422 16.7575 261.422 14.8031 262.468C19.5908 263.922 19.5908 270.922 16.7727 273.952C15.5606 275.24 13.6364 275.892 10.9699 275.892H2.01562Z" fill="#023F87"/>
<path d="M23.4136 250.06H32.186C33.5041 250.06 34.6253 250.196 35.5495 250.469C36.4737 250.742 37.2161 251.136 37.7767 251.681C38.3373 252.227 38.7464 252.909 39.0039 253.727C39.2615 254.545 39.3827 255.515 39.3827 256.605C39.3827 258.363 39.2464 259.833 38.9736 260.999C38.7009 262.181 38.2615 263.136 37.6252 263.848C36.9889 264.56 36.1556 265.09 35.1253 265.393C34.095 265.711 32.8072 265.863 31.2618 265.863H27.9286V272.923C27.9286 274.726 26.9135 275.893 24.7166 275.878H23.3984C23.3984 267.272 23.3984 258.651 23.3984 250.045L23.4136 250.06ZM30.8073 263.59C31.5345 263.59 32.1557 263.499 32.6557 263.302C33.1557 263.105 33.5647 262.787 33.8981 262.348C34.2314 261.893 34.4587 261.302 34.6102 260.56C34.7617 259.818 34.8223 258.893 34.8223 257.787C34.8223 256.681 34.7617 255.818 34.6405 255.121C34.5193 254.424 34.3223 253.878 34.0799 253.469C33.8223 253.06 33.489 252.787 33.0799 252.621C32.6708 252.469 32.1557 252.378 31.5497 252.378H27.9589V263.575H30.8073V263.59Z" fill="#023F87"/>
<path d="M44.2326 250.059H45.1871C45.6567 250.059 46.0355 250.059 46.4901 250.134C48.0203 250.422 48.7324 251.483 48.7324 252.983V269.467C48.7324 273.755 46.2022 275.907 41.1266 275.907C40.8842 275.907 40.6569 275.907 40.4297 275.907C38.7782 275.876 37.3086 275.498 36.051 274.77C34.748 274.013 33.7935 272.922 33.1875 271.513C34.2481 271.089 35.1571 270.861 36.1116 271.573C36.5056 271.861 36.8237 272.21 37.248 272.498C37.7025 272.801 38.2176 273.028 38.7934 273.164C40.0206 273.467 41.763 273.483 42.9447 272.831C44.1417 272.164 44.2477 270.907 44.2477 269.725V250.059H44.2326Z" fill="#023F87"/>
<path d="M56.662 272.483C57.4953 273.043 58.5256 273.331 59.768 273.331C60.3589 273.331 60.9194 273.24 61.4497 273.058C61.98 272.876 62.4497 272.619 62.8588 272.27C63.2678 271.937 63.586 271.528 63.8133 271.028C64.0405 270.543 64.1618 269.998 64.1618 269.377C64.1618 268.831 64.0708 268.361 63.9042 267.937C63.7375 267.528 63.4951 267.149 63.2072 266.831C62.9194 266.498 62.5709 266.21 62.1618 265.937C61.7527 265.664 61.3285 265.392 60.8588 265.104C59.8134 264.498 58.8438 263.907 57.9499 263.331C57.0559 262.755 56.2832 262.134 55.6318 261.483C54.9803 260.831 54.45 260.104 54.0712 259.316C53.6924 258.528 53.5106 257.589 53.5106 256.498C53.5106 255.559 53.6773 254.71 54.0106 253.922C54.3439 253.134 54.8287 252.468 55.4802 251.892C56.1317 251.316 56.9196 250.862 57.8438 250.543C58.768 250.21 59.8286 250.059 61.0255 250.059C62.5861 250.059 63.9345 250.377 65.0557 251.013C66.1768 251.649 66.9344 252.559 67.3283 253.71C66.0253 254.271 65.0708 253.968 64.0102 253.18C63.3436 252.74 62.5406 252.513 61.6164 252.513C60.3286 252.513 59.3134 252.831 58.6013 253.452C57.8893 254.089 57.5256 254.968 57.5256 256.119C57.5256 257.074 57.7983 257.862 58.3438 258.498C58.8892 259.134 59.571 259.695 60.3892 260.21C61.2073 260.725 62.1012 261.21 63.0557 261.68C64.0254 262.149 64.9041 262.695 65.7223 263.316C66.5405 263.937 67.2222 264.68 67.7677 265.543C68.3131 266.407 68.5858 267.498 68.5858 268.801C68.5858 269.816 68.3889 270.77 67.9949 271.634C67.601 272.498 67.0404 273.255 66.3132 273.876C65.5859 274.513 64.692 274.998 63.6315 275.361C62.5709 275.725 61.374 275.907 60.0255 275.907C58.2983 275.907 56.7832 275.528 55.4651 274.77C54.1621 274.013 53.2076 272.922 52.6016 271.513C53.6621 271.089 54.5712 270.861 55.5257 271.573C55.9196 271.861 56.2378 272.21 56.662 272.498V272.483Z" fill="#023F87"/>
<path d="M102.845 294.137V288.712C102.845 288.47 102.845 288.228 102.815 287.985C102.784 287.743 102.739 287.515 102.663 287.303C102.587 287.091 102.466 286.879 102.315 286.682C102.118 286.394 101.845 286.197 101.512 286.061C101.178 285.925 100.8 285.864 100.345 285.864C99.9965 285.864 99.6935 285.925 99.4359 286.015C99.1783 286.106 98.9662 286.228 98.7844 286.364C98.6178 286.5 98.4814 286.637 98.3753 286.773C98.2844 286.909 98.2087 287.015 98.1784 287.091V286.031H96.6027V294.106H98.1784V289.137C98.1784 288.97 98.1784 288.788 98.2087 288.576C98.2238 288.379 98.2844 288.182 98.3602 287.985C98.436 287.788 98.5572 287.622 98.7238 287.455C98.8602 287.334 99.0117 287.228 99.1935 287.167C99.3601 287.091 99.5723 287.061 99.8147 287.061C100.163 287.061 100.436 287.122 100.648 287.228C100.845 287.334 100.996 287.485 101.087 287.667C101.178 287.849 101.239 288.061 101.269 288.288C101.299 288.515 101.299 288.743 101.299 289V294.106H102.845V294.137ZM93.4664 289.455H90.0575C90.0575 289.455 90.0575 289.379 90.0575 289.258C90.0575 289.137 90.0726 288.985 90.1029 288.803C90.1332 288.621 90.1787 288.425 90.2544 288.228C90.3302 288.031 90.4211 287.834 90.5574 287.667C90.6938 287.485 90.8605 287.349 91.0726 287.243C91.2847 287.137 91.5423 287.091 91.8453 287.106C92.118 287.106 92.3604 287.182 92.5422 287.288C92.7392 287.394 92.8907 287.546 93.0119 287.728C93.1331 287.909 93.224 288.091 93.2846 288.288C93.3452 288.485 93.3907 288.667 93.421 288.849C93.4513 289.031 93.4664 289.167 93.4664 289.288C93.4664 289.409 93.4664 289.47 93.4664 289.485V289.455ZM95.027 290.531V290.076C95.027 289.864 95.027 289.621 94.9967 289.334C94.9815 289.046 94.9209 288.743 94.8603 288.425C94.7846 288.106 94.6785 287.803 94.5421 287.5C94.4058 287.197 94.2088 286.925 93.9816 286.682C93.7543 286.44 93.4513 286.243 93.1028 286.091C92.7543 285.94 92.3301 285.879 91.8453 285.879C91.3453 285.879 90.9059 285.955 90.5423 286.091C90.1787 286.228 89.8605 286.425 89.6029 286.667C89.3454 286.909 89.1333 287.182 88.9817 287.485C88.8151 287.788 88.6939 288.091 88.603 288.425C88.5121 288.743 88.4515 289.061 88.4212 289.349C88.3908 289.652 88.3757 289.925 88.3757 290.152C88.3757 290.379 88.3757 290.637 88.4212 290.924C88.4515 291.212 88.5121 291.5 88.603 291.803C88.6939 292.106 88.8302 292.409 88.9969 292.697C89.1787 292.985 89.406 293.243 89.6938 293.485C89.9817 293.712 90.3302 293.909 90.7544 294.031C91.1786 294.167 91.6786 294.243 92.2543 294.243C92.6331 294.243 92.9664 294.212 93.2543 294.152C93.5422 294.091 93.7846 294.031 93.9816 293.955C94.1785 293.879 94.33 293.818 94.4361 293.758C94.5421 293.697 94.6028 293.652 94.6331 293.637L94.8603 292.212C94.8603 292.212 94.7694 292.273 94.6785 292.349C94.5725 292.424 94.4361 292.5 94.2391 292.591C94.0573 292.682 93.8149 292.758 93.527 292.818C93.2392 292.879 92.9058 292.909 92.5271 292.894C92.0725 292.894 91.6938 292.818 91.3907 292.697C91.0877 292.576 90.8453 292.424 90.6635 292.243C90.4817 292.061 90.3453 291.864 90.2544 291.667C90.1635 291.47 90.1029 291.273 90.0878 291.106C90.0575 290.94 90.0423 290.803 90.0575 290.712V290.515H95.0421L95.027 290.531ZM86.603 294.137V283.182H85.0728V294.137H86.603ZM81.785 289.455H78.3761C78.3761 289.455 78.3761 289.379 78.3761 289.258C78.3761 289.137 78.3912 288.985 78.4215 288.803C78.4518 288.621 78.4973 288.425 78.573 288.228C78.6488 288.031 78.7397 287.834 78.876 287.667C79.0124 287.485 79.1791 287.349 79.3912 287.243C79.6033 287.137 79.8609 287.091 80.1639 287.106C80.4366 287.106 80.679 287.182 80.8608 287.288C81.0578 287.394 81.2093 287.546 81.3305 287.728C81.4517 287.909 81.5426 288.091 81.6032 288.288C81.6638 288.485 81.7093 288.667 81.7396 288.849C81.7699 289.031 81.785 289.167 81.785 289.288C81.785 289.409 81.785 289.47 81.785 289.485V289.455ZM83.3456 290.531V290.076C83.3456 289.864 83.3456 289.621 83.3153 289.334C83.3001 289.046 83.2395 288.743 83.1789 288.425C83.1032 288.106 82.9971 287.803 82.8607 287.5C82.7244 287.197 82.5274 286.925 82.3002 286.682C82.0729 286.44 81.7699 286.243 81.4214 286.091C81.0729 285.94 80.6487 285.879 80.1639 285.879C79.6639 285.879 79.2245 285.955 78.8609 286.091C78.4973 286.228 78.1791 286.425 77.9215 286.667C77.664 286.909 77.4519 287.182 77.3003 287.485C77.1337 287.788 77.0125 288.091 76.9216 288.425C76.8307 288.743 76.7701 289.061 76.7398 289.349C76.7094 289.652 76.6943 289.925 76.6943 290.152C76.6943 290.379 76.6943 290.637 76.7398 290.924C76.7701 291.212 76.8307 291.5 76.9216 291.803C77.0125 292.106 77.1488 292.409 77.3155 292.697C77.4973 292.985 77.7246 293.243 78.0124 293.485C78.3003 293.712 78.6488 293.909 79.073 294.031C79.4972 294.167 79.9972 294.243 80.5729 294.243C80.9517 294.243 81.285 294.212 81.5578 294.152C81.8456 294.091 82.0881 294.031 82.285 293.955C82.482 293.879 82.6335 293.818 82.7395 293.758C82.8456 293.697 82.9062 293.652 82.9365 293.637L83.1638 292.212C83.1638 292.212 83.0729 292.273 82.982 292.349C82.8759 292.424 82.7395 292.5 82.5426 292.591C82.3608 292.682 82.1183 292.758 81.8305 292.818C81.5426 292.879 81.2093 292.909 80.8305 292.894C80.376 292.894 79.9972 292.818 79.6942 292.697C79.3912 292.576 79.1488 292.424 78.9669 292.243C78.7851 292.061 78.6488 291.864 78.573 291.667C78.4821 291.47 78.4215 291.273 78.4064 291.106C78.3761 290.94 78.3609 290.803 78.3761 290.712V290.515H83.3456V290.531ZM76.2246 286.061H74.6944L72.9369 292.318L71.149 286.061H69.5582L72.1339 294.106L72.0127 294.652C71.9824 294.818 71.9369 294.955 71.8611 295.091C71.7854 295.227 71.6945 295.334 71.5884 295.409C71.4672 295.485 71.3309 295.531 71.149 295.531C70.9369 295.531 70.7551 295.5 70.5885 295.455C70.4218 295.409 70.3006 295.364 70.2097 295.318C70.1188 295.273 70.0733 295.243 70.0733 295.243L70.24 296.546C70.24 296.546 70.3006 296.576 70.4066 296.621C70.5127 296.667 70.6642 296.712 70.8612 296.758C71.0581 296.803 71.2854 296.818 71.5581 296.818C71.8914 296.818 72.1642 296.758 72.3914 296.637C72.6187 296.515 72.8005 296.349 72.952 296.152C73.1035 295.94 73.2247 295.697 73.3308 295.424C73.4368 295.152 73.5278 294.849 73.6338 294.531L76.2398 286.076L76.2246 286.061ZM68.5279 294.137V288.712C68.5279 288.47 68.5279 288.228 68.4976 287.985C68.4673 287.743 68.4219 287.515 68.3461 287.303C68.2704 287.091 68.1492 286.879 67.9976 286.682C67.8007 286.394 67.528 286.197 67.1946 286.061C66.8613 285.925 66.4825 285.864 66.028 285.864C65.6795 285.864 65.3765 285.925 65.119 286.015C64.8614 286.106 64.6493 286.228 64.4675 286.364C64.2857 286.5 64.1644 286.637 64.0584 286.773C63.9675 286.909 63.8917 287.015 63.8614 287.091V286.031H62.2857V294.106H63.8614V289.137C63.8614 288.97 63.8614 288.788 63.8917 288.576C63.9069 288.379 63.9675 288.182 64.0432 287.985C64.119 287.788 64.2402 287.622 64.4069 287.455C64.5432 287.334 64.6947 287.228 64.8765 287.167C65.0432 287.091 65.2553 287.061 65.4977 287.061C65.8462 287.061 66.1189 287.122 66.331 287.228C66.528 287.334 66.6795 287.485 66.7704 287.667C66.8613 287.849 66.9219 288.061 66.9522 288.288C66.9825 288.515 66.9825 288.743 66.9825 289V294.106H68.5279V294.137ZM59.1495 289.455H55.7405C55.7405 289.455 55.7405 289.379 55.7405 289.258C55.7405 289.137 55.7556 288.985 55.786 288.803C55.8163 288.621 55.8617 288.425 55.9375 288.228C56.0132 288.031 56.1041 287.834 56.2405 287.667C56.3768 287.485 56.5435 287.349 56.7556 287.243C56.9677 287.137 57.2253 287.091 57.5283 287.106C57.801 287.106 58.0434 287.182 58.2253 287.288C58.4222 287.394 58.5737 287.546 58.6949 287.728C58.8162 287.909 58.9071 288.091 58.9677 288.288C59.0283 288.485 59.0737 288.667 59.104 288.849C59.1343 289.031 59.1495 289.167 59.1495 289.288C59.1495 289.409 59.1495 289.47 59.1495 289.485V289.455ZM60.71 290.531V290.076C60.71 289.864 60.71 289.621 60.6797 289.334C60.6646 289.046 60.604 288.743 60.5434 288.425C60.4676 288.106 60.3615 287.803 60.2252 287.5C60.0888 287.197 59.8919 286.925 59.6646 286.682C59.4373 286.44 59.1343 286.243 58.7858 286.091C58.4374 285.94 58.0131 285.879 57.5283 285.879C57.0283 285.879 56.589 285.955 56.2253 286.091C55.8617 286.228 55.5435 286.425 55.286 286.667C55.0284 286.909 54.8163 287.182 54.6648 287.485C54.4981 287.788 54.3769 288.091 54.286 288.425C54.1951 288.743 54.1345 289.061 54.1042 289.349C54.0739 289.652 54.0587 289.925 54.0587 290.152C54.0587 290.379 54.0588 290.637 54.1042 290.924C54.1345 291.212 54.1951 291.5 54.286 291.803C54.3769 292.106 54.5133 292.409 54.6799 292.697C54.8617 292.985 55.089 293.243 55.3769 293.485C55.6647 293.712 56.0132 293.909 56.4374 294.031C56.8617 294.167 57.3617 294.243 57.9374 294.243C58.3162 294.243 58.6495 294.212 58.9374 294.152C59.2252 294.091 59.4676 294.031 59.6646 293.955C59.8616 293.879 60.0131 293.818 60.1191 293.758C60.2252 293.697 60.2858 293.652 60.3161 293.637L60.5434 292.212C60.5434 292.212 60.4525 292.273 60.3616 292.349C60.2555 292.424 60.1191 292.5 59.9222 292.591C59.7404 292.682 59.4979 292.758 59.2101 292.818C58.9222 292.879 58.5889 292.909 58.2101 292.894C57.7556 292.894 57.3768 292.818 57.0738 292.697C56.7708 292.576 56.5284 292.424 56.3465 292.243C56.1647 292.061 56.0284 291.864 55.9526 291.667C55.8617 291.47 55.8011 291.273 55.786 291.106C55.7556 290.94 55.7405 290.803 55.7557 290.712V290.515H60.7252L60.71 290.531ZM51.1498 286.97C51.1498 287.318 51.1195 287.622 51.0437 287.879C50.9679 288.122 50.8619 288.334 50.7104 288.515C50.5892 288.682 50.4377 288.803 50.3013 288.894C50.1498 288.985 50.0134 289.061 49.8619 289.091C49.7256 289.137 49.5892 289.167 49.4832 289.167C49.3771 289.167 49.3013 289.182 49.2559 289.182H47.6044V284.697H49.2559C49.3771 284.697 49.5135 284.697 49.665 284.728C49.8316 284.758 49.9983 284.803 50.1649 284.879C50.3316 284.955 50.4983 285.076 50.6498 285.243C50.8013 285.409 50.9225 285.637 51.0134 285.909C51.1043 286.182 51.1498 286.546 51.1498 286.97ZM53.0285 286.97C53.0285 286.379 52.9527 285.864 52.8164 285.44C52.68 285.015 52.483 284.652 52.2406 284.364C51.9982 284.076 51.7103 283.849 51.3922 283.682C51.074 283.515 50.7104 283.394 50.3468 283.319C49.968 283.243 49.5892 283.212 49.1801 283.212H45.8015V294.121H47.6196V290.652H49.2407C49.5589 290.652 49.8771 290.637 50.2104 290.591C50.5286 290.546 50.8467 290.455 51.1649 290.318C51.4831 290.182 51.7861 289.97 52.074 289.682C52.377 289.409 52.6042 289.031 52.7709 288.576C52.9376 288.122 53.0285 287.576 53.0285 286.97ZM137.177 291.728C137.177 291.924 137.132 292.106 137.041 292.243C136.95 292.394 136.829 292.531 136.677 292.637C136.525 292.743 136.359 292.834 136.162 292.909C136.056 292.955 135.95 292.985 135.844 293C135.738 293.015 135.647 293.031 135.556 293.031C135.298 293.031 135.056 292.985 134.844 292.894C134.632 292.803 134.465 292.652 134.344 292.455C134.207 292.258 134.147 292 134.147 291.697C134.147 291.621 134.147 291.531 134.147 291.455C134.147 291.364 134.177 291.288 134.192 291.212C134.268 290.97 134.404 290.773 134.601 290.606C134.798 290.455 135.026 290.334 135.313 290.273C135.601 290.197 135.919 290.167 136.283 290.167C136.45 290.167 136.601 290.167 136.722 290.182C136.859 290.182 136.965 290.212 137.041 290.228C137.116 290.228 137.162 290.243 137.162 290.258V291.728H137.177ZM138.753 294.137V288.834C138.753 288.485 138.738 288.182 138.692 287.925C138.647 287.667 138.586 287.44 138.48 287.243C138.374 287.046 138.238 286.849 138.056 286.667C137.813 286.425 137.495 286.228 137.101 286.076C136.692 285.925 136.207 285.849 135.616 285.849C135.268 285.849 134.965 285.879 134.692 285.94C134.435 285.985 134.207 286.061 134.026 286.122C133.844 286.197 133.707 286.258 133.617 286.303C133.526 286.364 133.48 286.379 133.48 286.379L133.207 287.803C133.207 287.803 133.253 287.758 133.344 287.697C133.435 287.622 133.556 287.546 133.738 287.455C133.92 287.364 134.132 287.273 134.389 287.197C134.647 287.122 134.95 287.076 135.283 287.076C135.707 287.076 136.056 287.122 136.313 287.212C136.571 287.303 136.768 287.425 136.874 287.591C136.98 287.728 137.056 287.864 137.086 288C137.132 288.137 137.147 288.273 137.147 288.409C137.147 288.546 137.147 288.652 137.147 288.758V289.167C137.147 289.167 137.101 289.167 137.025 289.152C136.95 289.152 136.829 289.137 136.692 289.121C136.556 289.121 136.389 289.106 136.222 289.106C135.919 289.106 135.601 289.121 135.298 289.167C134.98 289.212 134.692 289.273 134.404 289.379C134.116 289.47 133.844 289.606 133.601 289.773C133.359 289.94 133.147 290.137 132.98 290.379C132.844 290.576 132.738 290.773 132.677 290.97C132.601 291.167 132.571 291.334 132.541 291.5C132.51 291.667 132.51 291.788 132.51 291.894C132.51 292.061 132.526 292.243 132.571 292.455C132.617 292.667 132.677 292.864 132.783 293.076C132.874 293.288 133.01 293.485 133.192 293.652C133.374 293.834 133.586 293.97 133.859 294.091C134.116 294.212 134.435 294.273 134.813 294.288C135.207 294.288 135.571 294.258 135.874 294.152C136.192 294.061 136.465 293.924 136.692 293.743C136.919 293.561 137.116 293.349 137.283 293.121V293.591C137.283 293.667 137.283 293.743 137.283 293.818C137.283 293.894 137.328 293.97 137.389 294.031C137.435 294.076 137.495 294.106 137.571 294.137C137.647 294.152 137.707 294.167 137.768 294.167C137.828 294.167 137.874 294.167 137.904 294.167H138.753V294.137ZM132.435 287.712L132.207 286.243C132.132 286.197 132.071 286.152 132.011 286.122C131.95 286.091 131.904 286.061 131.859 286.046C131.814 286.031 131.753 286 131.677 285.985C131.586 285.97 131.511 285.955 131.45 285.94C131.389 285.94 131.314 285.94 131.238 285.94C131.101 285.94 130.98 285.94 130.859 285.955C130.738 285.97 130.617 286 130.495 286.061C130.374 286.106 130.268 286.182 130.162 286.288C130.041 286.409 129.935 286.515 129.859 286.637C129.783 286.758 129.723 286.864 129.677 286.955C129.632 287.046 129.601 287.122 129.586 287.167V286.076H128.011V294.152H129.586V289.561C129.586 289.425 129.586 289.273 129.586 289.091C129.586 288.925 129.617 288.743 129.647 288.561C129.692 288.379 129.753 288.197 129.829 288.015C129.92 287.864 130.011 287.743 130.147 287.622C130.268 287.5 130.42 287.409 130.586 287.349C130.753 287.288 130.95 287.243 131.162 287.243C131.42 287.243 131.662 287.288 131.859 287.379C132.056 287.47 132.253 287.576 132.42 287.728L132.435 287.712ZM124.632 291.728C124.632 291.924 124.587 292.106 124.496 292.243C124.405 292.394 124.284 292.531 124.132 292.637C123.98 292.743 123.814 292.834 123.617 292.909C123.511 292.955 123.405 292.985 123.299 293C123.193 293.015 123.087 293.031 123.011 293.031C122.753 293.031 122.511 292.985 122.299 292.894C122.087 292.803 121.92 292.652 121.799 292.455C121.678 292.258 121.602 292 121.602 291.697C121.602 291.621 121.602 291.531 121.602 291.455C121.602 291.364 121.632 291.288 121.647 291.212C121.723 290.97 121.859 290.773 122.056 290.606C122.253 290.455 122.481 290.334 122.768 290.273C123.056 290.197 123.374 290.167 123.738 290.167C123.905 290.167 124.056 290.167 124.177 290.182C124.314 290.182 124.42 290.212 124.496 290.228C124.571 290.228 124.617 290.243 124.617 290.258V291.728H124.632ZM126.208 294.137V288.834C126.208 288.485 126.193 288.182 126.147 287.925C126.102 287.667 126.041 287.44 125.935 287.243C125.829 287.046 125.693 286.849 125.511 286.667C125.268 286.425 124.95 286.228 124.556 286.076C124.147 285.925 123.662 285.849 123.071 285.849C122.723 285.849 122.42 285.879 122.147 285.94C121.89 285.985 121.662 286.061 121.481 286.122C121.299 286.197 121.162 286.258 121.071 286.303C120.981 286.364 120.935 286.379 120.935 286.379L120.647 287.803C120.647 287.803 120.693 287.758 120.784 287.697C120.875 287.622 120.996 287.546 121.178 287.455C121.359 287.364 121.571 287.273 121.829 287.197C122.087 287.122 122.39 287.076 122.723 287.076C123.147 287.076 123.496 287.122 123.753 287.212C124.011 287.303 124.208 287.425 124.314 287.591C124.42 287.728 124.496 287.864 124.526 288C124.571 288.137 124.587 288.273 124.587 288.409C124.587 288.546 124.587 288.652 124.587 288.758V289.167C124.587 289.167 124.541 289.167 124.465 289.152C124.39 289.152 124.268 289.137 124.132 289.121C123.996 289.121 123.829 289.106 123.662 289.106C123.359 289.106 123.041 289.121 122.738 289.167C122.42 289.212 122.132 289.273 121.844 289.379C121.556 289.47 121.284 289.606 121.041 289.773C120.799 289.94 120.587 290.137 120.42 290.379C120.284 290.576 120.178 290.773 120.117 290.97C120.041 291.167 120.011 291.334 119.981 291.5C119.95 291.667 119.95 291.788 119.95 291.894C119.95 292.061 119.965 292.243 120.011 292.455C120.056 292.667 120.117 292.864 120.223 293.076C120.314 293.288 120.45 293.485 120.632 293.652C120.814 293.834 121.026 293.97 121.299 294.091C121.556 294.212 121.89 294.273 122.253 294.288C122.647 294.288 123.011 294.258 123.314 294.152C123.632 294.061 123.905 293.924 124.132 293.743C124.359 293.561 124.556 293.349 124.708 293.121V293.591C124.708 293.667 124.708 293.743 124.723 293.818C124.723 293.894 124.768 293.97 124.829 294.031C124.874 294.076 124.935 294.106 125.011 294.137C125.087 294.152 125.147 294.167 125.208 294.167C125.268 294.167 125.314 294.167 125.344 294.167H126.193L126.208 294.137ZM117.375 294.818C117.375 295 117.329 295.167 117.223 295.303C117.117 295.44 116.981 295.546 116.814 295.637C116.647 295.727 116.45 295.788 116.253 295.834C116.057 295.879 115.844 295.894 115.647 295.894C115.254 295.894 114.92 295.849 114.632 295.758C114.344 295.667 114.132 295.531 113.966 295.379C113.814 295.212 113.738 295.015 113.738 294.788C113.738 294.637 113.769 294.5 113.814 294.364C113.86 294.243 113.92 294.137 113.996 294.046C114.072 293.955 114.132 293.894 114.178 293.849C114.238 293.803 114.254 293.773 114.269 293.773H115.647C115.996 293.773 116.284 293.818 116.511 293.879C116.738 293.94 116.905 294.015 117.041 294.121C117.163 294.227 117.253 294.334 117.314 294.455C117.36 294.576 117.39 294.697 117.39 294.834L117.375 294.818ZM117.178 288.712C117.178 289.076 117.117 289.379 116.996 289.637C116.875 289.894 116.693 290.091 116.45 290.228C116.208 290.364 115.905 290.44 115.541 290.44C115.238 290.44 114.981 290.364 114.754 290.212C114.541 290.061 114.375 289.864 114.269 289.606C114.163 289.349 114.102 289.046 114.102 288.712C114.102 288.379 114.163 288.046 114.269 287.803C114.375 287.561 114.541 287.364 114.769 287.243C114.996 287.122 115.269 287.046 115.617 287.061C115.905 287.061 116.163 287.122 116.36 287.212C116.557 287.303 116.723 287.44 116.844 287.591C116.966 287.743 117.056 287.925 117.102 288.122C117.163 288.318 117.178 288.515 117.178 288.712ZM118.95 294.743C118.95 293.985 118.693 293.44 118.147 293.076C117.602 292.712 116.799 292.531 115.738 292.546C115.617 292.546 115.481 292.546 115.314 292.546C115.147 292.546 114.981 292.546 114.799 292.546C114.617 292.546 114.466 292.515 114.314 292.485C114.163 292.455 114.041 292.409 113.951 292.334C113.86 292.258 113.814 292.167 113.799 292.046C113.799 291.909 113.844 291.803 113.951 291.728C114.041 291.652 114.178 291.606 114.344 291.576C114.511 291.546 114.708 291.531 114.92 291.531C115.132 291.531 115.36 291.531 115.617 291.531C116.284 291.531 116.86 291.409 117.329 291.182C117.799 290.955 118.147 290.637 118.405 290.197C118.647 289.773 118.769 289.258 118.769 288.667V286.046H117.966C117.966 286.046 117.829 286.046 117.769 286.046C117.693 286.046 117.632 286.061 117.556 286.091C117.481 286.122 117.42 286.182 117.36 286.258C117.299 286.334 117.269 286.425 117.253 286.515C117.253 286.606 117.238 286.682 117.253 286.743V286.849C117.253 286.849 117.238 286.818 117.193 286.758C117.147 286.697 117.087 286.622 116.981 286.531C116.875 286.44 116.753 286.349 116.587 286.258C116.42 286.167 116.223 286.091 115.996 286.015C115.754 285.955 115.481 285.925 115.163 285.925C114.951 285.925 114.738 285.94 114.511 286C114.284 286.046 114.057 286.137 113.829 286.258C113.602 286.379 113.405 286.546 113.223 286.758C113.041 286.97 112.905 287.228 112.799 287.546C112.693 287.864 112.648 288.243 112.648 288.697C112.648 289 112.693 289.273 112.769 289.515C112.845 289.758 112.951 289.955 113.057 290.121C113.178 290.288 113.284 290.425 113.405 290.531C113.526 290.637 113.617 290.728 113.693 290.773C113.769 290.818 113.814 290.849 113.814 290.849C113.814 290.849 113.754 290.849 113.663 290.864C113.557 290.879 113.435 290.909 113.299 290.97C113.148 291.015 113.011 291.091 112.86 291.197C112.708 291.303 112.587 291.44 112.496 291.606C112.405 291.773 112.345 292 112.345 292.258C112.345 292.455 112.345 292.621 112.405 292.758C112.451 292.894 112.526 293.015 112.617 293.106C112.708 293.197 112.799 293.273 112.905 293.318C113.011 293.379 113.102 293.409 113.208 293.44C113.208 293.44 113.178 293.455 113.117 293.5C113.057 293.531 112.981 293.591 112.905 293.667C112.814 293.743 112.738 293.849 112.648 293.97C112.557 294.091 112.496 294.243 112.435 294.409C112.375 294.576 112.345 294.773 112.345 295C112.345 295.394 112.481 295.727 112.738 296.03C112.996 296.334 113.375 296.561 113.86 296.743C114.36 296.909 114.966 297 115.678 297C116.117 297 116.541 296.955 116.92 296.864C117.314 296.773 117.663 296.637 117.966 296.455C118.269 296.273 118.511 296.03 118.693 295.743C118.875 295.455 118.966 295.121 118.996 294.727L118.95 294.743ZM109.481 294.818C109.481 295 109.436 295.167 109.329 295.303C109.223 295.44 109.087 295.546 108.92 295.637C108.754 295.727 108.557 295.788 108.36 295.834C108.148 295.879 107.951 295.894 107.754 295.894C107.36 295.894 107.027 295.849 106.739 295.758C106.451 295.667 106.239 295.531 106.072 295.379C105.921 295.212 105.845 295.015 105.845 294.788C105.845 294.637 105.875 294.5 105.936 294.364C105.981 294.243 106.042 294.137 106.117 294.046C106.193 293.955 106.254 293.894 106.299 293.849C106.36 293.803 106.375 293.773 106.375 293.773H107.754C108.102 293.773 108.39 293.818 108.617 293.879C108.845 293.94 109.011 294.015 109.148 294.121C109.269 294.227 109.36 294.334 109.42 294.455C109.466 294.576 109.496 294.697 109.496 294.834L109.481 294.818ZM109.284 288.712C109.284 289.076 109.223 289.379 109.102 289.637C108.981 289.894 108.799 290.091 108.557 290.228C108.314 290.364 108.011 290.44 107.663 290.44C107.36 290.44 107.102 290.364 106.875 290.212C106.663 290.061 106.496 289.864 106.39 289.606C106.284 289.349 106.224 289.046 106.224 288.712C106.224 288.379 106.284 288.046 106.39 287.803C106.496 287.561 106.663 287.364 106.89 287.243C107.117 287.122 107.39 287.046 107.739 287.061C108.042 287.061 108.284 287.122 108.481 287.212C108.678 287.303 108.845 287.44 108.966 287.591C109.087 287.743 109.178 287.925 109.223 288.122C109.284 288.318 109.299 288.515 109.299 288.712H109.284ZM111.057 294.743C111.057 293.985 110.799 293.44 110.254 293.076C109.708 292.712 108.905 292.531 107.845 292.546C107.723 292.546 107.587 292.546 107.42 292.546C107.254 292.546 107.087 292.546 106.905 292.546C106.724 292.546 106.572 292.515 106.421 292.485C106.269 292.455 106.148 292.409 106.057 292.334C105.966 292.258 105.921 292.167 105.905 292.046C105.905 291.909 105.951 291.803 106.057 291.728C106.148 291.652 106.284 291.606 106.451 291.576C106.617 291.546 106.814 291.531 107.027 291.531C107.239 291.531 107.466 291.531 107.723 291.531C108.39 291.531 108.966 291.409 109.436 291.182C109.905 290.955 110.254 290.637 110.511 290.197C110.754 289.773 110.875 289.258 110.875 288.667V286.046H110.072C110.072 286.046 109.936 286.046 109.875 286.046C109.799 286.046 109.739 286.061 109.663 286.091C109.587 286.122 109.526 286.182 109.451 286.258C109.39 286.334 109.36 286.425 109.345 286.515C109.345 286.606 109.329 286.682 109.329 286.743V286.849C109.329 286.849 109.314 286.818 109.269 286.758C109.223 286.697 109.163 286.622 109.057 286.531C108.951 286.44 108.83 286.349 108.663 286.258C108.496 286.167 108.299 286.091 108.057 286.015C107.814 285.955 107.542 285.925 107.224 285.925C107.011 285.925 106.799 285.94 106.572 286C106.345 286.046 106.117 286.137 105.89 286.258C105.663 286.379 105.466 286.546 105.284 286.758C105.102 286.97 104.966 287.228 104.86 287.546C104.754 287.864 104.708 288.243 104.708 288.697C104.708 289 104.754 289.273 104.83 289.515C104.905 289.758 105.011 289.955 105.118 290.121C105.239 290.288 105.345 290.425 105.466 290.531C105.587 290.637 105.678 290.728 105.754 290.773C105.83 290.818 105.875 290.849 105.875 290.849C105.875 290.849 105.814 290.849 105.724 290.864C105.618 290.879 105.496 290.909 105.36 290.97C105.208 291.015 105.072 291.091 104.921 291.197C104.769 291.303 104.648 291.44 104.557 291.606C104.466 291.773 104.405 292 104.405 292.258C104.405 292.455 104.405 292.621 104.466 292.758C104.511 292.894 104.587 293.015 104.678 293.106C104.769 293.197 104.86 293.273 104.966 293.318C105.072 293.379 105.163 293.409 105.254 293.44C105.254 293.44 105.224 293.455 105.163 293.5C105.102 293.531 105.042 293.591 104.951 293.667C104.86 293.743 104.784 293.849 104.693 293.97C104.602 294.091 104.542 294.243 104.481 294.409C104.421 294.576 104.39 294.773 104.39 295C104.39 295.394 104.527 295.727 104.784 296.03C105.042 296.334 105.421 296.561 105.905 296.743C106.405 296.909 107.011 297 107.723 297C108.163 297 108.587 296.955 108.966 296.864C109.36 296.773 109.708 296.637 110.011 296.455C110.314 296.273 110.557 296.03 110.739 295.743C110.92 295.455 111.011 295.121 111.042 294.727L111.057 294.743ZM41.0895 294.137V288.712C41.0895 288.47 41.0895 288.228 41.0592 287.985C41.0289 287.743 40.9835 287.515 40.9077 287.303C40.8319 287.091 40.7107 286.879 40.5592 286.682C40.3623 286.394 40.0896 286.197 39.7562 286.061C39.4229 285.925 39.0441 285.864 38.5896 285.864C38.2411 285.864 37.9381 285.925 37.6805 286.015C37.423 286.106 37.2109 286.228 37.029 286.364C36.8472 286.5 36.726 286.637 36.62 286.773C36.5291 286.909 36.4533 287.015 36.423 287.091V286.031H34.8473V294.106H36.423V289.137C36.423 288.97 36.423 288.788 36.4533 288.576C36.4685 288.379 36.5291 288.182 36.6048 287.985C36.6806 287.788 36.8018 287.622 36.9684 287.455C37.1048 287.334 37.2563 287.228 37.4381 287.167C37.6048 287.091 37.8169 287.061 38.0593 287.061C38.4078 287.061 38.6805 287.122 38.8926 287.228C39.0896 287.334 39.2411 287.485 39.332 287.667C39.4229 287.849 39.4835 288.061 39.5138 288.288C39.5441 288.515 39.5441 288.743 39.5441 289V294.106H41.0895V294.137ZM31.4686 291.728C31.4686 291.924 31.4232 292.106 31.3323 292.243C31.2414 292.394 31.1202 292.531 30.9687 292.637C30.8172 292.743 30.6505 292.834 30.4535 292.909C30.3475 292.955 30.2414 292.985 30.1354 293C30.0293 293.015 29.9384 293.031 29.8475 293.031C29.5899 293.031 29.3475 292.985 29.1354 292.894C28.9233 292.803 28.7566 292.652 28.6354 292.455C28.5142 292.258 28.4385 292 28.4385 291.697C28.4385 291.621 28.4385 291.531 28.4385 291.455C28.4385 291.364 28.4688 291.288 28.4839 291.212C28.5597 290.97 28.696 290.773 28.893 290.606C29.0899 290.455 29.3172 290.334 29.6051 290.273C29.8929 290.197 30.2111 290.167 30.5747 290.167C30.7414 290.167 30.8929 290.167 31.0141 290.182C31.1505 290.182 31.2565 290.212 31.3323 290.228C31.408 290.228 31.4535 290.243 31.4535 290.258V291.728H31.4686ZM33.0443 294.137V288.834C33.0443 288.485 33.0292 288.182 32.9837 287.925C32.9383 287.667 32.8777 287.44 32.7716 287.243C32.6656 287.046 32.5292 286.849 32.3474 286.667C32.105 286.425 31.802 286.228 31.3929 286.076C30.9838 285.925 30.499 285.849 29.9081 285.849C29.5596 285.849 29.2566 285.879 28.9839 285.94C28.7263 285.985 28.4991 286.061 28.3172 286.122C28.1354 286.197 27.9991 286.258 27.9082 286.303C27.8173 286.364 27.7718 286.379 27.7718 286.379L27.4839 287.803C27.4839 287.803 27.5294 287.758 27.6203 287.697C27.7112 287.622 27.8324 287.546 28.0142 287.455C28.196 287.364 28.4082 287.273 28.6657 287.197C28.9233 287.122 29.2263 287.076 29.5596 287.076C29.9838 287.076 30.3323 287.122 30.5899 287.212C30.8475 287.303 31.0444 287.425 31.1505 287.591C31.2565 287.728 31.3323 287.864 31.3626 288C31.408 288.137 31.4232 288.273 31.4232 288.409C31.4232 288.546 31.4232 288.652 31.4232 288.758V289.167C31.4232 289.167 31.3777 289.167 31.302 289.152C31.2262 289.152 31.1202 289.137 30.9687 289.121C30.8323 289.121 30.6656 289.106 30.4838 289.106C30.1808 289.106 29.8626 289.121 29.5596 289.167C29.2414 289.212 28.9536 289.273 28.6657 289.379C28.3778 289.47 28.1051 289.606 27.8627 289.773C27.6203 289.94 27.4082 290.137 27.2415 290.379C27.1052 290.576 26.9991 290.773 26.9385 290.97C26.8627 291.167 26.8324 291.334 26.8021 291.5C26.7718 291.667 26.7718 291.788 26.7718 291.894C26.7718 292.061 26.787 292.243 26.8324 292.455C26.8779 292.667 26.9385 292.864 27.0446 293.076C27.1355 293.288 27.2718 293.485 27.4536 293.652C27.6354 293.834 27.8476 293.97 28.1203 294.091C28.3778 294.212 28.7112 294.273 29.0748 294.288C29.4687 294.288 29.8323 294.258 30.1354 294.152C30.4535 294.061 30.7262 293.924 30.9535 293.743C31.1808 293.561 31.3777 293.349 31.5444 293.121V293.591C31.5444 293.667 31.5444 293.743 31.5444 293.818C31.5444 293.894 31.5898 293.97 31.6504 294.031C31.6959 294.076 31.7565 294.106 31.8323 294.137C31.908 294.152 31.9686 294.167 32.0292 294.167C32.0898 294.167 32.1353 294.167 32.1656 294.167H33.014L33.0443 294.137ZM23.5901 292.228C23.5144 292.318 23.4235 292.424 23.3174 292.5C23.2114 292.591 23.0902 292.667 22.9538 292.743C22.7871 292.818 22.6205 292.879 22.469 292.909C22.3175 292.94 22.1508 292.955 21.9841 292.955C21.666 292.955 21.3932 292.879 21.166 292.728C20.9387 292.591 20.7721 292.379 20.6357 292.121C20.4993 291.864 20.4084 291.561 20.3327 291.228C20.2721 290.879 20.2418 290.515 20.2266 290.106C20.2266 289.879 20.2266 289.637 20.2569 289.364C20.2721 289.091 20.3175 288.818 20.3781 288.561C20.4387 288.288 20.5296 288.046 20.6509 287.818C20.7721 287.591 20.9387 287.409 21.1508 287.273C21.3629 287.137 21.6205 287.061 21.9387 287.061C22.2265 287.061 22.4538 287.106 22.6659 287.182C22.8629 287.258 23.0296 287.379 23.1508 287.515C23.272 287.637 23.3477 287.788 23.4235 287.94C23.4841 288.091 23.5295 288.258 23.5447 288.425C23.5598 288.591 23.575 288.758 23.575 288.909V292.197L23.5901 292.228ZM25.1658 294.137V283.182H23.5901V286.818C23.5901 286.818 23.575 286.788 23.5295 286.728C23.4841 286.667 23.4235 286.591 23.3477 286.5C23.2568 286.409 23.1356 286.318 22.9993 286.228C22.8477 286.137 22.6659 286.061 22.4538 286C22.2417 285.94 21.969 285.909 21.6811 285.909C21.2569 285.909 20.8933 285.985 20.5751 286.106C20.2569 286.243 19.9842 286.425 19.7569 286.652C19.5297 286.879 19.3327 287.137 19.1812 287.425C19.0297 287.712 18.9085 288.015 18.8176 288.334C18.7267 288.652 18.6661 288.97 18.6206 289.273C18.5752 289.591 18.56 289.879 18.56 290.152C18.56 290.591 18.5903 291.015 18.6661 291.424C18.7418 291.834 18.8479 292.212 18.9842 292.561C19.1357 292.909 19.3327 293.212 19.5751 293.47C19.8175 293.727 20.1054 293.924 20.4387 294.076C20.7872 294.212 21.1811 294.288 21.6357 294.273C21.9235 294.273 22.1811 294.227 22.4235 294.152C22.6508 294.076 22.878 293.97 23.075 293.834C23.272 293.697 23.4841 293.531 23.6659 293.349V294.152H25.1658V294.137ZM15.3783 291.728C15.3783 291.924 15.3329 292.106 15.2419 292.243C15.151 292.394 15.0298 292.531 14.8783 292.637C14.7268 292.743 14.5602 292.834 14.3632 292.909C14.2571 292.955 14.1511 292.985 14.045 293C13.939 293.015 13.8329 293.031 13.7572 293.031C13.4996 293.031 13.2572 292.985 13.0451 292.894C12.8329 292.803 12.6663 292.652 12.5451 292.455C12.4239 292.258 12.3481 292 12.3481 291.697C12.3481 291.621 12.3481 291.531 12.3481 291.455C12.3481 291.364 12.3784 291.288 12.3936 291.212C12.4693 290.97 12.6057 290.773 12.8026 290.606C12.9996 290.455 13.2269 290.334 13.5147 290.273C13.8026 290.197 14.1208 290.167 14.4844 290.167C14.6511 290.167 14.8026 290.167 14.9238 290.182C15.0601 290.182 15.1662 290.212 15.2419 290.228C15.3177 290.228 15.3632 290.243 15.3632 290.258V291.728H15.3783ZM16.954 294.137V288.834C16.954 288.485 16.9389 288.182 16.8934 287.925C16.848 287.667 16.7873 287.44 16.6813 287.243C16.5904 287.046 16.4389 286.849 16.2571 286.667C16.0147 286.425 15.6965 286.228 15.3026 286.076C14.8935 285.925 14.4086 285.849 13.8178 285.849C13.4693 285.849 13.1663 285.879 12.8935 285.94C12.636 285.985 12.4087 286.061 12.2269 286.122C12.0451 286.197 11.9087 286.258 11.8178 286.303C11.7269 286.364 11.6815 286.379 11.6815 286.379L11.3936 287.803C11.3936 287.803 11.4391 287.758 11.53 287.697C11.6209 287.622 11.7421 287.546 11.9239 287.455C12.1057 287.364 12.3178 287.273 12.5754 287.197C12.8329 287.122 13.136 287.076 13.4693 287.076C13.8935 287.076 14.242 287.122 14.4996 287.212C14.7571 287.303 14.9541 287.425 15.0601 287.591C15.1662 287.728 15.2419 287.864 15.2723 288C15.3177 288.137 15.3329 288.273 15.3329 288.409C15.3329 288.546 15.3329 288.652 15.3329 288.758V289.167C15.3329 289.167 15.2874 289.167 15.2117 289.152C15.1359 289.152 15.0147 289.137 14.8783 289.121C14.742 289.121 14.5753 289.106 14.3935 289.106C14.0905 289.106 13.7723 289.121 13.4693 289.167C13.1511 289.212 12.8632 289.273 12.5754 289.379C12.2875 289.47 12.0148 289.606 11.7724 289.773C11.53 289.94 11.3179 290.137 11.1512 290.379C11.0148 290.576 10.9088 290.773 10.8482 290.97C10.7724 291.167 10.7421 291.334 10.7118 291.5C10.6815 291.667 10.6815 291.788 10.6815 291.894C10.6815 292.061 10.6967 292.243 10.7421 292.455C10.7876 292.667 10.8482 292.864 10.9542 293.076C11.0603 293.288 11.1815 293.485 11.3633 293.652C11.5451 293.834 11.7572 293.97 12.0299 294.091C12.2875 294.212 12.6057 294.273 12.9845 294.288C13.3784 294.288 13.742 294.258 14.045 294.152C14.3632 294.061 14.6359 293.924 14.8632 293.743C15.0904 293.561 15.2874 293.349 15.4541 293.121V293.591C15.4541 293.667 15.4541 293.743 15.4541 293.818C15.4541 293.894 15.4995 293.97 15.5601 294.031C15.6056 294.076 15.6662 294.106 15.7419 294.137C15.8177 294.152 15.8783 294.167 15.9389 294.167C15.9995 294.167 16.045 294.167 16.0753 294.167H16.9237L16.954 294.137ZM7.65131 290.879C7.65131 291.167 7.62101 291.424 7.54526 291.621C7.4695 291.818 7.36345 291.985 7.22709 292.121C7.06043 292.288 6.86346 292.394 6.65135 292.455C6.43923 292.515 6.21197 292.561 5.98471 292.561C5.75744 292.561 5.54533 292.561 5.34836 292.561H3.78782V289.212H5.34836C5.59078 289.212 5.83319 289.212 6.07561 289.243C6.31803 289.258 6.53014 289.303 6.74226 289.379C6.93922 289.455 7.12103 289.561 7.25739 289.712C7.3786 289.849 7.48465 290.015 7.54526 290.212C7.62101 290.394 7.65131 290.621 7.65131 290.879ZM7.25739 286.243C7.25739 286.546 7.19678 286.803 7.10588 287C6.99982 287.197 6.87861 287.349 6.71195 287.455C6.56044 287.576 6.39378 287.652 6.21197 287.697C6.04531 287.743 5.87865 287.773 5.74229 287.788C5.59078 287.788 5.48472 287.803 5.40897 287.788H3.78782V284.682H5.40897C5.40897 284.682 5.56048 284.682 5.66653 284.682C5.77259 284.682 5.8938 284.697 6.03016 284.712C6.15137 284.728 6.28773 284.758 6.40893 284.803C6.53014 284.849 6.6362 284.909 6.71195 284.985C6.89377 285.122 7.03012 285.288 7.12103 285.485C7.21194 285.682 7.25739 285.925 7.25739 286.212V286.243ZM9.53004 290.849C9.53004 290.637 9.51488 290.44 9.46943 290.228C9.42398 290.015 9.34822 289.818 9.24216 289.637C9.13611 289.44 8.99975 289.273 8.81794 289.106C8.60582 288.909 8.36341 288.758 8.10584 288.667C7.84827 288.561 7.57556 288.5 7.31799 288.455C7.4998 288.394 7.66647 288.318 7.84828 288.228C8.03009 288.137 8.1816 288.031 8.33311 287.925C8.48462 287.803 8.60583 287.682 8.71188 287.531C8.83309 287.318 8.93915 287.091 9.0149 286.818C9.09066 286.546 9.13611 286.243 9.13611 285.894C9.13611 285.5 9.0755 285.137 8.93914 284.834C8.81794 284.531 8.63612 284.273 8.42401 284.061C8.2119 283.849 7.96948 283.697 7.69676 283.576C7.36344 283.425 6.99982 283.319 6.6362 283.273C6.27258 283.228 5.8635 283.197 5.43927 283.197H2V294.106H5.40897C5.66654 294.106 5.9544 294.106 6.24227 294.091C6.53014 294.076 6.81801 294.046 7.10588 293.985C7.39375 293.924 7.66646 293.834 7.93918 293.727C8.19675 293.606 8.43916 293.455 8.65128 293.258C8.87854 293.015 9.06035 292.773 9.19671 292.5C9.33307 292.228 9.40883 291.955 9.46943 291.667C9.51488 291.379 9.54518 291.106 9.54518 290.818L9.53004 290.849ZM179.963 294.137V288.712C179.963 288.47 179.963 288.228 179.933 287.985C179.903 287.743 179.857 287.515 179.782 287.303C179.706 287.091 179.585 286.879 179.433 286.682C179.236 286.394 178.963 286.197 178.63 286.061C178.297 285.925 177.918 285.864 177.463 285.864C177.115 285.864 176.812 285.925 176.554 286.015C176.297 286.106 176.085 286.228 175.903 286.364C175.736 286.5 175.6 286.637 175.494 286.773C175.403 286.909 175.327 287.015 175.297 287.091V286.031H173.721V294.106H175.297V289.137C175.297 288.97 175.297 288.788 175.327 288.576C175.342 288.379 175.403 288.182 175.479 287.985C175.554 287.788 175.676 287.622 175.842 287.455C175.979 287.334 176.13 287.228 176.312 287.167C176.479 287.091 176.691 287.061 176.933 287.061C177.282 287.061 177.554 287.122 177.766 287.228C177.963 287.334 178.115 287.485 178.206 287.667C178.297 287.849 178.357 288.061 178.388 288.288C178.418 288.515 178.418 288.743 178.418 289V294.106H179.963V294.137ZM171.827 294.137V286.061H170.267V294.137H171.827ZM171.964 283.985C171.964 283.834 171.918 283.682 171.842 283.576C171.767 283.455 171.661 283.364 171.509 283.303C171.373 283.243 171.206 283.197 171.039 283.197C170.858 283.197 170.706 283.243 170.57 283.319C170.433 283.394 170.327 283.485 170.252 283.606C170.176 283.728 170.13 283.849 170.13 283.985C170.13 284.137 170.161 284.288 170.236 284.409C170.312 284.531 170.403 284.637 170.539 284.697C170.676 284.773 170.842 284.803 171.055 284.803C171.236 284.803 171.403 284.758 171.539 284.697C171.676 284.622 171.782 284.531 171.858 284.409C171.933 284.288 171.979 284.137 171.979 283.985H171.964ZM168.418 294.137V288.743C168.418 288.561 168.418 288.349 168.388 288.122C168.373 287.894 168.327 287.667 168.267 287.455C168.206 287.228 168.1 287.015 167.979 286.803C167.858 286.591 167.676 286.425 167.464 286.258C167.267 286.122 167.04 286.015 166.797 285.955C166.555 285.894 166.327 285.864 166.085 285.864C165.767 285.864 165.479 285.909 165.237 286C164.994 286.091 164.782 286.182 164.6 286.318C164.418 286.44 164.282 286.576 164.161 286.697C164.04 286.834 163.964 286.94 163.903 287.046C163.843 287.152 163.812 287.212 163.797 287.228C163.797 287.182 163.767 287.106 163.721 287C163.676 286.894 163.6 286.773 163.494 286.637C163.403 286.5 163.267 286.379 163.1 286.258C162.964 286.167 162.812 286.091 162.646 286.031C162.479 285.97 162.328 285.925 162.161 285.909C161.994 285.879 161.843 285.879 161.706 285.879C161.373 285.879 161.07 285.925 160.828 286.015C160.57 286.106 160.373 286.212 160.191 286.349C160.025 286.485 159.888 286.622 159.782 286.773C159.676 286.909 159.616 287.046 159.585 287.152V286.061H158.025V294.137H159.585V289.182C159.585 288.849 159.616 288.576 159.661 288.349C159.706 288.137 159.782 287.955 159.873 287.818C159.949 287.682 160.055 287.576 160.146 287.485C160.267 287.364 160.388 287.288 160.54 287.212C160.691 287.152 160.858 287.106 161.055 287.106C161.297 287.106 161.494 287.137 161.631 287.197C161.782 287.258 161.903 287.318 161.994 287.425C162.115 287.531 162.206 287.652 162.282 287.803C162.358 287.94 162.403 288.122 162.434 288.318C162.464 288.515 162.479 288.758 162.479 289.031V294.137H164.009V289.182C164.009 289 164.009 288.803 164.025 288.606C164.04 288.409 164.085 288.212 164.161 288.015C164.237 287.818 164.358 287.652 164.524 287.485C164.646 287.364 164.797 287.273 164.964 287.212C165.115 287.152 165.282 287.122 165.464 287.122C165.661 287.122 165.827 287.137 165.994 287.182C166.146 287.228 166.297 287.303 166.434 287.425C166.54 287.531 166.63 287.637 166.676 287.743C166.737 287.849 166.767 287.925 166.782 287.985C166.797 288.061 166.827 288.152 166.843 288.258C166.858 288.364 166.873 288.5 166.888 288.621C166.888 288.758 166.903 288.894 166.903 289.031V294.137H168.433H168.418ZM154.601 291.728C154.601 291.924 154.555 292.106 154.464 292.243C154.373 292.394 154.252 292.531 154.101 292.637C153.949 292.743 153.782 292.834 153.585 292.909C153.479 292.955 153.373 292.985 153.267 293C153.161 293.015 153.07 293.031 152.979 293.031C152.722 293.031 152.479 292.985 152.267 292.894C152.055 292.803 151.889 292.652 151.767 292.455C151.646 292.258 151.57 292 151.57 291.697C151.57 291.621 151.57 291.531 151.57 291.455C151.57 291.364 151.601 291.288 151.616 291.212C151.692 290.97 151.828 290.773 152.025 290.606C152.222 290.455 152.449 290.334 152.737 290.273C153.025 290.197 153.343 290.167 153.707 290.167C153.873 290.167 154.025 290.167 154.146 290.182C154.282 290.182 154.388 290.212 154.464 290.228C154.54 290.228 154.585 290.243 154.585 290.258V291.728H154.601ZM156.176 294.137V288.834C156.176 288.485 156.161 288.182 156.116 287.925C156.07 287.667 156.01 287.44 155.904 287.243C155.813 287.046 155.661 286.849 155.479 286.667C155.237 286.425 154.919 286.228 154.525 286.076C154.116 285.925 153.631 285.849 153.04 285.849C152.692 285.849 152.389 285.879 152.116 285.94C151.858 285.985 151.631 286.061 151.449 286.122C151.267 286.197 151.131 286.258 151.04 286.303C150.949 286.364 150.904 286.379 150.904 286.379L150.631 287.803C150.631 287.803 150.677 287.758 150.767 287.697C150.858 287.622 150.98 287.546 151.161 287.455C151.343 287.364 151.555 287.273 151.813 287.197C152.07 287.122 152.373 287.076 152.707 287.076C153.131 287.076 153.479 287.122 153.737 287.212C153.995 287.303 154.192 287.425 154.298 287.591C154.404 287.728 154.479 287.864 154.51 288C154.555 288.137 154.57 288.273 154.57 288.409C154.57 288.546 154.57 288.652 154.57 288.758V289.167C154.57 289.167 154.525 289.167 154.449 289.152C154.373 289.152 154.267 289.137 154.116 289.121C153.979 289.121 153.813 289.106 153.631 289.106C153.328 289.106 153.01 289.121 152.707 289.167C152.389 289.212 152.101 289.273 151.813 289.379C151.525 289.47 151.252 289.606 151.01 289.773C150.767 289.94 150.555 290.137 150.389 290.379C150.252 290.576 150.146 290.773 150.086 290.97C150.01 291.167 149.964 291.334 149.949 291.5C149.919 291.667 149.919 291.788 149.919 291.894C149.919 292.061 149.934 292.243 149.98 292.455C150.025 292.667 150.086 292.864 150.192 293.076C150.283 293.288 150.419 293.485 150.601 293.652C150.783 293.834 150.995 293.97 151.267 294.091C151.525 294.212 151.843 294.273 152.222 294.288C152.616 294.288 152.979 294.258 153.282 294.152C153.601 294.061 153.873 293.924 154.101 293.743C154.328 293.561 154.525 293.349 154.692 293.121V293.591C154.692 293.667 154.692 293.743 154.707 293.818C154.707 293.894 154.752 293.97 154.813 294.031C154.858 294.076 154.919 294.106 154.995 294.137C155.07 294.152 155.131 294.167 155.191 294.167C155.252 294.167 155.298 294.167 155.328 294.167H156.176V294.137ZM148.555 290.167V283.228H146.737V290.167C146.737 290.409 146.737 290.667 146.722 290.924C146.722 291.182 146.677 291.44 146.616 291.667C146.571 291.909 146.48 292.121 146.374 292.318C146.222 292.546 146.025 292.728 145.783 292.849C145.54 292.97 145.252 293.031 144.934 293.031C144.692 293.031 144.465 293 144.268 292.955C144.056 292.909 143.874 292.849 143.707 292.788C143.556 292.728 143.419 292.667 143.328 292.621C143.237 292.576 143.192 292.546 143.177 292.531L143.571 294.106C143.571 294.106 143.616 294.121 143.692 294.167C143.768 294.212 143.874 294.258 144.025 294.303C144.177 294.349 144.359 294.409 144.556 294.44C144.768 294.485 144.995 294.5 145.268 294.5C145.374 294.5 145.51 294.5 145.692 294.5C145.874 294.5 146.071 294.455 146.283 294.409C146.495 294.364 146.707 294.288 146.934 294.182C147.146 294.076 147.343 293.94 147.525 293.773C147.707 293.606 147.874 293.409 147.995 293.197C148.131 292.985 148.237 292.743 148.328 292.455C148.419 292.182 148.48 291.849 148.51 291.47C148.555 291.091 148.571 290.652 148.571 290.152L148.555 290.167ZM195.766 294.137V288.712C195.766 288.47 195.766 288.228 195.735 287.985C195.705 287.743 195.66 287.515 195.584 287.303C195.508 287.091 195.387 286.879 195.236 286.682C195.039 286.394 194.766 286.197 194.433 286.061C194.099 285.925 193.72 285.864 193.266 285.864C192.917 285.864 192.614 285.925 192.357 286.015C192.099 286.106 191.887 286.228 191.705 286.364C191.539 286.5 191.402 286.637 191.296 286.773C191.205 286.909 191.13 287.015 191.099 287.091V286.031H189.524V294.106H191.099V289.137C191.099 288.97 191.099 288.788 191.13 288.576C191.145 288.379 191.205 288.182 191.281 287.985C191.357 287.788 191.478 287.622 191.645 287.455C191.781 287.334 191.933 287.228 192.114 287.167C192.281 287.091 192.493 287.061 192.736 287.061C193.084 287.061 193.357 287.122 193.569 287.228C193.766 287.334 193.917 287.485 194.008 287.667C194.099 287.849 194.16 288.061 194.19 288.288C194.22 288.515 194.22 288.743 194.22 289V294.106H195.766V294.137ZM186.145 291.728C186.145 291.924 186.099 292.106 186.009 292.243C185.918 292.394 185.796 292.531 185.645 292.637C185.493 292.743 185.312 292.834 185.13 292.909C185.024 292.955 184.918 292.985 184.812 293C184.706 293.015 184.6 293.031 184.524 293.031C184.266 293.031 184.024 292.985 183.812 292.894C183.6 292.803 183.433 292.652 183.312 292.455C183.19 292.258 183.115 292 183.115 291.697C183.115 291.621 183.115 291.531 183.115 291.455C183.115 291.364 183.145 291.288 183.16 291.212C183.236 290.97 183.372 290.773 183.569 290.606C183.766 290.455 183.993 290.334 184.281 290.273C184.569 290.197 184.887 290.167 185.251 290.167C185.418 290.167 185.569 290.167 185.69 290.182C185.827 290.182 185.933 290.212 186.009 290.228C186.084 290.228 186.13 290.243 186.13 290.258V291.728H186.145ZM187.721 294.137V288.834C187.721 288.485 187.705 288.182 187.66 287.925C187.615 287.667 187.554 287.44 187.448 287.243C187.357 287.046 187.205 286.849 187.024 286.667C186.781 286.425 186.463 286.228 186.069 286.076C185.66 285.925 185.175 285.849 184.584 285.849C184.236 285.849 183.933 285.879 183.66 285.94C183.403 285.985 183.175 286.061 182.994 286.122C182.812 286.197 182.675 286.258 182.584 286.303C182.494 286.364 182.448 286.379 182.448 286.379L182.16 287.803C182.16 287.803 182.206 287.758 182.297 287.697C182.387 287.622 182.509 287.546 182.691 287.455C182.872 287.364 183.084 287.273 183.342 287.197C183.6 287.122 183.903 287.076 184.236 287.076C184.66 287.076 185.009 287.122 185.266 287.212C185.524 287.303 185.721 287.425 185.827 287.591C185.933 287.728 186.009 287.864 186.039 288C186.084 288.137 186.099 288.273 186.099 288.409C186.099 288.546 186.099 288.652 186.099 288.758V289.167C186.099 289.167 186.054 289.167 185.978 289.152C185.903 289.152 185.781 289.137 185.645 289.121C185.509 289.121 185.342 289.106 185.175 289.106C184.872 289.106 184.554 289.121 184.251 289.167C183.933 289.212 183.645 289.273 183.357 289.379C183.069 289.47 182.797 289.606 182.554 289.773C182.312 289.94 182.1 290.137 181.933 290.379C181.797 290.576 181.691 290.773 181.63 290.97C181.554 291.167 181.524 291.334 181.494 291.5C181.463 291.667 181.463 291.788 181.463 291.894C181.463 292.061 181.478 292.243 181.524 292.455C181.569 292.667 181.63 292.864 181.736 293.076C181.827 293.288 181.963 293.485 182.145 293.652C182.327 293.834 182.539 293.97 182.812 294.091C183.069 294.212 183.403 294.273 183.766 294.288C184.16 294.288 184.524 294.258 184.827 294.152C185.145 294.061 185.418 293.924 185.645 293.743C185.872 293.561 186.069 293.349 186.221 293.121V293.591C186.221 293.667 186.221 293.743 186.221 293.818C186.221 293.894 186.266 293.97 186.327 294.031C186.372 294.076 186.433 294.106 186.509 294.137C186.584 294.152 186.645 294.167 186.706 294.167C186.766 294.167 186.812 294.167 186.842 294.167H187.69L187.721 294.137ZM236.976 294.137V283.182H235.446V294.137H236.976ZM231.901 291.728C231.901 291.924 231.855 292.106 231.765 292.243C231.674 292.394 231.552 292.531 231.401 292.637C231.249 292.743 231.083 292.834 230.886 292.909C230.78 292.955 230.674 292.985 230.568 293C230.462 293.015 230.355 293.031 230.28 293.031C230.022 293.031 229.78 292.985 229.568 292.894C229.356 292.803 229.189 292.652 229.068 292.455C228.946 292.258 228.871 292 228.871 291.697C228.871 291.621 228.871 291.531 228.871 291.455C228.871 291.364 228.901 291.288 228.916 291.212C228.992 290.97 229.128 290.773 229.325 290.606C229.522 290.455 229.749 290.334 230.037 290.273C230.325 290.197 230.643 290.167 231.007 290.167C231.174 290.167 231.325 290.167 231.446 290.182C231.583 290.182 231.689 290.212 231.765 290.228C231.84 290.228 231.886 290.243 231.886 290.258V291.728H231.901ZM233.477 294.137V288.834C233.477 288.485 233.461 288.182 233.416 287.925C233.371 287.667 233.31 287.44 233.204 287.243C233.113 287.046 232.961 286.849 232.78 286.667C232.537 286.425 232.219 286.228 231.825 286.076C231.416 285.925 230.931 285.849 230.34 285.849C229.992 285.849 229.689 285.879 229.416 285.94C229.159 285.985 228.931 286.061 228.749 286.122C228.568 286.197 228.431 286.258 228.34 286.303C228.249 286.364 228.204 286.379 228.204 286.379L227.916 287.803C227.916 287.803 227.962 287.758 228.053 287.697C228.143 287.622 228.265 287.546 228.446 287.455C228.613 287.364 228.84 287.273 229.098 287.197C229.356 287.122 229.659 287.076 229.992 287.076C230.416 287.076 230.765 287.122 231.022 287.212C231.28 287.303 231.477 287.425 231.583 287.591C231.689 287.728 231.765 287.864 231.795 288C231.84 288.137 231.855 288.273 231.855 288.409C231.855 288.546 231.855 288.652 231.855 288.758V289.167C231.855 289.167 231.81 289.167 231.734 289.152C231.658 289.152 231.537 289.137 231.401 289.121C231.265 289.121 231.098 289.106 230.916 289.106C230.613 289.106 230.295 289.121 229.992 289.167C229.674 289.212 229.386 289.273 229.098 289.379C228.81 289.47 228.537 289.606 228.295 289.773C228.053 289.94 227.84 290.137 227.674 290.379C227.537 290.576 227.431 290.773 227.371 290.97C227.295 291.167 227.25 291.334 227.234 291.5C227.204 291.667 227.204 291.788 227.204 291.894C227.204 292.061 227.219 292.243 227.265 292.455C227.31 292.667 227.371 292.864 227.477 293.076C227.568 293.288 227.704 293.485 227.886 293.652C228.068 293.834 228.28 293.97 228.553 294.091C228.81 294.212 229.143 294.273 229.507 294.288C229.901 294.288 230.265 294.258 230.568 294.152C230.886 294.061 231.158 293.924 231.386 293.743C231.613 293.561 231.81 293.349 231.977 293.121V293.591C231.977 293.667 231.977 293.743 231.977 293.818C231.977 293.894 232.022 293.97 232.083 294.031C232.128 294.076 232.189 294.106 232.264 294.137C232.34 294.152 232.401 294.167 232.461 294.167C232.522 294.167 232.568 294.167 232.598 294.167H233.446L233.477 294.137ZM225.674 294.137V286.061H224.113V294.137H225.674ZM225.81 283.985C225.81 283.834 225.765 283.682 225.689 283.576C225.613 283.455 225.507 283.364 225.356 283.303C225.219 283.243 225.053 283.197 224.871 283.197C224.689 283.197 224.537 283.243 224.401 283.319C224.265 283.394 224.159 283.485 224.083 283.606C224.007 283.728 223.962 283.849 223.962 283.985C223.962 284.137 223.992 284.288 224.068 284.409C224.144 284.531 224.234 284.637 224.371 284.697C224.507 284.773 224.674 284.803 224.871 284.803C225.053 284.803 225.219 284.758 225.356 284.697C225.492 284.622 225.598 284.531 225.674 284.409C225.75 284.288 225.795 284.137 225.795 283.985H225.81ZM222.598 291.849C222.598 291.455 222.507 291.121 222.341 290.834C222.174 290.546 221.947 290.303 221.644 290.106C221.356 289.909 221.022 289.728 220.659 289.576C220.477 289.5 220.295 289.425 220.098 289.334C219.916 289.258 219.735 289.152 219.568 289.046C219.401 288.94 219.28 288.818 219.174 288.682C219.068 288.546 219.023 288.379 219.023 288.197C219.023 287.864 219.144 287.622 219.356 287.44C219.583 287.273 219.886 287.182 220.295 287.182C220.613 287.182 220.901 287.212 221.144 287.258C221.386 287.318 221.583 287.394 221.75 287.47C221.916 287.561 222.038 287.622 222.113 287.697C222.189 287.758 222.235 287.788 222.235 287.803L222.007 286.47C222.007 286.47 221.977 286.44 221.901 286.379C221.825 286.318 221.704 286.258 221.553 286.182C221.386 286.106 221.174 286.046 220.916 286C220.659 285.955 220.326 285.925 219.947 285.94C219.598 285.94 219.265 285.985 218.962 286.076C218.659 286.167 218.386 286.303 218.159 286.5C217.932 286.682 217.75 286.909 217.614 287.182C217.477 287.455 217.417 287.773 217.417 288.122C217.417 288.485 217.492 288.803 217.614 289.061C217.735 289.318 217.901 289.546 218.113 289.712C218.326 289.894 218.553 290.046 218.795 290.182C219.038 290.303 219.295 290.425 219.538 290.531C219.78 290.637 220.023 290.758 220.219 290.864C220.432 290.985 220.598 291.121 220.719 291.273C220.841 291.424 220.916 291.621 220.916 291.849C220.916 292.212 220.795 292.485 220.568 292.667C220.341 292.849 219.992 292.924 219.507 292.924C219.22 292.924 218.947 292.879 218.674 292.803C218.401 292.728 218.159 292.652 217.947 292.546C217.735 292.455 217.553 292.364 217.432 292.288C217.31 292.212 217.235 292.182 217.235 292.167L217.462 293.697C217.568 293.758 217.72 293.834 217.901 293.909C218.098 294 218.356 294.061 218.659 294.121C218.962 294.182 219.341 294.212 219.765 294.197C220.174 294.197 220.568 294.137 220.932 294.015C221.295 293.894 221.613 293.712 221.901 293.47C222.113 293.288 222.295 293.046 222.416 292.773C222.538 292.485 222.613 292.152 222.613 291.773L222.598 291.849ZM214.462 290.167C214.462 290.743 214.402 291.243 214.28 291.667C214.159 292.091 213.962 292.424 213.72 292.667C213.462 292.909 213.144 293.031 212.75 293.031C212.311 293.031 211.947 292.924 211.674 292.728C211.402 292.515 211.189 292.212 211.068 291.788C210.932 291.364 210.871 290.818 210.871 290.167C210.871 289.773 210.886 289.379 210.932 289.015C210.977 288.652 211.068 288.318 211.205 288.031C211.341 287.743 211.523 287.515 211.78 287.349C212.023 287.182 212.341 287.091 212.75 287.091C213.068 287.091 213.326 287.167 213.538 287.288C213.75 287.409 213.917 287.576 214.038 287.788C214.159 288 214.25 288.228 214.311 288.5C214.371 288.758 214.417 289.031 214.432 289.318C214.447 289.606 214.462 289.894 214.462 290.167ZM216.129 290.137C216.129 289.697 216.098 289.258 216.023 288.849C215.947 288.44 215.841 288.046 215.674 287.697C215.508 287.349 215.311 287.031 215.038 286.758C214.78 286.485 214.447 286.273 214.068 286.122C213.689 285.97 213.235 285.894 212.705 285.879C212.189 285.879 211.735 285.955 211.341 286.106C210.947 286.258 210.614 286.47 210.341 286.728C210.068 287 209.841 287.303 209.674 287.667C209.508 288.031 209.371 288.409 209.296 288.834C209.22 289.258 209.174 289.682 209.174 290.137C209.174 290.758 209.235 291.318 209.356 291.818C209.477 292.318 209.674 292.758 209.962 293.121C210.235 293.485 210.599 293.758 211.053 293.955C211.508 294.152 212.053 294.243 212.689 294.258C213.235 294.258 213.705 294.152 214.129 293.94C214.553 293.727 214.917 293.44 215.205 293.061C215.492 292.682 215.72 292.243 215.871 291.743C216.023 291.243 216.098 290.712 216.098 290.137H216.129ZM208.068 290.985C208.068 290.637 208.008 290.318 207.917 290.031C207.811 289.743 207.659 289.5 207.462 289.273C207.25 289.015 207.023 288.803 206.75 288.621C206.478 288.44 206.205 288.273 205.917 288.137C205.629 288 205.341 287.864 205.053 287.743C204.765 287.622 204.508 287.5 204.266 287.364C204.023 287.243 203.811 287.091 203.644 286.94C203.538 286.834 203.462 286.728 203.402 286.637C203.341 286.546 203.296 286.44 203.281 286.334C203.25 286.228 203.25 286.122 203.25 286C203.25 285.788 203.296 285.591 203.387 285.394C203.478 285.197 203.644 285.015 203.872 284.864C204.023 284.758 204.22 284.682 204.478 284.637C204.72 284.591 205.023 284.561 205.387 284.561C205.568 284.561 205.75 284.561 205.932 284.606C206.114 284.637 206.281 284.667 206.432 284.697C206.659 284.743 206.856 284.803 207.008 284.864C207.159 284.925 207.281 284.97 207.371 285.015C207.462 285.061 207.508 285.091 207.538 285.122L207.174 283.561C207.174 283.561 207.129 283.531 207.038 283.485C206.947 283.44 206.811 283.394 206.629 283.334C206.447 283.288 206.205 283.243 205.917 283.197C205.629 283.152 205.281 283.137 204.872 283.137C204.553 283.137 204.25 283.167 203.932 283.212C203.629 283.273 203.326 283.364 203.053 283.485C202.766 283.606 202.508 283.788 202.266 284C202.053 284.182 201.872 284.394 201.75 284.606C201.614 284.819 201.523 285.046 201.463 285.273C201.402 285.5 201.372 285.728 201.372 285.955C201.372 286.212 201.402 286.47 201.447 286.712C201.493 286.955 201.584 287.182 201.705 287.409C201.856 287.652 202.023 287.864 202.25 288.046C202.463 288.228 202.72 288.394 202.978 288.531C203.25 288.667 203.523 288.818 203.811 288.94C204.099 289.076 204.387 289.212 204.659 289.364C204.947 289.515 205.205 289.682 205.447 289.879C205.599 290 205.735 290.121 205.841 290.243C205.947 290.364 206.023 290.5 206.084 290.652C206.129 290.803 206.159 290.97 206.159 291.167C206.159 291.47 206.099 291.728 205.978 291.924C205.856 292.137 205.69 292.318 205.447 292.47C205.326 292.561 205.19 292.621 205.023 292.667C204.856 292.712 204.69 292.758 204.523 292.773C204.356 292.803 204.205 292.803 204.069 292.818C203.932 292.818 203.841 292.818 203.796 292.818C203.629 292.818 203.462 292.818 203.296 292.788C203.129 292.773 202.963 292.743 202.811 292.712C202.478 292.652 202.19 292.576 201.963 292.515C201.735 292.455 201.553 292.394 201.447 292.349C201.326 292.303 201.266 292.288 201.25 292.273L201.644 293.803C201.644 293.803 201.705 293.834 201.796 293.879C201.887 293.924 202.038 293.985 202.235 294.046C202.432 294.106 202.69 294.167 203.008 294.212C203.326 294.258 203.69 294.288 204.129 294.288C204.462 294.288 204.811 294.258 205.175 294.212C205.538 294.152 205.887 294.061 206.235 293.924C206.584 293.788 206.887 293.591 207.159 293.334C207.432 293.091 207.659 292.773 207.826 292.379C207.993 292 208.068 291.531 208.084 290.985H208.068Z" fill="#023F87"/>
</svg>
