<svg width="240" height="324" viewBox="0 0 240 324" fill="none" xmlns="http://www.w3.org/2000/svg">
<path fill-rule="evenodd" clip-rule="evenodd" d="M198.116 286.283C202.198 286.086 200.556 278.941 200.263 276.317C197.031 266.734 197.791 256.278 196.519 246.233C195.727 236.856 194.709 227.508 193.853 218.138C192.172 199.117 180.099 160.397 166.321 154.17C164.585 146.552 157.417 139.44 148.347 139.44C142.161 132.115 134.716 126.96 125.166 128.001C121.219 128.18 117.392 132.367 113.61 133.176C111.493 133.468 92.7029 132.716 88.939 134.953C86.3171 136.299 83.9503 138.788 84.7212 141.956C85.9512 145.795 82.1288 141.642 74.1549 145.739C57.895 155.508 67.6112 168.577 68.0418 168.982C57.895 183.105 49.0263 194.563 44.9228 211.825C42.2634 224.641 42.5628 237.872 40.3345 250.753C39.5478 255.22 38.3408 259.534 37.0347 263.872C35.6192 269.548 34.931 283.697 34.1508 283.823C32.7296 284.176 34.9721 287.096 36.478 287.098C78.2296 294.026 120.639 287.385 162.615 286.3C174.444 285.888 186.287 285.793 198.116 286.283Z" fill="#D08B5B"/>
<path fill-rule="evenodd" clip-rule="evenodd" d="M113.663 145.612C113.663 150.057 129.092 166.575 134.416 165.485C137.966 164.759 143.33 160.021 150.507 151.272V145.612L148.957 139.451C157.737 139.761 164.624 146.723 166.321 154.17C179.961 160.335 191.93 198.346 193.8 217.561L193.853 218.138C194.709 227.508 195.727 236.856 196.519 246.233C197.791 256.278 197.031 266.734 200.263 276.317L200.282 276.48C200.62 279.224 202.117 286.09 198.116 286.283C186.287 285.793 174.444 285.888 162.615 286.3C120.639 287.385 78.2296 294.026 36.478 287.098C34.9721 287.096 32.7296 284.176 34.1508 283.823C34.931 283.697 35.6192 269.548 37.0347 263.872L37.3034 262.974C38.5053 258.938 39.602 254.912 40.3345 250.753C42.5628 237.872 42.2634 224.641 44.9228 211.825C49.0263 194.563 57.895 183.105 68.0418 168.982C67.6112 168.577 57.895 155.508 74.1549 145.739C82.1288 141.642 85.9512 145.795 84.7212 141.956C83.9503 138.788 86.3171 136.299 88.939 134.953C92.7029 132.716 111.493 133.468 113.61 133.176C114.594 132.966 115.581 132.527 116.572 131.989L116.4 132.562C114.575 138.68 113.663 143.03 113.663 145.612Z" fill="#9FD8E5"/>
<path fill-rule="evenodd" clip-rule="evenodd" d="M134.835 170.229C134.854 170.037 135.112 170.038 135.132 170.229L135.426 173.075C135.785 176.552 136.13 180.022 136.381 183.515C136.693 187.871 136.902 192.225 137.002 196.591C137.353 211.795 137.422 227.007 137.452 242.214C139.508 242.072 141.564 241.935 143.621 241.802C145.017 241.712 146.412 241.625 147.808 241.54L151.368 241.324V241.324L152.833 241.234C153.823 241.173 154.948 240.924 155.641 241.801C155.918 242.152 156.057 242.609 155.798 243.026C155.202 243.988 154.287 243.954 153.252 243.996C152.275 244.035 151.298 244.074 150.321 244.112C148.227 244.193 146.134 244.27 144.04 244.328C141.842 244.39 139.646 244.44 137.449 244.478C137.427 250.898 137.161 257.31 136.874 263.723L136.744 266.609C136.393 274.413 136.015 282.224 135.478 290.018C135.434 290.656 134.532 290.655 134.488 290.018C133.883 281.241 133.484 272.445 133.089 263.656C132.802 257.284 132.635 250.909 132.556 244.534C132.265 244.536 131.975 244.54 131.685 244.541C123.44 244.577 115.197 244.613 106.951 244.536C106.965 244.552 106.979 244.568 106.988 244.59C107.584 245.999 107.641 247.797 107.627 249.309C107.61 251.044 107.376 252.757 106.977 254.444C105.547 260.486 101.857 265.897 97.654 270.372L97.5168 270.517C96.5255 271.565 95.3883 272.618 94.7796 273.952C94.1579 275.315 93.9421 276.909 93.6353 278.374L93.5995 278.542L92.3999 284.085C92.0188 285.845 91.9106 288.413 90.5175 289.683C89.2178 290.869 87.496 290.25 86.8843 288.724C86.4067 287.533 86.8824 286.225 87.1653 285.034L89.3818 275.714C89.7459 274.194 90.1439 272.664 90.9299 271.298C91.735 269.9 92.9154 268.886 94.1198 267.849C96.4005 265.884 98.4941 263.636 100.265 261.201C102.035 258.767 103.547 256.084 104.608 253.263C105.139 251.851 105.575 250.384 105.875 248.905C106.16 247.501 106.158 246.047 106.463 244.659C106.484 244.563 106.565 244.497 106.657 244.468C106.636 244.406 106.669 244.322 106.756 244.317L113.499 243.883C119.493 243.496 125.487 243.1 131.475 242.646L132.534 242.57V242.57C132.451 234.064 132.521 225.557 132.675 217.048C132.815 209.245 132.818 201.44 133.05 193.638C133.166 189.766 133.414 185.903 133.691 182.039C133.974 178.087 134.427 174.169 134.835 170.229ZM71.5195 215.471C71.4476 215.038 71.9925 214.77 72.2437 215.166C75.115 219.693 76.4995 224.611 77.083 229.91C77.5985 234.586 77.4466 239.329 77.1899 244.018C76.9161 249.018 76.5966 254.018 76.2736 259.015L75.7773 266.68V266.68L74.5319 285.893C74.4428 287.268 74.1309 288.517 72.948 289.156C72.7983 289.281 72.6421 289.394 72.4602 289.491C71.8211 289.833 70.9735 289.66 70.604 289.004L70.7522 289.101C70.8812 289.183 70.7363 289.069 70.3173 288.761L69.9618 288.301V288.301C69.7034 287.912 69.5384 287.53 69.4721 287.069C69.369 286.351 69.5025 285.564 69.5494 284.843L70.3657 272.244V272.244C71.0006 262.449 71.7419 252.657 72.3007 242.858C72.561 238.291 72.7433 233.719 72.6199 229.143C72.497 224.594 72.2652 219.966 71.5195 215.471ZM96.359 131.131L96.5183 131.104C102.221 130.156 108.423 130.334 113.635 133.084C113.678 133.107 113.659 133.178 113.61 133.176L111.933 133.109C106.622 132.901 101.327 132.778 96.1049 134.026L95.5703 134.155C93.6896 134.614 91.7257 135.176 90.2152 136.418C88.7713 137.606 88.0524 139.438 87.3611 141.125L87.2687 141.348C86.5673 143.014 85.6796 144.593 84.1423 145.635C82.1511 146.984 79.7564 146.819 77.4732 147.002C73.4532 147.325 70.1665 150.24 68.5313 153.806C67.5411 155.966 67.1187 158.387 67.0351 160.749C66.9922 161.951 66.9861 163.201 67.1462 164.395C67.1973 164.777 67.6693 166.168 67.9099 166.135C68.4447 166.061 68.9335 166.34 69.1002 166.767C70.4211 165.491 71.7799 164.251 73.1825 163.056C76.6788 160.077 80.4447 157.377 84.4106 155.058C87.4374 153.287 90.6301 151.533 93.9362 150.207C93.6742 150.201 93.4159 150.253 93.1659 150.383C93.0565 150.44 92.9477 150.303 93.0341 150.212C94.0754 149.116 95.3228 148.96 96.5802 149.252C96.8485 149.167 97.1171 149.084 97.3866 149.006C97.5208 148.967 97.5876 149.152 97.4781 149.223L97.1692 149.42V149.42C98.541 149.88 99.8878 150.784 100.954 151.497C104.017 153.545 106.713 156.048 109.446 158.505L109.943 158.95C112.349 161.099 114.815 163.187 117.549 164.911C118.979 165.813 120.482 166.647 122.058 167.268C123.41 167.801 125.611 168.136 126.245 169.566C126.807 170.25 126.572 171.123 125.913 171.583C124.801 172.807 122.578 172.016 121.253 171.506C119.656 170.892 118.109 170.153 116.633 169.287C113.769 167.604 111.127 165.513 108.667 163.288C106.097 160.964 103.674 158.495 101.174 156.098C100.091 155.059 99.0334 153.996 97.9489 152.959L97.4042 152.443C96.8506 151.924 96.062 151.114 95.2188 150.625C93.6303 151.572 92.0173 152.481 90.4431 153.454C88.2457 154.811 86.113 156.266 84.0132 157.769C79.9708 160.663 76.1401 163.904 72.5838 167.377C66.0616 173.748 60.5048 181.023 55.6505 188.726L55.2819 189.313C52.5234 193.721 49.9148 198.273 48.0652 203.144C46.03 208.505 45.0402 214.143 44.5025 219.833C43.9689 225.483 43.7889 231.161 43.1925 236.806C42.5809 242.595 41.3758 248.256 40.0051 253.907L39.6782 255.246C38.4379 260.307 37.1578 265.368 36.5202 270.548C36.1799 273.315 35.9752 276.12 36.0214 278.909C36.0679 281.715 36.5086 284.458 36.8642 287.234C37.0004 288.298 35.9542 289.186 35.0181 289.327C33.9415 289.488 33.0166 288.801 32.6819 287.801C31.6387 284.682 31.4492 281.234 31.4819 277.96C31.5149 274.637 31.9389 271.335 32.5355 268.069C33.7089 261.644 35.5197 255.353 37.0344 249.005C38.3694 243.41 39.2654 237.805 39.7484 232.074C40.2497 226.127 40.5499 220.161 41.4645 214.257C42.3673 208.429 44.0659 202.862 46.6275 197.548C48.9599 192.709 51.8673 188.155 54.9155 183.74C58.6171 178.38 62.6825 173.279 67.2269 168.631C66.8187 168.613 66.3996 168.482 66.0147 168.241C64.8371 167.507 64.2886 166.069 64.12 164.757C63.7254 161.686 63.8206 158.481 64.6099 155.479C65.8833 150.637 69.1879 146.334 73.9773 144.589C75.2101 144.139 76.5206 143.975 77.8271 143.943C79.0668 143.912 80.4208 144.074 81.617 143.681C83.521 143.055 84.3371 140.811 85.052 139.111L85.0849 139.033C86.0016 136.866 87.1019 135.008 89.0874 133.655C91.2057 132.211 93.8598 131.555 96.359 131.131V131.131ZM150.549 139.701C152.262 139.106 154.405 139.646 156.081 140.165C157.948 140.744 159.674 141.811 161.153 143.077C162.714 144.413 164.003 146.062 164.915 147.905L165.002 148.083C165.834 149.792 166.782 152.138 166.362 154.016C166.35 154.069 166.336 154.12 166.321 154.17C169.721 155.845 172.861 157.942 175.596 160.6C178.78 163.696 181.477 167.218 183.758 171.023C192.82 186.136 194.415 204.287 195.486 221.522L195.752 225.892C196.334 235.329 197.014 244.743 198.78 254.049L198.909 254.721C200.798 264.465 203.501 274.283 203.227 284.279C203.145 287.274 198.721 287.253 198.592 284.279C198.109 273.083 195.498 262.273 193.729 251.252C190.617 231.863 192.177 211.873 187.767 192.678C186.037 185.145 183.357 177.838 179.529 171.114C177.639 167.792 175.475 164.582 172.942 161.717C170.761 159.251 168.496 156.878 165.948 154.805C165.134 155.621 163.507 155.205 163.082 154.016C162.79 153.198 162.875 152.243 162.688 151.387C162.514 150.592 162.274 149.805 161.955 149.056C161.318 147.565 160.383 146.133 159.304 144.927C158.139 143.622 156.799 142.538 155.3 141.644C153.791 140.743 152.14 140.474 150.549 139.815C150.495 139.793 150.49 139.721 150.549 139.701ZM157.207 243.325C157.21 243.246 157.302 243.209 157.359 243.261C157.96 243.814 158.323 244.608 158.766 245.289C159.276 246.073 159.811 246.842 160.373 247.59C161.498 249.09 162.75 250.504 164.013 251.888C165.187 253.176 166.439 254.41 167.737 255.573C169.144 256.833 170.72 257.957 171.998 259.353C174.664 262.264 175.095 266.26 175.658 270.013L175.72 270.418C176.063 272.645 176.37 274.878 176.647 277.114C176.782 278.201 176.916 279.29 177.026 280.38L177.06 280.726C177.158 281.793 177.184 282.876 176.571 283.809C175.915 284.807 174.424 285.156 173.537 284.2C172.014 282.556 172.3 279.636 172.101 277.522C171.938 275.773 171.752 274.027 171.544 272.283L171.438 271.412C171.193 269.428 170.994 267.405 170.541 265.455C170.141 263.739 169.379 262.443 168.128 261.2C166.869 259.947 165.56 258.777 164.397 257.428C163.164 255.998 162.052 254.463 161.05 252.862C160.192 251.493 159.505 250.002 158.876 248.514L158.771 248.266C158.163 246.814 157.159 244.924 157.207 243.325ZM179.203 180.967C179.216 180.764 179.515 180.761 179.519 180.967C179.557 182.708 179.594 184.45 179.63 186.192C179.92 200.226 179.741 214.293 181.149 228.279C181.813 234.873 183.035 241.371 184.449 247.841C185.173 251.152 185.933 254.455 186.654 257.766C187.357 260.993 188.111 264.236 188.669 267.493C189.217 270.694 189.708 273.92 189.928 277.162L189.955 277.585C190.05 279.156 190.503 281.466 189.638 282.858C188.702 284.366 186.908 284.393 185.904 282.953C184.962 281.602 185.196 279.198 185.03 277.585C184.861 275.942 184.682 274.298 184.478 272.659C184.082 269.462 183.559 266.272 183.016 263.097C181.884 256.484 180.243 249.955 179.031 243.353C177.789 236.587 176.907 229.774 176.869 222.886C176.832 215.94 177.567 209.007 177.938 202.075C178.315 195.036 178.744 188.001 179.203 180.967ZM112.932 137.316C113.309 136.047 114.638 135.254 115.935 135.61C117.123 135.937 118.104 137.38 117.64 138.614C117.133 139.962 116.247 141.11 115.5 142.335C114.81 143.466 113.803 144.357 113.1 145.468L113.875 146.303C114.262 146.72 114.651 147.134 115.044 147.541L116.395 148.941C117.447 150.029 118.506 151.111 119.594 152.162C122.796 155.251 126.047 158.238 129.632 160.883C130.448 161.485 131.271 162.084 132.116 162.644L132.432 162.853C133.012 163.233 133.659 163.607 134.36 163.542C136.062 163.386 137.601 161.577 138.771 160.451L138.832 160.392C141.732 157.632 144.417 154.615 146.764 151.37C147.285 150.649 147.79 149.916 148.282 149.174C147.147 147.848 147.418 145.259 147.355 143.651C147.311 142.52 147.308 141.389 147.302 140.257L147.298 140.029C147.285 139.296 147.252 138.593 147.727 137.991C147.754 137.956 147.812 137.957 147.847 137.975C148.498 138.316 148.698 138.888 148.976 139.529L149.005 139.595C149.343 140.364 149.667 141.14 149.994 141.914C150.337 142.724 150.652 143.546 150.97 144.365C151.118 144.747 151.26 145.129 151.398 145.514C151.483 145.76 151.57 146.004 151.66 146.249L151.681 146.267C151.799 146.368 151.899 146.474 151.986 146.583C152.349 146.765 152.638 147.096 152.773 147.583C153.068 148.642 152.458 149.506 151.914 150.346C149.704 153.761 147.185 157.016 144.385 159.968C142.994 161.435 141.531 162.836 140.007 164.165L139.741 164.395C138.373 165.572 136.887 166.686 135.06 166.961C132.921 167.283 131.181 166.219 129.543 164.994L129.38 164.871C127.828 163.695 126.307 162.479 124.834 161.206C121.83 158.612 118.972 155.826 116.436 152.77C113.969 149.797 111.53 146.473 110.009 142.896C109.917 142.678 110.16 142.45 110.351 142.632C111.094 143.339 111.809 144.085 112.515 144.84C112.535 143.728 112.33 142.607 112.444 141.488C112.583 140.128 112.543 138.625 112.932 137.316Z" fill="black"/>
<path fill-rule="evenodd" clip-rule="evenodd" d="M166.805 109.396C165.483 99.8335 162.459 90.5493 162.025 80.8437C161.766 76.6905 161.508 72.537 161.25 68.3833C161.152 65.7892 157.791 64.914 156.507 67.2122C153.588 63.9676 148.363 64.4455 144.376 64.5439C120.905 65.3777 98.6017 81.2861 90.5449 103.467C90.3512 103.996 90.4098 104.559 90.6288 105.062C86.8735 117.617 100.154 125.7 109.212 131.298C112.886 135.191 117.205 138.425 122.082 140.64C127.693 143.285 133.938 144.761 140.136 144.902C141.497 144.933 142.314 143.83 142.412 142.689C144.39 142.227 147.774 142.76 148.819 140.729C160.745 135.536 168.515 122.375 166.805 109.396V109.396Z" fill="#D08B5B"/>
<path fill-rule="evenodd" clip-rule="evenodd" d="M161.225 75.4847C161.191 75.1747 161.638 75.1652 161.729 75.4162C162.485 77.4805 163.269 79.5306 163.868 81.6471C164.445 83.6868 164.861 85.7728 165.282 87.85C165.98 91.2971 166.58 94.7696 167.077 98.2533C168.138 97.4222 169.527 97.3466 170.834 97.9933C171.448 98.2966 171.682 99.0987 171.535 99.7209C171.417 100.22 171.273 100.717 171.099 101.203C171.47 101.532 171.785 101.937 172.013 102.403C172.615 103.629 172.421 104.915 171.881 106.085C171.922 106.154 171.963 106.225 172.001 106.299C172.783 107.82 172.365 109.183 171.794 110.668C171.366 111.778 171.605 113.029 170.682 113.868C170.362 114.9 169.881 115.861 169.18 116.728C169.021 117.02 168.783 117.255 168.5 117.428C168.429 119.057 168.258 120.682 167.935 122.292C166.682 128.543 162.704 134.113 157.78 138.042C152.961 141.886 147.302 144.183 141.196 144.926C138.231 145.287 135.261 145.173 132.321 144.658L131.954 144.593C129.241 144.099 125.957 143.282 124.081 141.23C123.094 140.151 123.671 137.776 125.415 138C126.34 138.119 127.144 138.267 128.014 138.609C128.693 138.876 129.373 139.133 130.07 139.351C131.404 139.767 132.784 140.092 134.17 140.272C137.057 140.646 140.057 140.547 142.911 139.982C148.1 138.956 153.141 136.589 157.079 133.025C161.657 128.882 164.34 123.519 164.735 117.335C165.175 110.447 164.381 103.394 163.723 96.5415C163.38 92.9771 162.945 89.4199 162.422 85.8777C161.91 82.4166 161.603 78.9604 161.225 75.4847ZM120.714 53.2433L120.936 53.2092C129.748 51.8648 139.02 51.9601 147.303 55.6059C148.891 56.3052 150.444 57.1485 151.907 58.1271C152.955 58.0174 154.01 57.9284 155.045 57.9138C156.347 57.8967 157.619 58.5752 157.779 59.8961C158.999 60.0483 160.123 60.4984 160.842 61.399C161.122 61.7496 161.31 62.1554 161.405 62.5781C162.155 62.7559 162.891 63.0283 163.589 63.3876C164.437 63.8251 164.926 65.0425 164.626 65.943C164.557 66.1475 164.479 66.3466 164.391 66.5414L164.323 66.6868L164.363 66.7417C165.04 67.8323 164.569 69.2631 163.532 69.9141C162.754 70.4023 161.886 70.7912 160.992 70.9793C161.066 71.3386 161.133 71.7 161.188 72.0656C161.209 72.2138 161.019 72.3195 160.935 72.1734C160.935 72.1734 161.255 73.1731 161.738 74.2745C161.928 74.7075 161.321 75.0922 161.089 74.6547C160.473 73.488 160.092 72.2918 159.533 71.0892C159.017 71.0554 158.502 70.937 158.006 70.7109C157.682 70.5629 157.435 70.3135 157.258 70.0155C157.248 70.0282 157.241 70.043 157.231 70.0578C155.567 72.203 152.316 72.9554 149.803 73.6339C147.105 74.3632 144.343 74.8132 141.571 75.145C136.73 75.722 131.852 75.8298 126.988 76.054C126.666 76.0686 126.345 76.0849 126.023 76.1005C124.048 77.8378 121.503 78.9174 118.893 79.2456C117.571 79.4118 116.007 79.3695 114.524 79.0309C113.987 79.5804 113.309 79.9875 112.568 80.1965C112.435 82.965 110.895 85.5861 108.567 87.114L108.609 87.2786C109.187 89.6426 109.18 92.2267 107.106 93.8698C106.825 94.0921 106.518 94.2828 106.196 94.4409L106.266 94.6042C107.338 97.1138 107.68 99.8859 105.666 101.968C104.85 102.812 103.416 102.612 102.804 101.644L102.774 101.595C102.74 101.537 102.704 101.482 102.668 101.425C102.614 101.537 102.53 101.631 102.406 101.684C101.641 102.014 101.335 101.771 100.638 101.431C99.9925 101.114 99.3116 100.877 98.6161 100.693C98.0488 100.545 97.4837 100.439 96.9145 100.378C93.3179 101.756 90.9947 105.983 91.547 109.95C91.8464 112.11 93.0293 114.249 95.0909 115.145C95.9932 115.538 97.0537 115.703 98.0298 115.57C99.3516 115.39 100.368 114.556 101.736 115.033C102.276 115.221 102.613 115.646 102.643 116.227C102.691 117.14 102.368 117.825 101.825 118.332C102.784 119.135 103.558 120.251 104.39 121.141C105.432 122.255 106.488 123.369 107.614 124.396C108.676 125.37 109.806 126.275 111.004 127.078L111.13 127.161C112.63 128.141 114.52 129.01 114.592 131.058C114.615 131.675 114.242 132.241 113.736 132.556C111.845 133.731 109.787 132.188 108.305 131.058C107.709 130.603 107.129 130.132 106.57 129.644C106.197 129.673 105.79 129.612 105.366 129.424C105.094 129.306 104.829 129.166 104.567 129.018C103.718 129.232 102.917 129.044 102.257 128.598C101.306 128.832 100.298 128.86 99.4423 128.672C98.6603 128.498 97.9623 128.128 97.3868 127.632C96.1851 128.016 94.8506 127.945 93.6658 127.215C92.9553 126.778 92.4008 126.154 92.0994 125.425C91.9459 125.184 91.8477 124.903 91.8402 124.594L91.84 124.476C90.807 124.5 89.7719 124.144 88.9729 123.325C88.2392 122.572 87.881 121.634 87.8408 120.68C86.8014 120.385 85.8506 119.778 85.1275 118.842C83.93 117.29 83.77 115.373 84.3856 113.661C84.3453 113.571 84.3095 113.478 84.2779 113.385C83.3228 112.034 82.6925 110.405 82.7431 108.771C82.7494 108.517 82.7831 108.268 82.8337 108.021C81.8935 107.52 81.202 106.64 81.1282 105.522C81.0713 104.645 81.3854 103.787 81.9525 103.138C81.6763 102.477 81.554 101.758 81.6384 101.04C81.7248 100.302 81.9841 99.6616 82.3638 99.1271C82.3552 98.9327 82.3657 98.7359 82.3973 98.5351C82.3594 98.3386 82.3278 98.1357 82.3111 97.9288C82.1317 95.6629 83.6918 93.6804 85.5913 92.6342C86.0909 92.3595 86.6306 92.1355 87.1703 91.9452C87.5625 91.8058 88.1528 91.7593 88.4985 91.5035C88.4838 91.493 88.6271 91.3072 88.6524 91.2076C88.6798 91.0851 88.7093 90.9646 88.7243 90.8399C88.781 90.3157 88.7389 89.7768 88.7283 89.2505C88.6819 86.8623 88.7557 84.4634 89.0066 82.0879C89.4725 77.6833 90.6217 73.3739 92.8604 69.5252C94.7388 66.3 97.3109 63.5757 100.26 61.3164C106.135 56.8182 113.466 54.3725 120.714 53.2433ZM93.4884 108.019C92.7237 106.176 96.3239 106.158 97.2758 106.245L97.3039 106.248C99.4464 106.462 102.796 107.495 103.673 109.662C104.036 110.559 102.961 111.532 102.102 111.237C101.261 110.948 100.789 110.328 100.113 109.785C99.9364 109.643 99.7517 109.51 99.5637 109.382C99.6627 109.698 99.8212 109.99 100.041 110.208L100.093 110.257C101.13 111.191 99.2757 112.658 98.5875 111.422C98.2211 110.764 98.0744 110.042 98.1887 109.295C98.2226 109.074 98.2816 108.873 98.3675 108.68C98.2991 108.646 98.2319 108.609 98.1627 108.576L98.0393 108.518C97.2141 108.143 93.6928 106.669 93.7214 107.987C93.7245 108.133 93.5358 108.133 93.4884 108.019Z" fill="black"/>
<path fill-rule="evenodd" clip-rule="evenodd" d="M143.152 128.274C141.732 127.695 140.465 126.728 139.538 125.493C139.216 125.063 139.133 124.61 139.2 124.195C139.276 123.729 139.552 123.306 139.928 123.023C140.305 122.739 140.777 122.598 141.233 122.67C141.63 122.732 142.024 122.949 142.337 123.399L142.402 123.489C142.953 124.235 143.67 124.846 144.488 125.241C145.276 125.621 146.158 125.798 147.07 125.695C148.808 125.499 150.005 124.559 151.278 123.282C151.436 123.121 151.594 122.955 151.752 122.786C151.852 122.633 151.991 122.534 152.146 122.483C152.317 122.425 152.511 122.429 152.689 122.491C152.86 122.55 153.013 122.664 153.116 122.815C153.213 122.958 153.269 123.135 153.251 123.339C153.134 124.661 152.443 125.842 151.461 126.769C150.37 127.799 148.924 128.511 147.563 128.761C146.064 129.036 144.536 128.839 143.152 128.274V128.274ZM148.271 107.866C149.866 108.836 152.297 111.098 150.581 113.503C148.56 115.624 145.652 113.193 144.219 112.093C142.89 111.241 141.396 113.433 142.629 114.428C152.987 122.099 157.19 108.12 149.078 106.726C148.184 106.572 147.853 107.566 148.271 107.866ZM129.711 98.9429C129.887 96.7541 133.219 96.257 133.551 98.423C133.847 100.363 133.498 102.145 132.624 103.892C131.79 105.561 129.692 104.783 129.533 103.263C129.32 101.226 129.601 100.304 129.711 98.9429ZM155.076 97.9739C155.541 97.3652 156.212 96.9497 157.015 97.1845C159.526 97.9185 158.786 101.485 157.904 103.22C157.425 104.163 155.876 104.402 155.176 103.572C154.036 102.219 153.489 99.5157 154.94 98.1825C154.979 98.1136 155.023 98.044 155.076 97.9739ZM132.589 89.3654L132.986 89.2959C134.213 89.0836 135.738 88.8796 136.606 89.8665C137.067 90.3898 137.225 91.3624 136.606 91.8633C135.518 92.7446 134.314 92.4031 133.01 92.4777C131.935 92.5394 130.902 92.7174 129.867 93.0135C127.595 93.6629 125.744 94.8486 123.804 96.1505C123.55 96.3213 123.29 95.9956 123.411 95.7574C124.531 93.563 126.701 91.7604 128.875 90.6616C130.036 90.0751 131.305 89.5885 132.589 89.3654ZM152.787 88.3823L153.091 88.4445C156.395 89.1353 160.687 90.5153 162.251 93.7615C162.311 94.2205 162.248 94.3189 162.197 94.3832L162.18 94.4046C162.137 94.4595 162.104 94.5351 161.905 94.5976C161.85 94.5844 161.794 94.5705 161.737 94.5557C161.02 94.3677 160.453 94.1087 159.904 93.84L159.308 93.5465C158.617 93.2076 157.92 92.881 157.181 92.6399C155.605 92.1255 153.983 91.7631 152.337 91.5696C151.98 91.5277 151.636 91.4072 151.365 91.2006C151.108 91.0046 150.911 90.7332 150.821 90.3724C150.705 89.9056 150.739 89.5521 150.989 89.1309C151.177 88.8146 151.447 88.5953 151.756 88.4694C152.071 88.3411 152.43 88.3108 152.787 88.3823Z" fill="black"/>
<path fill-rule="evenodd" clip-rule="evenodd" d="M148.851 138.659C148.851 138.659 139.473 140.038 135.275 138.089C131.09 136.147 127.019 134.268 123.222 131.695C119.333 129.059 116.033 125.929 113.677 121.923C111.486 118.195 109.665 114.239 107.831 110.314C107.724 110.085 106.671 107.804 106.3 107.039C105.727 105.854 104.054 106.226 104.054 108.067C104.054 109.907 103.971 123.846 107.187 129.329C110.088 134.281 115.004 137.742 119.888 140.762C125.293 144.101 132.471 147.711 138.919 148.665C144.755 149.527 151.414 147.105 155.639 143.113C160.057 138.938 161.307 133.265 163.587 127.833C164.096 126.619 162.291 125.886 161.762 127.08C160.764 129.329 148.851 138.659 148.851 138.659Z" fill="black"/>
<path fill-rule="evenodd" clip-rule="evenodd" d="M156.197 103.163C154.331 101.225 152.457 99.259 150.069 97.9197C150.174 97.3457 149.942 96.686 149.26 96.4113C142.649 93.9385 138.446 101.055 133.659 104.235C132.54 104.837 131.418 105.531 130.169 105.766C127.512 106.542 125.258 108.148 123.657 110.259C122.791 111.09 121.265 112.478 120.841 113.609C120.582 114.07 97.3317 103.005 92.0402 101.773C89.5344 100.935 88.1852 103.305 91.3613 104.521C99.7071 107.717 116.048 114.87 119.696 116.932C118.995 119.096 118.786 121.964 119.468 124.104C118.895 127.435 120.009 130.487 122.21 132.879C122.677 133.558 123.39 134.047 123.854 134.637C125.54 139.046 129.587 141.178 134.322 143.286C141.856 146.639 148.424 147.311 152.553 145.842C163.271 141.749 169.492 129.721 167.488 118.761C165.602 111.041 165.992 104.269 156.197 103.163Z" fill="#9DDADB"/>
<path fill-rule="evenodd" clip-rule="evenodd" d="M132.946 103.113C139.393 99.5128 140.482 92.1752 149.832 95.9053C152.754 97.0859 153.78 98.8336 155.729 101.017C156.738 101.934 158.009 102.391 159.263 102.879C164.032 104.463 166.829 108.963 167.895 113.69C170.686 123.501 167.764 134.995 160.632 142.135C160.732 142.316 160.713 142.577 160.495 142.697C160.094 142.918 159.696 143.145 159.299 143.375C156.805 145.53 151.744 148.365 147.992 148.365C139.626 148.365 131.545 144.97 126.606 140.613C120.286 135.513 116.299 124.872 118.35 117.214C106.597 111.678 95.7095 107.474 91.1586 105.651C91.1586 105.651 89.474 103.883 91.1279 104.35C101.813 107.37 122.853 117.191 123.106 117.202C123.256 117.208 123.808 116.002 123.917 115.484C123.425 115.43 94.4028 102.905 90.7883 101.743L90.5971 101.682C88.878 101.139 89.3075 100.716 90.6286 100.793C93.3072 100.95 116.017 111.495 120.436 112.552C122.411 108.114 128.019 105.81 132.946 103.113ZM147.024 96.8209C143.435 95.7641 140.796 98.3705 138.876 101.102C134.347 106.72 126.087 106.898 122.675 113.572L122.574 113.777L123.924 114.182L123.961 114.121C124.067 113.956 124.384 113.535 124.653 113.918C126.049 115.419 123.863 120.404 122.715 118.208L122.681 118.14L120.806 117.623C117.419 131.354 130.342 143.716 143.345 145.81C143.345 145.81 148.77 145.897 150.944 145.372C152.547 144.984 153.932 144.235 155.412 143.492C156.883 142.753 158.097 141.61 159.522 140.828C163.592 136.791 166.268 131.248 166.996 125.499C167.709 118.605 167.042 109.827 161.061 105.455C159.092 104.206 156.665 103.871 154.865 102.326C152.717 99.9514 150.203 97.5365 147.024 96.8209ZM140.569 129.074C140.509 128.975 140.648 128.88 140.727 128.954C141.985 130.132 143.202 131.359 144.377 132.622C144.439 132.602 144.509 132.584 144.6 132.561C145.032 132.456 145.405 132.907 145.196 133.304L145.146 133.393C144.832 133.928 144.11 134.399 143.68 133.754C142.586 132.235 141.546 130.672 140.569 129.074ZM125.015 131.9L125.014 131.854C124.99 131.394 124.617 130.236 125.375 130.414C126.252 130.924 126.577 132.259 126.626 133.207C126.681 134.248 124.956 134.261 125 133.207C125.019 132.771 125.053 132.336 125.015 131.9ZM161.449 128.698C161.571 128.674 161.636 128.827 161.53 128.897C160.139 129.678 160.256 131.254 160.031 132.567C158.435 133.632 158.597 129.07 161.449 128.698ZM121.544 123.123C134.936 124.474 149.342 128.473 163.039 124.406C163.869 124.181 164.198 125.465 163.371 125.687C149.565 129.187 134.905 127.096 121.544 123.123ZM157.865 117.589C158.279 117.492 158.67 119.539 159.309 119.92C159.627 120.559 162.149 121.123 161.086 121.908C159.273 122.287 157.284 119.22 157.865 117.589ZM146.1 118.073C146.411 118.067 146.624 118.306 146.726 118.577C147.004 119.374 145.815 119.247 145.372 119.512C143.498 120.803 141.334 121.844 139.031 121.892C138.887 121.895 138.886 121.705 139.004 121.659L139.405 121.502C140.672 121.003 141.892 120.492 143.058 119.754C144.001 119.157 144.908 118.046 146.1 118.073ZM139.025 104.044C138.708 101.762 145.916 95.9984 148.126 98.476C148.697 99.1139 147.947 100.061 147.194 99.6583C144.114 98.8501 141.169 102.208 139.025 104.044Z" fill="black"/>
<path fill-rule="evenodd" clip-rule="evenodd" d="M166.075 104.71C165.478 106.336 164.568 108.03 163.456 109.399C158.958 113.21 154.586 111.1 152.367 105.934C151.523 102.284 153.763 98.3521 156.135 95.6669C159.562 92.231 165.155 94.0342 166.73 98.1188C166.826 98.648 166.884 99.176 166.912 99.7022C166.879 101.412 166.673 102.874 166.075 104.498M122.833 101.429C128.759 94.3773 139.847 94.0002 139.564 104.854C138.291 118.593 116.853 115.221 122.833 101.429ZM167.939 95.5465C167.731 95.1946 167.501 94.8541 167.249 94.5284C167.156 94.473 167.103 93.9818 166.761 93.9455C162.192 88.9029 154.165 91.7639 151.265 96.7886C150.735 97.4239 150.303 98.1676 149.985 98.9534C147.127 98.4291 143.796 98.5309 141.138 99.6107C138.503 92.7266 130.524 92.112 125.266 95.0534C121.996 96.6624 119.876 100.032 116.695 101.883C109.219 102.421 101.194 100.745 93.8529 102.622C88.0629 103.826 92.903 106.759 93.874 104.801C100.796 102.756 108.996 104.484 116.183 104.024C116.93 105.288 118.363 106.323 119.791 106.279C121.334 119.957 141.274 117.689 141.962 105.53C142.742 104.296 143.712 103.114 145.101 102.346C145.633 102.235 146.147 102.092 146.616 101.871C147.418 101.758 148.655 102.098 149.393 102.766C151.922 117.945 166.49 116.177 169.093 102.88C169.145 102.827 169.29 102.629 169.401 102.311C170.292 101.132 172.473 100.694 172.125 98.704C171.814 96.7137 169.302 96.7374 167.939 95.5465Z" fill="black"/>
</svg>
