<svg width="240" height="324" viewBox="0 0 240 324" fill="none" xmlns="http://www.w3.org/2000/svg">
<path fill-rule="evenodd" clip-rule="evenodd" d="M47.464 285.957C75.0651 290.151 103.167 290.362 130.997 288.839C142.011 288.014 153.059 287.865 164.065 288.92C170.568 289.404 199.081 291.584 201.41 285.757C199.944 254.73 196.974 223.438 187.865 193.598C184.118 183.002 180.9 174.208 173.588 165.44C171.284 163.046 166.314 158.025 163.466 156.388C160.999 154.969 159.968 155.475 158.551 153.079C157.144 150.433 156.105 146.013 154.107 144.145C152.071 142.243 149.055 142.924 145.317 143.536C146.004 134.251 141.72 131.887 135.818 130.121C125.443 126.16 115.198 128.15 112.587 140.784C107.745 140.784 105.026 142.868 102.086 144.871C100.884 145.69 101.72 147.775 100.284 148.419C97.6284 149.365 92.9349 149.133 90.3776 150.297C78.7487 155.592 68.3912 163.269 61.5892 174.481C46.3399 198.42 35.8647 248.848 37.6774 277.221C36.8832 278.466 37.9815 280.253 38.2606 281.593C38.613 282.758 39.754 283.533 40.9449 283.401C42.6067 285.189 45.1771 285.587 47.464 285.957Z" fill="#D08B5B"/>
<path fill-rule="evenodd" clip-rule="evenodd" d="M104.887 142.681C106.587 140.906 109.254 139.847 111.779 139.906L111.897 139.91L112.755 139.948L112.182 142.76L112.153 142.893L112.036 143.381L111.881 144.02L111.825 144.255L111.767 144.515C111.758 144.557 111.749 144.599 111.74 144.641L111.714 144.764L111.47 145.958L111.516 146.064L111.503 146.336C111.465 147.317 111.676 147.856 112.142 148.029L112.179 148.042L112.444 148.127L112.661 148.598C113.16 149.674 113.625 150.613 114.103 151.498C115.496 154.08 117.158 156.66 119.074 159.253C120.894 161.717 122.791 164.069 124.763 166.302C125.649 167.306 126.586 168.315 127.583 169.341L128.441 170.22L128.714 170.496L128.897 170.68L129.126 170.904L129.456 171.218L129.695 171.454L129.773 171.528C129.87 171.618 129.946 171.68 130.014 171.723L130.039 171.739L130.114 171.784L134.092 175.969L135.497 176.742L136.165 177.112L136.3 176.843L136.327 176.756L137.806 173.508L138.709 171.519C140.562 167.426 142.004 164.17 143.322 161.069L143.486 160.683L143.972 159.529L144.229 158.914C145.408 156.089 146.279 153.908 147.058 151.79L147.168 151.488L147.332 151.035L147.576 150.353L147.62 150.236C147.832 149.694 147.312 147.725 146.8 146.646L146.771 146.585L146.638 146.318L146.494 146.036C146.155 145.375 145.91 144.641 145.704 143.753C145.671 143.61 145.639 143.465 145.61 143.319L145.567 143.099L145.54 142.955L145.502 142.753L145.447 142.463L146.593 142.272L147.222 142.169L147.496 142.126C147.851 142.071 148.167 142.026 148.465 141.988L148.575 141.974L148.775 141.951L148.782 141.99L149.19 142.031L149.494 142.062C150.989 142.22 152.142 142.394 152.961 142.588L153.042 142.607L153.188 142.644L153.255 142.662C154 142.862 154.574 143.296 155.028 143.935C155.34 144.373 155.542 144.793 155.862 145.589L155.976 145.876L156.357 146.818C156.402 146.933 156.471 147.116 156.564 147.368L156.887 148.248L158.507 152.723L160.165 153.595C160.935 153.999 161.499 154.289 161.777 154.427L161.876 154.475L161.946 154.507L162.518 154.734L162.456 154.912L162.525 154.952C169.35 158.879 174.613 164.92 178.71 172.941L178.834 173.184L178.961 173.437C182.226 179.97 184.566 187.261 186.85 196.994L186.991 197.599L187.103 198.081L187.698 200.678C189.936 210.485 191.474 217.799 192.746 224.974L192.829 225.442L193.041 226.661C194.639 235.949 195.977 245.153 197.048 254.267L197.225 255.801C197.672 259.717 198.076 263.765 198.514 268.626L198.572 269.279L198.765 271.462C198.97 273.815 199.158 276.163 199.328 278.506L199.411 279.677L199.583 282.223L199.683 283.674L199.695 283.871L199.736 284.627L199.748 284.804C199.763 285.032 199.78 285.223 199.802 285.401L199.82 285.531L199.839 285.658C199.896 286.005 200.007 286.315 200.192 286.662L200.24 286.749L200.557 287.316L199.982 287.619C196.984 289.199 191.082 289.894 182.986 289.93L182.74 289.931H182.234C178.3 289.929 174.13 289.777 169.779 289.518L168.795 289.458L167.974 289.405C167.62 289.382 167.276 289.359 166.919 289.334L166.371 289.296L164.084 289.128C153.793 288.142 143.002 288.159 131.111 289.049C100.111 290.745 73.3531 290.03 48.2035 286.275L47.4419 286.16L46.8807 286.068L46.5459 286.012C43.8783 285.557 42.2032 284.973 40.8962 283.747L40.8277 283.682L40.7707 283.627L40.7459 283.627C39.4299 283.621 38.2251 282.76 37.7781 281.49L37.7549 281.422L37.7254 281.327L37.705 281.232C37.6842 281.141 37.6582 281.043 37.6266 280.935L37.6018 280.852L37.394 280.171L38.094 280.043C38.1543 280.032 38.217 279.99 38.2778 279.902L38.3361 279.819L38.4371 279.679L38.6809 279.344C38.9406 278.98 39.0683 278.751 39.1316 278.522C39.1877 278.318 39.2086 278.058 39.2026 277.695L39.1979 277.518L39.1703 276.875C39.1685 276.824 39.1672 276.779 39.1665 276.735L39.1656 276.671L39.1651 275.766L39.1674 274.772C39.169 274.339 39.1714 273.916 39.1748 273.5L39.1804 272.883L39.186 272.385C39.2198 269.632 39.3005 266.881 39.4284 264.134C39.6783 258.772 40.107 253.417 40.7135 248.083C41.9658 237.07 43.8839 226.39 46.4932 216.068L46.7553 215.037C49.5767 204.007 52.2969 195.503 55.7543 187.639C60.1517 177.637 65.5134 169.405 72.2644 162.825C75.9761 159.206 80.0866 156.152 84.4549 153.81C86.4639 152.733 88.599 151.777 90.8887 150.917L91.2169 150.794L91.7465 150.601L92.1529 150.451L93.4622 149.961C93.7374 149.858 94.037 149.743 94.3911 149.603L94.6104 149.517L96.9551 148.581L97.3444 148.428L97.7774 148.259L98.0956 148.137C98.6159 147.939 99.087 147.766 99.5244 147.613L99.7829 147.524L100.017 147.445L101.018 147.098L100.999 148.009C100.986 148.614 101.142 149.072 101.488 149.401L101.5 149.411L101.511 149.421L101.522 149.428L101.583 149.426L101.819 149.425C101.844 149.411 101.867 149.396 101.888 149.378C102.224 149.092 102.381 148.708 102.533 147.829L102.573 147.584L102.643 147.126L102.671 146.953C102.772 146.342 102.861 146.005 103.032 145.62C103.28 145.063 103.607 144.52 103.993 144.022L104.083 143.907L104.443 143.474L104.498 143.406C104.624 143.244 104.689 143.13 104.716 143.025L104.722 142.997L104.758 142.815L104.887 142.681Z" fill="#E67E22"/>
<path fill-rule="evenodd" clip-rule="evenodd" d="M161.709 155.686C161.54 155.591 161.689 155.349 161.859 155.429C170.045 159.271 176.324 166.01 180.743 173.798C185.318 181.861 187.925 191.016 190.174 199.964L190.255 200.287C192.652 209.859 194.69 219.53 196.525 229.225C198.384 239.042 199.876 248.92 201.076 258.839C201.669 263.744 202.198 268.657 202.611 273.58C202.817 276.04 203.005 278.502 203.173 280.965C203.241 281.95 203.304 282.935 203.358 283.921L203.397 284.661C203.431 285.332 203.51 286.004 203.345 286.666C203.202 287.236 202.9 287.753 202.634 288.277C202.109 289.312 200.669 289.141 200.103 288.277L199.939 288.025C199.564 287.444 199.252 286.905 199.134 286.183C199.02 285.484 199.016 284.751 198.965 284.044C198.871 282.745 198.791 281.444 198.699 280.144C198.508 277.407 198.293 274.673 198.054 271.94C197.583 266.545 197.077 261.155 196.456 255.775C195.353 246.213 193.969 236.677 192.337 227.192C190.742 217.926 188.726 208.754 186.623 199.593L186.405 198.645C182.723 182.652 177.048 164.233 161.709 155.686ZM74.5216 218.314C74.5818 218.154 74.8408 218.117 74.8845 218.314C75.4359 220.797 75.4904 223.355 75.5747 225.898C75.6578 228.406 75.6544 230.926 75.6178 233.436C75.483 242.66 75.2299 251.876 75.0111 261.098C74.9016 265.711 74.799 270.325 74.7202 274.939C74.6904 276.669 74.6653 278.4 74.6445 280.13L74.619 282.413C74.6064 283.422 74.5799 284.418 74.4569 285.427C74.3758 286.09 74.203 286.722 73.8371 287.29C73.5774 287.694 73.2073 287.898 72.8465 288.173L72.779 288.225C72.3189 288.589 71.8342 288.591 71.3785 288.225L71.2462 288.12C70.8109 287.78 70.4347 287.513 70.1568 286.975C69.7702 286.226 69.7083 285.413 69.6425 284.587C69.5428 283.336 69.609 282.067 69.6218 280.812C69.6476 278.295 69.6825 275.778 69.7266 273.261C69.8887 264.031 70.209 254.8 70.7927 245.586C71.0677 241.246 71.4406 236.893 71.9407 232.57L72.036 231.76C72.1877 230.489 72.3261 229.194 72.482 227.896C70.1544 226.258 68.1085 224.271 66.3639 222.017C66.2354 221.851 66.4469 221.618 66.602 221.779C68.3847 223.625 70.4287 225.097 72.6916 226.255C73.0623 223.537 73.5721 220.833 74.5216 218.314ZM113.406 136.038C113.438 136.013 113.488 136.002 113.518 136.038C114.018 136.621 113.917 137.513 113.933 138.253L113.935 138.322C113.971 139.403 113.978 140.48 113.974 141.562L113.963 145.005V145.005C113.961 145.479 113.923 145.971 113.947 146.448L113.96 146.632V146.632C114.223 146.901 114.345 147.29 114.256 147.681C114.24 148.182 113.978 148.601 113.595 148.864L114.415 150.026V150.026L115.234 151.188C116.924 153.586 118.633 155.962 120.413 158.294C122.229 160.672 124.166 162.959 126.193 165.159C127.183 166.234 128.19 167.294 129.221 168.33C129.64 168.751 130.069 169.162 130.493 169.577L130.916 169.995C131.165 170.244 131.479 170.491 131.645 170.808C131.742 170.994 131.764 171.454 131.799 171.53C132.112 172.218 131.578 173.314 130.692 172.971L130.732 172.944C130.893 172.832 130.79 172.83 130.422 172.94C130.189 172.939 129.971 172.885 129.768 172.779L129.707 172.746C129.42 172.6 129.165 172.318 128.932 172.093L128.874 172.038C128.341 171.538 127.834 171.009 127.323 170.487C126.258 169.398 125.216 168.287 124.208 167.145C122.197 164.867 120.29 162.497 118.485 160.053C116.645 157.564 114.936 154.947 113.465 152.222C112.908 151.188 112.396 150.135 111.906 149.069C110.951 148.762 110.73 147.747 110.796 146.603C110.444 145.782 110.127 144.945 109.939 144.089C109.913 143.972 110.064 143.861 110.154 143.964C110.46 144.311 110.742 144.68 111.014 145.059C111.178 144.257 111.385 143.519 111.483 143.048L111.906 140.971V140.971C109.522 140.847 106.909 141.827 105.265 143.543C105.176 143.989 104.833 144.309 104.498 144.727C104.115 145.204 103.781 145.74 103.532 146.3C102.979 147.542 103.291 149.372 102.219 150.283C102.107 150.378 101.982 150.444 101.853 150.485C102.362 152.981 102.131 155.731 102.12 158.262L102.12 158.485C102.122 161.319 102.028 164.155 101.918 166.986L101.807 169.788C101.663 173.525 101.569 177.264 101.932 180.98C103.589 179.512 105.303 178.11 107.076 176.775C108.242 175.897 109.431 175.05 110.641 174.235L111.625 173.578C112.803 172.787 114.011 171.974 115.301 171.407C116.989 170.667 118.595 170.921 120.224 171.681C121.847 172.437 123.422 173.316 125.014 174.136C126.633 174.969 128.255 175.796 129.877 176.624C130.951 177.174 132.525 177.669 133.313 178.68C133.363 178.456 133.422 178.233 133.49 178.011C133.412 177.672 133.442 177.306 133.632 176.957C136.279 172.091 138.728 167.109 141.161 162.133C142.392 159.615 143.562 157.067 144.795 154.55L145.994 152.099C146.195 151.691 146.396 151.283 146.598 150.875C146.9 150.265 147.215 149.661 147.521 149.053C147.65 148.796 147.813 148.54 147.938 148.281L147.998 148.151C148.001 148.144 148.291 147.23 148.067 147.317L148.048 147.326C147.933 147.391 147.841 147.247 147.916 147.155C148.233 146.763 148.675 147.11 148.856 147.474C149.355 148.474 148.441 150.043 148.089 151.001L148.07 151.054C146.979 154.144 145.743 157.176 144.477 160.197C142.05 165.989 139.443 171.693 136.841 177.406L136.81 177.505V177.505C137.365 177.079 137.957 176.693 138.464 176.317C139.744 175.369 141.061 174.467 142.376 173.569C144.787 171.92 147.264 170.381 149.782 168.902L150.286 168.607C151.544 167.874 152.79 167.28 154.282 167.5C155.669 167.705 156.959 168.45 158.212 169.055L158.341 169.117L162.213 170.959C161.799 169.308 161.351 167.665 160.883 166.028C159.971 162.835 158.968 159.669 157.88 156.531C156.864 153.599 155.765 150.7 154.603 147.823L154.253 146.96C153.78 145.775 153.308 144.484 151.954 144.119C150.601 143.755 149.049 144.295 147.812 143.524C147.7 143.453 147.714 143.268 147.85 143.234L148.613 143.041C150.046 142.685 151.726 142.326 153.081 142.673C154.555 143.051 155.775 144.289 156.491 145.576C157.286 147.007 157.847 148.609 158.45 150.136L158.546 150.376C159.239 152.104 159.905 153.842 160.543 155.591C161.817 159.086 162.978 162.624 164.028 166.194C164.535 167.914 165.015 169.643 165.476 171.376C165.609 171.874 165.828 172.478 166.008 173.109C166.213 173.309 166.408 173.533 166.591 173.789C166.894 174.213 166.676 174.71 166.299 174.964C166.285 175.398 166.189 175.806 165.958 176.155C165.059 177.52 162.683 177.169 162.779 175.333C162.794 175.052 162.903 174.784 163.069 174.558L163.064 174.521V174.521L163.046 174.454V174.454C162.633 174.256 162.219 174.035 161.782 173.82L157.719 171.811V171.811C156.542 171.229 155.238 170.33 153.929 170.109C152.709 169.902 151.422 170.811 150.374 171.36L150.306 171.395C147.772 172.695 145.256 174.037 142.751 175.391C141.528 176.052 140.321 176.74 139.102 177.409C138.083 177.968 136.984 178.771 135.839 179.086C135.35 179.467 134.769 179.416 134.302 179.128C134.515 180.45 134.502 181.807 134.568 183.158C134.656 184.965 134.669 186.777 134.698 188.586L134.71 189.265C134.787 193.265 134.828 197.266 134.843 201.267C134.898 215.513 134.74 229.764 134.703 244.011C134.685 251.169 134.543 258.333 134.357 265.488C134.278 268.52 134.114 271.549 133.936 274.576L133.838 276.227C133.63 279.711 133.508 283.234 132.863 286.671C132.779 287.119 132.021 287.131 131.946 286.671C131.353 282.988 131.32 279.224 131.206 275.498L131.182 274.753C131.045 270.753 130.98 266.754 130.994 262.751C131.044 248.499 131.415 234.255 131.718 220.007C131.87 212.848 131.972 205.686 132.209 198.529C132.327 194.949 132.461 191.37 132.62 187.791C132.691 186.192 132.759 184.596 132.865 183L132.913 182.316C132.946 181.87 132.973 181.429 133.005 180.993C131.564 181.519 130.245 180.544 128.949 179.877C127.454 179.108 125.96 178.337 124.465 177.57L122.969 176.804V176.804L119.974 175.275C118.626 174.587 117.587 173.902 116.149 174.709C110.968 177.617 106.207 181.486 101.893 185.546C101.065 186.324 99.3171 186.115 99.1075 184.81C98.2123 179.236 98.7568 173.58 99.2138 167.989L99.3823 165.913C99.5865 163.434 99.8088 160.954 100.105 158.485C100.238 157.381 100.37 156.277 100.516 155.174L100.628 154.348C100.811 153.041 100.93 151.742 101.319 150.488C101.196 150.449 101.078 150.384 100.972 150.283C99.8024 149.173 100.366 147.246 100.9 145.925C101.427 144.621 102.231 143.484 103.238 142.504C103.458 142.29 103.767 142.153 104.078 142.145C106.519 140.528 109.196 139.72 111.983 140.603C112.061 140.229 112.141 139.855 112.225 139.482L112.311 139.11C112.528 138.185 112.608 136.657 113.406 136.038ZM138.421 282.127C139.179 281.919 140.008 282.138 140.563 282.694C141.118 283.249 141.337 284.078 141.129 284.836C141.024 285.209 140.836 285.533 140.563 285.808C140.308 286.061 140.01 286.242 139.671 286.35L139.591 286.374L139.468 286.425C139.088 286.527 138.708 286.527 138.329 286.425C137.966 286.323 137.651 286.14 137.383 285.874C137.118 285.607 136.934 285.292 136.832 284.928C136.73 284.549 136.73 284.169 136.832 283.789L136.884 283.665V283.665C136.988 283.292 137.177 282.968 137.45 282.694C137.724 282.421 138.048 282.232 138.421 282.127ZM183.394 206.625C183.518 206.482 183.72 206.665 183.642 206.817C182.463 209.13 181.148 211.428 179.855 213.682C179.959 214.307 180.062 214.927 180.18 215.532C180.683 218.107 181.3 220.636 181.702 223.236C183.147 232.582 183.897 242.029 184.541 251.459C185.187 260.922 185.269 270.39 185.366 279.872C185.375 280.693 184.743 281.648 183.896 281.803C183.508 281.874 183.218 281.86 182.831 281.803C181.95 281.674 181.399 280.664 181.361 279.872C181.109 274.572 180.769 269.28 180.375 263.988C179.677 254.608 179.25 245.203 178.686 235.813L178.488 232.531C178.275 228.974 178.08 225.416 178.016 221.854C177.974 219.495 178.1 217.136 178.023 214.779C177.951 212.603 177.73 210.237 178.21 208.1C178.228 208.02 178.354 207.999 178.391 208.076C178.889 209.126 179.205 210.267 179.449 211.432C180.734 209.807 182.042 208.177 183.394 206.625ZM99.2253 149.149C99.4057 149.135 99.3985 149.407 99.2253 149.427C96.7036 149.719 94.2676 150.746 91.8866 151.618L91.6826 151.693C89.2771 152.566 86.9318 153.581 84.6749 154.791C80.2621 157.158 76.21 160.209 72.6273 163.701C58.3234 177.645 51.8048 197.751 47.0282 216.646C44.3743 227.144 42.487 237.82 41.2638 248.577C40.6589 253.897 40.2313 259.238 39.982 264.586C39.8544 267.328 39.7739 270.071 39.7403 272.815C39.723 274.221 39.7179 275.627 39.7196 277.032C39.7205 277.676 39.8354 278.487 39.6632 279.113C39.5035 279.692 39.0531 280.202 38.7199 280.685C38.3251 281.258 37.6154 281.227 37.2151 280.685L37.0674 280.487C36.6404 279.921 36.2227 279.379 36.1617 278.639C36.0964 277.845 36.1425 277.026 36.1395 276.229C36.1327 274.623 36.1526 273.016 36.1847 271.41C36.2466 268.331 36.3679 265.254 36.5481 262.18C36.914 255.942 37.5163 249.717 38.3787 243.528C39.9117 232.527 42.2094 221.631 45.2191 210.94C48.0586 200.855 51.4224 190.799 56.2144 181.457C60.6637 172.783 66.5006 164.714 74.2025 158.652C77.7841 155.833 81.6831 153.484 85.8867 151.715C88.0068 150.822 90.2331 150.094 92.4972 149.679C94.7363 149.268 96.9656 149.325 99.2253 149.149ZM138.855 264.3C139.255 264.298 139.701 264.385 140.044 264.607L140.503 264.961V264.961C140.627 265.121 140.751 265.281 140.874 265.442C141.16 265.815 141.198 266.42 141.139 266.865C141.125 267.163 141.037 267.439 140.874 267.695L140.525 268.147V268.147C140.189 268.421 139.909 268.616 139.503 268.748C139.291 268.817 139.086 268.831 138.882 268.821L138.814 268.816L138.855 268.822L138.784 268.814V268.814C138.718 268.808 138.651 268.801 138.584 268.792C138.539 268.786 138.493 268.783 138.448 268.776C138.404 268.773 138.362 268.771 138.318 268.775C137.801 268.824 137.282 268.531 136.916 268.194C136.585 267.891 136.289 267.248 136.335 266.792L136.355 266.602C136.39 266.28 136.418 266.154 136.554 265.831C136.686 265.517 136.871 265.24 137.123 265.006C137.605 264.557 138.194 264.305 138.855 264.3ZM137.257 240.781C137.942 240.034 139.119 239.979 139.969 240.431C140.176 240.541 140.366 240.718 140.549 240.865C141.009 241.237 141.189 241.908 141.215 242.474C141.24 243.033 140.945 243.697 140.549 244.082L140.453 244.176V244.176C140.216 244.406 139.877 244.606 139.545 244.667C139.011 244.766 138.562 244.763 138.065 244.553C137.637 244.372 137.269 244.082 137.018 243.688L136.978 243.622C136.96 243.594 136.944 243.566 136.929 243.538L136.907 243.494C136.431 242.578 136.559 241.541 137.257 240.781ZM137.612 217.137C137.921 217.04 138.23 217.026 138.539 217.096C138.749 217.096 138.944 217.149 139.126 217.254C139.323 217.309 139.494 217.409 139.639 217.553C139.813 217.657 139.952 217.796 140.056 217.97C140.261 218.195 140.4 218.459 140.472 218.761L140.555 219.38L140.472 219.998L140.237 220.554V220.554C140.173 220.638 140.108 220.722 140.043 220.806C139.939 220.981 139.8 221.12 139.624 221.224C139.511 221.337 139.38 221.422 139.234 221.481C138.716 221.852 138.027 221.973 137.414 221.804C137.049 221.702 136.733 221.518 136.465 221.251C136.199 220.983 136.014 220.666 135.912 220.302L135.87 220.011C135.816 219.621 135.808 219.405 135.918 218.909C135.966 218.691 136.107 218.383 136.18 218.254C136.495 217.701 137.008 217.322 137.612 217.137ZM164.45 200.127C165.337 200.121 166.225 200.123 167.112 200.132L167.778 200.141C168.892 200.159 169.847 200.044 170.723 200.817C171.359 201.379 171.079 202.321 170.475 202.743C169.56 203.384 168.413 203.062 167.362 202.991C166.253 202.917 165.144 202.855 164.034 202.805C161.884 202.709 159.734 202.648 157.583 202.638C155.436 202.629 153.286 202.649 151.14 202.684C148.956 202.72 146.682 202.923 144.51 202.697C144.212 202.666 144.144 202.273 144.439 202.171C146.486 201.463 148.788 201.234 150.932 200.963C153.145 200.683 155.357 200.485 157.583 200.357C159.87 200.226 162.159 200.143 164.45 200.127ZM137.608 193.171L137.681 193.172C138.072 193.173 138.437 193.265 138.778 193.448L138.851 193.489L139.32 193.851C139.607 194.14 139.806 194.481 139.916 194.874L139.998 195.49V195.49C140.011 195.809 139.944 196.107 139.799 196.384C139.705 196.671 139.546 196.919 139.32 197.13C139.11 197.356 138.861 197.515 138.574 197.609C138.319 197.743 138.046 197.81 137.754 197.81L137.681 197.809C137.263 197.807 136.873 197.702 136.512 197.492L136.043 197.13V197.13C135.755 196.84 135.557 196.499 135.447 196.107L135.364 195.49V195.49C135.352 195.171 135.418 194.873 135.564 194.597C135.657 194.31 135.817 194.061 136.043 193.851C136.253 193.625 136.501 193.465 136.788 193.372C137.043 193.238 137.316 193.171 137.608 193.171V193.171ZM144.478 138.712C144.977 137.989 145.882 138.632 145.753 139.214C145.787 140.847 145.87 142.432 146.242 144.033C146.412 144.765 146.635 145.499 146.979 146.17L147.123 146.452C147.568 147.332 147.913 148.161 147.314 149.126C147.032 149.58 146.521 149.922 145.968 149.898C143.514 149.792 143.177 146.375 143.028 144.468C142.874 142.503 143.352 140.344 144.478 138.712Z" fill="black"/>
<path fill-rule="evenodd" clip-rule="evenodd" d="M139.183 145.719C134.504 145.747 130.527 144.416 127.493 142.214C123.706 140.86 119.138 138.772 116.364 136.58C115.282 136.857 113.987 135.705 113.159 135.097C108.009 131.242 103.967 125.599 102.77 119.947C100.921 122.287 98.2897 122.384 95.7693 121.221C90.4861 118.218 90.6836 111.893 92.5857 107.168C88.587 98.1733 85.8158 74.4289 91.9197 64.8461C93.1682 63.4123 95.0004 62.5546 96.3196 61.0843C97.4934 59.8001 98.6099 58.4865 99.9756 57.4704C104.143 54.2908 111.32 52.5979 115.814 51.8017C134.573 47.7358 148.987 55.0439 165.979 61.2083C165.001 63.66 163.648 65.8959 162.098 67.9806C166.317 69.5592 164.379 73.1084 161.106 74.9076L159.158 73.9582C162.195 84.8525 169.185 111.944 166.169 120.644C163.764 134.217 153.209 145.818 139.183 145.719" fill="#D08B5B"/>
<path fill-rule="evenodd" clip-rule="evenodd" d="M148.304 54.8097C138.021 51.3623 127.777 49.2911 115.744 51.8989C111.251 52.6951 104.073 54.388 99.9063 57.5676C98.7309 58.4421 97.7401 59.5369 96.7385 60.6437C96.5763 60.823 96.4138 61.0025 96.2502 61.1815C95.5959 61.9108 94.8152 62.4895 94.0422 63.0624C93.2569 63.6445 92.4795 64.2207 91.8504 64.9433C85.8171 74.4151 88.4547 97.7225 92.378 106.947H92.5697H92.9724L93.1941 106.612L93.1941 106.612L93.1944 106.612L93.1946 106.611L148.304 54.8097ZM159.687 76.2294C159.541 75.6917 159.4 75.179 159.266 74.694L159.118 76.2294H159.687ZM159.316 74.1665L160.736 59.3788C162.438 60.024 164.16 60.6708 165.91 61.3055C164.932 63.7572 163.579 65.9931 162.029 68.0778C166.247 69.6564 164.31 73.2056 161.037 75.0048L159.316 74.1665Z" fill="#ECDCBF"/>
<path fill-rule="evenodd" clip-rule="evenodd" d="M141.894 146.888C135.818 147.514 128.6 146.074 124.55 141.126C124.429 140.977 124.376 140.81 124.373 140.648C124.369 140.468 124.429 140.294 124.534 140.158C124.643 140.016 124.799 139.917 124.978 139.885C125.128 139.858 125.3 139.875 125.476 139.975L125.849 140.182C128.615 141.714 131.488 143.02 134.623 143.579C137.851 144.155 141.138 144.091 144.337 143.36C150.164 142.029 154.88 138.633 158.351 134.156C162.225 129.16 164.551 122.818 165.144 116.475C165.862 108.789 164.196 101.149 162.471 93.7064C160.659 85.8862 158.679 78.106 156.378 70.416C156.309 70.1845 156.29 69.9678 156.31 69.7683C155.632 69.5017 154.91 69.5757 154.191 69.819C152.877 70.2636 151.569 71.266 150.478 72.0935C150.083 72.3931 149.715 72.6717 149.385 72.8984C148.032 73.8265 146.553 74.4944 144.899 74.5994C143.179 74.7084 141.492 74.1724 139.93 73.5017C139.136 73.161 138.355 72.8075 137.578 72.4555C135.363 71.453 133.174 70.4604 130.783 69.8153C127.578 68.9507 124.27 68.5249 120.951 68.5554C115.028 68.6097 109.086 70.1381 105.456 75.1602C103.985 77.1946 103.027 79.5328 103.774 82.0435C104.181 83.4094 104.949 84.6493 105.787 85.7897L106.074 86.178C106.534 86.804 106.933 87.4275 107.053 88.0912C107.154 88.6473 107.075 89.2356 106.679 89.8803C106.43 90.2862 106.113 90.6502 105.794 91.013C105.564 91.2746 105.333 91.5358 105.134 91.8171C104.734 92.3841 104.38 92.9947 104.102 93.6316C103.558 94.8784 103.327 96.2195 103.279 97.5721C103.22 99.2039 103.449 100.8 103.676 102.399C103.837 103.532 103.998 104.667 104.063 105.815C104.074 106.016 104.013 106.165 103.927 106.276C103.823 106.411 103.67 106.496 103.496 106.52C103.443 106.527 103.388 106.528 103.333 106.523C103.36 106.634 103.384 106.745 103.405 106.856C103.295 106.714 103.178 106.577 103.054 106.444C103.046 106.44 103.039 106.436 103.031 106.431C102.904 106.361 102.796 106.254 102.728 106.117C102.553 105.954 102.368 105.799 102.174 105.654C101.163 104.898 99.9827 104.45 98.7988 104.435C97.6575 104.421 96.5134 104.81 95.6337 105.633C93.8853 107.269 93.3732 109.938 93.3549 112.23C93.3364 114.57 93.8765 117.378 95.9113 118.83C96.7276 119.413 97.7245 119.763 98.7288 119.773C99.5613 119.782 100.358 119.486 101.142 119.205C101.384 119.118 101.625 119.032 101.865 118.954C102.138 118.865 102.386 118.87 102.603 118.935C102.847 119.009 103.055 119.16 103.21 119.362C103.364 119.563 103.465 119.815 103.496 120.079C103.527 120.335 103.492 120.6 103.384 120.839C103.357 120.899 103.328 120.958 103.299 121.015L103.746 121.753C105.46 124.57 107.204 127.336 109.49 129.758C110.802 131.148 112.194 132.46 113.72 133.608L113.94 133.772C114.071 133.869 114.217 133.988 114.373 134.116C114.818 134.481 115.352 134.971 115.85 134.99C115.998 134.996 116.127 134.977 116.244 134.962C116.528 134.924 116.765 134.913 116.999 135.009C117.187 135.086 117.382 135.23 117.583 135.526C117.718 135.727 117.788 135.979 117.788 136.234C117.788 136.491 117.718 136.747 117.592 136.95C117.333 137.37 117.019 137.63 116.679 137.778C116.3 137.943 115.88 137.968 115.445 137.887C114.371 137.686 113.183 136.794 112.426 136.213L112.28 136.1C110.604 134.819 109.016 133.401 107.62 131.815C105.242 129.115 103.107 125.933 102.01 122.456C101.237 122.965 100.282 123.207 99.2831 123.245C97.8282 123.3 96.2883 122.925 95.1536 122.386C92.6529 121.197 91.134 118.948 90.4222 116.362C89.5955 113.359 89.8642 109.907 90.9107 107.209C90.941 107.131 90.9727 107.053 91.0052 106.974C87.7835 98.7907 86.7929 89.7042 87.0688 80.9715C87.1979 76.884 87.4756 72.5954 88.4375 68.6088C88.8686 66.822 89.6177 65.1204 90.8138 63.7137C91.4958 62.9116 92.3325 62.2871 93.173 61.6643C93.9011 61.1249 94.6319 60.5867 95.2468 59.9132L95.5376 59.5934C95.6006 59.5239 95.6635 59.4544 95.7262 59.3851C96.7881 58.2117 97.822 57.0732 99.1106 56.1109C100.605 54.9952 102.254 54.1219 103.968 53.3966C107.66 51.8347 111.633 50.8982 115.564 50.1736C124.067 48.6064 132.797 48.5291 141.196 50.7321C145.101 51.7561 148.891 53.1579 152.675 54.558C153.026 54.688 153.377 54.818 153.729 54.9477C156.669 56.033 159.611 57.1137 162.553 58.1944C163.92 58.6966 165.287 59.1989 166.654 59.7016C166.951 59.8107 167.241 60.0458 167.406 60.3378C167.568 60.6227 167.616 60.955 167.486 61.2859C166.647 63.4165 165.588 65.4155 164.3 67.2822C164.748 67.5875 165.129 67.9935 165.417 68.4686C165.781 69.0697 165.997 69.7812 166.012 70.536C166.061 73.064 163.766 74.7777 161.863 76.0171C161.685 76.1327 161.509 76.201 161.34 76.2323C163.184 83.3035 164.95 90.3987 166.451 97.55L166.554 98.0457C168.1 105.53 169.097 113.168 167.635 120.752C166.376 127.282 163.452 133.585 158.883 138.45C154.405 143.218 148.396 146.219 141.894 146.888ZM101.887 103.834C101.091 101.303 100.67 98.5489 100.974 95.9833C101.166 94.3705 101.649 92.8179 102.437 91.3964C102.888 90.5823 103.438 89.8286 104.038 89.1188L104.245 88.8803C104.349 88.7586 104.454 88.6466 104.486 88.5064C104.505 88.4248 104.485 88.3357 104.436 88.2291C104.327 87.9932 104.123 87.7658 103.932 87.5438C103.811 87.4027 103.693 87.2643 103.594 87.1296C101.85 84.7634 100.55 81.9463 100.972 78.9457C101.385 76.0181 103.299 73.2893 105.336 71.2327C109.823 66.7043 116.778 65.6637 122.871 65.9135C126.418 66.0587 129.96 66.6854 133.338 67.7802C135.003 68.3201 136.632 68.9777 138.215 69.7314L138.565 69.9C138.754 69.9919 138.943 70.0848 139.132 70.1777C140.369 70.7859 141.611 71.4 142.954 71.7307C145.577 72.3763 147.356 71.0165 149.225 69.6452C149.866 69.1752 150.517 68.6988 151.209 68.2806L151.351 68.1963C152.598 67.4712 154.091 66.9833 155.524 67.0052C156.769 67.0242 157.971 67.4228 158.949 68.3647C159.15 68.5582 159.265 68.7693 159.319 68.9795C159.428 69.1316 159.515 69.3129 159.572 69.5272C159.922 70.8451 160.271 72.164 160.619 73.4833L160.903 73.2997C161.745 72.7514 162.66 72.1248 163.074 71.2075C163.233 70.8545 163.21 70.2663 163.01 69.8339C162.94 69.6828 162.847 69.5485 162.719 69.4646C162.626 69.4036 162.514 69.375 162.383 69.3855C162.066 69.4265 161.774 69.3799 161.527 69.2752C161.242 69.1545 161.015 68.9559 160.868 68.7165C160.717 68.4714 160.648 68.1832 160.685 67.8844C160.716 67.6274 160.827 67.359 161.045 67.1069C162.482 65.447 163.691 63.616 164.611 61.6286L158.529 59.3729C156.361 58.5691 154.192 57.7662 152.022 56.9665L150.834 56.5289C146.889 55.0782 142.921 53.6604 138.818 52.7264C130.664 50.8704 122.161 51.3066 114.029 53.0537L113.538 53.1601C110.126 53.906 106.668 54.8085 103.536 56.3772C101.998 57.1472 100.537 58.0835 99.2822 59.2664C98.728 59.7888 98.2269 60.3607 97.7257 60.9319C97.0233 61.7323 96.32 62.5306 95.4848 63.2049L94.7096 63.8272C93.5563 64.7588 92.5161 65.6665 91.8654 67.1113C91.185 68.6218 90.8602 70.2905 90.5952 71.9163C89.9269 76.0119 89.6631 80.1731 89.6883 84.3217C89.7308 91.2874 90.7865 98.1112 92.1201 104.911C93.19 103.376 94.6931 102.186 96.6222 101.932C97.8799 101.767 99.1268 102.002 100.208 102.559C100.833 102.881 101.402 103.311 101.887 103.834V103.834ZM99.8656 112.105C98.4569 111.558 96.9778 111.379 95.4874 111.64C95.3313 111.668 95.1824 111.635 95.0572 111.562C94.9303 111.488 94.8303 111.371 94.776 111.242C94.7132 111.093 94.71 110.932 94.7654 110.788C94.8135 110.664 94.9051 110.543 95.0735 110.462C96.6873 109.69 98.4811 109.349 100.261 109.592L100.437 109.617C101.348 109.752 102.628 110.037 103.587 110.598C104.341 111.038 104.893 111.645 105.031 112.438C105.102 112.852 105 113.283 104.762 113.596C104.533 113.898 104.181 114.1 103.727 114.087C102.925 114.064 102.45 113.724 101.879 113.284C101.809 113.231 101.738 113.176 101.664 113.121C101.112 112.707 100.509 112.355 99.8656 112.105Z" fill="black"/>
<path fill-rule="evenodd" clip-rule="evenodd" d="M152.125 125.777C153.461 125.466 154.509 126.597 154.247 127.899C153.969 129.278 152.487 129.751 151.244 129.707C149.835 129.659 148.428 129.368 147.012 129.309C145.557 129.249 144.097 129.238 142.642 129.277C141.295 129.314 139.914 129.551 138.578 129.338C138.058 129.255 138.107 128.568 138.446 128.324C139.45 127.599 140.753 127.304 141.937 126.999C143.145 126.689 144.379 126.452 145.617 126.307C146.873 126.16 148.139 126.086 149.403 126.072C149.978 126.065 150.683 126.193 151.244 126.09C151.53 126.037 151.821 125.848 152.125 125.777ZM148.271 107.866C149.866 108.836 152.297 111.098 150.581 113.503C148.561 115.624 145.652 113.193 144.219 112.093C142.89 111.241 141.396 113.433 142.629 114.428C152.987 122.099 157.19 108.12 149.078 106.726C148.185 106.572 147.853 107.566 148.271 107.866ZM136.703 100.622C138.837 100.267 139.21 103.31 137.095 103.523C136.651 103.568 136.21 103.607 135.769 103.645C135.812 103.783 135.841 103.925 135.856 104.071C135.877 104.195 135.892 104.326 135.905 104.476C135.972 105.225 135.441 106.004 134.821 106.367C134.177 106.744 133.252 106.794 132.612 106.367C132.282 106.146 131.952 105.897 131.77 105.533C131.526 105.158 131.393 104.724 131.38 104.279C130.407 104.532 129.416 104.874 128.434 105.055C128.47 105.09 128.505 105.128 128.54 105.17C128.566 105.202 128.53 105.261 128.492 105.232L127.999 105.123V105.123C127.847 105.143 127.695 105.159 127.544 105.168L127.548 105.155V105.155C127.295 105.151 127.088 104.852 127.314 104.612C128.182 103.694 129.537 103.084 130.772 102.574L131.962 102.086C133.483 101.468 135.089 100.891 136.703 100.622ZM153.87 101.564C155.268 101.404 156.652 101.467 158.052 101.553C160.409 101.696 159.42 105.134 157.529 104.34C157.548 104.466 157.553 104.592 157.539 104.709C157.465 105.313 157.268 105.824 156.714 106.149C156.199 106.45 155.546 106.449 155.031 106.149C154.48 105.827 154.231 105.374 154.091 104.785C153.982 104.328 154.025 103.946 154.088 103.493C154.109 103.344 154.174 103.204 154.265 103.078C154.133 103.045 154.001 103.013 153.869 102.984C152.693 102.716 151.533 102.77 150.36 102.6C150.235 102.582 150.215 102.38 150.325 102.329C151.378 101.834 152.718 101.695 153.87 101.564ZM136.487 90.9473C137.294 90.6394 138.307 91.1515 138.719 91.8559C139.186 92.6552 138.987 93.578 138.41 94.2516C137.525 95.2848 135.84 95.9213 134.598 96.5109L134.499 96.5587C133.223 97.1741 131.913 97.7393 130.586 98.2317C129.28 98.7163 127.921 99.0959 126.567 99.4218C125.854 99.5936 125.125 99.7357 124.395 99.8253C123.819 99.8959 123.375 99.7378 122.824 99.7378C122.744 99.738 122.718 99.6313 122.784 99.5903C123.299 99.2665 123.681 98.8402 124.243 98.5403C124.827 98.2281 125.414 97.9212 126.003 97.6173C127.194 97.0031 128.341 96.3196 129.49 95.6317C130.701 94.9065 131.884 94.1429 133.035 93.3254C134.162 92.5255 135.2 91.4387 136.487 90.9473ZM150.861 90.2896C151.869 90.0941 152.866 90.5709 153.164 91.5979C153.45 92.5817 153.151 92.7926 153.914 93.4966C154.522 94.0577 155.177 94.5585 155.838 95.0516L156.812 95.7755C158.575 97.0811 160.352 98.3156 162.38 99.1965C162.551 99.2709 162.452 99.5256 162.289 99.529C159.067 99.5911 155.977 99.1547 153.068 97.7114C151.709 97.0372 150.344 96.1844 149.556 94.8385C148.644 93.28 148.671 90.7144 150.861 90.2896Z" fill="black"/>
<path fill-rule="evenodd" clip-rule="evenodd" d="M166.533 112.302C166.135 107.255 159.773 105.116 156.604 104.482C146.051 102.001 137.074 108.368 124.491 108.498C123.221 108.518 119.589 108.304 117.901 107.857C109.332 105.91 100.772 103.838 92.3643 101.283C91.1281 101.573 90.7624 103.187 91.6111 104.106C99.6638 106.963 111.983 109.521 118.489 109.813C118.364 118.22 113.928 126.674 107.801 131.324C117.545 142.104 140.271 145.649 153.646 139.99C160.225 138.015 167.167 120.334 166.533 112.302" fill="white"/>
<path fill-rule="evenodd" clip-rule="evenodd" d="M91.6841 101.538C91.3218 101.523 91.5331 100.467 92.3492 100.617C102.88 103.081 115.999 107.774 126.823 107.739C134.786 107.479 141.92 103.042 149.927 103.016C155.309 103.119 162.172 103.884 165.938 108.205C170.906 123.967 159.719 145.405 142.117 145.53L138.785 145.288C127.429 144.451 114.987 143.112 107.668 133.474L107.611 133.523V133.523C106.516 132.788 106.577 131.201 107.507 130.385L107.535 130.429V130.429C107.553 130.4 107.572 130.373 107.591 130.345L107.58 130.308V130.308C107.937 129.932 108.344 129.58 108.714 129.266L108.716 129.272V129.272C114.212 124.691 117.801 117.764 118.008 110.591C116.188 111.091 85.6165 104.75 91.0738 103.203C94.9772 104.523 98.9036 105.715 102.909 106.664C102.976 106.626 103.073 106.636 103.11 106.711C108.01 107.917 113.009 108.607 118.014 109.165C118.009 108.926 118 108.687 117.988 108.447C109.088 106.714 100.362 104.14 91.6841 101.538ZM163.752 107.935C145.497 98.7089 136.435 112.339 118.78 108.586C120.627 116.83 116.066 125.717 109.871 131.104C118.872 138.898 122.768 140.078 134.576 141.343L136.118 141.526C138.438 141.801 140.779 142.057 143.105 142.098C155.173 141.219 164.291 128.659 165.656 117.279L165.663 116.964C165.724 114.076 165.592 111.019 164.313 108.373C164.077 108.291 163.872 108.144 163.752 107.935ZM138.338 115.177C138.969 115.035 139.612 115.723 139.221 116.326C137.958 118.276 134.867 119.031 132.706 119.338C130.203 119.693 127.777 119.413 125.399 118.559C125.272 118.513 125.281 118.287 125.434 118.306C127.691 118.574 130.019 118.378 132.212 117.78C134.436 117.347 136.232 115.867 138.338 115.177ZM155.49 113.772C155.48 113.402 157.301 114.474 157.588 114.618C159.812 115.954 162.386 116.052 164.839 116.576C165.411 116.795 165.41 117.522 164.839 117.742C161.778 118.556 157.132 116.419 155.49 113.772Z" fill="black"/>
</svg>
