<svg width="240" height="324" viewBox="0 0 240 324" fill="none" xmlns="http://www.w3.org/2000/svg">
<path fill-rule="evenodd" clip-rule="evenodd" d="M181.077 176.596C179.236 169.453 177.542 166.424 174.271 163.941C171.211 161.619 166.745 159.668 160.228 158.243C153.44 157.056 153.247 153.527 151.545 147.856C151.049 146.151 148.588 145.697 147.526 146.926C147.377 146.765 147.221 146.617 147.059 146.483C147.204 145.67 146.02 143.339 146.059 142.561C146.472 134.443 143.817 130.366 137.191 128.851C135.75 128.521 125.961 128.327 124.556 128.715C118.413 130.414 112.366 135.807 113.292 142.304C111.363 144.825 109.476 146.363 106.501 147.175C101.869 147.764 104.196 213.409 112.242 252.738C115.694 269.612 198.238 240.891 194.508 232.44C195.037 230.891 194.073 229.188 194.508 227.589C194.823 226.431 195.629 225.952 196.035 224.806C196.606 223.193 195.985 221.028 195.342 219.382C195.079 218.562 195.827 217.679 196.035 216.842C197.022 212.893 194.763 213.241 193.134 210.601C193.159 210.593 193.582 208.709 193.58 208.718C193.83 207.373 193.205 205.649 192.66 204.526C192.292 203.767 191.503 203.292 190.719 203.379C191.509 200.699 192.507 198.469 193.58 195.886C195.479 191.335 197.284 186.573 200.01 182.454C201.126 180.767 200.225 179.215 198.418 179.1C192.571 178.728 186.787 177.886 181.077 176.596Z" fill="#D08B5B"/>
<path fill-rule="evenodd" clip-rule="evenodd" d="M171.949 177.148L158.602 199.744C158.602 199.744 161.768 200.06 163.05 200.675C164.331 201.291 170.215 208.773 170.215 208.773L171.15 212.893L168.934 216.215L169.798 218.3C169.798 218.3 170.415 216.887 171.949 215.791C173.484 214.694 176.868 212.893 176.868 212.893C176.868 212.893 175.744 212.291 175.744 211.585C175.744 210.878 174.753 207.864 176.868 206.725C178.983 205.587 189.914 202.922 189.914 202.922L200.992 179.548L171.949 177.148Z" fill="#FFCB46"/>
<path fill-rule="evenodd" clip-rule="evenodd" d="M112.402 147.33L154.785 154.771L174.268 163.942L177.449 166.393L158.598 199.745L129.492 205.057L122.076 224.323L123.59 246.041L170.94 240.394L191.365 237.966L196.167 257.355L195.299 265.331L194.038 269.376L143.403 283.05C143.403 283.05 117.619 280.55 113.049 280.55C108.478 280.55 74.9673 283.879 74.9673 283.879L67.2138 283.05C67.2138 283.05 50.0592 264.964 47.3985 258.528C44.7379 252.091 38.9844 212.965 38.9844 212.965L39.6179 206.953L54.4391 168.801C54.4391 168.801 56.4183 167.003 58.9135 163.942C61.4087 160.882 112.402 147.33 112.402 147.33Z" fill="#9DDADB"/>
<path fill-rule="evenodd" clip-rule="evenodd" d="M189.111 202.44C185.28 202.635 181.446 203.546 177.981 205.196C176.563 205.872 175.279 206.849 174.903 208.455C174.713 209.275 174.759 210.123 174.86 210.951C174.937 211.579 174.956 212.38 175.501 212.805C175.594 212.877 175.693 212.932 175.797 212.972C174.518 213.549 173.301 214.242 172.22 214.956C171.231 215.609 170.215 216.615 169.759 217.75C169.721 217.621 169.683 217.501 169.644 217.387C168.867 215.087 167.669 213.204 165.783 211.938C165.568 211.157 163.269 207.796 161.133 207.923C158.795 208.06 156.913 208.231 154.798 209.307C154.028 209.29 153.258 209.301 152.498 209.334C152.367 209.339 152.373 209.516 152.498 209.531C153.115 209.609 153.732 209.696 154.349 209.797C155.815 210.032 157.277 210.33 158.707 210.7C160.423 211.144 162.197 211.589 163.801 212.365C166.91 213.872 168.835 217.812 168.44 221.24C168.375 221.802 168.157 223.501 167.377 223.326C166.718 223.178 166.456 221.802 166.226 221.293C165.609 219.94 164.498 219.056 163.165 218.458C161.599 217.755 159.924 217.279 158.301 216.725C157.383 216.411 156.463 216.095 155.542 215.783C154.6 215.459 153.704 215.013 152.701 215.239C152.094 215.377 152.025 216.1 152.365 216.514C152.883 217.146 153.652 217.332 154.397 217.592C155.382 217.934 156.364 218.277 157.347 218.619C158.865 219.147 160.456 219.593 161.937 220.24L161.891 220.346C161.77 220.312 161.629 220.432 161.652 220.58C161.874 221.948 162.183 223.529 161.84 224.898C161.57 225.984 160.617 227.187 159.379 226.868C159.573 226.69 159.645 226.384 159.514 226.101C159.024 225.052 152.602 220.914 152.029 222.451C152.01 222.506 152.069 222.546 152.116 222.538C152.604 222.436 153.421 223.269 153.812 223.533C154.376 223.913 154.948 224.285 155.506 224.676C156.117 225.103 156.713 225.551 157.294 226.014C157.75 226.378 158.094 226.756 158.618 226.94C158.344 227.071 158.126 227.314 158.033 227.625C157.797 228.434 157.34 229.121 156.548 229.478C155.718 229.85 154.782 229.615 153.907 229.707C152.716 229.827 151.676 230.393 150.808 231.203C148.985 232.906 148.07 235.908 145.52 236.713C143.997 237.193 142.306 236.89 140.764 236.672C139.042 236.429 137.365 236.237 135.63 236.491C133.97 236.734 132.4 237.309 130.883 238.01C129.461 238.668 127.89 239.412 126.628 240.392C126.368 239.591 126.106 238.799 125.908 237.981C125.439 236.047 125.185 234.077 125.124 232.09C125.067 230.199 125.173 228.299 125.335 226.416C125.416 225.475 125.542 224.539 125.623 223.598C125.644 223.362 125.686 223.108 125.718 222.855C127.97 221.525 130.336 220.507 132.721 219.458C132.728 219.456 132.734 219.452 132.74 219.45C132.814 219.416 132.886 219.384 132.96 219.353C132.958 219.348 132.956 219.344 132.952 219.34C133.224 219.173 133.414 218.951 133.528 218.701C136.966 216.421 139.839 213.308 141.981 209.677C142.879 208.155 143.743 206.576 144.918 205.243C146.168 203.82 147.654 202.975 149.492 202.535C151.64 202.02 153.854 201.711 156.056 201.535C157.258 201.441 158.601 201.292 159.911 201.299C160.824 201.305 161.718 201.383 162.537 201.609C163.752 201.943 164.462 202.867 165.225 203.801C165.954 204.698 166.678 205.596 167.359 206.53C168.003 207.415 168.611 208.33 169.14 209.29C169.456 209.865 169.75 210.457 169.997 211.067C170.084 211.283 170.198 211.528 170.251 211.752C170.304 211.978 170.206 212.217 170.46 212.217C169.414 212.232 168.719 214.841 169.759 214.779C171.22 214.694 171.955 212.942 171.668 211.387C171.158 208.612 168.398 205.261 167.853 204.551C166.646 202.983 165.402 200.937 163.471 200.208C163.444 200.198 163.414 200.187 163.387 200.179C163.949 199.646 164.392 199.008 164.817 198.359C165.254 197.691 165.776 196.926 165.92 196.133C166.011 195.628 165.383 195.341 165.085 195.783C164.652 196.427 164.443 197.243 164.12 197.951C163.79 198.67 163.389 199.348 163.072 200.073C162.309 199.838 161.485 199.731 160.647 199.695C161.705 198.262 163.513 195.497 163.731 195.142C164.733 193.498 165.685 191.803 166.596 190.106C167.58 188.267 168.423 186.352 169.366 184.492C169.9 183.438 170.439 182.374 171.033 181.352C171.237 181.001 171.457 180.65 171.706 180.331C171.755 180.268 171.816 180.215 171.873 180.155C171.939 180.119 172.006 180.079 172.044 180.058C172.387 179.862 172.507 179.405 172.748 179.115C173.133 178.649 173.585 178.594 174.163 178.587C175.397 178.574 176.635 178.623 177.867 178.657C179.678 178.708 181.486 178.779 183.294 178.875C183.842 178.904 184.387 178.934 184.934 178.968C187.564 179.124 190.192 179.329 192.814 179.581C195.134 179.802 197.454 180.164 199.775 180.337C196.632 187.809 193.146 195.144 189.199 202.225C189.159 202.296 189.129 202.368 189.111 202.44ZM171.668 221.688C171.161 221.92 170.669 222.21 170.211 222.54C170.287 222.026 170.306 221.485 170.285 220.942C170.663 221.347 171.147 221.58 171.668 221.688ZM193.313 208.836C193.277 208.84 193.243 208.859 193.226 208.895C192.525 210.342 192.818 211.959 193.964 213.094C194.564 213.686 195.871 214.354 195.829 215.326C195.793 216.112 194.937 216.772 194.572 217.421C194.232 218.025 194.105 218.689 194.378 219.344C194.726 220.183 195.7 220.517 196.034 221.341C196.456 222.387 195.77 223.649 195.288 224.56C194.84 225.403 194.261 226.247 193.877 227.138C191.302 228.472 185.458 230.894 184.754 231.03C183.897 231.196 183.037 231.355 182.175 231.503C180.52 231.79 178.862 232.057 177.199 232.291C176.253 232.424 175.304 232.555 174.356 232.659C173.528 232.748 172.594 232.868 171.926 232.245C170.58 230.985 171.335 228.874 172.186 227.601C172.203 227.576 172.203 227.553 172.197 227.532C172.999 227.343 173.8 227.124 174.599 226.969C176.135 226.674 177.681 226.424 179.23 226.202C182.411 225.748 185.614 225.448 188.813 225.146C189.605 225.069 189.613 223.823 188.813 223.897C184.218 224.317 179.599 224.716 175.066 225.602C173.929 225.822 172.801 226.071 171.679 226.352C171.149 226.483 170.58 226.689 170.025 226.695C169.991 226.695 169.957 226.695 169.923 226.693C168.835 226.659 168.677 225.727 169.275 224.951C169.349 224.856 169.425 224.761 169.503 224.67C170.559 223.41 171.875 222.569 173.232 221.698C174.751 221.491 176.266 221.03 177.753 220.692C181.425 219.855 185.097 219.018 188.771 218.184C189.491 218.019 189.185 216.911 188.464 217.074C185.675 217.706 182.887 218.338 180.098 218.97L176.016 219.896C175.201 220.079 174.182 220.449 173.223 220.583C172.75 220.648 172.292 220.656 171.878 220.559C170.54 220.242 170.473 218.57 171.049 217.577C171.696 216.461 172.917 215.764 174.001 215.132C175.879 214.035 177.878 213.246 179.83 212.338C180.176 212.262 180.523 212.185 180.869 212.109C182.885 211.666 185.187 211.448 187.085 210.634C187.653 210.393 187.342 209.497 186.78 209.51C185.308 209.542 183.768 210.066 182.329 210.376C180.772 210.714 179.213 211.05 177.656 211.387C177.499 211.42 176.574 211.716 176.435 211.651C176.346 211.608 176.314 211.3 176.285 211.097C176.189 210.429 176.12 209.728 176.223 209.057C176.452 207.555 177.704 206.849 178.972 206.272C181.794 204.989 184.89 204.186 187.97 203.865C188.68 203.791 189.39 203.744 190.104 203.721C190.942 203.695 191.633 203.548 192.058 204.374C192.725 205.676 193.093 207.35 193.313 208.836ZM189.393 256.04C188.778 253.912 188.945 251.64 188.524 249.469C188.307 248.35 188.01 247.239 187.686 246.146C187.424 245.263 186.988 244.323 186.938 243.402C186.935 243.34 187.008 243.305 187.058 243.333C187.925 243.83 188.592 244.905 189.087 245.748C189.679 246.757 190.131 247.814 190.496 248.925C191.223 251.139 191.82 253.809 190.883 256.04C190.603 256.704 189.623 256.837 189.393 256.04ZM165.391 272.148C164.475 271.508 163.807 270.614 163.03 269.824C162.265 269.048 163.46 267.852 164.225 268.629C164.888 269.302 165.464 270.143 166.244 270.688C166.62 270.95 166.794 271.423 166.548 271.845C166.33 272.216 165.766 272.409 165.391 272.148ZM160.28 247.558C161.953 246.834 163.599 246.046 165.35 245.525C166.396 245.213 166.839 246.845 165.799 247.155C164.186 247.635 162.674 248.351 161.133 249.018C160.144 249.445 159.285 247.988 160.28 247.558ZM142.612 247.051C142.203 246.042 143.839 245.606 144.242 246.602C144.706 247.748 145.238 248.865 145.702 250.011C146.111 251.02 144.475 251.456 144.072 250.46C143.608 249.314 143.076 248.198 142.612 247.051ZM125.173 267.218C124.9 267.582 124.446 267.779 124.017 267.522C123.657 267.306 123.438 266.733 123.713 266.365C124.519 265.291 125.335 264.23 126.279 263.272C127.045 262.496 128.239 263.692 127.474 264.468C126.631 265.323 125.892 266.259 125.173 267.218ZM122.679 154.063C123.455 154.593 124.135 155.237 124.797 155.9C125.568 156.67 124.373 157.866 123.602 157.095C123.044 156.537 122.48 155.97 121.826 155.523C121.448 155.265 121.279 154.785 121.523 154.367C121.742 153.992 122.302 153.806 122.679 154.063ZM148.051 181.272C147.612 182.15 147.217 183.012 147.192 184.01C147.166 185.098 145.475 185.099 145.502 184.01C145.535 182.704 146.016 181.57 146.591 180.418C147.078 179.443 148.535 180.301 148.051 181.272ZM157.359 159.42C158.268 158.814 159.113 160.279 158.213 160.88C157.483 161.366 156.752 161.854 156.022 162.341C155.114 162.946 154.269 161.481 155.169 160.881C155.899 160.394 156.629 159.907 157.359 159.42ZM116.983 197.626C116.828 198.701 115.2 198.241 115.353 197.177C115.591 195.532 115.881 193.909 116.327 192.307C116.619 191.259 118.249 191.707 117.957 192.757C117.511 194.359 117.221 195.982 116.983 197.626ZM111.057 216.994C109.969 216.971 109.969 215.28 111.057 215.303C112.042 215.324 113.01 215.584 113.959 215.821C115.016 216.085 114.565 217.715 113.51 217.451C112.707 217.25 111.89 217.012 111.057 216.994ZM108.87 256.01C108.496 256.192 108.113 256.355 107.735 256.528C106.978 256.874 106.222 257.221 105.466 257.568C103.891 258.291 102.318 259.017 100.745 259.745C97.5972 261.202 94.425 262.609 91.2695 264.051C88.0517 265.521 84.8423 267.011 81.6369 268.509C80.1268 269.214 78.6053 269.894 77.0867 270.58C75.7882 271.168 74.1832 272.194 72.7578 272.291C72.6845 272.296 72.66 272.203 72.7018 272.155C73.2403 271.543 74.0993 271.186 74.8071 270.788C75.53 270.381 76.2665 269.998 76.9996 269.61C78.5279 268.8 80.0581 267.997 81.6012 267.215C84.6879 265.652 87.7804 264.101 90.8736 262.552C94.0282 260.971 97.1788 259.381 100.361 257.857C101.859 257.139 103.359 256.423 104.86 255.71C105.673 255.324 106.486 254.938 107.3 254.553C107.651 254.387 107.999 254.207 108.358 254.058C108.835 253.861 109.198 253.901 109.69 253.779C110.493 253.581 110.84 254.602 110.224 255.047C109.717 255.413 109.45 255.727 108.87 256.01ZM97.5866 273.347C97.4131 272.925 97.7763 272.412 98.1769 272.307C98.6567 272.18 99.0414 272.472 99.2165 272.897C99.6798 274.025 100.34 275.059 101.189 275.933C101.949 276.714 100.754 277.91 99.9942 277.129C98.9296 276.034 98.1648 274.754 97.5866 273.347ZM89.2857 246.207C88.5152 245.437 89.7105 244.241 90.4808 245.012L92.6712 247.203C93.4417 247.974 92.2462 249.169 91.4761 248.398L89.2857 246.207ZM66.8131 242.635C65.2383 243.097 63.4016 243.521 62.3279 244.865C62.2755 244.931 62.1874 244.847 62.2189 244.781C63.5934 241.931 67.5352 240.931 70.2644 239.932C72.1948 239.226 74.1754 238.64 76.1727 238.116C75.9731 235.837 76.5236 233.394 76.715 231.126C76.9193 228.704 77.0856 226.276 77.171 223.847C77.2582 221.369 77.2793 218.874 77.1978 216.395C77.1167 213.926 76.7962 211.486 76.6559 209.025C76.6424 208.787 76.9736 208.776 77.045 208.972C77.8745 211.256 78.2288 213.786 78.4988 216.195C78.7768 218.676 78.8691 221.15 78.8336 223.645C78.7969 226.211 78.6477 228.771 78.443 231.328C78.346 232.54 78.2334 233.751 78.1272 234.962C78.046 235.887 78.0084 236.804 77.82 237.699C79.0246 237.403 80.232 237.124 81.4356 236.851C85.2735 235.985 89.1274 235.181 92.9493 234.244C94.8253 233.785 96.6746 233.234 98.5422 232.745C100.301 232.284 102.157 231.726 103.962 231.52C104.607 231.447 104.689 232.329 104.262 232.628C102.795 233.659 100.846 234.376 99.1508 234.953C97.4497 235.532 95.6814 235.949 93.9378 236.378C90.3017 237.272 86.6311 238.004 82.966 238.766C79.306 239.527 75.6391 240.282 72.0203 241.221C70.2775 241.673 68.5407 242.127 66.8131 242.635ZM58.1835 197.401C57.2425 197.954 56.393 196.492 57.3306 195.941C58.5574 195.221 59.865 194.679 61.1831 194.151C62.1946 193.746 62.6298 195.382 61.6324 195.782C60.4479 196.256 59.2859 196.754 58.1835 197.401ZM54.7762 260.217C53.8326 260.765 52.9825 259.303 53.9233 258.758C55.2445 257.991 56.6915 257.48 58.0607 256.81C59.0349 256.332 59.8905 257.791 58.9136 258.27C57.5446 258.94 56.0974 259.451 54.7762 260.217ZM53.2436 224.56C54.1559 225.427 55.3734 225.835 56.5214 226.29C57.5224 226.687 57.0834 228.322 56.0721 227.921C54.6418 227.353 53.1849 226.835 52.0485 225.755C51.2579 225.004 52.4552 223.811 53.2436 224.56ZM63.3361 176.134C64.339 176.528 63.8998 178.162 62.8867 177.765C61.7632 177.324 60.6029 176.988 59.4794 176.547C58.4767 176.154 58.9157 174.519 59.9288 174.917C61.0523 175.358 62.2126 175.693 63.3361 176.134ZM81.1402 156.9C82.2059 156.72 82.6597 158.349 81.5896 158.53C80.262 158.754 78.9547 159.017 77.6955 159.504C76.6787 159.898 76.2424 158.262 77.2462 157.874C78.5055 157.386 79.8129 157.124 81.1402 156.9ZM87.023 203.731C86.0459 203.251 86.9032 201.793 87.8759 202.271C88.901 202.775 89.963 203.165 91.0814 203.403C92.1464 203.63 91.6929 205.26 90.6321 205.034C89.3733 204.766 88.1757 204.298 87.023 203.731ZM92.5791 177.352C93.6312 177.063 94.0762 178.695 93.0285 178.982C91.1852 179.487 89.2874 179.75 87.4305 180.199C86.3723 180.456 85.9246 178.825 86.9812 178.569C88.838 178.119 90.736 177.857 92.5791 177.352ZM116.149 169.073C117.219 169.271 116.763 170.901 115.7 170.704C114.568 170.494 113.422 170.491 112.274 170.49C111.185 170.49 111.187 168.799 112.274 168.8C113.578 168.8 114.864 168.836 116.149 169.073ZM193.021 177.907C190.26 177.643 187.494 177.431 184.725 177.273C184.596 177.266 184.469 177.258 184.34 177.251C184.325 177.222 184.306 177.194 184.287 177.165C183.383 175.837 182.718 174.51 182.141 173.01C181.59 171.581 181.055 170.108 180.206 168.819C179.237 167.35 177.929 166.2 176.496 165.204C175.627 165.789 174.82 166.474 174.082 167.2C173.305 167.963 172.11 166.768 172.887 166.004C173.543 165.359 174.243 164.763 174.983 164.225C174.128 163.705 173.256 163.217 172.406 162.732C169.218 160.912 165.954 159.23 162.622 157.691C161.073 156.974 159.506 156.338 157.928 155.694C157.078 155.347 156.24 154.901 155.39 154.5C155.452 153.899 155.272 153.227 154.811 152.832C154.471 152.542 154.207 152.435 153.802 152.23C153.711 152.198 153.656 152.179 153.63 152.168C153.649 152.173 153.704 152.189 153.795 152.219C154.011 152.319 154.028 152.289 153.846 152.132C153.835 151.79 153.161 151.067 153.007 150.714C152.471 149.503 152.304 148.222 151.511 147.119C150.419 145.6 148.585 145.025 146.876 145.54C146.699 143.712 146.652 141.804 145.963 140.172C145.944 140.128 145.883 140.109 145.856 140.157C145.137 141.381 145.076 142.744 145.021 144.156C144.968 145.481 145.019 146.836 145.192 148.153C145.083 148.237 144.971 148.318 144.854 148.396C144.309 148.755 143.722 149.032 143.105 149.237C141.93 149.626 140.699 149.795 139.467 149.854C136.287 150.006 133.011 149.685 129.884 149.14C126.721 148.588 121.873 147.76 119.059 146.177C117.201 145.133 115.488 143.858 113.751 142.624C114.381 140.595 114.542 138.414 113.908 136.7C113.832 136.495 113.511 136.457 113.449 136.7C113.052 138.335 112.936 139.98 112.408 141.597C112.399 141.62 112.391 141.645 112.383 141.668C112.218 141.557 112.053 141.447 111.888 141.337C111.508 141.085 110.99 141.273 110.762 141.632C107.113 147.383 101.335 147.713 95.2677 148.74C88.6274 149.865 81.9536 151.078 75.5691 153.278C69.4635 155.383 63.6283 158.448 59.0057 163.026C57.9593 164.062 56.9807 165.166 56.0571 166.319C56.9507 166.432 57.837 166.607 58.7119 166.882C59.7477 167.208 59.3026 168.84 58.2625 168.513C57.1381 168.159 56.0013 167.984 54.8529 167.897C51.7119 172.196 49.2629 177.07 47.1452 181.867C43.0831 191.065 40.4391 200.861 39.2224 210.834C39.8905 210.434 40.5705 210.052 41.2675 209.697C42.236 209.205 43.0901 210.664 42.1206 211.157C41.044 211.705 39.9982 212.309 38.985 212.964C38.5424 217.329 38.3708 221.723 38.4748 226.109C38.7219 236.567 40.1332 247.331 43.3255 257.309C44.891 262.206 46.9656 267.063 50.0564 271.201C51.455 273.075 53.0438 274.766 54.9156 276.176C55.8219 276.861 56.7811 277.472 57.7931 277.987C59.0966 278.655 60.7952 278.875 61.9191 279.82C62.2888 280.131 62.5741 280.54 62.7895 281.003C62.6649 281.882 62.6501 282.764 62.891 283.643C62.967 283.918 63.1741 284.142 63.4297 284.25C63.4339 284.326 63.4339 284.4 63.4339 284.471C63.4339 284.505 63.4846 284.514 63.491 284.48C63.5015 284.414 63.5121 284.349 63.5226 284.281C63.605 284.309 63.6917 284.322 63.7804 284.322C66.9895 284.334 70.2027 284.255 73.4161 284.146C73.1676 283.385 72.8985 282.63 72.6401 281.868C72.2892 280.834 73.9221 280.394 74.2698 281.419C74.5722 282.309 74.8882 283.192 75.1694 284.085C78.6124 283.957 82.0544 283.803 85.4903 283.69C92.798 283.446 100.104 283.366 107.413 283.212C118.765 282.971 130.199 282.478 141.568 282.961C141.961 282.126 142.402 281.31 142.819 280.487C143.311 279.515 144.769 280.371 144.278 281.34C143.988 281.912 143.688 282.477 143.402 283.048C145.705 283.168 148.005 283.326 150.301 283.542C154.218 283.909 158.097 284.562 162.009 284.968C165.987 285.382 169.879 285.309 173.825 284.651C174.535 284.533 174.954 284.104 175.127 283.571C175.133 283.569 175.137 283.565 175.141 283.558C175.344 283.322 175.535 283.125 175.731 282.954C175.966 282.802 176.219 282.673 176.517 282.559C177.073 282.347 177.652 282.218 178.239 282.132C178.885 282.035 179.54 282.026 180.187 281.946C180.732 281.876 181.264 281.773 181.796 281.646C182.754 281.418 183.662 281.12 184.566 280.724C185.354 280.38 186.066 279.885 186.738 279.346C188.128 278.33 189.332 277.032 190.385 275.684C190.997 274.895 191.574 274.077 192.098 273.226C193.011 271.75 193.788 270.218 194.574 268.673C194.859 268.215 195.12 267.746 195.357 267.268C193.822 266.815 192.271 266.446 190.643 266.42C189.554 266.402 189.554 264.711 190.643 264.729C192.51 264.759 194.276 265.195 196.031 265.715C196.117 265.488 196.199 265.259 196.275 265.027C196.484 264.543 196.657 264.047 196.801 263.544C196.885 263.315 196.97 263.087 197.054 262.859C197.244 262.068 197.435 261.276 197.627 260.483C198.009 259.215 198.311 257.928 198.533 256.624C198.719 255.766 198.863 254.901 198.96 254.026C199.256 251.907 199.497 249.791 199.513 247.648C199.488 246.327 199.404 245.008 199.26 243.696C199.199 242.804 199.095 241.916 198.956 241.035C198.774 239.724 198.594 238.427 198.292 237.133C198.066 236.258 197.84 235.383 197.614 234.508C197.05 232.685 196.385 230.896 195.618 229.148C195.575 229.039 195.362 228.798 195.233 228.795C195.136 228.793 195.001 228.882 195.045 229.001C195.049 229.011 195.053 229.024 195.058 229.034C195.014 228.935 194.971 228.834 194.927 228.734C194.889 228.641 194.741 228.455 194.627 228.458C194.621 228.458 194.614 228.458 194.606 228.459C194.635 228.438 194.663 228.411 194.69 228.379C195.449 227.481 195.941 226.299 196.484 225.26C196.934 224.401 197.359 223.497 197.481 222.527C197.589 221.675 197.443 220.836 196.909 220.147C196.3 219.363 195.155 218.995 195.791 217.862C196.513 216.573 197.576 215.455 196.518 213.99C195.979 213.244 195.125 212.834 194.492 212.185C193.763 211.435 193.416 210.431 193.435 209.406C193.48 209.432 193.539 209.419 193.56 209.355C194.173 207.504 193.729 205.471 193.102 203.668C192.759 202.69 192.034 202.421 191.192 202.373C194.842 195.24 198.258 187.992 201.303 180.578C201.404 180.335 201.504 180.092 201.603 179.849C201.751 179.485 201.438 179.002 201.077 178.921C198.444 178.344 195.702 178.16 193.021 177.907Z" fill="black"/>
<path fill-rule="evenodd" clip-rule="evenodd" d="M139.184 145.72C134.505 145.747 130.528 144.416 127.493 142.214C123.706 140.86 119.139 138.772 116.364 136.581C115.282 136.857 113.987 135.705 113.159 135.097C108.01 131.242 103.968 125.599 102.77 119.947C100.921 122.287 98.2902 122.384 95.7698 121.221C90.4866 118.218 90.6841 111.893 92.5862 107.168C88.5875 98.1733 85.8163 74.429 91.9202 64.8461C93.1687 63.4123 95.0009 62.5547 96.32 61.0843C97.4939 59.8001 98.6104 58.4866 99.9761 57.4704C104.143 54.2909 111.32 52.598 115.814 51.8018C134.574 47.7359 148.987 55.0439 165.98 61.2084C165.002 63.66 163.649 65.8959 162.099 67.9807C166.317 69.5592 164.379 73.1085 161.107 74.9077L159.158 73.9583C162.196 84.8526 169.186 111.944 166.17 120.644C163.764 134.217 153.209 145.818 139.184 145.72" fill="#D08B5B"/>
<path fill-rule="evenodd" clip-rule="evenodd" d="M148.304 54.8102C138.02 51.3628 127.776 49.2916 115.744 51.8995C111.25 52.6956 104.073 54.3885 99.9058 57.5681C98.7304 58.4426 97.7396 59.5375 96.738 60.6442C96.5758 60.8235 96.4133 61.003 96.2497 61.182C95.5954 61.9114 94.8147 62.49 94.0417 63.0629C93.2565 63.645 92.479 64.2212 91.8499 64.9438C85.8166 74.4157 88.4542 97.723 92.3775 106.947H92.5692H92.9719L93.1936 106.613L93.1936 106.613L93.1939 106.612L93.1941 106.612L148.304 54.8102ZM159.687 76.2299C159.54 75.6922 159.4 75.1796 159.265 74.6946L159.118 76.2299H159.687ZM159.316 74.1671L160.735 59.3793C162.438 60.0246 164.16 60.6714 165.909 61.306C164.931 63.7577 163.579 65.9936 162.028 68.0783C166.247 69.6569 164.309 73.2061 161.036 75.0053L159.316 74.1671Z" fill="#ECDCBF"/>
<path fill-rule="evenodd" clip-rule="evenodd" d="M141.893 146.888C135.817 147.513 128.599 146.073 124.548 141.125C124.427 140.977 124.374 140.81 124.371 140.648C124.368 140.468 124.428 140.294 124.532 140.158C124.642 140.016 124.797 139.917 124.976 139.885C125.127 139.858 125.298 139.875 125.475 139.975L125.847 140.182C128.614 141.714 131.486 143.02 134.621 143.579C137.849 144.155 141.136 144.091 144.335 143.36C150.162 142.029 154.878 138.633 158.35 134.156C162.223 129.16 164.55 122.818 165.142 116.475C165.861 108.789 164.194 101.149 162.47 93.7064C160.658 85.8862 158.677 78.1059 156.377 70.4159C156.308 70.1844 156.289 69.9677 156.309 69.7682C155.63 69.5017 154.908 69.5757 154.189 69.819C152.876 70.2635 151.568 71.2659 150.476 72.0934C150.081 72.3931 149.714 72.6717 149.383 72.8983C148.03 73.8265 146.551 74.4943 144.897 74.5993C143.177 74.7083 141.491 74.1724 139.929 73.5017C139.135 73.1609 138.354 72.8075 137.576 72.4554C135.362 71.4529 133.173 70.4604 130.781 69.8153C127.577 68.9507 124.268 68.5248 120.949 68.5553C115.026 68.6096 109.085 70.1381 105.455 75.1602C103.984 77.1945 103.025 79.5327 103.773 82.0435C104.18 83.4093 104.947 84.6492 105.785 85.7896L106.073 86.178C106.532 86.8039 106.931 87.4274 107.052 88.0912C107.153 88.6472 107.074 89.2355 106.678 89.8803C106.429 90.2861 106.111 90.6501 105.792 91.0129C105.562 91.2746 105.331 91.5358 105.133 91.817C104.733 92.384 104.378 92.9947 104.101 93.6316C103.556 94.8783 103.326 96.2194 103.277 97.572C103.219 99.2038 103.448 100.8 103.675 102.399C103.836 103.532 103.996 104.667 104.061 105.815C104.073 106.016 104.011 106.165 103.926 106.276C103.821 106.411 103.668 106.496 103.494 106.52C103.441 106.527 103.387 106.528 103.332 106.523C103.359 106.633 103.383 106.744 103.403 106.856C103.293 106.714 103.176 106.577 103.053 106.444C103.045 106.44 103.037 106.436 103.029 106.431C102.902 106.361 102.794 106.254 102.726 106.117C102.551 105.954 102.366 105.799 102.172 105.654C101.161 104.898 99.9812 104.45 98.7974 104.435C97.6561 104.421 96.512 104.81 95.6323 105.633C93.8838 107.269 93.3717 109.938 93.3534 112.23C93.3349 114.57 93.875 117.378 95.9099 118.83C96.7261 119.413 97.723 119.763 98.7273 119.773C99.5598 119.782 100.356 119.486 101.141 119.205C101.383 119.118 101.623 119.032 101.864 118.954C102.136 118.865 102.385 118.87 102.602 118.935C102.846 119.009 103.053 119.16 103.208 119.362C103.362 119.563 103.464 119.815 103.495 120.079C103.525 120.335 103.49 120.6 103.383 120.839C103.355 120.899 103.327 120.958 103.297 121.015L103.745 121.752C105.458 124.57 107.202 127.336 109.489 129.758C110.801 131.148 112.192 132.46 113.718 133.608L113.938 133.772C114.07 133.869 114.216 133.988 114.372 134.116C114.817 134.481 115.35 134.971 115.848 134.99C115.996 134.996 116.125 134.977 116.242 134.962C116.526 134.924 116.764 134.913 116.998 135.009C117.186 135.086 117.381 135.23 117.581 135.526C117.717 135.727 117.786 135.979 117.786 136.234C117.786 136.491 117.716 136.747 117.591 136.95C117.332 137.37 117.018 137.63 116.678 137.778C116.298 137.943 115.879 137.968 115.443 137.887C114.37 137.686 113.181 136.794 112.425 136.213L112.279 136.1C110.603 134.819 109.015 133.401 107.618 131.815C105.241 129.115 103.105 125.933 102.008 122.456C101.235 122.965 100.28 123.207 99.2816 123.245C97.8267 123.3 96.2869 122.925 95.1522 122.385C92.6514 121.197 91.1325 118.948 90.4207 116.362C89.5941 113.359 89.8627 109.907 90.9092 107.209C90.9396 107.131 90.9712 107.053 91.0038 106.974C87.782 98.7906 86.7914 89.7041 87.0674 80.9715C87.1964 76.8839 87.4741 72.5953 88.436 68.6088C88.8672 66.822 89.6163 65.1204 90.8124 63.7137C91.4943 62.9115 92.331 62.287 93.1716 61.6643C93.8996 61.1249 94.6304 60.5866 95.2453 59.9132L95.5361 59.5934C95.5991 59.5238 95.662 59.4544 95.7248 59.385C96.7867 58.2117 97.8205 57.0731 99.1092 56.1108C100.604 54.9951 102.253 54.1218 103.966 53.3965C107.658 51.8346 111.632 50.8981 115.562 50.1736C124.066 48.6064 132.795 48.5291 141.195 50.732C145.1 51.7561 148.89 53.1579 152.673 54.558C153.025 54.688 153.376 54.8179 153.727 54.9476C156.667 56.0329 159.609 57.1136 162.551 58.1943C163.918 58.6966 165.286 59.1988 166.653 59.7016C166.949 59.8107 167.24 60.0457 167.405 60.3377C167.566 60.6227 167.614 60.9549 167.484 61.2858C166.645 63.4165 165.587 65.4154 164.299 67.2821C164.746 67.5874 165.127 67.9934 165.415 68.4686C165.78 69.0696 165.996 69.7811 166.011 70.5359C166.06 73.0639 163.765 74.7776 161.861 76.017C161.684 76.1327 161.508 76.2009 161.338 76.2323C163.183 83.3035 164.949 90.3986 166.449 97.5499L166.553 98.0457C168.098 105.53 169.096 113.168 167.634 120.752C166.375 127.282 163.451 133.585 158.881 138.45C154.403 143.217 148.394 146.219 141.893 146.888ZM101.885 103.834C101.09 101.303 100.668 98.5489 100.973 95.9832C101.164 94.3705 101.648 92.8179 102.435 91.3964C102.886 90.5822 103.436 89.8286 104.036 89.1187L104.243 88.8803C104.348 88.7585 104.452 88.6466 104.484 88.5063C104.503 88.4248 104.484 88.3356 104.435 88.2291C104.325 87.9931 104.122 87.7657 103.931 87.5438C103.81 87.4027 103.692 87.2642 103.592 87.1295C101.849 84.7633 100.548 81.9462 100.971 78.9456C101.383 76.0181 103.297 73.2892 105.335 71.2327C109.821 66.7042 116.777 65.6636 122.87 65.9134C126.417 66.0587 129.958 66.6854 133.336 67.7801C135.002 68.3201 136.63 68.9776 138.213 69.7313L138.564 69.9C138.753 69.9918 138.942 70.0847 139.131 70.1776C140.368 70.7858 141.609 71.4 142.952 71.7306C145.575 72.3762 147.354 71.0165 149.224 69.6451C149.865 69.1752 150.516 68.6987 151.207 68.2806L151.349 68.1962C152.597 67.4712 154.089 66.9832 155.523 67.0051C156.768 67.0241 157.969 67.4227 158.947 68.3646C159.148 68.5581 159.264 68.7693 159.318 68.9794C159.426 69.1315 159.513 69.3129 159.57 69.5271C159.921 70.8451 160.27 72.1639 160.617 73.4832L160.901 73.2996C161.743 72.7513 162.659 72.1247 163.072 71.2075C163.231 70.8544 163.209 70.2663 163.008 69.8338C162.938 69.6827 162.846 69.5484 162.718 69.4645C162.624 69.4035 162.512 69.3749 162.382 69.3854C162.064 69.4264 161.773 69.3799 161.526 69.2752C161.241 69.1545 161.014 68.9558 160.866 68.7164C160.715 68.4713 160.646 68.1832 160.683 67.8843C160.715 67.6273 160.825 67.359 161.044 67.1068C162.48 65.447 163.69 63.6159 164.609 61.6285L158.528 59.3729C156.359 58.569 154.191 57.7662 152.021 56.9664L150.833 56.5289C146.887 55.0781 142.919 53.6604 138.816 52.7263C130.662 50.8703 122.159 51.3065 114.028 53.0536L113.537 53.16C110.124 53.906 106.666 54.8084 103.534 56.3772C101.997 57.1471 100.536 58.0834 99.2807 59.2663C98.7265 59.7887 98.2254 60.3606 97.7242 60.9318C97.0218 61.7323 96.3185 62.5306 95.4834 63.2048L94.7081 63.8272C93.5549 64.7588 92.5147 65.6664 91.8639 67.1112C91.1835 68.6217 90.8587 70.2904 90.5937 71.9162C89.9254 76.0118 89.6617 80.1731 89.6868 84.3216C89.7294 91.2873 90.785 98.1112 92.1186 104.911C93.1886 103.376 94.6916 102.186 96.6207 101.932C97.8784 101.767 99.1253 102.002 100.207 102.559C100.831 102.881 101.401 103.311 101.885 103.834V103.834ZM99.8642 112.105C98.4554 111.558 96.9764 111.379 95.486 111.64C95.3298 111.668 95.1809 111.635 95.0557 111.562C94.9288 111.488 94.8288 111.371 94.7745 111.242C94.7118 111.093 94.7086 110.932 94.764 110.788C94.812 110.664 94.9036 110.543 95.072 110.462C96.6858 109.69 98.4796 109.349 100.26 109.592L100.436 109.617C101.346 109.752 102.626 110.037 103.586 110.598C104.34 111.038 104.892 111.645 105.029 112.438C105.101 112.852 104.999 113.283 104.761 113.596C104.531 113.898 104.18 114.1 103.725 114.087C102.923 114.064 102.449 113.724 101.877 113.284C101.808 113.231 101.737 113.176 101.663 113.121C101.111 112.707 100.508 112.355 99.8642 112.105Z" fill="black"/>
<path fill-rule="evenodd" clip-rule="evenodd" d="M143.147 128.273C141.727 127.694 140.459 126.727 139.533 125.492C139.211 125.063 139.127 124.609 139.195 124.195C139.271 123.728 139.547 123.306 139.923 123.022C140.3 122.738 140.772 122.598 141.228 122.669C141.624 122.731 142.019 122.948 142.331 123.399L142.397 123.489C142.947 124.234 143.665 124.846 144.483 125.24C145.271 125.62 146.153 125.797 147.065 125.694C148.802 125.498 150 124.558 151.273 123.281C151.43 123.12 151.588 122.954 151.747 122.785C151.847 122.632 151.986 122.534 152.14 122.482C152.312 122.425 152.506 122.428 152.683 122.49C152.855 122.55 153.008 122.663 153.11 122.814C153.208 122.957 153.263 123.134 153.245 123.338C153.129 124.661 152.437 125.841 151.455 126.768C150.365 127.798 148.919 128.51 147.558 128.76C146.058 129.035 144.53 128.838 143.147 128.273V128.273ZM148.265 107.866C149.861 108.836 152.292 111.098 150.575 113.503C148.555 115.623 145.647 113.192 144.213 112.092C142.884 111.24 141.391 113.432 142.624 114.427C152.981 122.098 157.184 108.119 149.072 106.725C148.179 106.571 147.847 107.565 148.265 107.866ZM129.705 98.9421C129.882 96.7533 133.214 96.2563 133.545 98.4222C133.842 100.362 133.493 102.145 132.619 103.892C131.784 105.56 129.686 104.782 129.528 103.262C129.315 101.225 129.596 100.304 129.705 98.9421ZM155.071 97.9731C155.535 97.3644 156.206 96.9489 157.01 97.1837C159.521 97.9178 158.781 101.484 157.899 103.22C157.42 104.162 155.871 104.401 155.171 103.571C154.03 102.218 153.484 99.5149 154.934 98.1817C154.973 98.1128 155.017 98.0433 155.071 97.9731ZM132.584 89.3646L132.98 89.2952C134.207 89.0829 135.733 88.8789 136.601 89.8657C137.061 90.389 137.22 91.3617 136.601 91.8626C135.513 92.7439 134.309 92.4024 133.005 92.477C131.93 92.5387 130.897 92.7166 129.861 93.0127C127.59 93.6622 125.739 94.8479 123.799 96.1498C123.544 96.3206 123.284 95.9949 123.406 95.7567C124.526 93.5622 126.696 91.7596 128.87 90.6608C130.03 90.0743 131.3 89.5878 132.584 89.3646ZM152.782 88.3816L153.086 88.4438C156.389 89.1346 160.681 90.5146 162.246 93.7608C162.305 94.2198 162.242 94.3182 162.191 94.3825L162.174 94.4038C162.132 94.4587 162.098 94.5344 161.899 94.5969C161.844 94.5837 161.788 94.5698 161.732 94.555C161.015 94.367 160.448 94.108 159.898 93.8393L159.303 93.5458C158.612 93.2068 157.915 92.8802 157.176 92.6391C155.6 92.1247 153.978 91.7623 152.331 91.5688C151.974 91.5269 151.631 91.4064 151.36 91.1999C151.102 91.0039 150.906 90.7325 150.816 90.3717C150.7 89.9048 150.733 89.5513 150.984 89.1301C151.172 88.8138 151.441 88.5946 151.751 88.4687C152.066 88.3403 152.425 88.3101 152.782 88.3816Z" fill="black"/>
<path fill-rule="evenodd" clip-rule="evenodd" d="M166.539 112.302C166.141 107.255 159.779 105.116 156.61 104.482C146.057 102.001 137.08 108.368 124.497 108.498C123.227 108.518 119.595 108.304 117.906 107.857C109.338 105.91 100.778 103.838 92.3701 101.283C91.134 101.573 90.7683 103.187 91.617 104.106C99.6696 106.963 111.989 109.521 118.495 109.813C118.37 118.22 113.934 126.674 107.807 131.324C117.551 142.104 140.277 145.649 153.651 139.991C160.231 138.015 167.173 120.334 166.539 112.302" fill="white"/>
<path fill-rule="evenodd" clip-rule="evenodd" d="M91.6837 101.536C91.3213 101.522 91.5326 100.466 92.3487 100.616C102.879 103.08 115.999 107.773 126.823 107.738C134.785 107.478 141.92 103.041 149.926 103.014C155.308 103.118 162.171 103.883 165.938 108.204C170.906 123.966 159.718 145.404 142.116 145.528L138.785 145.287C127.428 144.45 114.987 143.111 107.667 133.473L107.61 133.522V133.522C106.515 132.787 106.577 131.2 107.507 130.384L107.534 130.428V130.428C107.552 130.399 107.572 130.372 107.591 130.344L107.579 130.307V130.307C107.937 129.931 108.344 129.579 108.714 129.265L108.716 129.271V129.271C114.212 124.69 117.801 117.763 118.007 110.59C116.188 111.09 85.6161 104.749 91.0733 103.202C94.9767 104.522 98.9031 105.714 102.909 106.663C102.976 106.625 103.072 106.635 103.109 106.71C108.009 107.916 113.008 108.606 118.014 109.164C118.009 108.925 118 108.685 117.987 108.446C109.087 106.712 100.362 104.139 91.6837 101.536ZM163.752 107.933C145.496 98.7078 136.435 112.338 118.779 108.585C120.626 116.829 116.065 125.716 109.87 131.103C118.872 138.896 122.767 140.077 134.575 141.342L136.118 141.525C138.437 141.8 140.778 142.056 143.105 142.097C155.172 141.218 164.291 128.658 165.655 117.278L165.663 116.963C165.724 114.075 165.591 111.018 164.312 108.372C164.077 108.29 163.872 108.142 163.752 107.933ZM138.337 115.175C138.968 115.033 139.612 115.722 139.221 116.325C137.957 118.275 134.867 119.03 132.706 119.337C130.203 119.691 127.777 119.412 125.399 118.558C125.272 118.512 125.281 118.286 125.433 118.305C127.691 118.573 130.018 118.377 132.212 117.779C134.436 117.345 136.232 115.866 138.337 115.175ZM155.49 113.771C155.479 113.401 157.3 114.473 157.588 114.617C159.812 115.953 162.386 116.051 164.838 116.575C165.41 116.794 165.409 117.521 164.838 117.741C161.777 118.555 157.132 116.418 155.49 113.771Z" fill="black"/>
<path fill-rule="evenodd" clip-rule="evenodd" d="M170.726 102.353C168.712 115.983 154.651 117.49 152.153 103.959C152.554 103.784 152.842 103.438 152.782 102.767C152.768 99.8178 153.683 96.7012 156.342 95.0613C159.09 93.3693 162.305 93.2014 165.485 93.2441C171.553 93.0996 171.426 98.1735 170.726 102.353M149.952 96.4254C148.047 96.3451 145.638 96.4123 143.932 97.573C143.463 96.3096 142.245 94.9605 141.013 94.2392C145.59 94.3732 150.301 93.9226 154.911 93.5728C153.808 94.3254 152.781 95.4561 152.113 96.7633C151.494 96.433 150.607 96.4638 149.952 96.4254M141.558 103.798C136.277 121.982 123.096 114.056 121.659 111.726C119.067 107.87 118.579 98.4953 120.837 95.9889C124.069 93.7224 128.644 94.3057 132.462 94.2502C139.477 94.3448 144.458 96.444 141.558 103.798M176.961 95.4348C175.527 95.2471 173.993 95.2093 172.659 95.8412C172.249 94.0948 170.959 92.6348 169.504 91.9923C169.327 91.7712 169.354 91.6525 168.752 91.6856C165.056 90.5744 160.92 91.1623 157.368 92.3019C151.758 92.7745 145.873 93.1471 140.216 93.7983C134.917 91.4176 118.926 91.0687 117.932 96.9364C116.682 96.7494 114.553 95.7651 113.503 97.1002C105.797 95.7934 97.8359 97.6096 90.0973 98.4184C88.1494 98.7773 87.1461 102.645 89.3573 102.592C90.6004 102.254 89.319 100.184 90.9929 100.028C98.4593 99.212 105.762 98.0547 113.305 97.9192C113.043 99.2222 118.294 99.3069 118.372 98.5461C118.383 98.5518 118.395 98.5556 118.406 98.5606C117.109 103.398 118.28 110.361 120.625 113.361C123.91 117.289 132.159 118.416 135.817 115.888C140.535 113.556 145.444 101.847 144.065 97.9564C146.567 97.163 149.041 97.4012 151.638 97.8053C151.043 99.4853 150.017 103.621 151.494 103.98C151.223 112.191 158.692 117.314 165.578 113.946C171.538 111.147 173.623 102.287 172.894 96.91C173.635 98.3442 179.865 96.7828 176.961 95.4348" fill="black"/>
</svg>
