<svg width="240" height="324" viewBox="0 0 240 324" fill="none" xmlns="http://www.w3.org/2000/svg">
<g filter="url(#filter0_d_4908_4803)">
<path fill-rule="evenodd" clip-rule="evenodd" d="M194.635 251.934C193.783 247.123 193.002 242.299 192.293 237.464C191.956 235.169 191.628 232.872 191.332 230.57C191.125 228.958 190.81 227.115 191.907 225.921C193.45 224.24 194.851 222.801 195.04 220.394C195.218 218.129 194.452 215.66 193.973 213.461C192.97 208.85 191.72 204.297 190.339 199.786C188.936 195.203 187.397 190.664 185.836 186.133C184.377 181.896 182.975 177.622 181.075 173.557C177.468 165.844 171.367 160.132 163.826 156.318C161.951 155.369 158.125 151.983 156.166 151.225C154.365 150.528 154.371 152.563 152.599 151.797C151.181 151.184 149.862 150.366 149.068 148.998C148.207 147.511 146.046 145.432 145.717 143.702C145.02 140.035 145.775 136.914 143.159 134.154C140.836 131.703 137.714 130.023 134.484 129.122C127.378 127.139 117.901 128.525 113.613 135.131C111.566 138.286 110.85 142.099 108.087 144.674C105.674 146.922 106.214 148.458 103.089 149.617C102.912 149.683 98.1145 148.653 97.9374 148.719C94.5187 147.987 91.2511 150.036 88.1147 151.225C83.4387 152.997 78.9868 155.304 74.8044 158.045C66.3708 163.573 59.1475 170.751 53.1925 178.874C47.1883 187.064 42.5297 196.243 39.2125 205.837C38.407 208.167 37.6834 210.526 37.0452 212.908C36.6879 214.241 36.3061 215.623 36.7411 216.988C37.0969 218.104 37.8883 218.936 38.8177 219.606C40.0775 220.514 42.6044 221.104 42.5552 222.93C42.5176 224.319 42.0467 225.78 41.8168 227.153C41.5432 228.787 41.3185 230.431 41.0937 232.072C40.0711 239.543 39.2753 247.057 38.9233 254.591C38.5768 262.01 38.2893 269.581 38.8037 276.997C38.8378 277.486 38.9835 277.935 39.2187 278.315C38.9992 278.399 38.9823 278.808 39.2554 278.866C39.4468 278.907 39.6378 278.947 39.8292 278.988C40.2268 279.289 40.7227 279.473 41.2933 279.491C41.6802 279.503 42.0668 279.521 42.4532 279.541C46.5309 280.393 50.6079 281.199 54.7388 281.809C59.7602 282.55 64.7964 283.155 69.8483 283.646C80.2289 284.656 90.5278 284.321 100.922 283.777C111.3 283.233 121.673 283.106 132.062 283.376C142.46 283.647 152.854 284.1 163.255 284.285C174.874 284.491 186.476 284.174 198.062 283.25C199.65 283.123 200.633 281.859 200.32 280.281C198.443 270.824 196.316 261.431 194.635 251.934Z" fill="#EDB98A"/>
<path fill-rule="evenodd" clip-rule="evenodd" d="M88.1147 151.226L88.3416 151.139C91.4087 149.94 94.6011 148.006 97.9374 148.72C98.0554 148.677 100.226 149.119 101.713 149.4L100.302 150.874L97.8111 151.353C106.404 165.541 116.567 172.634 128.3 172.634C140.033 172.634 148.936 165.541 155.01 151.353L155.838 151.124C155.941 151.148 156.05 151.181 156.166 151.226C158.125 151.984 161.951 155.371 163.826 156.319C171.367 160.133 177.468 165.845 181.075 173.559C182.912 177.488 184.283 181.613 185.691 185.71L185.836 186.134C187.397 190.665 188.936 195.204 190.339 199.787C191.66 204.102 192.861 208.456 193.841 212.861L193.973 213.462C194.452 215.661 195.218 218.13 195.04 220.395C194.973 221.253 194.752 221.988 194.425 222.654L177.429 228.772L185.526 284.018C178.109 284.336 170.686 284.418 163.255 284.286C152.854 284.101 142.46 283.648 132.062 283.378C121.987 283.116 111.929 283.227 101.866 283.73L99.3099 283.86C89.4621 284.353 79.692 284.605 69.8483 283.647L69.1775 283.581V283.581L69.1774 275.5L72.6352 230.501L55.1117 227.201L37.9099 218.843C37.3901 218.324 36.9731 217.717 36.7411 216.989C36.3382 215.725 36.636 214.446 36.966 213.205L37.0452 212.909C37.6834 210.527 38.407 208.169 39.2125 205.838C42.5297 196.244 47.1883 187.065 53.1925 178.875C59.1475 170.752 66.3708 163.574 74.8044 158.046C78.9868 155.305 83.4387 152.998 88.1147 151.226Z" fill="#EC7495"/>
<path fill-rule="evenodd" clip-rule="evenodd" d="M94.6975 148.487C95.772 148.44 96.8676 148.614 97.9396 148.72C98.033 148.729 98.0685 148.873 97.9633 148.895C96.0448 149.296 94.1473 149.844 92.2632 150.401L91.4564 150.64C89.3317 151.269 87.2693 151.918 85.2124 152.756C81.113 154.428 77.2195 156.684 73.6362 159.275C59.8379 169.256 49.8513 184.366 43.5492 200.01C41.8377 204.259 40.3876 208.613 39.2129 213.041C38.9273 214.118 38.6585 215.199 38.4038 216.284C38.329 216.602 38.003 217.417 38.1817 217.742C38.3397 218.03 38.9541 218.208 39.2395 218.357L40.2031 218.857C42.0828 219.826 45.2137 221.419 45.5277 221.575L46.0174 221.816C54.0267 225.744 62.5845 229.075 71.5975 229.305L71.668 228.535V228.535C72.0699 224.278 72.5972 219.999 73.7482 215.873C73.8101 215.651 74.0921 215.726 74.1179 215.923C74.7591 220.808 74.5542 225.73 74.3304 230.637C73.9343 239.328 73.4083 248.015 72.9407 256.702C72.7066 261.048 72.4041 265.391 72.1309 269.735C71.8573 274.088 71.7688 278.544 71.1441 282.861C71.0049 283.823 69.8784 284.346 69.0253 284.245C68.0814 284.132 67.3552 283.301 67.3508 282.347C67.3394 279.833 67.6552 277.288 67.8308 274.78C67.9975 272.397 68.1764 270.015 68.3598 267.633C69.0299 258.94 69.8009 250.257 70.5139 241.568C70.7666 238.486 71.0395 235.407 71.3205 232.328C61.7727 232.02 52.8528 228.482 44.3433 224.349C44.2202 227.146 43.9227 229.939 43.6347 232.725C42.8309 240.5 42.1221 248.271 41.5916 256.07C41.3237 260.009 41.1287 263.953 40.9588 267.897C40.8754 269.836 40.8073 271.774 40.7552 273.714C40.7377 274.36 40.7219 275.007 40.708 275.654L40.6789 277.135C40.6552 278.073 40.5598 278.943 39.7704 279.626C38.9687 280.32 37.8857 280.357 37.0922 279.626C36.0299 278.647 36.2178 277.314 36.2492 276C36.2754 274.891 36.3069 273.783 36.3435 272.675C36.4168 270.459 36.5104 268.243 36.6242 266.028C37.0227 258.285 37.8189 250.573 38.8594 242.892L39.2656 239.927C40.0241 234.415 40.8568 228.777 42.5524 223.468C41.8922 223.139 41.2339 222.808 40.5781 222.476C39.4149 221.887 38.2121 221.334 37.0814 220.684C36.1844 220.168 35.4107 219.46 35.161 218.416C34.8825 217.252 35.3084 215.98 35.5913 214.845L35.6159 214.745C35.8933 213.602 36.192 212.464 36.5072 211.331C37.7854 206.737 39.3659 202.232 41.2155 197.837C44.919 189.038 49.6994 180.679 55.5386 173.121C60.7947 166.317 67.0039 160.148 74.2812 155.52C77.839 153.258 81.6304 151.4 85.64 150.087C87.5142 149.473 89.5533 148.939 91.5156 148.72C92.574 148.601 93.634 148.533 94.6975 148.487ZM113.736 134.544C115.012 133.173 117.549 134.592 116.936 136.408C115.494 140.682 113.198 144.58 109.614 147.388C106.245 150.027 102.228 151.742 97.9013 151.376C97.8679 151.373 97.839 151.364 97.8134 151.352L98.1862 151.858C101.113 155.819 104.201 159.725 107.923 162.963C115.506 169.559 125.831 173.117 135.8 170.586C143.644 168.595 150.555 162.39 152.587 154.482C152.296 154.613 151.95 154.658 151.57 154.575C149.943 154.222 148.334 152.511 147.285 151.284C146.15 149.957 145.264 148.524 144.615 146.904C143.426 143.94 143.045 140.123 144.668 137.252C144.868 136.898 145.33 137.096 145.37 137.442L145.431 137.981C145.744 140.672 146.134 143.275 147.402 145.729C148.023 146.929 148.767 148.101 149.673 149.106C150.157 149.644 150.683 150.158 151.25 150.609C151.803 151.049 152.472 151.366 152.967 151.871L153.058 151.967L153.061 151.95C153.186 150.885 153.933 150.415 154.664 150.445C155.371 150.473 156.201 150.785 156.523 150.934L156.554 150.948C161.487 153.317 166.031 156.405 170.307 159.831C179.15 166.917 185.775 176.179 188.986 187.086C190.561 192.44 191.465 197.956 192.42 203.446L193.007 206.81C193.898 211.879 194.893 217.047 196.904 221.762C197.424 222.981 197.023 224.125 195.748 224.605C194.155 225.204 192.557 225.784 190.956 226.356C191.742 229.73 192.221 233.221 192.81 236.611C194.062 243.818 195.596 250.979 196.911 258.176C197.584 261.856 198.191 265.549 198.862 269.229C199.186 271.001 199.524 272.771 199.852 274.543C200.029 275.498 200.189 276.456 200.358 277.413L200.387 277.572C200.484 278.076 200.605 278.598 200.467 279.103C200.308 279.679 199.859 280.086 199.458 280.499C199.128 280.839 198.65 280.841 198.246 280.656L198.113 280.594C197.39 280.256 196.824 279.919 196.568 279.103C196.405 278.587 196.347 278.005 196.241 277.473C196.037 276.454 195.845 275.433 195.662 274.409C195.298 272.36 194.942 270.31 194.595 268.258L194.271 266.337C193.157 259.715 192.1 253.054 191.565 246.362C191.328 243.394 191.077 240.428 190.823 237.461L190.633 235.236C190.392 232.42 190.098 229.533 190.056 226.678L189.099 227.018V227.018L184.427 228.67V228.67C183.269 229.08 181.795 229.919 180.548 229.766C179.938 229.691 179.473 229.499 179.114 229.15C179.544 235.223 180.126 241.285 180.902 247.316C181.608 252.804 182.391 258.285 183.315 263.74C183.773 266.442 184.244 269.141 184.755 271.832C185.01 273.179 185.274 274.523 185.545 275.866C185.681 276.536 185.842 277.206 185.948 277.882C186.069 278.655 185.856 279.131 185.424 279.768C185.069 280.29 184.359 280.559 183.784 280.198C183.022 279.72 182.625 279.305 182.401 278.434C182.197 277.643 182.073 276.817 181.915 276.016C181.625 274.537 181.343 273.056 181.072 271.574C180.504 268.473 179.981 265.364 179.514 262.246C177.867 251.263 176.822 240.187 176.294 229.093C176.034 223.62 175.953 218.142 175.999 212.663C176.023 209.854 176.115 207.038 176.313 204.237C176.514 201.401 176.933 198.622 177.306 195.813C177.319 195.714 177.459 195.709 177.465 195.813C177.641 198.962 177.919 202.107 178.055 205.264C178.184 208.276 178.241 211.294 178.344 214.307C178.48 218.268 178.667 222.232 178.916 226.192C179.366 225.7 180.045 225.416 180.724 225.526C181.708 225.32 182.766 224.804 183.704 224.49L187.24 223.309V223.309C189.098 222.688 190.957 222.071 192.822 221.473C191.154 215.861 190.012 210.165 189.037 204.387L188.602 201.788C187.74 196.672 186.812 191.554 185.252 186.6C183.613 181.392 181.159 176.55 177.904 172.165C174.696 167.844 170.792 164.039 166.773 160.48C163.332 157.433 159.651 154.682 156.141 151.719C156.178 151.915 156.186 152.131 156.154 152.369C155.407 157.832 152.559 162.92 148.588 166.704C140.612 174.307 128.805 175.884 118.596 172.319C108.72 168.871 99.9894 160.704 96.9047 150.597C96.8519 150.425 97.0835 150.356 97.1764 150.483C97.3475 150.718 97.5195 150.952 97.6917 151.187C97.6801 151.094 97.7285 150.992 97.8434 150.948C101.443 149.557 104.977 147.586 107.675 144.797C108.99 143.437 110.137 141.897 111.043 140.235C111.477 139.44 111.867 138.616 112.178 137.764L112.257 137.544C112.634 136.477 112.949 135.389 113.736 134.544Z" fill="black"/>
<path fill-rule="evenodd" clip-rule="evenodd" d="M132.686 46.2803C144.657 46.2803 159.649 59.9697 164.037 65.795C167.727 70.6927 167.205 95.9239 167.205 110.891C167.205 114.021 165.793 119.946 165.281 122.94C163.403 133.912 155.223 143.114 139.032 143.114C125.849 143.114 115.704 138.928 105.893 128.221C103.655 125.779 92.7239 134.523 90.4884 131.374C84.6493 131.374 79.7669 76.6814 91.2311 60.2767C102.695 43.8721 120.716 46.2803 132.686 46.2803Z" fill="#EDB98A"/>
<path fill-rule="evenodd" clip-rule="evenodd" d="M96.7066 50.1333C103.624 43.8245 112.839 40.7895 122.136 41.0135C126.951 41.1297 131.749 42.0491 136.297 43.6237C138.572 44.4141 140.775 45.4455 142.881 46.6122C143.64 47.0316 144.339 47.5231 145.013 48.0451L145.181 48.1762H145.183C146.99 48.8271 148.603 49.9959 150.066 51.3633C152.998 51.1287 155.954 51.3929 158.789 52.2996C162.736 53.5635 166.39 55.8778 168.955 59.1643C171.944 62.9904 172.937 67.6314 172.583 72.4224L172.517 73.2363C172.167 77.4685 171.539 82.9121 168.074 85.693C167.81 85.9043 167.52 86.0649 167.218 86.1622C169.451 89.996 171.283 94.2526 172.379 98.5515C176.564 114.971 173.347 132.095 168.314 147.921C167.901 149.225 165.934 150.091 164.933 148.817C163.145 146.539 160.548 144.801 157.626 144.476C155.823 144.275 154.029 144.639 152.326 143.819C151.657 143.495 151.012 142.967 150.548 142.324C147.673 143.417 144.576 143.933 141.504 143.806C136.463 143.599 131.075 141.849 127.607 138.011C127.05 137.395 126.909 136.703 127.037 136.079C127.472 135.924 127.919 135.808 128.379 135.735C132.777 138.334 137.624 140.07 142.834 140.179C145.844 140.242 148.781 139.82 151.222 137.936C151.75 137.528 152.235 137.076 152.684 136.591C157.788 133.3 161.386 127.71 163.097 121.722C164.69 116.138 164.494 110.324 163.946 104.596L163.657 101.574C163.235 97.1376 162.844 92.6883 162.735 88.2334L162.768 88.2317V88.2317C163.846 88.1619 163.853 86.4705 162.768 86.5409C159.96 86.7231 157.173 86.2613 154.374 86.4625C154.351 85.1358 154.255 83.8151 153.866 82.5356C153.644 81.8045 152.375 81.6604 152.24 82.5356C152.06 83.7065 151.994 84.8708 151.975 86.047C147.785 85.9912 143.6 85.6378 139.41 85.783C138.637 84.9566 138.391 83.4913 138.03 82.472C137.977 82.3219 137.924 82.174 137.87 82.0239C137.552 83.4805 137.102 84.9053 136.509 86.3L135.482 86.3034C129.651 86.3309 123.702 86.5056 118.009 87.7194C117.614 87.4148 117.378 86.8835 117.314 86.401C116.901 83.2612 116.312 80.2049 115.268 77.2128L115.118 76.7907C115.106 76.7556 115.093 76.7184 115.08 76.6793C114.31 77.9248 113.391 79.0857 112.39 80.1668C111.8 80.804 111.181 81.4133 110.545 82.0053C109.928 82.6922 109.291 83.3687 108.672 84.0577C108.697 84.1831 108.718 84.3103 108.735 84.4399C108.924 85.8696 108.944 87.3197 108.805 88.755C108.555 91.3497 107.824 93.85 106.65 96.163L106.613 96.3946C106.435 97.4786 106.181 98.5988 105.589 99.4151C106.328 100.245 106.897 101.237 107.227 102.339C107.521 103.32 106.168 104.17 105.466 103.367C104.908 102.729 104.288 102.202 103.608 101.781C103.565 101.839 103.487 101.868 103.4 101.819C101.505 100.764 98.2856 101.083 96.3925 102.077C94.0376 103.311 93.1184 105.845 93.3798 108.413C93.6307 110.867 94.7017 113.735 96.7783 114.992C97.7312 115.569 98.4733 115.618 99.4852 115.341C99.8088 115.253 100.21 114.983 100.382 114.849L100.552 114.712C101.215 114.187 101.833 113.827 102.616 113.813C103.417 113.563 104.222 113.91 104.528 114.752L104.547 114.806C104.69 115.235 104.952 115.774 104.895 116.43C104.836 117.131 104.515 117.77 104.037 118.283C103.955 118.372 103.866 118.461 103.775 118.543C112.019 127.49 113.077 141.43 108.85 152.606C108.667 153.097 108.47 153.581 108.266 154.061C107.56 155.705 104.84 155.196 104.494 153.566C104.391 153.078 104.277 152.592 104.153 152.11C103.924 151.219 103.662 150.337 103.367 149.468L103.255 149.142C103.004 148.424 102.77 147.699 102.517 146.98L102.492 146.898C102.482 146.866 102.472 146.828 102.46 146.786L102.032 147.722V147.722L100.731 150.548C100.123 151.867 98.1885 151.15 98.1166 149.879L98.1149 149.836C98.1086 149.601 98.1001 149.369 98.0854 149.138C97.9926 147.411 97.6953 145.733 97.2231 144.091L97.0527 144.303C94.5157 147.448 91.5382 150.395 87.4536 151.121C86.429 151.302 85.2695 150.229 85.9737 149.191C86.2646 148.762 86.545 148.322 86.8106 147.876C86.5808 147.769 86.3637 147.657 86.1634 147.543C84.6138 146.67 83.3236 145.427 82.2569 144.017C79.9947 141.029 79.1852 137.267 78.987 133.585C78.7762 129.694 79.1177 125.592 80.1782 121.838C80.6377 120.215 81.2597 118.657 81.9786 117.146C81.928 117.011 81.8795 116.876 81.831 116.74C81.0552 114.572 80.4185 112.355 79.8893 110.112C78.8226 105.585 78.2491 100.914 78.1796 96.2626C78.0531 87.929 79.4867 79.4623 82.5077 71.691C85.6279 63.6766 90.3208 55.956 96.7066 50.1333ZM92.8211 122.994C92.2482 122.09 90.8146 122.905 91.3466 123.815L91.3665 123.848C92.2751 125.283 92.701 126.915 93.2238 128.515C93.559 129.544 95.1887 129.104 94.8493 128.064L94.7369 127.717C94.2166 126.095 93.742 124.446 92.8211 122.994ZM97.8113 105.731L98.1919 105.546C99.3926 104.972 100.445 104.581 101.863 105.082C103.763 105.752 105.797 107.885 104.513 109.954C104.041 110.717 103.202 111.021 102.338 110.841C100.88 110.539 100.504 109.223 99.7649 108.143L99.6377 107.96C99.1868 107.307 98.6167 106.404 97.8661 106.147C97.6953 106.088 97.6237 105.822 97.8113 105.731ZM98.882 61.8L99.0046 61.6899C99.8204 60.9671 98.623 59.7751 97.8113 60.4937C94.0966 63.7844 92.8064 68.935 90.8795 73.3247C90.4473 74.3117 91.8999 75.174 92.3363 74.1786C94.1743 69.9897 95.3944 64.9789 98.882 61.8V61.8ZM143.522 60.3605C142.551 59.922 141.702 61.3381 142.635 61.8043L142.67 61.8209C145.95 63.3067 147.346 66.6714 148.683 69.7952C149.108 70.7928 150.561 69.9326 150.139 68.9434L149.898 68.3829C148.504 65.1638 146.877 61.8825 143.522 60.3605ZM148.664 58.3273C147.635 57.9701 147.194 59.6018 148.215 59.9589C150.995 60.929 152.903 63.0214 154.512 65.4139C155.115 66.31 156.576 65.4646 155.967 64.56C154.099 61.7829 151.881 59.4517 148.664 58.3273Z" fill="black"/>
<path fill-rule="evenodd" clip-rule="evenodd" d="M143.147 128.273C141.727 127.694 140.459 126.727 139.533 125.492C139.211 125.063 139.127 124.609 139.195 124.195C139.271 123.728 139.547 123.306 139.923 123.022C140.3 122.738 140.772 122.598 141.228 122.669C141.624 122.731 142.019 122.948 142.331 123.399L142.397 123.489C142.947 124.234 143.665 124.846 144.483 125.24C145.271 125.62 146.153 125.797 147.065 125.694C148.802 125.498 150 124.558 151.273 123.281C151.43 123.12 151.588 122.954 151.747 122.785C151.847 122.632 151.986 122.534 152.14 122.482C152.312 122.425 152.506 122.428 152.683 122.49C152.855 122.55 153.008 122.663 153.11 122.814C153.208 122.957 153.263 123.134 153.245 123.338C153.129 124.661 152.437 125.841 151.455 126.768C150.365 127.798 148.919 128.51 147.558 128.76C146.058 129.035 144.53 128.838 143.147 128.273V128.273ZM148.265 107.866C149.861 108.836 152.292 111.098 150.575 113.503C148.555 115.623 145.647 113.192 144.213 112.092C142.884 111.24 141.391 113.432 142.624 114.427C152.981 122.098 157.184 108.119 149.072 106.725C148.179 106.571 147.847 107.565 148.265 107.866ZM129.705 98.9421C129.882 96.7533 133.214 96.2563 133.545 98.4222C133.842 100.362 133.493 102.145 132.619 103.892C131.784 105.56 129.686 104.782 129.528 103.262C129.315 101.225 129.596 100.304 129.705 98.9421ZM155.071 97.9731C155.535 97.3644 156.206 96.9489 157.01 97.1837C159.521 97.9178 158.781 101.484 157.899 103.22C157.42 104.162 155.871 104.401 155.171 103.571C154.03 102.218 153.484 99.5149 154.934 98.1817C154.973 98.1128 155.017 98.0433 155.071 97.9731ZM132.584 89.3646L132.98 89.2952C134.207 89.0829 135.733 88.8789 136.601 89.8657C137.061 90.389 137.22 91.3617 136.601 91.8626C135.513 92.7439 134.309 92.4024 133.005 92.477C131.93 92.5387 130.897 92.7166 129.861 93.0127C127.59 93.6622 125.739 94.8479 123.799 96.1498C123.544 96.3206 123.284 95.9949 123.406 95.7567C124.526 93.5622 126.696 91.7596 128.87 90.6608C130.03 90.0743 131.3 89.5878 132.584 89.3646ZM152.782 88.3816L153.086 88.4438C156.389 89.1346 160.681 90.5146 162.246 93.7608C162.305 94.2198 162.242 94.3182 162.191 94.3825L162.174 94.4038C162.132 94.4587 162.098 94.5344 161.899 94.5969C161.844 94.5837 161.788 94.5698 161.732 94.555C161.015 94.367 160.448 94.108 159.898 93.8393L159.303 93.5458C158.612 93.2068 157.915 92.8802 157.176 92.6391C155.6 92.1247 153.978 91.7623 152.331 91.5688C151.974 91.5269 151.631 91.4064 151.36 91.1999C151.102 91.0039 150.906 90.7325 150.816 90.3717C150.7 89.9048 150.733 89.5513 150.984 89.1301C151.172 88.8138 151.441 88.5946 151.751 88.4687C152.066 88.3403 152.425 88.3101 152.782 88.3816Z" fill="black"/>
<path fill-rule="evenodd" clip-rule="evenodd" d="M166.539 112.302C166.141 107.255 159.779 105.116 156.61 104.482C146.057 102.001 137.08 108.368 124.497 108.498C123.227 108.518 119.595 108.304 117.906 107.857C109.338 105.91 100.778 103.838 92.3701 101.283C91.134 101.573 90.7683 103.187 91.617 104.106C99.6696 106.963 111.989 109.521 118.495 109.813C118.37 118.22 113.934 126.674 107.807 131.324C117.551 142.104 140.277 145.649 153.651 139.991C160.231 138.015 167.173 120.334 166.539 112.302" fill="white"/>
<path fill-rule="evenodd" clip-rule="evenodd" d="M91.6837 101.536C91.3213 101.522 91.5326 100.466 92.3487 100.616C102.879 103.08 115.999 107.773 126.823 107.738C134.785 107.478 141.92 103.041 149.926 103.014C155.308 103.118 162.171 103.883 165.938 108.204C170.906 123.966 159.718 145.404 142.116 145.528L138.785 145.287C127.428 144.45 114.987 143.111 107.667 133.473L107.61 133.522V133.522C106.515 132.787 106.577 131.2 107.507 130.384L107.534 130.428V130.428C107.552 130.399 107.572 130.372 107.591 130.344L107.579 130.307V130.307C107.937 129.931 108.344 129.579 108.714 129.265L108.716 129.271V129.271C114.212 124.69 117.801 117.763 118.007 110.59C116.188 111.09 85.6161 104.749 91.0733 103.202C94.9767 104.522 98.9031 105.714 102.909 106.663C102.976 106.625 103.072 106.635 103.109 106.71C108.009 107.916 113.008 108.606 118.014 109.164C118.009 108.925 118 108.685 117.987 108.446C109.087 106.712 100.362 104.139 91.6837 101.536ZM163.752 107.933C145.496 98.7078 136.435 112.338 118.779 108.585C120.626 116.829 116.065 125.716 109.87 131.103C118.872 138.896 122.767 140.077 134.575 141.342L136.118 141.525C138.437 141.8 140.778 142.056 143.105 142.097C155.172 141.218 164.291 128.658 165.655 117.278L165.663 116.963C165.724 114.075 165.591 111.018 164.312 108.372C164.077 108.29 163.872 108.142 163.752 107.933ZM138.337 115.175C138.968 115.033 139.612 115.722 139.221 116.325C137.957 118.275 134.867 119.03 132.706 119.337C130.203 119.691 127.777 119.412 125.399 118.558C125.272 118.512 125.281 118.286 125.433 118.305C127.691 118.573 130.018 118.377 132.212 117.779C134.436 117.345 136.232 115.866 138.337 115.175ZM155.49 113.771C155.479 113.401 157.3 114.473 157.588 114.617C159.812 115.953 162.386 116.051 164.838 116.575C165.41 116.794 165.409 117.521 164.838 117.741C161.777 118.555 157.132 116.418 155.49 113.771Z" fill="black"/>
</g>
<defs>
<filter id="filter0_d_4908_4803" x="-4" y="0" width="248" height="332" filterUnits="userSpaceOnUse" color-interpolation-filters="sRGB">
<feFlood flood-opacity="0" result="BackgroundImageFix"/>
<feColorMatrix in="SourceAlpha" type="matrix" values="0 0 0 0 0 0 0 0 0 0 0 0 0 0 0 0 0 0 127 0" result="hardAlpha"/>
<feOffset dy="4"/>
<feGaussianBlur stdDeviation="2"/>
<feComposite in2="hardAlpha" operator="out"/>
<feColorMatrix type="matrix" values="0 0 0 0 0 0 0 0 0 0 0 0 0 0 0 0 0 0 0.25 0"/>
<feBlend mode="normal" in2="BackgroundImageFix" result="effect1_dropShadow_4908_4803"/>
<feBlend mode="normal" in="SourceGraphic" in2="effect1_dropShadow_4908_4803" result="shape"/>
</filter>
</defs>
</svg>
