<svg width="352" height="100" viewBox="0 0 352 100" fill="none" xmlns="http://www.w3.org/2000/svg">
<path d="M276.481 68H271.336L269.916 64.3291H269.729C268.478 65.9011 267.201 66.9907 265.897 67.5981C264.593 68.1876 262.887 68.4823 260.779 68.4823C258.171 68.4823 256.126 67.741 254.643 66.2583C253.161 64.7578 252.419 62.6232 252.419 59.8544C252.419 57.0856 253.402 55.0135 255.367 53.638C257.35 52.2626 260.386 51.5034 264.477 51.3605L269.166 51.2265V50.0475C269.166 47.3145 267.764 45.9479 264.959 45.9479C262.834 45.9479 260.306 46.591 257.376 47.8771L254.938 42.9201C258.028 41.2946 261.431 40.4818 265.147 40.4818C268.88 40.4818 271.703 41.2856 273.614 42.8933C275.525 44.4831 276.481 46.8679 276.481 50.0475V68ZM269.166 57.7376V55.5136L266.326 55.594C264.164 55.6655 262.566 56.0585 261.53 56.773C260.493 57.4697 259.975 58.5415 259.975 59.9884C259.975 62.0605 261.163 63.0966 263.539 63.0966C265.254 63.0966 266.621 62.6143 267.639 61.6496C268.657 60.6672 269.166 59.3632 269.166 57.7376Z" fill="white"/>
<path d="M276.481 68V69H277.481V68H276.481ZM271.336 68L270.404 68.3608L270.651 69H271.336V68ZM269.916 64.3291L270.849 63.9683L270.602 63.3291H269.916V64.3291ZM269.729 64.3291V63.3291H269.246L268.946 63.7066L269.729 64.3291ZM265.897 67.5981L266.309 68.5094L266.319 68.5046L265.897 67.5981ZM254.643 66.2583L253.932 66.9612L253.936 66.9654L254.643 66.2583ZM255.367 53.638L254.797 52.8164L254.793 52.8188L255.367 53.638ZM264.477 51.3605L264.448 50.3609L264.442 50.3611L264.477 51.3605ZM269.166 51.2265L269.195 52.2261L270.166 52.1983V51.2265H269.166ZM257.376 47.8771L256.479 48.3185L256.902 49.1777L257.778 48.7928L257.376 47.8771ZM254.938 42.9201L254.473 42.0351L253.611 42.4882L254.041 43.3615L254.938 42.9201ZM273.614 42.8933L272.97 43.6586L272.974 43.6621L273.614 42.8933ZM269.166 55.5136H270.166V54.4849L269.138 54.514L269.166 55.5136ZM266.326 55.594L266.298 54.5944L266.293 54.5946L266.326 55.594ZM261.53 56.773L262.088 57.6029L262.097 57.5962L261.53 56.773ZM267.639 61.6496L268.327 62.3756L268.333 62.3693L267.639 61.6496ZM276.481 67H271.336V69H276.481V67ZM272.269 67.6392L270.849 63.9683L268.984 64.6899L270.404 68.3608L272.269 67.6392ZM269.916 63.3291H269.729V65.3291H269.916V63.3291ZM268.946 63.7066C267.756 65.2025 266.594 66.1703 265.475 66.6916L266.319 68.5046C267.808 67.8111 269.2 66.5997 270.511 64.9516L268.946 63.7066ZM265.485 66.6869C264.357 67.1969 262.807 67.4823 260.779 67.4823V69.4823C262.968 69.4823 264.829 69.1782 266.309 68.5093L265.485 66.6869ZM260.779 67.4823C258.368 67.4823 256.602 66.8029 255.35 65.5512L253.936 66.9654C255.65 68.679 257.974 69.4823 260.779 69.4823V67.4823ZM255.355 65.5555C254.109 64.2951 253.419 62.4453 253.419 59.8544H251.419C251.419 62.801 252.212 65.2205 253.932 66.9612L255.355 65.5555ZM253.419 59.8544C253.419 57.3539 254.287 55.6146 255.94 54.4572L254.793 52.8188C252.517 54.4124 251.419 56.8173 251.419 59.8544H253.419ZM255.937 54.4597C257.687 53.2457 260.494 52.5002 264.512 52.3599L264.442 50.3611C260.278 50.5065 257.012 51.2794 254.797 52.8164L255.937 54.4597ZM264.506 52.3601L269.195 52.2261L269.137 50.2269L264.448 50.3609L264.506 52.3601ZM270.166 51.2265V50.0475H268.166V51.2265H270.166ZM270.166 50.0475C270.166 48.5202 269.773 47.1926 268.812 46.2567C267.857 45.3254 266.509 44.9479 264.959 44.9479V46.9479C266.214 46.9479 266.97 47.2537 267.416 47.689C267.858 48.1196 268.166 48.8418 268.166 50.0475H270.166ZM264.959 44.9479C262.643 44.9479 259.973 45.6452 256.974 46.9615L257.778 48.7928C260.639 47.5368 263.024 46.9479 264.959 46.9479V44.9479ZM258.274 47.4358L255.835 42.4787L254.041 43.3615L256.479 48.3185L258.274 47.4358ZM255.404 43.8051C258.341 42.2599 261.583 41.4818 265.147 41.4818V39.4818C261.28 39.4818 257.716 40.3292 254.473 42.0351L255.404 43.8051ZM265.147 41.4818C268.757 41.4818 271.31 42.2619 272.97 43.6586L274.258 42.128C272.095 40.3094 269.003 39.4818 265.147 39.4818V41.4818ZM272.974 43.6621C274.597 45.0113 275.481 47.0754 275.481 50.0475H277.481C277.481 46.6603 276.454 43.955 274.253 42.1245L272.974 43.6621ZM275.481 50.0475V68H277.481V50.0475H275.481ZM270.166 57.7376V55.5136H268.166V57.7376H270.166ZM269.138 54.514L266.298 54.5944L266.354 56.5936L269.194 56.5132L269.138 54.514ZM266.293 54.5946C264.061 54.6683 262.232 55.0736 260.962 55.9498L262.097 57.5962C262.899 57.0434 264.267 56.6626 266.359 56.5935L266.293 54.5946ZM260.972 55.9432C259.612 56.8574 258.975 58.2699 258.975 59.9884H260.975C260.975 58.813 261.375 58.0819 262.088 57.6028L260.972 55.9432ZM258.975 59.9884C258.975 61.2169 259.334 62.3098 260.209 63.0731C261.058 63.8136 262.228 64.0966 263.539 64.0966V62.0966C262.474 62.0966 261.863 61.8614 261.524 61.5659C261.211 61.2931 260.975 60.832 260.975 59.9884H258.975ZM263.539 64.0966C265.45 64.0966 267.083 63.5536 268.326 62.3756L266.951 60.9237C266.158 61.6749 265.058 62.0966 263.539 62.0966V64.0966ZM268.333 62.3693C269.576 61.1698 270.166 59.5905 270.166 57.7376H268.166C268.166 59.1358 267.738 60.1646 266.944 60.93L268.333 62.3693Z" fill="black"/>
<path d="M347.597 1.40287C347.597 1.40287 311.329 13.7637 307.355 15.2471C303.38 16.7304 303.38 20.6859 307.851 21.1804C312.323 21.6748 325.001 24.4811 325.995 24.9756C326.989 25.47 329.473 39.3142 329.969 41.7864C330.466 44.2586 334.183 44.9133 335.176 42.4411C336.17 39.9689 349.485 8.32497 351.074 4.36949C352.664 0.414002 349.418 0.743626 347.597 1.40287Z" fill="#FFC800" stroke="#FFC800" stroke-linecap="round"/>
<path d="M314.447 17.3248C316.394 16.5959 341.288 8.37721 345.414 7.01541C345.445 6.93912 345.471 6.87536 345.491 6.82477C346.341 4.70491 346.965 6.47148 345.992 6.82479C345.992 6.82479 345.789 6.89189 345.414 7.01541C344.147 10.1354 334.138 34.2067 333.62 35.5C333.089 36.8249 332.824 37.3254 332.558 36.0005C332.293 34.6755 329.469 22.5 328.968 22C328.467 21.5 316.099 18.9447 313.711 18.6797C311.323 18.4147 312.324 18.1198 314.447 17.3248Z" fill="white"/>
<path d="M314.447 17.3248C316.57 16.5298 345.992 6.82479 345.992 6.82479C346.965 6.47148 346.341 4.70491 345.491 6.82477C344.642 8.94463 334.15 34.1751 333.62 35.5C333.089 36.8249 332.824 37.3254 332.558 36.0005C332.293 34.6755 329.469 22.5 328.968 22C328.467 21.5 316.099 18.9447 313.711 18.6797C311.323 18.4147 312.324 18.1198 314.447 17.3248Z" stroke="#FFC800" stroke-width="1.05993" stroke-linecap="round"/>
<path d="M4.62 57.055C8.50667 60.0617 13.1817 61.565 18.645 61.565C20.6983 61.565 22.33 61.18 23.54 60.41C24.7867 59.64 25.41 58.5767 25.41 57.22C25.41 56.7067 25.3183 56.2483 25.135 55.845C24.9883 55.4417 24.6767 55.0933 24.2 54.8C23.7233 54.47 23.3017 54.2317 22.935 54.085C22.605 53.9017 22.0183 53.7183 21.175 53.535C20.3317 53.3517 19.7083 53.2233 19.305 53.15C18.9383 53.0767 18.2233 52.9667 17.16 52.82C15.95 52.6367 14.9233 52.4533 14.08 52.27C13.2367 52.0867 12.1917 51.83 10.945 51.5C9.735 51.1333 8.70833 50.6933 7.865 50.18C7.02167 49.6667 6.19667 49.0433 5.39 48.31C4.58333 47.5767 3.97833 46.66 3.575 45.56C3.17167 44.46 2.97 43.2317 2.97 41.875C2.97 38.2083 4.345 35.4217 7.095 33.515C9.88167 31.5717 13.6583 30.6 18.425 30.6C23.595 30.6 28.3983 31.7917 32.835 34.175L29.59 40.39C25.96 38.41 22.0733 37.42 17.93 37.42C15.7667 37.42 14.1167 37.7867 12.98 38.52C11.8433 39.2167 11.275 40.1883 11.275 41.435C11.275 42.1683 11.4583 42.7917 11.825 43.305C12.1917 43.8183 12.7783 44.24 13.585 44.57C14.3917 44.8633 15.125 45.1017 15.785 45.285C16.4817 45.4317 17.4167 45.5967 18.59 45.78C23.1367 46.5133 26.345 47.32 28.215 48.2C31.955 49.96 33.825 52.8017 33.825 56.725C33.825 60.5383 32.3767 63.4717 29.48 65.525C26.62 67.5417 22.715 68.55 17.765 68.55C14.5383 68.55 11.495 68.0733 8.635 67.12C5.775 66.1667 3.33667 64.9383 1.32 63.435L4.62 57.055ZM39.5691 68V31.205H47.2141L64.7591 55.515V31.205H72.4591V68H64.9791L47.3241 43.965V68H39.5691Z" fill="#FFC800"/>
<path d="M91.8214 30.635V44.521C94.0827 42.083 96.9271 40.864 100.354 40.864C103.994 40.864 107.032 42.189 109.47 44.839C111.908 47.489 113.127 50.7927 113.127 54.75C113.127 58.7073 111.908 62.011 109.47 64.661C107.068 67.2757 104.047 68.583 100.407 68.583C96.9447 68.583 94.0474 67.3287 91.7154 64.82V68H84.3484V30.635H91.8214ZM93.7294 59.891C95.0721 61.3043 96.7504 62.011 98.7644 62.011C100.708 62.011 102.333 61.322 103.64 59.944C104.948 58.5307 105.601 56.7993 105.601 54.75C105.601 52.7007 104.93 50.987 103.587 49.609C102.28 48.1957 100.655 47.489 98.7114 47.489C96.7327 47.489 95.0544 48.1957 93.6764 49.609C92.3337 50.987 91.6624 52.7007 91.6624 54.75C91.6624 56.7993 92.3514 58.513 93.7294 59.891ZM121.117 44.627C123.767 42.0477 127.212 40.758 131.452 40.758C135.515 40.758 138.836 41.9947 141.416 44.468C143.995 46.906 145.285 50.0683 145.285 53.955C145.285 54.9797 145.232 55.863 145.126 56.605H124.191C124.473 58.4777 125.251 59.9793 126.523 61.11C127.83 62.2053 129.455 62.753 131.399 62.753C134.543 62.753 136.734 61.5517 137.971 59.149L143.96 61.693C143.076 63.7777 141.504 65.456 139.243 66.728C137.017 67.9647 134.42 68.583 131.452 68.583C127.141 68.583 123.661 67.2933 121.011 64.714C118.396 62.1347 117.089 58.8133 117.089 54.75C117.089 50.616 118.431 47.2417 121.117 44.627ZM124.244 52.206H138.13C137.847 50.51 137.087 49.132 135.851 48.072C134.614 46.9767 133.112 46.429 131.346 46.429C129.614 46.429 128.095 46.959 126.788 48.019C125.48 49.079 124.632 50.4747 124.244 52.206ZM150.675 68V41.341H157.936V44.521C159.561 42.0123 162.017 40.758 165.303 40.758C166.434 40.758 167.529 40.9523 168.589 41.341L168.536 48.708C167.299 48.2487 166.045 48.019 164.773 48.019C162.688 48.019 161.063 48.655 159.897 49.927C158.766 51.1637 158.201 52.8597 158.201 55.015V68H150.675ZM175.066 44.786C177.539 42.1713 180.613 40.864 184.288 40.864C187.574 40.864 190.365 42.0653 192.662 44.468V30.635H200.082V68H192.821V64.82C190.524 67.3287 187.609 68.583 184.076 68.583C180.436 68.583 177.398 67.258 174.96 64.608C172.557 61.958 171.356 58.6543 171.356 54.697C171.356 50.7397 172.592 47.436 175.066 44.786ZM180.79 59.891C182.097 61.3043 183.74 62.011 185.719 62.011C187.768 62.011 189.464 61.322 190.807 59.944C192.185 58.566 192.874 56.8347 192.874 54.75C192.874 52.7007 192.185 50.987 190.807 49.609C189.464 48.1957 187.786 47.489 185.772 47.489C183.793 47.489 182.132 48.1957 180.79 49.609C179.447 50.987 178.776 52.7007 178.776 54.75C178.776 56.7993 179.447 58.513 180.79 59.891ZM207.064 68V41.341H214.749V68H207.064ZM206.269 33.656C206.269 32.384 206.711 31.3063 207.594 30.423C208.513 29.5397 209.626 29.098 210.933 29.098C212.24 29.098 213.336 29.5397 214.219 30.423C215.102 31.3063 215.544 32.384 215.544 33.656C215.544 34.9633 215.102 36.0587 214.219 36.942C213.336 37.8607 212.24 38.32 210.933 38.32C209.626 38.32 208.513 37.8783 207.594 36.995C206.711 36.0763 206.269 34.9633 206.269 33.656ZM221.724 30.847H229.25V52.418L239.002 41.341H247.853L236.405 54.485L248.012 68H238.737L229.25 56.923V68H221.724V30.847Z" fill="white"/>
<path d="M91.8214 30.635H92.8214V29.635H91.8214V30.635ZM91.8214 44.521H90.8214V47.0696L92.5546 45.201L91.8214 44.521ZM109.47 44.839L108.734 45.5161L108.734 45.5161L109.47 44.839ZM109.47 64.661L108.734 63.9839L108.734 63.9844L109.47 64.661ZM91.7154 64.82L92.4478 64.1392L90.7154 62.2755V64.82H91.7154ZM91.7154 68V69H92.7154V68H91.7154ZM84.3484 68H83.3484V69H84.3484V68ZM84.3484 30.635V29.635H83.3484V30.635H84.3484ZM93.7294 59.891L94.4544 59.2022L94.4456 59.193L94.4365 59.1839L93.7294 59.891ZM103.64 59.944L104.366 60.6323L104.374 60.623L103.64 59.944ZM103.587 49.609L102.853 50.288L102.862 50.2976L102.871 50.3069L103.587 49.609ZM93.6764 49.609L92.9604 48.9109L92.9602 48.9111L93.6764 49.609ZM90.8214 30.635V44.521H92.8214V30.635H90.8214ZM92.5546 45.201C94.6202 42.974 97.1956 41.864 100.354 41.864V39.864C96.6585 39.864 93.5453 41.192 91.0882 43.841L92.5546 45.201ZM100.354 41.864C103.717 41.864 106.488 43.0744 108.734 45.5161L110.206 44.1619C107.577 41.3036 104.27 39.864 100.354 39.864V41.864ZM108.734 45.5161C110.985 47.9626 112.127 51.0165 112.127 54.75H114.127C114.127 50.5688 112.832 47.0154 110.206 44.1619L108.734 45.5161ZM112.127 54.75C112.127 58.4835 110.985 61.5374 108.734 63.9839L110.206 65.3381C112.832 62.4846 114.127 58.9312 114.127 54.75H112.127ZM108.734 63.9844C106.526 66.3872 103.775 67.583 100.407 67.583V69.583C104.319 69.583 107.609 68.1641 110.207 65.3376L108.734 63.9844ZM100.407 67.583C97.2191 67.583 94.5883 66.4418 92.4478 64.1392L90.983 65.5008C93.5065 68.2156 96.6703 69.583 100.407 69.583V67.583ZM90.7154 64.82V68H92.7154V64.82H90.7154ZM91.7154 67H84.3484V69H91.7154V67ZM85.3484 68V30.635H83.3484V68H85.3484ZM84.3484 31.635H91.8214V29.635H84.3484V31.635ZM93.0044 60.5797C94.5428 62.1991 96.4865 63.011 98.7644 63.011V61.011C97.0143 61.011 95.6013 60.4096 94.4544 59.2022L93.0044 60.5797ZM98.7644 63.011C100.975 63.011 102.865 62.2144 104.366 60.6323L102.915 59.2557C101.801 60.4296 100.441 61.011 98.7644 61.011V63.011ZM104.374 60.623C105.864 59.0123 106.601 57.0333 106.601 54.75H104.601C104.601 56.5654 104.031 58.0491 102.906 59.265L104.374 60.623ZM106.601 54.75C106.601 52.4587 105.841 50.4889 104.304 48.9111L102.871 50.3069C104.019 51.4851 104.601 52.9426 104.601 54.75H106.601ZM104.321 48.93C102.823 47.3098 100.93 46.489 98.7114 46.489V48.489C100.379 48.489 101.737 49.0815 102.853 50.288L104.321 48.93ZM98.7114 46.489C96.4638 46.489 94.5271 47.304 92.9604 48.9109L94.3924 50.3071C95.5817 49.0873 97.0016 48.489 98.7114 48.489V46.489ZM92.9602 48.9111C91.4229 50.4889 90.6624 52.4587 90.6624 54.75H92.6624C92.6624 52.9426 93.2446 51.4851 94.3926 50.3069L92.9602 48.9111ZM90.6624 54.75C90.6624 57.0493 91.4462 59.0221 93.0223 60.5981L94.4365 59.1839C93.2565 58.0039 92.6624 56.5493 92.6624 54.75H90.6624ZM121.117 44.627L120.419 43.9104L120.419 43.9105L121.117 44.627ZM141.416 44.468L140.724 45.1898L140.729 45.1947L141.416 44.468ZM145.126 56.605V57.605H145.993L146.116 56.7464L145.126 56.605ZM124.191 56.605V55.605H123.028L123.202 56.7543L124.191 56.605ZM126.523 61.11L125.858 61.8574L125.869 61.8671L125.881 61.8765L126.523 61.11ZM137.971 59.149L138.362 58.2286L137.507 57.8654L137.082 58.6914L137.971 59.149ZM143.96 61.693L144.88 62.0831L145.27 61.1632L144.351 60.7726L143.96 61.693ZM139.243 66.728L139.728 67.6022L139.733 67.5996L139.243 66.728ZM121.011 64.714L120.308 65.4259L120.313 65.4306L121.011 64.714ZM124.244 52.206L123.268 51.987L122.994 53.206H124.244V52.206ZM138.13 52.206V53.206H139.31L139.116 52.0416L138.13 52.206ZM135.851 48.072L135.188 48.8206L135.194 48.826L135.2 48.8313L135.851 48.072ZM126.788 48.019L126.158 47.2422L126.158 47.2422L126.788 48.019ZM121.814 45.3436C124.25 42.9729 127.431 41.758 131.452 41.758V39.758C126.992 39.758 123.284 41.1225 120.419 43.9104L121.814 45.3436ZM131.452 41.758C135.295 41.758 138.356 42.9198 140.724 45.1898L142.108 43.7462C139.316 41.0695 135.735 39.758 131.452 39.758V41.758ZM140.729 45.1947C143.088 47.4248 144.285 50.3143 144.285 53.955H146.285C146.285 49.8224 144.902 46.3872 142.103 43.7413L140.729 45.1947ZM144.285 53.955C144.285 54.9482 144.233 55.7819 144.136 56.4636L146.116 56.7464C146.23 55.9441 146.285 55.0111 146.285 53.955H144.285ZM145.126 55.605H124.191V57.605H145.126V55.605ZM123.202 56.7543C123.515 58.8303 124.392 60.5537 125.858 61.8574L127.187 60.3626C126.11 59.405 125.431 58.125 125.18 56.4557L123.202 56.7543ZM125.881 61.8765C127.393 63.1436 129.255 63.753 131.399 63.753V61.753C129.656 61.753 128.267 61.2671 127.165 60.3435L125.881 61.8765ZM131.399 63.753C133.096 63.753 134.605 63.4286 135.881 62.7288C137.166 62.0244 138.158 60.9701 138.86 59.6066L137.082 58.6914C136.547 59.7305 135.826 60.4783 134.919 60.9752C134.005 61.4767 132.846 61.753 131.399 61.753V63.753ZM137.58 60.0694L143.569 62.6134L144.351 60.7726L138.362 58.2286L137.58 60.0694ZM143.039 61.3029C142.254 63.1548 140.85 64.6763 138.752 65.8564L139.733 67.5996C142.158 66.2357 143.899 64.4006 144.88 62.0831L143.039 61.3029ZM138.757 65.8538C136.703 66.9952 134.278 67.583 131.452 67.583V69.583C134.561 69.583 137.331 68.9341 139.728 67.6022L138.757 65.8538ZM131.452 67.583C127.355 67.583 124.141 66.365 121.708 63.9974L120.313 65.4306C123.181 68.2216 126.927 69.583 131.452 69.583V67.583ZM121.713 64.0021C119.31 61.6316 118.089 58.577 118.089 54.75H116.089C116.089 59.0496 117.482 62.6378 120.308 65.4259L121.713 64.0021ZM118.089 54.75C118.089 50.8552 119.343 47.7495 121.814 45.3435L120.419 43.9105C117.52 46.7338 116.089 50.3768 116.089 54.75H118.089ZM124.244 53.206H138.13V51.206H124.244V53.206ZM139.116 52.0416C138.797 50.128 137.927 48.5345 136.502 47.3127L135.2 48.8313C136.248 49.7295 136.897 50.892 137.143 52.3704L139.116 52.0416ZM136.514 47.3234C135.081 46.0543 133.338 45.429 131.346 45.429V47.429C132.887 47.429 134.147 47.8991 135.188 48.8206L136.514 47.3234ZM131.346 45.429C129.392 45.429 127.649 46.0334 126.158 47.2422L127.418 48.7958C128.541 47.8846 129.837 47.429 131.346 47.429V45.429ZM126.158 47.2422C124.666 48.452 123.703 50.0489 123.268 51.987L125.219 52.425C125.562 50.9004 126.295 49.706 127.418 48.7958L126.158 47.2422ZM150.675 68H149.675V69H150.675V68ZM150.675 41.341V40.341H149.675V41.341H150.675ZM157.936 41.341H158.936V40.341H157.936V41.341ZM157.936 44.521H156.936V47.9036L158.775 45.0647L157.936 44.521ZM168.589 41.341L169.589 41.3482L169.594 40.6444L168.933 40.4021L168.589 41.341ZM168.536 48.708L168.188 49.6454L169.526 50.1424L169.536 48.7152L168.536 48.708ZM159.897 49.927L159.16 49.2513L159.159 49.2522L159.897 49.927ZM158.201 68V69H159.201V68H158.201ZM151.675 68V41.341H149.675V68H151.675ZM150.675 42.341H157.936V40.341H150.675V42.341ZM156.936 41.341V44.521H158.936V41.341H156.936ZM158.775 45.0647C160.196 42.8726 162.316 41.758 165.303 41.758V39.758C161.718 39.758 158.927 41.1521 157.097 43.9773L158.775 45.0647ZM165.303 41.758C166.316 41.758 167.295 41.9317 168.245 42.2799L168.933 40.4021C167.763 39.973 166.551 39.758 165.303 39.758V41.758ZM167.589 41.3338L167.536 48.7008L169.536 48.7152L169.589 41.3482L167.589 41.3338ZM168.884 47.7706C167.54 47.2714 166.168 47.019 164.773 47.019V49.019C165.922 49.019 167.058 49.2259 168.188 49.6454L168.884 47.7706ZM164.773 47.019C162.471 47.019 160.554 47.7303 159.16 49.2513L160.634 50.6027C161.572 49.5797 162.905 49.019 164.773 49.019V47.019ZM159.159 49.2522C157.816 50.7213 157.201 52.6837 157.201 55.015H159.201C159.201 53.0356 159.717 51.6061 160.635 50.6018L159.159 49.2522ZM157.201 55.015V68H159.201V55.015H157.201ZM158.201 67H150.675V69H158.201V67ZM175.066 44.786L174.339 44.0988L174.335 44.1037L175.066 44.786ZM192.662 44.468L191.939 45.159L193.662 46.9614V44.468H192.662ZM192.662 30.635V29.635H191.662V30.635H192.662ZM200.082 30.635H201.082V29.635H200.082V30.635ZM200.082 68V69H201.082V68H200.082ZM192.821 68H191.821V69H192.821V68ZM192.821 64.82H193.821V62.2468L192.083 64.1447L192.821 64.82ZM174.96 64.608L174.219 65.2797L174.224 65.2851L174.96 64.608ZM180.79 59.891L181.524 59.212L181.515 59.2024L181.506 59.1931L180.79 59.891ZM190.807 59.944L190.1 59.2368L190.091 59.2461L190.807 59.944ZM190.807 49.609L190.082 50.2977L190.091 50.307L190.1 50.3161L190.807 49.609ZM180.79 49.609L181.506 50.3069L181.515 50.2977L180.79 49.609ZM175.792 45.4732C178.072 43.0629 180.881 41.864 184.288 41.864V39.864C180.345 39.864 177.006 41.2798 174.339 44.0988L175.792 45.4732ZM184.288 41.864C187.297 41.864 189.828 42.9511 191.939 45.159L193.385 43.777C190.902 41.1795 187.85 39.864 184.288 39.864V41.864ZM193.662 44.468V30.635H191.662V44.468H193.662ZM192.662 31.635H200.082V29.635H192.662V31.635ZM199.082 30.635V68H201.082V30.635H199.082ZM200.082 67H192.821V69H200.082V67ZM193.821 68V64.82H191.821V68H193.821ZM192.083 64.1447C189.984 66.4376 187.341 67.583 184.076 67.583V69.583C187.877 69.583 191.064 68.2198 193.558 65.4953L192.083 64.1447ZM184.076 67.583C180.713 67.583 177.942 66.3726 175.696 63.9309L174.224 65.2851C176.853 68.1434 180.16 69.583 184.076 69.583V67.583ZM175.701 63.9363C173.483 61.4904 172.356 58.4346 172.356 54.697H170.356C170.356 58.8741 171.631 62.4256 174.219 65.2797L175.701 63.9363ZM172.356 54.697C172.356 50.9677 173.513 47.9154 175.797 45.4683L174.335 44.1037C171.672 46.9566 170.356 50.5117 170.356 54.697H172.356ZM180.056 60.57C181.558 62.1943 183.47 63.011 185.719 63.011V61.011C184.01 61.011 182.636 60.4143 181.524 59.212L180.056 60.57ZM185.719 63.011C188.018 63.011 189.979 62.2266 191.523 60.6419L190.091 59.2461C188.949 60.4174 187.518 61.011 185.719 61.011V63.011ZM191.514 60.6511C193.093 59.0716 193.874 57.0794 193.874 54.75H191.874C191.874 56.5899 191.276 58.0604 190.1 59.2369L191.514 60.6511ZM193.874 54.75C193.874 52.4507 193.09 50.4779 191.514 48.9019L190.1 50.3161C191.28 51.4961 191.874 52.9507 191.874 54.75H193.874ZM191.532 48.9203C189.993 47.3009 188.05 46.489 185.772 46.489V48.489C187.522 48.489 188.935 49.0904 190.082 50.2977L191.532 48.9203ZM185.772 46.489C183.524 46.489 181.599 47.3048 180.065 48.9203L181.515 50.2977C182.665 49.0865 184.063 48.489 185.772 48.489V46.489ZM180.074 48.9111C178.536 50.4889 177.776 52.4587 177.776 54.75H179.776C179.776 52.9426 180.358 51.4851 181.506 50.3069L180.074 48.9111ZM177.776 54.75C177.776 57.0413 178.536 59.0111 180.074 60.5889L181.506 59.1931C180.358 58.0149 179.776 56.5574 179.776 54.75H177.776ZM207.064 68H206.064V69H207.064V68ZM207.064 41.341V40.341H206.064V41.341H207.064ZM214.749 41.341H215.749V40.341H214.749V41.341ZM214.749 68V69H215.749V68H214.749ZM207.594 30.423L206.901 29.7022L206.894 29.709L206.887 29.7159L207.594 30.423ZM214.219 30.423L214.926 29.7159L214.926 29.7159L214.219 30.423ZM214.219 36.942L213.512 36.2349L213.505 36.2418L213.498 36.2489L214.219 36.942ZM207.594 36.995L206.873 37.6881L206.887 37.7022L206.901 37.7158L207.594 36.995ZM208.064 68V41.341H206.064V68H208.064ZM207.064 42.341H214.749V40.341H207.064V42.341ZM213.749 41.341V68H215.749V41.341H213.749ZM214.749 67H207.064V69H214.749V67ZM207.269 33.656C207.269 32.6438 207.609 31.8221 208.301 31.1301L206.887 29.7159C205.812 30.7906 205.269 32.1242 205.269 33.656H207.269ZM208.287 31.1438C209.014 30.4447 209.877 30.098 210.933 30.098V28.098C209.375 28.098 208.011 28.6346 206.901 29.7022L208.287 31.1438ZM210.933 30.098C211.989 30.098 212.826 30.4438 213.512 31.1301L214.926 29.7159C213.846 28.6355 212.492 28.098 210.933 28.098V30.098ZM213.512 31.1301C214.204 31.8221 214.544 32.6438 214.544 33.656H216.544C216.544 32.1242 216.001 30.7906 214.926 29.7159L213.512 31.1301ZM214.544 33.656C214.544 34.7119 214.198 35.5486 213.512 36.2349L214.926 37.6491C216.007 36.5687 216.544 35.2148 216.544 33.656H214.544ZM213.498 36.2489C212.809 36.9659 211.976 37.32 210.933 37.32V39.32C212.505 39.32 213.863 38.7555 214.94 37.6351L213.498 36.2489ZM210.933 37.32C209.877 37.32 209.014 36.9733 208.287 36.2742L206.901 37.7158C208.011 38.7834 209.375 39.32 210.933 39.32V37.32ZM208.315 36.3019C207.616 35.5748 207.269 34.7123 207.269 33.656H205.269C205.269 35.2143 205.806 36.5779 206.873 37.6881L208.315 36.3019ZM221.724 30.847V29.847H220.724V30.847H221.724ZM229.25 30.847H230.25V29.847H229.25V30.847ZM229.25 52.418H228.25V55.0672L230.001 53.0788L229.25 52.418ZM239.002 41.341V40.341H238.55L238.251 40.6802L239.002 41.341ZM247.853 41.341L248.607 41.9978L250.05 40.341H247.853V41.341ZM236.405 54.485L235.651 53.8282L235.083 54.4804L235.646 55.1365L236.405 54.485ZM248.012 68V69H250.189L248.771 67.3485L248.012 68ZM238.737 68L237.977 68.6505L238.277 69H238.737V68ZM229.25 56.923L230.009 56.2725L228.25 54.2181V56.923H229.25ZM229.25 68V69H230.25V68H229.25ZM221.724 68H220.724V69H221.724V68ZM221.724 31.847H229.25V29.847H221.724V31.847ZM228.25 30.847V52.418H230.25V30.847H228.25ZM230.001 53.0788L239.753 42.0018L238.251 40.6802L228.499 51.7572L230.001 53.0788ZM239.002 42.341H247.853V40.341H239.002V42.341ZM247.099 40.6842L235.651 53.8282L237.159 55.1418L248.607 41.9978L247.099 40.6842ZM235.646 55.1365L247.253 68.6515L248.771 67.3485L237.164 53.8335L235.646 55.1365ZM248.012 67H238.737V69H248.012V67ZM239.496 67.3495L230.009 56.2725L228.49 57.5735L237.977 68.6505L239.496 67.3495ZM228.25 56.923V68H230.25V56.923H228.25ZM229.25 67H221.724V69H229.25V67ZM222.724 68V30.847H220.724V68H222.724Z" fill="black"/>
<path d="M284.633 68V41.341H291.894V44.521C293.52 42.0123 295.975 40.758 299.261 40.758C300.392 40.758 301.487 40.9523 302.547 41.341L302.494 48.708C301.258 48.2487 300.003 48.019 298.731 48.019C296.647 48.019 295.021 48.655 293.855 49.927C292.725 51.1637 292.159 52.8597 292.159 55.015V68H284.633ZM307.367 68V41.341H315.052V68H307.367ZM306.572 33.656C306.572 32.384 307.014 31.3063 307.897 30.423C308.816 29.5397 309.929 29.098 311.236 29.098C312.544 29.098 313.639 29.5397 314.522 30.423C315.406 31.3063 315.847 32.384 315.847 33.656C315.847 34.9633 315.406 36.0587 314.522 36.942C313.639 37.8607 312.544 38.32 311.236 38.32C309.929 38.32 308.816 37.8783 307.897 36.995C307.014 36.0763 306.572 34.9633 306.572 33.656Z" fill="white"/>
<path d="M284.633 68H283.633V69H284.633V68ZM284.633 41.341V40.341H283.633V41.341H284.633ZM291.894 41.341H292.894V40.341H291.894V41.341ZM291.894 44.521H290.894V47.9036L292.734 45.0647L291.894 44.521ZM302.547 41.341L303.547 41.3482L303.552 40.6444L302.892 40.4021L302.547 41.341ZM302.494 48.708L302.146 49.6454L303.484 50.1424L303.494 48.7152L302.494 48.708ZM293.855 49.927L293.118 49.2513L293.117 49.2522L293.855 49.927ZM292.159 68V69H293.159V68H292.159ZM285.633 68V41.341H283.633V68H285.633ZM284.633 42.341H291.894V40.341H284.633V42.341ZM290.894 41.341V44.521H292.894V41.341H290.894ZM292.734 45.0647C294.154 42.8726 296.274 41.758 299.261 41.758V39.758C295.676 39.758 292.885 41.1521 291.055 43.9773L292.734 45.0647ZM299.261 41.758C300.275 41.758 301.253 41.9317 302.203 42.2799L302.892 40.4021C301.721 39.973 300.509 39.758 299.261 39.758V41.758ZM301.547 41.3338L301.494 48.7008L303.494 48.7152L303.547 41.3482L301.547 41.3338ZM302.842 47.7706C301.499 47.2714 300.127 47.019 298.731 47.019V49.019C299.88 49.019 301.017 49.2259 302.146 49.6454L302.842 47.7706ZM298.731 47.019C296.43 47.019 294.512 47.7303 293.118 49.2513L294.592 50.6027C295.53 49.5797 296.864 49.019 298.731 49.019V47.019ZM293.117 49.2522C291.774 50.7213 291.159 52.6837 291.159 55.015H293.159C293.159 53.0356 293.675 51.6061 294.593 50.6018L293.117 49.2522ZM291.159 55.015V68H293.159V55.015H291.159ZM292.159 67H284.633V69H292.159V67ZM307.367 68H306.367V69H307.367V68ZM307.367 41.341V40.341H306.367V41.341H307.367ZM315.052 41.341H316.052V40.341H315.052V41.341ZM315.052 68V69H316.052V68H315.052ZM307.897 30.423L307.204 29.7022L307.197 29.709L307.19 29.7159L307.897 30.423ZM314.522 30.423L315.23 29.7159L315.23 29.7159L314.522 30.423ZM314.522 36.942L313.815 36.2349L313.808 36.2418L313.802 36.2489L314.522 36.942ZM307.897 36.995L307.177 37.6881L307.19 37.7022L307.204 37.7158L307.897 36.995ZM308.367 68V41.341H306.367V68H308.367ZM307.367 42.341H315.052V40.341H307.367V42.341ZM314.052 41.341V68H316.052V41.341H314.052ZM315.052 67H307.367V69H315.052V67ZM307.572 33.656C307.572 32.6438 307.913 31.8221 308.605 31.1301L307.19 29.7159C306.116 30.7906 305.572 32.1242 305.572 33.656H307.572ZM308.591 31.1438C309.318 30.4447 310.18 30.098 311.236 30.098V28.098C309.678 28.098 308.315 28.6346 307.204 29.7022L308.591 31.1438ZM311.236 30.098C312.292 30.098 313.129 30.4438 313.815 31.1301L315.23 29.7159C314.149 28.6355 312.795 28.098 311.236 28.098V30.098ZM313.815 31.1301C314.507 31.8221 314.847 32.6438 314.847 33.656H316.847C316.847 32.1242 316.304 30.7906 315.23 29.7159L313.815 31.1301ZM314.847 33.656C314.847 34.7119 314.502 35.5486 313.815 36.2349L315.23 37.6491C316.31 36.5687 316.847 35.2148 316.847 33.656H314.847ZM313.802 36.2489C313.112 36.9659 312.28 37.32 311.236 37.32V39.32C312.808 39.32 314.166 38.7555 315.243 37.6351L313.802 36.2489ZM311.236 37.32C310.18 37.32 309.318 36.9733 308.591 36.2742L307.204 37.7158C308.315 38.7834 309.678 39.32 311.236 39.32V37.32ZM308.618 36.3019C307.919 35.5748 307.572 34.7123 307.572 33.656H305.572C305.572 35.2143 306.109 36.5779 307.177 37.6881L308.618 36.3019Z" fill="black"/>
</svg>
