<svg width="240" height="324" viewBox="0 0 240 324" fill="none" xmlns="http://www.w3.org/2000/svg">
<g clip-path="url(#clip0_5005_2137)">
<g opacity="0.15">
<path opacity="0.15" d="M17.9774 171.445H-16.9922" stroke="#474747" stroke-width="5.01972" stroke-miterlimit="10" stroke-linecap="round" stroke-linejoin="round"/>
<path opacity="0.15" d="M0.485176 171.445H-34.4844V188.511H0.485176V171.445Z" stroke="#474747" stroke-width="5.01972" stroke-miterlimit="10" stroke-linecap="round" stroke-linejoin="round"/>
<path opacity="0.15" d="M17.9774 188.598H-16.9922V205.664H17.9774V188.598Z" stroke="#474747" stroke-width="5.01972" stroke-miterlimit="10" stroke-linecap="round" stroke-linejoin="round"/>
<path opacity="0.15" d="M134.523 216.16H169.537V233.182H134.523" stroke="#474747" stroke-width="5.01972" stroke-miterlimit="10" stroke-linecap="round" stroke-linejoin="round"/>
<path opacity="0.15" d="M204.516 233.184H169.547" stroke="#474747" stroke-width="5.01972" stroke-miterlimit="10" stroke-linecap="round" stroke-linejoin="round"/>
<path opacity="0.15" d="M169.547 216.16H182.953" stroke="#474747" stroke-width="5.01972" stroke-miterlimit="10" stroke-linecap="round" stroke-linejoin="round"/>
<path opacity="0.15" d="M187.016 233.184H152.047V250.249H187.016V233.184Z" stroke="#474747" stroke-width="5.01972" stroke-miterlimit="10" stroke-linecap="round" stroke-linejoin="round"/>
<path opacity="0.15" d="M140.008 250.334H169.553V267.4H158.22" stroke="#474747" stroke-width="5.01972" stroke-miterlimit="10" stroke-linecap="round" stroke-linejoin="round"/>
<path opacity="0.15" d="M192.081 267.4H169.547V250.334H198.696" stroke="#474747" stroke-width="5.01972" stroke-miterlimit="10" stroke-linecap="round" stroke-linejoin="round"/>
<path opacity="0.15" d="M74.7375 90.4805H20.4531V134.49H74.7375V90.4805Z" stroke="#474747" stroke-width="5.01972" stroke-miterlimit="10" stroke-linecap="round" stroke-linejoin="round"/>
<path opacity="0.15" d="M27.9453 124.303L37.8673 109.883L48.1862 122.627" stroke="#474747" stroke-width="5.01972" stroke-miterlimit="10" stroke-linecap="round" stroke-linejoin="round"/>
<path opacity="0.15" d="M44.3984 117.954L58.2892 104.504L68.123 124.304" stroke="#474747" stroke-width="5.01972" stroke-miterlimit="10" stroke-linecap="round" stroke-linejoin="round"/>
<path opacity="0.15" d="M40.7812 113.455C41.4868 111.382 43.4271 109.883 45.7202 109.883C47.6164 109.883 49.2921 110.897 50.2182 112.44" stroke="#474747" stroke-width="5.01972" stroke-miterlimit="10" stroke-linecap="round" stroke-linejoin="round"/>
<path opacity="0.15" d="M215.89 164.213H138.675C135.809 164.213 133.516 161.92 133.516 159.054C133.516 156.188 135.809 153.895 138.675 153.895H215.89C218.757 153.895 221.05 156.188 221.05 159.054C221.05 161.92 218.757 164.213 215.89 164.213Z" stroke="#474747" stroke-width="5.01972" stroke-miterlimit="10" stroke-linecap="round" stroke-linejoin="round"/>
<path opacity="0.15" d="M189.336 153.894H166.713L162.039 125.01H194.054L189.336 153.894Z" stroke="#474747" stroke-width="5.01972" stroke-miterlimit="10" stroke-linecap="round" stroke-linejoin="round"/>
<path opacity="0.15" d="M198.484 116.631H157.781V125.009H198.484V116.631Z" stroke="#474747" stroke-width="5.01972" stroke-miterlimit="10" stroke-linecap="round" stroke-linejoin="round"/>
<g opacity="0.15">
<path opacity="0.15" d="M183.309 116.63C180.53 116.63 177.752 116.63 174.974 116.63C172.681 108.649 170.697 100.27 170.961 92.068C171.27 88.1433 175.503 84.8359 179.163 84.8359C182.824 84.8359 187.057 88.1433 187.366 92.068C187.542 100.27 185.558 108.649 183.309 116.63Z" stroke="#474747" stroke-width="5.01972" stroke-miterlimit="10" stroke-linecap="round" stroke-linejoin="round"/>
</g>
<path opacity="0.15" d="M187.547 91.0991L193.324 81.5299C194.426 79.6778 196.94 79.2809 198.571 80.692C200.203 82.1032 200.159 84.6167 198.483 85.9838L187.635 94.8915" stroke="#474747" stroke-width="5.01972" stroke-miterlimit="10" stroke-linecap="round" stroke-linejoin="round"/>
<path opacity="0.15" d="M193.419 81.4406L190.685 72.8856C190.244 71.5627 191.126 70.1956 192.493 70.0193C193.86 69.8429 195.05 70.9012 195.05 72.2682L194.83 79.1916" stroke="#474747" stroke-width="5.01972" stroke-miterlimit="10" stroke-linecap="round" stroke-linejoin="round"/>
</g>
<path d="M116.698 268.768L174.881 149.413L117.285 121.336L59.1016 240.691L116.698 268.768Z" fill="#77BA85"/>
<path d="M116.698 268.768L174.881 149.413L117.285 121.336L59.1016 240.691L116.698 268.768Z" stroke="#474747" stroke-width="5.01972" stroke-miterlimit="10" stroke-linecap="round" stroke-linejoin="round"/>
<path d="M152.082 146.441L133.65 137.445C130.166 144.633 121.523 147.588 114.335 144.104L68.9141 237.239L113.321 258.891L158.741 165.756C151.553 162.272 148.555 153.629 152.082 146.441Z" fill="#F6F9EA"/>
<path d="M152.082 146.441L133.65 137.445C130.166 144.633 121.523 147.588 114.335 144.104L68.9141 237.239L113.321 258.891L158.741 165.756C151.553 162.272 148.555 153.629 152.082 146.441Z" stroke="#474747" stroke-width="5.01972" stroke-miterlimit="10" stroke-linecap="round" stroke-linejoin="round"/>
<path d="M165.067 152.773L120.671 131.131L68.9219 237.285L113.318 258.928L165.067 152.773Z" stroke="#474747" stroke-width="5.01972" stroke-miterlimit="10" stroke-linecap="round" stroke-linejoin="round"/>
<path d="M121.391 200.857C129.745 200.857 136.517 194.085 136.517 185.731C136.517 177.378 129.745 170.605 121.391 170.605C113.038 170.605 106.266 177.378 106.266 185.731C106.266 194.085 113.038 200.857 121.391 200.857Z" fill="#77BA85"/>
<path d="M121.391 200.857C129.745 200.857 136.517 194.085 136.517 185.731C136.517 177.378 129.745 170.605 121.391 170.605C113.038 170.605 106.266 177.378 106.266 185.731C106.266 194.085 113.038 200.857 121.391 200.857Z" stroke="#474747" stroke-width="5.01972" stroke-miterlimit="10" stroke-linecap="round" stroke-linejoin="round"/>
<path opacity="0.15" d="M-46.9297 313.484H244.998" stroke="#474747" stroke-width="5.01972" stroke-miterlimit="10" stroke-linecap="round" stroke-linejoin="round"/>
<path d="M125.236 313.484H32.6305C18.0342 313.484 6.17188 301.622 6.17188 287.026V182.955C6.17188 168.358 18.0342 156.496 32.6305 156.496H125.236C139.832 156.496 151.695 168.358 151.695 182.955V287.026C151.695 301.666 139.876 313.484 125.236 313.484Z" fill="#F58870"/>
<path d="M125.236 313.484H32.6305C18.0342 313.484 6.17188 301.622 6.17188 287.026V182.955C6.17188 168.358 18.0342 156.496 32.6305 156.496H125.236C139.832 156.496 151.695 168.358 151.695 182.955V287.026C151.695 301.666 139.876 313.484 125.236 313.484Z" fill="#F58870"/>
<path d="M125.236 308.148H32.6305C18.0342 308.148 6.17188 296.286 6.17188 281.689V287.025C6.17188 301.622 18.0342 313.484 32.6305 313.484H125.236C139.832 313.484 151.695 301.622 151.695 287.025V281.689C151.695 296.286 139.876 308.148 125.236 308.148Z" fill="#DD7868"/>
<path d="M125.236 156.496H32.6305C18.0342 156.496 6.17188 167.388 6.17188 180.794V186.483C6.17188 173.077 18.0342 162.185 32.6305 162.185H125.236C139.832 162.185 151.695 173.077 151.695 186.483V180.794C151.695 167.388 139.876 156.496 125.236 156.496Z" fill="#FFA399"/>
<path opacity="0.3" d="M94.3598 221.099H70.547C66.1813 221.099 62.6094 217.527 62.6094 213.162V164.434C62.6094 160.068 66.1813 156.496 70.547 156.496H102.297V213.162C102.297 217.527 98.7696 221.099 94.3598 221.099Z" fill="#474747" stroke="#474747" stroke-width="5.01972" stroke-miterlimit="10" stroke-linecap="round" stroke-linejoin="round"/>
<path d="M125.236 313.484H32.6305C18.0342 313.484 6.17188 301.622 6.17188 287.026V182.955C6.17188 168.358 18.0342 156.496 32.6305 156.496H125.236C139.832 156.496 151.695 168.358 151.695 182.955V287.026C151.695 301.666 139.876 313.484 125.236 313.484Z" stroke="#474747" stroke-width="5.01972" stroke-miterlimit="10" stroke-linecap="round" stroke-linejoin="round"/>
<g opacity="0.46">
<path opacity="0.46" d="M15.8594 286.362V183.615C15.8594 174.354 23.356 166.857 32.6165 166.857H125.222C134.482 166.857 141.979 174.354 141.979 183.615V286.318C141.979 295.579 134.482 303.075 125.222 303.075H32.6165C23.356 303.12 15.8594 295.623 15.8594 286.362Z" stroke="#474747" stroke-width="3.34648" stroke-linecap="round" stroke-linejoin="round" stroke-dasharray="11.68 11.68"/>
</g>
<path d="M90.8285 216.247H67.0157C62.65 216.247 59.0781 212.675 59.0781 208.309V154.51C59.0781 150.144 62.65 146.572 67.0157 146.572H90.8285C95.1942 146.572 98.7661 150.144 98.7661 154.51V208.309C98.7661 212.675 95.2383 216.247 90.8285 216.247Z" fill="#F79765"/>
<path d="M90.8285 212.59H67.0157C62.65 212.59 59.0781 209.018 59.0781 204.652V208.312C59.0781 212.678 62.65 216.25 67.0157 216.25H90.8285C95.1942 216.25 98.7661 212.678 98.7661 208.312V204.652C98.7661 209.018 95.2383 212.59 90.8285 212.59Z" fill="#E27444"/>
<path d="M90.8285 146.572H67.0157C62.65 146.572 59.0781 150.144 59.0781 154.51V157.509C59.0781 153.143 62.65 149.571 67.0157 149.571H90.8285C95.1942 149.571 98.7661 153.143 98.7661 157.509V154.51C98.7661 150.144 95.2383 146.572 90.8285 146.572Z" fill="#FFB797"/>
<path d="M90.8285 216.247H67.0157C62.65 216.247 59.0781 212.675 59.0781 208.309V154.51C59.0781 150.144 62.65 146.572 67.0157 146.572H90.8285C95.1942 146.572 98.7661 150.144 98.7661 154.51V208.309C98.7661 212.675 95.2383 216.247 90.8285 216.247Z" stroke="#474747" stroke-width="5.01972" stroke-miterlimit="10" stroke-linecap="round" stroke-linejoin="round"/>
<path opacity="0.3" d="M80.2541 204.87C85.9044 204.87 90.4848 200.289 90.4848 194.639C90.4848 188.989 85.9044 184.408 80.2541 184.408C74.6039 184.408 70.0234 188.989 70.0234 194.639C70.0234 200.289 74.6039 204.87 80.2541 204.87Z" fill="#474747" stroke="#474747" stroke-width="5.01972" stroke-miterlimit="10" stroke-linecap="round" stroke-linejoin="round"/>
<g opacity="0.46">
<path opacity="0.46" d="M67.0131 210.96C65.5578 210.96 64.3672 209.77 64.3672 208.314V154.515C64.3672 153.06 65.5578 151.869 67.0131 151.869H90.8259C92.2811 151.869 93.4717 153.06 93.4717 154.515V208.314C93.4717 209.77 92.2811 210.96 90.8259 210.96H67.0131Z" stroke="#474747" stroke-width="3.34648" stroke-linecap="round" stroke-linejoin="round" stroke-dasharray="6.69 6.69"/>
</g>
<path d="M78.926 202.225C84.5762 202.225 89.1567 197.645 89.1567 191.994C89.1567 186.344 84.5762 181.764 78.926 181.764C73.2757 181.764 68.6953 186.344 68.6953 191.994C68.6953 197.645 73.2757 202.225 78.926 202.225Z" fill="#8F6D5D"/>
<path d="M78.926 202.225C84.5762 202.225 89.1567 197.645 89.1567 191.994C89.1567 186.344 84.5762 181.764 78.926 181.764C73.2757 181.764 68.6953 186.344 68.6953 191.994C68.6953 197.645 73.2757 202.225 78.926 202.225Z" stroke="#474747" stroke-width="5.01972" stroke-miterlimit="10" stroke-linecap="round" stroke-linejoin="round"/>
<g opacity="0.6">
<path opacity="0.6" d="M83.239 186.749C83.5918 188.425 81.6073 189.484 78.6969 190.101C75.7423 190.674 73.0965 190.762 72.7437 189.351C72.3909 187.984 74.3753 185.382 77.2858 184.544C80.2403 183.706 82.8862 185.117 83.239 186.749Z" fill="#FFFCEE"/>
</g>
<path d="M226.174 313.484H195.305C193.541 313.484 192.086 312.029 192.086 310.265V308.104C192.086 306.34 193.541 304.885 195.305 304.885H226.174C227.937 304.885 229.393 306.34 229.393 308.104V310.265C229.393 312.073 227.937 313.484 226.174 313.484Z" fill="#FDB740"/>
<path opacity="0.88" d="M226.174 305.809H195.305C193.541 305.809 192.086 307.264 192.086 309.028V310.262C192.086 308.499 193.541 307.043 195.305 307.043H226.174C227.937 307.043 229.393 308.499 229.393 310.262V309.028C229.393 307.264 227.937 305.809 226.174 305.809Z" fill="#FFF3C0"/>
<path d="M226.174 312.512H195.305C193.541 312.512 192.086 311.057 192.086 309.293V308.059C192.086 309.823 193.541 311.278 195.305 311.278H226.174C227.937 311.278 229.393 309.823 229.393 308.059V309.293C229.393 311.101 227.937 312.512 226.174 312.512Z" fill="#F29E25"/>
<path d="M226.174 313.484H195.305C193.541 313.484 192.086 312.029 192.086 310.265V308.104C192.086 306.34 193.541 304.885 195.305 304.885H226.174C227.937 304.885 229.393 306.34 229.393 308.104V310.265C229.393 312.073 227.937 313.484 226.174 313.484Z" stroke="#474747" stroke-width="5.01972" stroke-miterlimit="10" stroke-linecap="round" stroke-linejoin="round"/>
<path d="M231.33 304.927H200.461C198.697 304.927 197.242 303.472 197.242 301.708V299.547C197.242 297.783 198.697 296.328 200.461 296.328H231.33C233.094 296.328 234.549 297.783 234.549 299.547V301.708C234.505 303.516 233.094 304.927 231.33 304.927Z" fill="#FDB740"/>
<path opacity="0.88" d="M231.33 297.256H200.461C198.697 297.256 197.242 298.711 197.242 300.475V301.71C197.242 299.946 198.697 298.491 200.461 298.491H231.33C233.094 298.491 234.549 299.946 234.549 301.71V300.475C234.505 298.711 233.094 297.256 231.33 297.256Z" fill="#FFF3C0"/>
<path d="M231.33 303.96H200.461C198.697 303.96 197.242 302.505 197.242 300.741V299.506C197.242 301.27 198.697 302.725 200.461 302.725H231.33C233.094 302.725 234.549 301.27 234.549 299.506V300.741C234.505 302.549 233.094 303.96 231.33 303.96Z" fill="#F29E25"/>
<path d="M231.33 304.927H200.461C198.697 304.927 197.242 303.472 197.242 301.708V299.547C197.242 297.783 198.697 296.328 200.461 296.328H231.33C233.094 296.328 234.549 297.783 234.549 299.547V301.708C234.505 303.516 233.094 304.927 231.33 304.927Z" stroke="#474747" stroke-width="5.01972" stroke-miterlimit="10" stroke-linecap="round" stroke-linejoin="round"/>
<path d="M226.174 296.374H195.305C193.541 296.374 192.086 294.919 192.086 293.155V290.995C192.086 289.231 193.541 287.775 195.305 287.775H226.174C227.937 287.775 229.393 289.231 229.393 290.995V293.155C229.393 294.963 227.937 296.374 226.174 296.374Z" fill="#FDB740"/>
<path opacity="0.88" d="M226.174 288.742H195.305C193.541 288.742 192.086 290.197 192.086 291.961V293.196C192.086 291.432 193.541 289.977 195.305 289.977H226.174C227.937 289.977 229.393 291.432 229.393 293.196V291.961C229.393 290.153 227.937 288.742 226.174 288.742Z" fill="#FFF3C0"/>
<path d="M226.174 295.45H195.305C193.541 295.45 192.086 293.995 192.086 292.231V290.996C192.086 292.76 193.541 294.215 195.305 294.215H226.174C227.937 294.215 229.393 292.76 229.393 290.996V292.231C229.393 293.995 227.937 295.45 226.174 295.45Z" fill="#F29E25"/>
<path d="M226.174 296.374H195.305C193.541 296.374 192.086 294.919 192.086 293.155V290.995C192.086 289.231 193.541 287.775 195.305 287.775H226.174C227.937 287.775 229.393 289.231 229.393 290.995V293.155C229.393 294.963 227.937 296.374 226.174 296.374Z" stroke="#474747" stroke-width="5.01972" stroke-miterlimit="10" stroke-linecap="round" stroke-linejoin="round"/>
<path d="M191.245 289.934L170.166 312.468C168.976 313.747 166.947 313.835 165.624 312.6L164.081 311.145C162.802 309.955 162.714 307.926 163.949 306.603L185.027 284.069C186.218 282.79 188.246 282.702 189.569 283.937L191.113 285.392C192.348 286.627 192.436 288.611 191.245 289.934Z" fill="#FDB740"/>
<path opacity="0.88" d="M185.651 284.686L164.572 307.22C163.381 308.499 163.425 310.528 164.704 311.762L165.63 312.6C164.352 311.41 164.263 309.381 165.498 308.058L186.577 285.524C187.767 284.245 189.796 284.157 191.119 285.392L190.193 284.554C188.87 283.319 186.841 283.408 185.651 284.686Z" fill="#FFF3C0"/>
<path d="M190.539 289.273L169.46 311.807C168.27 313.085 166.241 313.174 164.918 311.939L163.992 311.101C165.271 312.292 167.3 312.247 168.534 310.969L189.613 288.435C190.804 287.156 190.76 285.127 189.481 283.893L190.407 284.73C191.642 285.965 191.73 287.994 190.539 289.273Z" fill="#F29E25"/>
<path d="M191.245 289.934L170.166 312.468C168.976 313.747 166.947 313.835 165.624 312.6L164.081 311.145C162.802 309.955 162.714 307.926 163.949 306.603L185.027 284.069C186.218 282.79 188.246 282.702 189.569 283.937L191.113 285.392C192.348 286.627 192.436 288.611 191.245 289.934Z" stroke="#474747" stroke-width="5.01972" stroke-miterlimit="10" stroke-linecap="round" stroke-linejoin="round"/>
</g>
<defs>
<clipPath id="clip0_5005_2137">
<rect width="240" height="324" fill="white"/>
</clipPath>
</defs>
</svg>
