<svg width="431" height="123" viewBox="0 0 431 123" fill="none" xmlns="http://www.w3.org/2000/svg">
<path d="M337.923 83.1113H331.635L329.899 78.6247H329.67C328.142 80.546 326.58 81.8778 324.987 82.6201C323.393 83.3406 321.308 83.7008 318.732 83.7008C315.544 83.7008 313.044 82.7948 311.232 80.9826C309.42 79.1487 308.514 76.5397 308.514 73.1556C308.514 69.7715 309.715 67.2389 312.116 65.5578C314.54 63.8767 318.251 62.9488 323.251 62.7741L328.982 62.6104V61.1694C328.982 57.829 327.268 56.1588 323.84 56.1588C321.242 56.1588 318.153 56.9448 314.572 58.5167L311.592 52.4581C315.369 50.4714 319.528 49.478 324.07 49.478C328.633 49.478 332.082 50.4604 334.418 52.4254C336.755 54.3685 337.923 57.2832 337.923 61.1694V83.1113ZM328.982 70.5684V67.8502L325.511 67.9485C322.869 68.0358 320.915 68.5161 319.649 69.3894C318.382 70.2409 317.749 71.5509 317.749 73.3193C317.749 75.8519 319.201 77.1182 322.105 77.1182C324.201 77.1182 325.871 76.5288 327.115 75.3498C328.36 74.149 328.982 72.5552 328.982 70.5684Z" fill="black"/>
<path d="M424.842 1.4924C424.842 1.4924 380.515 16.6001 375.657 18.4131C370.799 20.2261 370.799 25.0606 376.264 25.6649C381.729 26.2692 397.225 29.6992 398.439 30.3035C399.654 30.9078 402.69 47.8285 403.297 50.85C403.904 53.8716 408.447 54.6718 409.661 51.6502C410.876 48.6287 427.149 9.95274 429.092 5.11826C431.035 0.283781 427.068 0.686654 424.842 1.4924Z" fill="#FFB703" stroke="#FFB703" stroke-width="1.22222" stroke-linecap="round"/>
<path d="M384.318 20.9522C386.697 20.0614 417.123 10.0163 422.167 8.35186C422.205 8.25863 422.236 8.1807 422.261 8.11886C423.299 5.52792 424.062 7.68706 422.873 8.11889C422.873 8.11889 422.625 8.20091 422.167 8.35186C420.618 12.1651 408.385 41.5857 407.751 43.1664C407.103 44.7857 406.778 45.3974 406.454 43.778C406.13 42.1587 402.678 27.2775 402.066 26.6664C401.454 26.0553 386.338 22.9321 383.419 22.6082C380.5 22.2843 381.724 21.9239 384.318 20.9522Z" fill="#E67E22" stroke="#FFB703" stroke-width="1.29547" stroke-linecap="round"/>
<path d="M5.64667 69.6228C10.397 73.2976 16.1109 75.135 22.7883 75.135C25.298 75.135 27.2922 74.6644 28.7711 73.7233C30.2948 72.7822 31.0567 71.4826 31.0567 69.8244C31.0567 69.197 30.9446 68.6369 30.7206 68.1439C30.5413 67.6509 30.1604 67.2252 29.5778 66.8667C28.9952 66.4633 28.4798 66.172 28.0317 65.9928C27.6283 65.7687 26.9113 65.5446 25.8806 65.3206C24.8498 65.0965 24.088 64.9396 23.595 64.85C23.1469 64.7604 22.273 64.6259 20.9733 64.4467C19.4944 64.2226 18.2396 63.9985 17.2089 63.7744C16.1781 63.5504 14.9009 63.2367 13.3772 62.8333C11.8983 62.3852 10.6435 61.8474 9.61278 61.22C8.58204 60.5926 7.5737 59.8307 6.58778 58.9344C5.60185 58.0381 4.86241 56.9178 4.36944 55.5733C3.87648 54.2289 3.63 52.7276 3.63 51.0694C3.63 46.588 5.31056 43.182 8.67167 40.8517C12.0776 38.4765 16.6935 37.2889 22.5194 37.2889C28.8383 37.2889 34.7091 38.7454 40.1317 41.6583L36.1656 49.2544C31.7289 46.8344 26.9785 45.6244 21.9144 45.6244C19.2704 45.6244 17.2537 46.0726 15.8644 46.9689C14.4752 47.8204 13.7806 49.008 13.7806 50.5317C13.7806 51.428 14.0046 52.1898 14.4528 52.8172C14.9009 53.4446 15.618 53.96 16.6039 54.3633C17.5898 54.7219 18.4861 55.0131 19.2928 55.2372C20.1443 55.4165 21.287 55.6181 22.7211 55.8422C28.2781 56.7385 32.1994 57.7244 34.485 58.8C39.0561 60.9511 41.3417 64.4243 41.3417 69.2194C41.3417 73.8802 39.5715 77.4654 36.0311 79.975C32.5356 82.4398 27.7628 83.6722 21.7128 83.6722C17.7691 83.6722 14.0494 83.0896 10.5539 81.9244C7.05833 80.7593 4.07815 79.258 1.61333 77.4206L5.64667 69.6228ZM48.3622 83V38.0283H57.7061L79.15 67.7406V38.0283H88.5611V83H79.4189L57.8405 53.6239V83H48.3622Z" fill="#FFB703"/>
<path d="M5.64667 69.6228L6.39451 68.6561L5.23472 67.7589L4.56107 69.0613L5.64667 69.6228ZM28.7711 73.7233L28.1288 72.6835L28.1219 72.6878L28.1149 72.6922L28.7711 73.7233ZM30.7206 68.1439L29.5719 68.5616L29.5882 68.6063L29.6079 68.6496L30.7206 68.1439ZM29.5778 66.8667L28.8821 67.8716L28.9092 67.8903L28.9372 67.9076L29.5778 66.8667ZM28.0317 65.9928L27.4381 67.0612L27.5058 67.0988L27.5777 67.1276L28.0317 65.9928ZM23.595 64.85L23.3553 66.0485L23.3658 66.0506L23.3764 66.0525L23.595 64.85ZM20.9733 64.4467L20.7902 65.6551L20.7983 65.6563L20.8063 65.6574L20.9733 64.4467ZM17.2089 63.7744L16.9493 64.9688L17.2089 63.7744ZM13.3772 62.8333L13.0228 64.003L13.0435 64.0093L13.0645 64.0149L13.3772 62.8333ZM9.61278 61.22L8.97729 62.264H8.97729L9.61278 61.22ZM6.58778 58.9344L5.76562 59.8388H5.76562L6.58778 58.9344ZM4.36944 55.5733L5.51696 55.1526L4.36944 55.5733ZM8.67167 40.8517L9.36807 41.8561L9.37079 41.8542L8.67167 40.8517ZM40.1317 41.6583L41.2151 42.224L41.7742 41.1533L40.7101 40.5816L40.1317 41.6583ZM36.1656 49.2544L35.5803 50.3274L36.6729 50.9234L37.249 49.8201L36.1656 49.2544ZM15.8644 46.9689L16.5031 48.011L16.5152 48.0036L16.527 47.9959L15.8644 46.9689ZM14.4528 52.8172L13.4582 53.5276L14.4528 52.8172ZM16.6039 54.3633L16.1411 55.4946L16.1635 55.5037L16.1862 55.512L16.6039 54.3633ZM19.2928 55.2372L18.9657 56.4149L19.003 56.4252L19.041 56.4332L19.2928 55.2372ZM22.7211 55.8422L22.9157 54.6356L22.9098 54.6347L22.7211 55.8422ZM34.485 58.8L35.0054 57.6941H35.0054L34.485 58.8ZM36.0311 79.975L36.7354 80.9739L36.7379 80.9721L36.0311 79.975ZM10.5539 81.9244L10.1674 83.0839L10.5539 81.9244ZM1.61333 77.4206L0.527734 76.859L0.0511368 77.7805L0.882854 78.4005L1.61333 77.4206ZM4.89882 70.5895C9.88729 74.4485 15.8722 76.3572 22.7883 76.3572V73.9128C16.3497 73.9128 10.9068 72.1467 6.39451 68.6561L4.89882 70.5895ZM22.7883 76.3572C25.435 76.3572 27.6849 75.8633 29.4273 74.7545L28.1149 72.6922C26.8995 73.4656 25.1609 73.9128 22.7883 73.9128V76.3572ZM29.4134 74.7632C31.2629 73.6209 32.2789 71.9456 32.2789 69.8244H29.8344C29.8344 71.0196 29.3268 71.9436 28.1288 72.6835L29.4134 74.7632ZM32.2789 69.8244C32.2789 69.0501 32.1401 68.3132 31.8332 67.6381L29.6079 68.6496C29.7492 68.9605 29.8344 69.344 29.8344 69.8244H32.2789ZM31.8692 67.7262C31.5704 66.9046 30.9638 66.2845 30.2183 65.8258L28.9372 67.9076C29.357 68.1659 29.5122 68.3973 29.5719 68.5616L31.8692 67.7262ZM30.2735 65.8618C29.6471 65.4281 29.0485 65.0831 28.4856 64.858L27.5777 67.1276C27.9111 67.2609 28.3433 67.4986 28.8821 67.8716L30.2735 65.8618ZM28.6252 64.9244C28.0506 64.6051 27.1768 64.3516 26.1402 64.1262L25.6209 66.5149C26.6458 66.7377 27.2061 66.9323 27.4381 67.0612L28.6252 64.9244ZM26.1402 64.1262C25.1073 63.9017 24.3283 63.7411 23.8136 63.6475L23.3764 66.0525C23.8476 66.1382 24.5924 66.2913 25.6209 66.5149L26.1402 64.1262ZM23.8347 63.6515C23.3448 63.5535 22.4351 63.4145 21.1403 63.2359L20.8063 65.6574C22.1109 65.8374 22.9489 65.9672 23.3553 66.0485L23.8347 63.6515ZM21.1564 63.2382C19.6936 63.0166 18.4659 62.7969 17.4685 62.5801L16.9493 64.9688C18.0134 65.2001 19.2953 65.4286 20.7902 65.6551L21.1564 63.2382ZM17.4685 62.5801C16.4619 62.3613 15.2037 62.0525 13.69 61.6518L13.0645 64.0149C14.5981 64.4208 15.8944 64.7394 16.9493 64.9688L17.4685 62.5801ZM13.7317 61.6636C12.3253 61.2375 11.1704 60.7373 10.2483 60.176L8.97729 62.264C10.1166 62.9575 11.4713 63.5329 13.0228 64.003L13.7317 61.6636ZM10.2483 60.176C9.29053 59.593 8.34412 58.8793 7.40993 58.0301L5.76562 59.8388C6.80329 60.7821 7.87355 61.5922 8.97729 62.264L10.2483 60.176ZM7.40993 58.0301C6.58065 57.2762 5.94726 56.3261 5.51696 55.1526L3.22193 55.9941C3.77756 57.5094 4.62305 58.8001 5.76562 59.8388L7.40993 58.0301ZM5.51696 55.1526C5.08055 53.9624 4.85222 52.6063 4.85222 51.0694H2.40778C2.40778 52.8488 2.67242 54.4954 3.22193 55.9941L5.51696 55.1526ZM4.85222 51.0694C4.85222 46.9437 6.37161 43.9336 9.36806 41.8561L7.97527 39.8472C4.2495 42.4304 2.40778 46.2322 2.40778 51.0694H4.85222ZM9.37079 41.8542C12.5041 39.6691 16.8461 38.5111 22.5194 38.5111V36.0667C16.5409 36.0667 11.6511 37.2838 7.97254 39.8491L9.37079 41.8542ZM22.5194 38.5111C28.6421 38.5111 34.3134 39.9202 39.5533 42.735L40.7101 40.5816C35.1048 37.5705 29.0346 36.0667 22.5194 36.0667V38.5111ZM39.0482 41.0926L35.0821 48.6888L37.249 49.8201L41.2151 42.224L39.0482 41.0926ZM36.7508 48.1815C32.1342 45.6633 27.1826 44.4022 21.9144 44.4022V46.8467C26.7745 46.8467 31.3235 48.0056 35.5803 50.3274L36.7508 48.1815ZM21.9144 44.4022C19.1637 44.4022 16.8742 44.8629 15.2018 45.9419L16.527 47.9959C17.6332 47.2823 19.377 46.8467 21.9144 46.8467V44.4022ZM15.2258 45.9268C13.5044 46.9819 12.5583 48.5483 12.5583 50.5317H15.0028C15.0028 49.4677 15.446 48.6589 16.5031 48.011L15.2258 45.9268ZM12.5583 50.5317C12.5583 51.64 12.839 52.6607 13.4582 53.5276L15.4473 52.1068C15.1703 51.719 15.0028 51.216 15.0028 50.5317H12.5583ZM13.4582 53.5276C14.0823 54.4013 15.0201 55.036 16.1411 55.4946L17.0667 53.2321C16.2158 52.884 15.7196 52.4879 15.4473 52.1068L13.4582 53.5276ZM16.1862 55.512C17.1949 55.8787 18.122 56.1805 18.9657 56.4149L19.6199 54.0596C18.8503 53.8458 17.9848 53.565 17.0216 53.2147L16.1862 55.512ZM19.041 56.4332C19.9226 56.6188 21.0891 56.8243 22.5324 57.0498L22.9098 54.6347C21.4849 54.412 20.3659 54.2141 19.5446 54.0412L19.041 56.4332ZM22.5265 57.0489C28.0743 57.9437 31.8469 58.9094 33.9646 59.9059L35.0054 57.6941C32.5519 56.5395 28.482 55.5334 22.9157 54.6356L22.5265 57.0489ZM33.9646 59.9059C36.0904 60.9063 37.6117 62.1783 38.6065 63.6901C39.5988 65.1979 40.1194 67.0231 40.1194 69.2194H42.5639C42.5639 66.6206 41.9418 64.3116 40.6485 62.3463C39.3578 60.385 37.4507 58.8448 35.0054 57.6941L33.9646 59.9059ZM40.1194 69.2194C40.1194 73.5183 38.5143 76.7166 35.3243 78.9779L36.7379 80.9721C40.6287 78.2141 42.5639 74.242 42.5639 69.2194H40.1194ZM35.3268 78.9761C32.1068 81.2467 27.6115 82.45 21.7128 82.45V84.8944C27.9141 84.8944 32.9643 83.633 36.7354 80.9739L35.3268 78.9761ZM21.7128 82.45C17.8912 82.45 14.3028 81.8858 10.9404 80.7649L10.1674 83.0839C13.7961 84.2935 17.647 84.8944 21.7128 84.8944V82.45ZM10.9404 80.7649C7.54457 79.633 4.68592 78.1866 2.34381 76.4406L0.882854 78.4005C3.47038 80.3293 6.5721 81.8855 10.1674 83.0839L10.9404 80.7649ZM2.69893 77.9821L6.73227 70.1843L4.56107 69.0613L0.527734 76.859L2.69893 77.9821ZM48.3622 83H47.14V84.2222H48.3622V83ZM48.3622 38.0283V36.8061H47.14V38.0283H48.3622ZM57.7061 38.0283L58.6971 37.3131L58.3313 36.8061H57.7061V38.0283ZM79.15 67.7406L78.1589 68.4558L80.3722 71.5225V67.7406H79.15ZM79.15 38.0283V36.8061H77.9277V38.0283H79.15ZM88.5611 38.0283H89.7833V36.8061H88.5611V38.0283ZM88.5611 83V84.2222H89.7833V83H88.5611ZM79.4189 83L78.4338 83.7236L78.8001 84.2222H79.4189V83ZM57.8405 53.6239L58.8256 52.9003L56.6183 49.8954V53.6239H57.8405ZM57.8405 83V84.2222H59.0627V83H57.8405ZM49.5844 83V38.0283H47.14V83H49.5844ZM48.3622 39.2506H57.7061V36.8061H48.3622V39.2506ZM56.715 38.7436L78.1589 68.4558L80.141 67.0253L58.6971 37.3131L56.715 38.7436ZM80.3722 67.7406V38.0283H77.9277V67.7406H80.3722ZM79.15 39.2506H88.5611V36.8061H79.15V39.2506ZM87.3389 38.0283V83H89.7833V38.0283H87.3389ZM88.5611 81.7778H79.4189V84.2222H88.5611V81.7778ZM80.4039 82.2764L58.8256 52.9003L56.8555 54.3474L78.4338 83.7236L80.4039 82.2764ZM56.6183 53.6239V83H59.0627V53.6239H56.6183ZM57.8405 81.7778H48.3622V84.2222H57.8405V81.7778Z" fill="#FFB703"/>
<path d="M112.226 37.777V54.7488C114.99 51.769 118.466 50.2791 122.655 50.2791C127.103 50.2791 130.817 51.8985 133.797 55.1374C136.777 58.3763 138.266 62.4141 138.266 67.2509C138.266 72.0876 136.777 76.1254 133.797 79.3643C130.86 82.56 127.168 84.1579 122.72 84.1579C118.488 84.1579 114.946 82.6248 112.096 79.5586V83.4453H103.092V37.777H112.226ZM114.558 73.5343C116.199 75.2617 118.25 76.1254 120.712 76.1254C123.087 76.1254 125.073 75.2833 126.671 73.5991C128.269 71.8717 129.068 69.7556 129.068 67.2509C129.068 64.7461 128.247 62.6516 126.606 60.9674C125.009 59.24 123.022 58.3763 120.647 58.3763C118.228 58.3763 116.177 59.24 114.493 60.9674C112.852 62.6516 112.031 64.7461 112.031 67.2509C112.031 69.7556 112.874 71.8501 114.558 73.5343ZM148.031 54.8783C151.27 51.7258 155.481 50.1495 160.663 50.1495C165.629 50.1495 169.689 51.661 172.841 54.684C175.994 57.6638 177.57 61.5288 177.57 66.2792C177.57 67.5316 177.505 68.6112 177.375 69.5181H151.788C152.134 71.8069 153.084 73.6423 154.638 75.0242C156.236 76.3629 158.223 77.0323 160.598 77.0323C164.442 77.0323 167.119 75.564 168.63 72.6274L175.95 75.7368C174.871 78.2847 172.949 80.336 170.185 81.8906C167.464 83.4021 164.29 84.1579 160.663 84.1579C155.394 84.1579 151.14 82.5816 147.902 79.4291C144.706 76.2766 143.108 72.2172 143.108 67.2509C143.108 62.1982 144.749 58.074 148.031 54.8783ZM151.853 64.1415H168.825C168.479 62.0686 167.551 60.3844 166.039 59.0889C164.528 57.7501 162.693 57.0808 160.533 57.0808C158.417 57.0808 156.56 57.7285 154.962 59.0241C153.365 60.3196 152.328 62.0255 151.853 64.1415ZM184.158 83.4453V50.8621H193.032V54.7488C195.019 51.6826 198.02 50.1495 202.037 50.1495C203.419 50.1495 204.757 50.3871 206.053 50.8621L205.988 59.8662C204.477 59.3048 202.943 59.0241 201.389 59.0241C198.841 59.0241 196.854 59.8014 195.429 61.3561C194.047 62.8676 193.356 64.9405 193.356 67.5748V83.4453H184.158ZM213.969 55.0726C216.992 51.8769 220.749 50.2791 225.24 50.2791C229.256 50.2791 232.668 51.7474 235.475 54.684V37.777H244.544V83.4453H235.669V79.5586C232.862 82.6248 229.3 84.1579 224.981 84.1579C220.533 84.1579 216.819 82.5384 213.839 79.2995C210.903 76.0606 209.434 72.0228 209.434 67.1861C209.434 62.3493 210.946 58.3115 213.969 55.0726ZM220.965 73.5343C222.563 75.2617 224.571 76.1254 226.989 76.1254C229.494 76.1254 231.567 75.2833 233.208 73.5991C234.892 71.9149 235.734 69.7988 235.734 67.2509C235.734 64.7461 234.892 62.6516 233.208 60.9674C231.567 59.24 229.516 58.3763 227.054 58.3763C224.636 58.3763 222.606 59.24 220.965 60.9674C219.324 62.6516 218.503 64.7461 218.503 67.2509C218.503 69.7556 219.324 71.8501 220.965 73.5343ZM253.078 83.4453V50.8621H262.471V83.4453H253.078ZM252.106 41.4693C252.106 39.9146 252.646 38.5975 253.726 37.5179C254.849 36.4382 256.209 35.8984 257.807 35.8984C259.405 35.8984 260.743 36.4382 261.823 37.5179C262.903 38.5975 263.442 39.9146 263.442 41.4693C263.442 43.0672 262.903 44.4059 261.823 45.4855C260.743 46.6083 259.405 47.1698 257.807 47.1698C256.209 47.1698 254.849 46.6299 253.726 45.5503C252.646 44.4275 252.106 43.0672 252.106 41.4693ZM270.996 38.0361H280.194V64.4006L292.113 50.8621H302.931L288.939 66.927L303.125 83.4453H291.789L280.194 69.9068V83.4453H270.996V38.0361Z" fill="black"/>
<path d="M347.881 83.4453V50.8621H356.756V54.7488C358.742 51.6826 361.744 50.1495 365.76 50.1495C367.142 50.1495 368.48 50.3871 369.776 50.8621L369.711 59.8662C368.2 59.3048 366.667 59.0241 365.112 59.0241C362.564 59.0241 360.578 59.8014 359.152 61.3561C357.771 62.8676 357.08 64.9405 357.08 67.5748V83.4453H347.881ZM375.667 83.4453V50.8621H385.06V83.4453H375.667ZM374.696 41.4693C374.696 39.9146 375.235 38.5975 376.315 37.5179C377.438 36.4382 378.798 35.8984 380.396 35.8984C381.994 35.8984 383.333 36.4382 384.412 37.5179C385.492 38.5975 386.032 39.9146 386.032 41.4693C386.032 43.0672 385.492 44.4059 384.412 45.4855C383.333 46.6083 381.994 47.1698 380.396 47.1698C378.798 47.1698 377.438 46.6299 376.315 45.5503C375.235 44.4275 374.696 43.0672 374.696 41.4693Z" fill="black"/>
</svg>
