<svg width="70" height="70" viewBox="0 0 70 70" fill="none" xmlns="http://www.w3.org/2000/svg">
<g clip-path="url(#clip0_7833_5621)">
<path fill-rule="evenodd" clip-rule="evenodd" d="M31.7188 2.1875C31.4287 2.1875 31.1505 2.30273 30.9454 2.50785C30.7403 2.71297 30.6251 2.99117 30.6251 3.28125V11.4931L24.6816 7.16844C24.503 7.03703 24.2886 6.96303 24.0669 6.95625C23.9056 6.95036 23.745 6.98024 23.5966 7.04375C15.9491 10.3687 8.306 13.6937 0.658499 17.0144C0.428999 17.1118 0.239678 17.2847 0.121905 17.5045C0.00413125 17.7243 -0.0350254 17.9777 0.0109227 18.2227C0.0568709 18.4678 0.185166 18.6898 0.37455 18.8519C0.563934 19.0141 0.80304 19.1067 1.05225 19.1144H0.732874L10.2922 26.0597L0.448499 33.2172C0.262955 33.3524 0.124683 33.5427 0.053276 33.7609C-0.0181309 33.9791 -0.0190504 34.2143 0.0506477 34.433C0.120346 34.6518 0.257127 34.8431 0.441607 34.9798C0.626087 35.1165 0.84891 35.1917 1.0785 35.1947H0.866311L10.9376 39.5697V55.7659C10.9348 55.8302 10.9377 55.8947 10.9463 55.9584C10.9154 56.1978 10.9645 56.4406 11.086 56.6491C11.2074 56.8576 11.3944 57.0201 11.6179 57.1112L34.3176 66.8019C34.5363 66.9622 34.8069 67.0354 35.0766 67.0075C35.2721 66.9963 35.4609 66.9328 35.6235 66.8238L58.3822 57.1112C58.6002 57.0224 58.7836 56.8657 58.9054 56.6643C59.0272 56.463 59.0808 56.2277 59.0582 55.9934C59.0621 55.9666 59.065 55.9396 59.0669 55.9125V39.4975L69.136 35.1269H68.9063C69.1378 35.1277 69.3635 35.0551 69.5511 34.9194C69.7387 34.7838 69.8784 34.5922 69.9501 34.3721C70.0219 34.152 70.0219 33.9149 69.9503 33.6948C69.8787 33.4746 69.7391 33.2829 69.5516 33.1472L59.3819 25.7534C59.369 25.7125 59.3537 25.6723 59.336 25.6331L68.2523 19.1516H67.8979C68.1507 19.1536 68.3965 19.068 68.5934 18.9093C68.7902 18.7505 68.926 18.5285 68.9776 18.2809C69.0291 18.0334 68.9933 17.7756 68.8763 17.5514C68.7592 17.3273 68.568 17.1507 68.3354 17.0516L45.3907 7.08531C45.2558 7.02785 45.1107 6.99809 44.9641 6.99781C44.7107 6.99474 44.464 7.07979 44.2663 7.23844L39.3663 11.1759V3.28344C39.3663 2.99336 39.2511 2.71516 39.046 2.51004C38.8408 2.30492 38.5626 2.18969 38.2726 2.18969H31.7188V2.1875ZM32.8126 4.375H37.1744V19.7313C37.1743 20.0161 37.2853 20.2898 37.4839 20.494C37.6824 20.6983 37.9528 20.817 38.2376 20.825L39.8913 20.8709C39.9001 20.871 39.9088 20.871 39.9176 20.8709H42.2844L35.0263 28.4331L27.7332 20.8425H30.0738C30.0826 20.8426 30.0913 20.8426 30.1001 20.8425L31.7363 20.8075C32.0233 20.8029 32.2971 20.6856 32.4984 20.481C32.6998 20.2764 32.8126 20.0008 32.8126 19.7138V4.375ZM23.9007 9.30563L30.4763 14.0853C30.5231 14.1221 30.5729 14.155 30.6251 14.1838V18.6528L30.0694 18.6747L25.1607 18.6528C24.8941 18.6529 24.6368 18.7503 24.437 18.9267C24.2372 19.1031 24.1087 19.3465 24.0757 19.6109L12.1035 24.6684L3.28569 18.2569C10.1566 15.2709 17.0297 12.2894 23.9007 9.30563ZM45.126 9.35594L65.7016 18.2941L57.2929 24.4081L45.9069 19.5431C45.8488 19.306 45.713 19.0951 45.5211 18.944C45.3293 18.793 45.0924 18.7105 44.8482 18.7097L39.9394 18.6922L39.3663 18.6703V13.8775C39.4966 13.8377 39.6182 13.7739 39.7251 13.6894L45.126 9.35594ZM44.7935 21.4441L55.5297 26.0312L35.0001 34.8075L28.3938 31.9856L19.9151 28.3609L14.4835 26.0422L25.2919 21.4703L34.2344 30.7891C34.3366 30.8959 34.4593 30.981 34.5952 31.0391C34.7311 31.0972 34.8774 31.1272 35.0252 31.1272C35.173 31.1272 35.3193 31.0972 35.4552 31.0391C35.5912 30.981 35.7139 30.8959 35.816 30.7891L44.7935 21.4441ZM57.9294 27.3831L66.7144 33.7706L57.8616 37.6141C57.6341 37.6359 57.4191 37.7285 57.2469 37.8787L46.0994 42.7197L37.1963 36.2469L57.9294 27.3831ZM12.1407 27.4094L19.0576 30.3669L27.5385 33.9937L32.8782 36.2797L23.9029 42.8028L13.0113 38.0734C12.9206 37.8873 12.7789 37.7307 12.6027 37.6218C12.4265 37.513 12.2231 37.4565 12.016 37.4588C11.9135 37.4613 11.8119 37.4782 11.7141 37.5091L3.28787 33.8494L12.1407 27.4094ZM36.0938 38.1434L45.2879 44.8306C45.2979 44.841 45.3081 44.8512 45.3185 44.8612H45.3229C45.3805 44.9029 45.442 44.9388 45.5066 44.9684C45.5081 44.9684 45.5095 44.9684 45.511 44.9684C45.5189 44.9758 45.5269 44.9831 45.5351 44.9903C45.5932 45.0136 45.6532 45.0319 45.7144 45.045C45.7505 45.0541 45.787 45.0614 45.8238 45.0669C45.8231 45.0669 45.8245 45.0669 45.8238 45.0669C45.8577 45.0758 45.8942 45.0831 45.9288 45.0887C45.9303 45.0888 45.9317 45.0888 45.9332 45.0887C45.9449 45.0889 45.9565 45.0889 45.9682 45.0887C46.0418 45.0874 46.1151 45.0786 46.1869 45.0625C46.2209 45.0554 46.2545 45.0466 46.2876 45.0362C46.3226 45.0234 46.3569 45.0088 46.3904 44.9925C46.3947 44.9925 46.3991 44.9925 46.4035 44.9925L56.8751 40.4469V55.3744L36.0938 64.2447V38.1434ZM33.9063 38.2309V64.2447L13.1251 55.3744V40.5213L23.5966 45.0713C23.6303 45.0839 23.6646 45.0948 23.6994 45.1041C23.7246 45.1138 23.7502 45.1225 23.776 45.1303C23.7862 45.1305 23.7964 45.1305 23.8066 45.1303C23.842 45.1379 23.8778 45.1438 23.9138 45.1478C23.9502 45.1496 23.9868 45.1496 24.0232 45.1478C24.0246 45.1478 24.0261 45.1478 24.0276 45.1478C24.029 45.1478 24.0305 45.1478 24.0319 45.1478C24.0691 45.1497 24.1063 45.1497 24.1435 45.1478C24.1795 45.1438 24.2153 45.1379 24.2507 45.1303C24.4063 45.0996 24.5533 45.0354 24.6816 44.9422L33.9063 38.2309ZM44.7782 50.3584C44.643 50.3653 44.5102 50.3972 44.3866 50.4525L38.5722 52.9397C38.4318 52.9899 38.3031 53.0683 38.1941 53.1702C38.085 53.272 37.998 53.395 37.9383 53.5317C37.8786 53.6684 37.8474 53.8158 37.8468 53.965C37.8462 54.1142 37.8761 54.2619 37.9347 54.3991C37.9932 54.5363 38.0793 54.66 38.1874 54.7627C38.2956 54.8655 38.4237 54.945 38.5637 54.9963C38.7037 55.0477 38.8528 55.07 39.0017 55.0616C39.1507 55.0533 39.2963 55.0145 39.4297 54.9478L45.2463 52.465C45.4863 52.3682 45.6841 52.1894 45.8047 51.9604C45.9253 51.7315 45.9608 51.4672 45.9049 51.2145C45.8491 50.9618 45.7054 50.7372 45.4995 50.5804C45.2936 50.4237 45.0388 50.345 44.7804 50.3584H44.7782ZM50.5904 51.8503C50.4544 51.8569 50.3209 51.8888 50.1966 51.9444L44.3866 54.4272L38.5722 56.9144C38.4401 56.9707 38.3203 57.0525 38.2198 57.155C38.1193 57.2576 38.0399 57.379 37.9863 57.5123C37.9327 57.6455 37.9058 57.788 37.9073 57.9317C37.9087 58.0753 37.9384 58.2172 37.9947 58.3494C38.0511 58.4815 38.1328 58.6013 38.2354 58.7018C38.338 58.8024 38.4594 58.8817 38.5926 58.9353C38.7259 58.9889 38.8684 59.0158 39.012 59.0144C39.1557 59.0129 39.2976 58.9832 39.4297 58.9269L45.2463 56.4397L51.0607 53.9525C51.2965 53.8526 51.4897 53.6732 51.6068 53.4455C51.7239 53.2178 51.7574 52.9562 51.7014 52.7063C51.6454 52.4565 51.5036 52.2342 51.3006 52.0781C51.0975 51.9221 50.8462 51.8423 50.5904 51.8525V51.8503Z" fill="#878A99"/>
</g>
<defs>
<clipPath id="clip0_7833_5621">
<rect width="70" height="70" fill="white"/>
</clipPath>
</defs>
</svg>
